<?xml version="1.0" encoding="utf-8"?>
<!-- Generator: Adobe Illustrator 19.1.0, SVG Export Plug-In . SVG Version: 6.00 Build 0)  -->
<svg version="1.1" id="Layer_1" xmlns="http://www.w3.org/2000/svg" xmlns:xlink="http://www.w3.org/1999/xlink" x="0px" y="0px"
	 width="32px" height="32px" viewBox="0 0 32 32" style="enable-background:new 0 0 32 32;" xml:space="preserve">
<g>
	<g>
		<circle cx="23" cy="5" r="1"/>
		<circle cx="20" cy="5" r="1"/>
		<circle cx="17" cy="5" r="1"/>
	</g>
	<g>
		<path d="M32,21c0,0.90625-0.1171875,1.78125-0.3515625,2.625s-0.5678711,1.6386719-1,2.3828125
			c-0.4326172,0.7451172-0.9506836,1.421875-1.5546875,2.03125c-0.6044922,0.609375-1.2734375,1.1357422-2.0078125,1.578125
			c-0.734375,0.4433594-1.5234432,0.7841797-2.3671875,1.0234375C23.875,30.8808594,23,31,22.09375,31
			c-1.3959961,0-2.7060547-0.2578125-3.9296875-0.7734375c-1.2241211-0.515625-2.2919922-1.2236328-3.203125-2.125
			c-0.9116211-0.9003906-1.6328125-1.9609375-2.1640625-3.1796875S12,22.3964844,12,21
			c0-1.375,0.2626953-2.6689453,0.7890625-3.8828125C13.3149414,15.9042969,14.03125,14.84375,14.9374943,13.9375
			c0.9062557-0.90625,1.965826-1.6220703,3.1796932-2.1484375C19.3305664,11.2636719,20.625,11,22,11
			s2.6689453,0.2636719,3.8828125,0.7890625C27.0961914,12.3154297,28.15625,13.03125,29.0624943,13.9375
			c0.9062557,0.90625,1.622076,1.9667969,2.1484432,3.1796875C31.7368164,18.3310547,32,19.625,32,21z M14,21
			c0,0.3339844,0.0205078,0.6669922,0.0624943,1c0.0415096,0.3339844,0.1040096,0.6669922,0.1875057,1h3.796875
			c-0.0625-1.3330078-0.0625-2.6660156,0-4H14.25c-0.0834961,0.3339844-0.1459961,0.6669922-0.1875057,1
			C14.0205078,20.3339844,14,20.6669922,14,21z M18.96875,13.59375c-0.8125,0.3339844-1.5546875,0.7949219-2.2265625,1.3828125
			C16.0703125,15.5654297,15.515625,16.2402344,15.078125,17h3.125c0.0727539-0.5830078,0.1665039-1.1582031,0.28125-1.7265625
			C18.5986328,14.7060547,18.7602539,14.1464844,18.96875,13.59375z M15.078125,25
			c0.4375,0.7607422,0.9868164,1.4326172,1.6484375,2.015625c0.6611328,0.5839844,1.3984375,1.0419922,2.2109318,1.375
			c-0.2084904-0.5410156-0.3671818-1.0986328-0.4765568-1.671875C18.3515625,26.1464844,18.265625,25.5732422,18.203125,25
			H15.078125z M23.953125,23C23.984375,22.3339844,24,21.6669922,24,21c0-0.65625-0.015625-1.3222656-0.046875-2h-3.90625
			C20.015625,19.6777344,20,20.34375,20,21c0,0.6669922,0.015625,1.3339844,0.046875,2H23.953125z M22,29
			c0.21875,0,0.4140625-0.0800781,0.5859375-0.2421875c0.171875-0.1611328,0.3203125-0.3671875,0.4453125-0.6171875
			s0.234375-0.5283203,0.328125-0.8359375c0.09375-0.3066406,0.171875-0.609375,0.234375-0.90625
			s0.109375-0.5703125,0.140625-0.8203125S23.7915039,25.1357422,23.8124943,25H20.21875
			c0.0102539,0.1357422,0.0361328,0.328125,0.078125,0.578125c0.0415039,0.25,0.09375,0.5214844,0.15625,0.8125
			c0.0625,0.2919922,0.140625,0.59375,0.2343693,0.90625c0.0937557,0.3125,0.2031307,0.59375,0.3281307,0.84375
			s0.2680664,0.4560547,0.4296875,0.6171875C21.6064453,28.9199219,21.7915039,29,22,29z M22,13
			c-0.1982422,0-0.375,0.0810547-0.53125,0.2421875c-0.1562557,0.1621094-0.296875,0.3701172-0.421875,0.625
			c-0.125,0.2558594-0.2343807,0.5371094-0.328125,0.84375c-0.09375,0.3076172-0.1748047,0.609375-0.2421875,0.90625
			c-0.0678711,0.296875-0.1225586,0.5703125-0.1640682,0.8203125c-0.0419865,0.25-0.0678654,0.4375-0.0781193,0.5625H23.75
			c-0.0107422-0.1142578-0.0390625-0.2939453-0.0859375-0.5390625c-0.046875-0.2441406-0.1044922-0.515625-0.171875-0.8125
			C23.4243164,15.3515625,23.34375,15.046875,23.25,14.734375s-0.203125-0.5957031-0.328125-0.8515625
			C22.796875,13.6279297,22.65625,13.4169922,22.5,13.25C22.34375,13.0839844,22.1767578,13,22,13z M28.921875,17
			c-0.4482422-0.78125-1.0107422-1.4658203-1.6875-2.0546875c-0.6772461-0.5878906-1.4326172-1.0488281-2.265625-1.3828125
			c0.2080078,0.5527344,0.3774414,1.1152344,0.5078125,1.6875c0.1298828,0.5732422,0.2314453,1.15625,0.3046875,1.75H28.921875z
			 M25.125,28.359375c0.8017578-0.3330078,1.5258789-0.7890625,2.171875-1.3671875
			C27.9423828,26.4140625,28.484375,25.75,28.921875,25h-3.09375c-0.0522461,0.5732422-0.1328125,1.140625-0.2421875,1.703125
			S25.3227539,27.8183594,25.125,28.359375z M25.953125,19C25.984375,19.6669922,26,20.3339844,26,21
			c0,0.6669922-0.0107422,1.3339844-0.03125,2H29.75c0.0830078-0.3330078,0.1455078-0.6660156,0.1874943-1
			C29.9790039,21.6669922,30,21.3339844,30,21c0-0.3330078-0.0209961-0.6660156-0.0625057-1
			c-0.0419865-0.3330078-0.1044865-0.6660156-0.1874943-1H25.953125z"/>
	</g>
	<path d="M10.1799316,23H2V9h24v0.6974487c0.6987915,0.2474365,1.3674927,0.5546265,2,0.9210205V1H0v24h10.6974487
		C10.4695435,24.3562622,10.2957764,23.6889038,10.1799316,23z M2,3h24v4H2V3z"/>
</g>
</svg>
