<?xml version="1.0" encoding="utf-8"?>
<!-- Generator: Adobe Illustrator 19.1.0, SVG Export Plug-In . SVG Version: 6.00 Build 0)  -->
<svg version="1.1" id="Layer_1" xmlns="http://www.w3.org/2000/svg" xmlns:xlink="http://www.w3.org/1999/xlink" x="0px" y="0px"
	 width="32px" height="32px" viewBox="0 0 32 32" style="enable-background:new 0 0 32 32;" xml:space="preserve">
<g>
	<path d="M23,6v19c0,0.96875-0.1855469,1.8779297-0.5546875,2.7265625c-0.3701172,0.8496094-0.8701172,1.5888672-1.5,2.21875
		c-0.6308594,0.6308594-1.3701172,1.1308594-2.21875,1.5C17.8769531,31.8154297,16.96875,32,16,32
		s-1.8779297-0.1845703-2.7265625-0.5546875c-0.8496094-0.3691406-1.5888672-0.8691406-2.21875-1.5
		c-0.6308594-0.6298828-1.1308594-1.3691406-1.5-2.21875C9.1845703,26.8779297,9,25.96875,9,25V5
		c0-0.6875,0.1328125-1.3330078,0.3984375-1.9375c0.265625-0.6035156,0.625-1.1328125,1.078125-1.5859375
		s0.9814453-0.8125,1.5859318-1.078125C12.6660156,0.1328125,13.3124943,0,14,0
		c0.6874943,0,1.3330078,0.1328125,1.9374943,0.3984375c0.6035213,0.265625,1.1328182,0.625,1.5859432,1.078125
		s0.8125,0.9824219,1.078125,1.5859375C18.8671875,3.6669922,19,4.3125,19,5v20c0,0.4169922-0.078125,0.8076172-0.234375,1.171875
		c-0.15625,0.3652344-0.3701172,0.6826172-0.640625,0.953125c-0.2714844,0.2714844-0.5888672,0.484375-0.953125,0.640625
		C16.8066406,27.921875,16.4160156,28,16,28c-0.4169922,0-0.8076172-0.078125-1.171875-0.234375
		c-0.3652344-0.15625-0.6826172-0.3691406-0.953125-0.640625c-0.2714844-0.2705078-0.484375-0.5878906-0.640625-0.953125
		C13.078125,25.8076172,13,25.4169922,13,25V8h2v17c0,0.2714844,0.0986328,0.5058594,0.296875,0.703125
		C15.4941406,25.9013672,15.7285156,26,16,26c0.2705078,0,0.5048828-0.0986328,0.703125-0.296875
		C16.9003906,25.5058594,17,25.2714844,17,25V5c0-0.4160156-0.078125-0.8066406-0.234375-1.171875
		C16.609375,3.4638672,16.3955078,3.1464844,16.125,2.875c-0.2714844-0.2705078-0.5888672-0.484375-0.953125-0.640625
		C14.8066406,2.078125,14.4160156,2,14,2c-0.4169922,0-0.8076172,0.078125-1.171875,0.234375
		C12.4628906,2.390625,12.1455078,2.6044922,11.875,2.875c-0.2714844,0.2714844-0.484375,0.5888672-0.640625,0.953125
		C11.078125,4.1933594,11,4.5839844,11,5v20c0,0.6875,0.1328125,1.3339844,0.3984375,1.9375
		c0.265625,0.6044922,0.625,1.1328125,1.078125,1.5859375s0.9814453,0.8125,1.5859318,1.078125
		C14.6660156,29.8671875,15.3124943,30,16,30c0.6874943,0,1.3330078-0.1328125,1.9374943-0.3984375
		c0.6035213-0.265625,1.1328182-0.625,1.5859432-1.078125s0.8125-0.9814453,1.078125-1.5859375
		C20.8671875,26.3339844,21,25.6875,21,25V6H23z"/>
</g>
</svg>
