<?xml version="1.0" encoding="utf-8"?>
<!-- Generator: Adobe Illustrator 19.1.0, SVG Export Plug-In . SVG Version: 6.00 Build 0)  -->
<svg version="1.1" id="Layer_1" xmlns="http://www.w3.org/2000/svg" xmlns:xlink="http://www.w3.org/1999/xlink" x="0px" y="0px"
	 width="32px" height="32px" viewBox="0 0 32 32" style="enable-background:new 0 0 32 32;" xml:space="preserve">
<g>
	<path d="M28,24v2h-8c0,0.5522461-0.1044922,1.0703125-0.3125,1.5546875
		c-0.2084961,0.484375-0.4951172,0.9091797-0.859375,1.2734375c-0.3647461,0.3647461-0.7890625,0.6513672-1.2734375,0.859375
		C17.0703125,29.8959961,16.5517578,30,16,30c-0.5522461,0-1.0703125-0.1040039-1.5546875-0.3125
		c-0.484375-0.2080078-0.9091797-0.4946289-1.2734375-0.859375c-0.3647461-0.3642578-0.6513672-0.7890625-0.859375-1.2734375
		C12.1040039,27.0703125,12,26.5522461,12,26H4v-2h2V12c0-0.9165039,0.1196289-1.8017578,0.359375-2.65625
		c0.2392578-0.8540039,0.5751953-1.6508789,1.0078125-2.390625c0.4321289-0.7392578,0.953125-1.4140625,1.5625-2.0234375
		s1.2836914-1.1298828,2.0234375-1.5625c0.7392578-0.4321289,1.5361328-0.7680664,2.390625-1.0078125
		C14.1977539,2.1201172,15.0830078,2,16,2c0.9165039,0,1.8017578,0.1201172,2.65625,0.359375
		c0.8540039,0.2397461,1.6508789,0.5756836,2.390625,1.0078125c0.7392578,0.4326172,1.4140625,0.953125,2.0234375,1.5625
		s1.1298828,1.2841797,1.5625,2.0234375c0.4321289,0.7397461,0.7680664,1.5366211,1.0078125,2.390625
		C25.8798828,10.1982422,26,11.0834961,26,12v12H28z M24,24V12c0-1.1040039-0.2109375-2.140625-0.6328125-3.109375
		s-0.9951172-1.8149414-1.71875-2.5390625c-0.7241211-0.7236328-1.5703125-1.296875-2.5390625-1.71875S17.1040039,4,16,4
		c-1.1044922,0-2.140625,0.2109375-3.109375,0.6328125s-1.8154297,0.9951172-2.5390625,1.71875
		c-0.7241211,0.7241211-1.296875,1.5703125-1.71875,2.5390625S8,10.8959961,8,12v12H24z M16,28
		c0.28125,0,0.5415039-0.0517578,0.78125-0.15625c0.2392578-0.1040039,0.4501953-0.2470703,0.6328125-0.4296875
		c0.1821289-0.1821289,0.3251953-0.3930664,0.4296875-0.6328125C17.9477539,26.5419922,18,26.28125,18,26h-4
		c0,0.28125,0.0517578,0.5419922,0.15625,0.78125c0.1040039,0.2397461,0.2470703,0.4506836,0.4296875,0.6328125
		c0.1821289,0.1826172,0.3930664,0.3256836,0.6328125,0.4296875C15.4580078,27.9482422,15.71875,28,16,28z"/>
</g>
<g>
</g>
<g>
</g>
<g>
</g>
<g>
</g>
<g>
</g>
<g>
</g>
</svg>
