<?xml version="1.0" encoding="utf-8"?>
<!-- Generator: Adobe Illustrator 19.1.0, SVG Export Plug-In . SVG Version: 6.00 Build 0)  -->
<svg version="1.1" id="Layer_1" xmlns="http://www.w3.org/2000/svg" xmlns:xlink="http://www.w3.org/1999/xlink" x="0px" y="0px"
	 width="32px" height="32px" viewBox="0 0 32 32" style="enable-background:new 0 0 32 32;" xml:space="preserve">
<g>
	<polygon points="21,11 14.230957,18.3105469 11,15 9.6640625,16.3344727 14.230957,21 22.3359375,12.3354492 	"/>
	<path d="M16.0287323,1.6925507c0.1138,0,0.2815247,0.0290222,0.4344177,0.1673126l1.117981,1.0110779
		c0.7639923,0.6909637,1.7520294,1.0714874,2.7821045,1.0714874c0.2921753,0,0.5852966-0.0311432,0.8712463-0.0925751
		l1.4737396-0.3166351c0.0457458-0.0098267,0.092041-0.0148163,0.1375732-0.0148163
		c0.2811127,0,0.5281982,0.180542,0.6148682,0.4492493l0.4626465,1.4346008
		c0.408371,1.2662811,1.4081726,2.2660828,2.6744537,2.6744537l1.4346008,0.4626312
		c0.3178101,0.1024933,0.5045624,0.4259644,0.4344177,0.7524567l-0.3166504,1.4737396
		c-0.2794647,1.3008118,0.0864868,2.6665497,0.9789276,3.6533356l1.0110931,1.117981
		c0.2239685,0.2476501,0.2239685,0.6211853-0.0000153,0.8688507l-1.0110931,1.117981
		c-0.8924408,0.9868011-1.2583771,2.3525391-0.9788971,3.6533508l0.3166351,1.4737091
		c0.0701447,0.3264923-0.1166077,0.6499786-0.4344177,0.7524719L26.5977631,23.86586
		c-1.2662964,0.408371-2.2660828,1.4081573-2.6744537,2.6744537l-0.4626617,1.4346161
		c-0.0866547,0.268692-0.3337555,0.4492035-0.6148834,0.4492035c-0.0455475,0-0.0918427-0.0049744-0.1375427-0.0147705
		l-1.4736633-0.3166504c-0.2859039-0.0614319-0.5790558-0.0925903-0.8712769-0.0925903
		c-1.0300598-0.0000305-2.0180969,0.3804932-2.7821655,1.0715027l-1.1179352,1.0110474
		C16.3102722,30.2209473,16.1425323,30.25,16.0287323,30.25s-0.2815399-0.0290527-0.4344177-0.1672974l-1.1180115-1.0111389
		c-0.7639618-0.6908875-1.7519684-1.0714111-2.7819824-1.0714417c-0.2922516-0.0000305-0.585434,0.0311279-0.8713531,0.0925903
		l-1.4737244,0.3166504c-0.0457153,0.0097961-0.0919952,0.0147705-0.1375427,0.0147705
		c-0.2811432,0-0.5282593-0.1805115-0.6148987-0.4492188L8.13414,26.5403137
		C7.7257843,25.2740326,6.7259827,24.274231,5.4597015,23.86586l-1.4346161-0.4626617
		c-0.3178101-0.102478-0.5045624-0.4259644-0.4344025-0.7524567l0.3166199-1.4737091
		c0.2794952-1.3007965-0.086441-2.6665344-0.9789124-3.6533661l-1.0110779-1.117981
		c-0.2239838-0.2476501-0.2239838-0.6211853,0-0.8688507l1.0110779-1.1179657
		c0.8924561-0.9868011,1.2584076-2.3525543,0.9789124-3.6533508L3.5906677,9.2917633
		C3.5205231,8.9653015,3.7072906,8.6418304,4.0250854,8.5393524l1.4346161-0.4626617
		C6.7259827,7.668335,7.7257843,6.6685333,8.1341553,5.4022369l0.4626312-1.4345856
		C8.6834412,3.6989441,8.930542,3.5184021,9.2116547,3.5184021c0.0455627,0,0.0918274,0.0049896,0.1376038,0.0148315
		l1.4737396,0.3166199c0.2859039,0.0614166,0.5790253,0.0925751,0.8712311,0.0925751
		c1.0300446,0,2.0180664-0.3805237,2.7821198-1.0714874l1.1179657-1.0110779
		C15.7472076,1.7215729,15.9149475,1.6925507,16.0287323,1.6925507 M16.0287323-0.0574493
		c-0.5758514,0-1.1516876,0.2064667-1.6082611,0.6193848l-1.1179657,1.0110779
		c-0.4451752,0.4026031-1.0198669,0.6194153-1.6082764,0.6194153c-0.1676636,0-0.336441-0.0176086-0.5036469-0.0535278
		L9.7168579,1.8222656C9.5476532,1.7859192,9.3785706,1.7684174,9.2116547,1.7684174
		c-1.0205536,0-1.9556274,0.6550446-2.2803955,1.6621094L6.4686127,4.8651276
		C6.2319031,5.5991211,5.6565704,6.1744537,4.9225769,6.4111633L3.4879761,6.8738098
		C2.3161926,7.2516937,1.6210785,8.4556732,1.879715,9.6593933l0.3166351,1.4737244
		c0.1620026,0.7540283-0.048584,1.5399323-0.5658875,2.1119232l-1.0110779,1.1179657
		c-0.8258514,0.913147-0.8258514,2.3033752,0,3.2165222l1.0110779,1.1179657
		c0.5173035,0.5720062,0.72789,1.3579102,0.5658875,2.1119232L1.879715,22.2831421
		c-0.2586365,1.2037354,0.4364777,2.4077148,1.6082611,2.7855988l1.4346008,0.4626465
		c0.7339935,0.2367096,1.3093262,0.8120422,1.5460358,1.5460358l0.4626465,1.4346008
		c0.3247986,1.0071411,1.2597961,1.6621094,2.2804413,1.6621094c0.1668396,0,0.3360291-0.0174866,0.5051575-0.053833
		l1.4737244-0.3166504c0.1672516-0.0359497,0.3359375-0.0535278,0.5036316-0.0535278
		c0.5883789,0.0000305,1.1631622,0.2168579,1.6082916,0.6194153l1.1179657,1.0110779
		C14.8770447,31.7935181,15.4528809,32,16.0287323,32s1.1516876-0.2064819,1.6082611-0.6193848l1.1179657-1.0110779
		c0.4451599-0.4025879,1.0198517-0.6194153,1.6082764-0.6194153c0.1676636,0,0.3364563,0.0176086,0.5036469,0.0535278
		l1.4737244,0.3166504c0.1692047,0.0363464,0.3382416,0.053833,0.5051575,0.053833
		c1.0205536,0,1.955658-0.6550293,2.280426-1.6621094l0.4626465-1.4346008
		c0.2367096-0.7339935,0.8120422-1.3093262,1.5460358-1.5460358l1.4346008-0.4626465
		c1.1717834-0.3778839,1.8668976-1.5818634,1.6082611-2.7855988l-0.3166351-1.4737244
		c-0.1620026-0.7540131,0.048584-1.539917,0.5658875-2.1119232l1.0110779-1.1179657
		c0.8258514-0.913147,0.8258514-2.3033752,0-3.2165222l-1.0110779-1.1179657
		c-0.5173035-0.571991-0.72789-1.3578949-0.5658875-2.1119232l0.3166351-1.4737244
		c0.2586365-1.2037201-0.4364777-2.4076996-1.6082611-2.7855835l-1.4346008-0.4626465
		c-0.7339935-0.2367096-1.3093262-0.8120422-1.5460358-1.5460358l-0.4626465-1.4346008
		c-0.3247833-1.0071411-1.2597504-1.6621094-2.2803955-1.6621094c-0.1668396,0-0.3360596,0.0175171-0.505188,0.0538483
		l-1.4737244,0.3166351c-0.1672363,0.0359344-0.3359375,0.0535278-0.5036469,0.0535278
		c-0.5883789,0-1.1631622-0.2168427-1.6082764-0.6194153l-1.1179657-1.0110779
		C17.1804199,0.1490173,16.6045837-0.0574493,16.0287323-0.0574493L16.0287323-0.0574493z"/>
	<path d="M16,26.875c-5.996582,0-10.875-4.878418-10.875-10.875S10.003418,5.125,16,5.125S26.875,10.003418,26.875,16
		S21.996582,26.875,16,26.875z M16,6.875c-5.0317383,0-9.125,4.0932617-9.125,9.125s4.0932617,9.125,9.125,9.125
		s9.125-4.0932617,9.125-9.125S21.0317383,6.875,16,6.875z"/>
</g>
</svg>
