<?xml version="1.0" encoding="utf-8"?>
<!-- Generator: Adobe Illustrator 19.1.0, SVG Export Plug-In . SVG Version: 6.00 Build 0)  -->
<svg version="1.1" id="Layer_1" xmlns="http://www.w3.org/2000/svg" xmlns:xlink="http://www.w3.org/1999/xlink" x="0px" y="0px"
	 width="32px" height="32px" viewBox="0 0 32 32" style="enable-background:new 0 0 32 32;" xml:space="preserve">
<g>
	<g>
		<polygon points="29,22.2538452 29,25 26.2581177,25 24.2611694,27 31,27 31,20.2507324 		"/>
		<path d="M13.0803833,25H2V9h27v1.0111694c0.6641235,0.0141602,1.3053589,0.1452637,1.9033203,0.4102173
			C30.937561,10.4366455,30.9661865,10.4593506,31,10.4752197V2H0v25h12.581665L13.0803833,25z M2,4h27v3H2V4z"/>
	</g>
	<path d="M28.421875,20l-8.6763153,8.6919403l-5.890626,1.46875l1.46875-5.890625l2.284091-2.268465l2-2L26.6875,12.921875
		c0.2915039-0.2910156,0.6274414-0.5175781,1.0078125-0.6796875C28.0751953,12.0810547,28.4736328,12,28.890625,12
		c0.4267578,0,0.828125,0.0839844,1.203125,0.25c0.375,0.1669922,0.703125,0.390625,0.984375,0.671875
		s0.5048828,0.6123047,0.671875,0.9921875C31.9165039,14.2949219,32,14.6982422,32,15.125
		c0,0.34375-0.0390625,0.6435547-0.1171875,0.8984375c-0.078125,0.2558594-0.1875,0.4921875-0.328125,0.7109375
		s-0.3076172,0.4296875-0.5,0.6328125C30.8618164,17.5703125,30.6508789,17.78125,30.421875,18L28.421875,20z M29.7109375,15.90625
		c0.203125-0.28125,0.3046875-0.5410156,0.3046875-0.78125c0-0.3125-0.1123047-0.578125-0.3359375-0.796875
		C29.4555664,14.109375,29.1923828,14,28.890625,14c-0.3022461,0-0.5625,0.109375-0.78125,0.328125L17.1361847,25.3013153
		l-0.53125,2.109375l2.109375-0.53125L29.7109375,15.90625z"/>
</g>
<g>
</g>
<g>
</g>
<g>
</g>
<g>
</g>
<g>
</g>
<g>
</g>
<g>
</g>
<g>
</g>
<g>
</g>
<g>
</g>
<g>
</g>
<g>
</g>
<g>
</g>
<g>
</g>
<g>
</g>
</svg>
