<?xml version="1.0" encoding="utf-8"?>
<!-- Generator: Adobe Illustrator 19.1.0, SVG Export Plug-In . SVG Version: 6.00 Build 0)  -->
<svg version="1.1" id="Layer_1" xmlns="http://www.w3.org/2000/svg" xmlns:xlink="http://www.w3.org/1999/xlink" x="0px" y="0px"
	 width="32px" height="32px" viewBox="0 0 32 32" style="enable-background:new 0 0 32 32;" xml:space="preserve">
<g>
	<path d="M26,31H6V1h20V31z M8,29h16V3H8V29z"/>
	<path d="M22,11H10V5h12V11z M12,9h8V7h-8V9z"/>
	<rect x="10" y="17" width="2" height="2"/>
	<rect x="20" y="17" width="2" height="2"/>
	<rect x="15" y="17" width="2" height="2"/>
	<rect x="10" y="13" width="2" height="2"/>
	<rect x="20" y="13" width="2" height="2"/>
	<rect x="15" y="13" width="2" height="2"/>
	<rect x="10" y="21" width="2" height="2"/>
	<rect x="15" y="21" width="2" height="2"/>
	<rect x="10" y="25" width="2" height="2"/>
	<rect x="15" y="25" width="2" height="2"/>
	<rect x="20" y="21" width="2" height="6"/>
</g>
</svg>
