<?xml version="1.0" encoding="utf-8"?>
<!-- Generator: Adobe Illustrator 19.1.0, SVG Export Plug-In . SVG Version: 6.00 Build 0)  -->
<svg version="1.1" id="Layer_1" xmlns="http://www.w3.org/2000/svg" xmlns:xlink="http://www.w3.org/1999/xlink" x="0px" y="0px"
	 width="32px" height="32px" viewBox="0 0 32 32" style="enable-background:new 0 0 32 32;" xml:space="preserve">
<g>
	<path d="M16,30C8.2802734,30,2,23.7197266,2,16S8.2802734,2,16,2s14,6.2802734,14,14S23.7197266,30,16,30z M16,4
		C9.3833008,4,4,9.3833008,4,16s5.3833008,12,12,12s12-5.3833008,12-12S22.6166992,4,16,4z"/>
	<path d="M16,20c-2.2055664,0-4-1.7944336-4-4s1.7944336-4,4-4s4,1.7944336,4,4S18.2055664,20,16,20z M16,14
		c-1.1030273,0-2,0.8969727-2,2s0.8969727,2,2,2s2-0.8969727,2-2S17.1030273,14,16,14z"/>
</g>
</svg>
