<?xml version="1.0" encoding="utf-8"?>
<!-- Generator: Adobe Illustrator 19.1.0, SVG Export Plug-In . SVG Version: 6.00 Build 0)  -->
<svg version="1.1" id="Layer_1" xmlns="http://www.w3.org/2000/svg" xmlns:xlink="http://www.w3.org/1999/xlink" x="0px" y="0px"
	 width="32px" height="32px" viewBox="0 0 32 32" style="enable-background:new 0 0 32 32;" xml:space="preserve">
<g>
	<path d="M15,20c0,0.8544922-0.1748047,1.6694336-0.5234375,2.4453125C14.1274414,23.2216797,13.6352539,23.8959961,13,24.46875
		V31.625l-4-2l-4,2v-7.15625c-0.6357422-0.5727539-1.1279297-1.2470703-1.4765625-2.0234375C3.1743164,21.6694336,3,20.8544922,3,20
		c0-0.8227539,0.15625-1.5986328,0.46875-2.328125c0.3125-0.7290039,0.7421875-1.3671875,1.2890625-1.9140625
		s1.1821289-0.9765625,1.90625-1.2890625C7.3876953,14.15625,8.1665039,14,9,14c0.8227539,0,1.5986328,0.15625,2.328125,0.46875
		c0.7290039,0.3125,1.3671875,0.7421875,1.9140625,1.2890625S14.21875,16.9428711,14.53125,17.671875
		C14.84375,18.4013672,15,19.1772461,15,20z M29,10.578125V32H15v-2h12V12H17V2H7v9.765625
		c-0.6982422,0.1669922-1.3647461,0.4272461-2,0.78125V0h13.421875L29,10.578125z M9,24
		c0.5517578,0,1.0703125-0.1040039,1.5546875-0.3125c0.484375-0.2080078,0.9086914-0.4946289,1.2734375-0.859375
		c0.3642578-0.3642578,0.6508789-0.7890625,0.8593693-1.2734375C12.8955078,21.0703125,13,20.5522461,13,20
		c0-0.5517578-0.1044922-1.0703125-0.3125057-1.5546875c-0.2084904-0.484375-0.4951115-0.9086914-0.8593693-1.2734375
		c-0.3647461-0.3642578-0.7890625-0.6508789-1.2734375-0.859375C10.0703125,16.1044922,9.5517578,16,9,16
		c-0.5522461,0-1.0703125,0.1044922-1.5546875,0.3125c-0.484375,0.2084961-0.9091797,0.4951172-1.2734375,0.859375
		c-0.3647461,0.3647461-0.6513672,0.7890625-0.8593807,1.2734375C5.1040039,18.9296875,5,19.4482422,5,20
		c0,0.5522461,0.1040039,1.0703125,0.3124943,1.5546875c0.2080135,0.484375,0.4946346,0.9091797,0.8593807,1.2734375
		c0.3642578,0.3647461,0.7890625,0.6513672,1.2734375,0.859375C7.9296875,23.8959961,8.4477539,24,9,24z M11,25.65625
		C10.3330078,25.8857422,9.6665039,26,9,26c-0.6669922,0-1.3334961-0.1142578-2-0.34375V28.375l2-1l2,1V25.65625z M19,10h6.578125
		L19,3.421875V10z"/>
</g>
</svg>
