<?xml version="1.0" encoding="utf-8"?>
<!-- Generator: Adobe Illustrator 19.1.0, SVG Export Plug-In . SVG Version: 6.00 Build 0)  -->
<svg version="1.1" id="Layer_1" xmlns="http://www.w3.org/2000/svg" xmlns:xlink="http://www.w3.org/1999/xlink" x="0px" y="0px"
	 width="32px" height="32px" viewBox="0 0 32 32" style="enable-background:new 0 0 32 32;" xml:space="preserve">
<g>
	<path d="M16,32c-1.4794922,0-2.8984375-0.1899414-4.2578125-0.5703125c-1.359375-0.3798828-2.6328125-0.9165039-3.8203125-1.609375
		c-1.1875-0.6923828-2.2685547-1.5258789-3.2421875-2.5c-0.9741211-0.9736328-1.8076172-2.0546875-2.5-3.2421875
		c-0.6928711-1.1875-1.2294922-2.4633789-1.609375-3.828125C0.1899414,18.8857422,0,17.46875,0,16
		s0.1899414-2.8852539,0.5703125-4.25c0.3798828-1.3642578,0.9165039-2.640625,1.609375-3.828125
		c0.6923828-1.1875,1.5258789-2.2680664,2.5-3.2421875c0.9736328-0.9736328,2.0546875-1.8071289,3.2421875-2.5
		c1.1875-0.6923828,2.4633789-1.2290039,3.828125-1.609375C13.1142578,0.1904297,14.53125,0,16,0
		s2.8852539,0.1904297,4.25,0.5703125c1.3642578,0.3803711,2.640625,0.9169922,3.828125,1.609375
		c1.1875,0.6928711,2.2680664,1.5263672,3.2421875,2.5c0.9736328,0.9741211,1.8071289,2.0546875,2.5,3.2421875
		c0.6923828,1.1875,1.2290039,2.4638672,1.609375,3.828125C31.8095703,13.1147461,32,14.53125,32,16
		c0,1.4794922-0.1904297,2.8984375-0.5703125,4.2578125c-0.3803711,1.359375-0.9169922,2.6328125-1.609375,3.8203125
		c-0.6928711,1.1875-1.5263672,2.2685547-2.5,3.2421875c-0.9741211,0.9741211-2.0546875,1.8076172-3.2421875,2.5
		c-1.1875,0.6928711-2.4638672,1.2294922-3.828125,1.609375C18.8852539,31.8100586,17.46875,32,16,32z M16,2
		c-1.28125,0-2.5185547,0.1669922-3.7109375,0.5c-1.1928711,0.3334961-2.3076172,0.8046875-3.34375,1.4140625
		C7.9086914,4.5234375,6.9633789,5.2553711,6.109375,6.109375C5.2548828,6.9638672,4.5234375,7.9091797,3.9140625,8.9453125
		C3.3046875,9.9819336,2.8330078,11.0966797,2.5,12.2890625C2.1665039,13.4819336,2,14.71875,2,16
		s0.1665039,2.5185547,0.5,3.7109375c0.3330078,1.1928711,0.8046875,2.3076172,1.4140625,3.34375
		c0.609375,1.0366211,1.3408203,1.9819336,2.1953125,2.8359375c0.8540039,0.8544922,1.7993164,1.5859375,2.8359375,2.1953125
		c1.0361328,0.609375,2.1508789,1.0810547,3.34375,1.4140625C13.4814453,29.8334961,14.71875,30,16,30
		s2.5180664-0.1665039,3.7109375-0.5c1.1923828-0.3330078,2.3071289-0.8046875,3.34375-1.4140625
		c1.0361328-0.609375,1.9814453-1.3408203,2.8359375-2.1953125c0.8540039-0.8540039,1.5859375-1.7993164,2.1953125-2.8359375
		c0.609375-1.0361328,1.0805664-2.1508789,1.4140625-3.34375C29.8330078,18.5185547,30,17.28125,30,16
		s-0.1669922-2.5180664-0.5-3.7109375c-0.3334961-1.1923828-0.8046875-2.3071289-1.4140625-3.34375
		c-0.609375-1.0361328-1.3413086-1.9814453-2.1953125-2.8359375c-0.8544922-0.8540039-1.7998047-1.5859375-2.8359375-2.1953125
		C22.0180664,3.3046875,20.9033203,2.8334961,19.7109375,2.5C18.5180664,2.1669922,17.28125,2,16,2z M16,16V6h-2v12h8v-2H16z"/>
</g>
</svg>
