<?xml version="1.0" encoding="utf-8"?>
<!-- Generator: Adobe Illustrator 19.1.0, SVG Export Plug-In . SVG Version: 6.00 Build 0)  -->
<svg version="1.1" id="Layer_1" xmlns="http://www.w3.org/2000/svg" xmlns:xlink="http://www.w3.org/1999/xlink" x="0px" y="0px"
	 width="32px" height="32px" viewBox="0 0 32 32" style="enable-background:new 0 0 32 32;" xml:space="preserve">
<g>
	<path d="M32,26V13H12v7h-2v10h7v-4h4v2h-3v2h8v-2h-3v-2H32z M15,24v2v2h-3v-2v-4h2h1V24z M17,24v-4h-3v-5h16v9H17z"/>
</g>
<path d="M8,21c-0.8276367,0-1.6113281-0.15625-2.3305664-0.4638672c-0.734375-0.3139648-1.3798828-0.746582-1.9199219-1.2866211
	c-0.5395508-0.5390625-0.972168-1.184082-1.2851563-1.918457C2.15625,16.6113281,2,15.8271484,2,15
	c0-0.8261719,0.1557617-1.6108398,0.4633789-2.3305664c0.3139648-0.734375,0.746582-1.3798828,1.2871094-1.9189453
	c0.5390625-0.5395508,1.1845703-0.9726563,1.9194336-1.2866211C6.3886719,9.15625,7.1723633,9,8,9
	c0.3496094,0,0.7124023,0.0356445,1.078125,0.1054688l1.3242188,0.2529297l0.7324219-1.1352539
	c0.324707-0.5039063,0.706543-0.9648438,1.1347656-1.3691406c0.4223633-0.3979492,0.8867188-0.7363281,1.3789063-1.0063477
	c0.4980469-0.2729492,1.0361328-0.484375,1.6005859-0.6293945c1.4003906-0.3623047,2.9755859-0.269043,4.2880859,0.2504883
	c0.7978516,0.315918,1.5126953,0.7553711,2.1240234,1.3056641c0.6118164,0.5522461,1.1269531,1.2207031,1.5302734,1.9853516
	C23.5531006,9.4465942,23.7840576,10.2032471,23.9135742,11h2.0390625
	c-0.1450195-1.1308594-0.4785156-2.1982422-0.9916992-3.1723633C24.4472656,6.8535156,23.7880859,6,23,5.2890625
	c-0.7895508-0.7109375-1.7070313-1.2758789-2.7265625-1.6796875c-1.7055664-0.6748047-3.7177734-0.793457-5.5229492-0.328125
	C14.0253906,3.4677734,13.331543,3.7407227,12.6875,4.09375c-0.6411133,0.3515625-1.2431641,0.7900391-1.7900391,1.3051758
	c-0.5463867,0.515625-1.0327148,1.1020508-1.4438477,1.7407227L9.453125,7.140625
	C7.8330078,6.8325195,6.2700195,7.03125,4.8833008,7.625c-0.9702148,0.4150391-1.8276367,0.9907227-2.546875,1.7109375
	c-0.7211914,0.7197266-1.2973633,1.5771484-1.7119141,2.5478516C0.2099609,12.8535156,0,13.9018555,0,15
	c0,1.0991211,0.2104492,2.1479492,0.625,3.1171875c0.4140625,0.9697266,0.9897461,1.8266602,1.7104492,2.546875
	C3.0561523,21.3847656,3.9130859,21.9604492,4.8828125,22.375C5.8515625,22.7895508,6.9003906,23,8,23V21z"/>
<g>
</g>
<g>
</g>
<g>
</g>
<g>
</g>
<g>
</g>
<g>
</g>
<g>
</g>
<g>
</g>
<g>
</g>
<g>
</g>
<g>
</g>
<g>
</g>
<g>
</g>
<g>
</g>
<g>
</g>
</svg>
