<?xml version="1.0" encoding="utf-8"?>
<!-- Generator: Adobe Illustrator 19.1.0, SVG Export Plug-In . SVG Version: 6.00 Build 0)  -->
<svg version="1.1" id="Layer_1" xmlns="http://www.w3.org/2000/svg" xmlns:xlink="http://www.w3.org/1999/xlink" x="0px" y="0px"
	 width="32px" height="32px" viewBox="0 0 32 32" style="enable-background:new 0 0 32 32;" xml:space="preserve">
<g>
	<g>
		<path d="M11.03125,22H8c-0.8334961,0-1.6123047-0.15625-2.3359375-0.46875
			c-0.7241211-0.3125-1.359375-0.7421875-1.90625-1.2890625S2.78125,19.0600586,2.46875,18.3359375
			C2.15625,17.6123047,2,16.8334961,2,16c0-0.8227539,0.15625-1.5986328,0.46875-2.328125
			c0.3125-0.7290039,0.7421875-1.3671875,1.2890625-1.9140625s1.1821289-0.9765625,1.90625-1.2890625
			C6.3876953,10.15625,7.1665039,10,8,10c0.8642578,0,1.6874943,0.1826172,2.46875,0.546875
			c0.2602539-0.6875,0.609375-1.3095703,1.046875-1.8671875c0.4375-0.5571289,0.9399414-1.0336914,1.5078125-1.4296875
			c0.5673828-0.3955078,1.1899414-0.703125,1.8671875-0.921875C15.5673828,6.109375,16.2705078,6,17,6
			c0.96875,0,1.8774414,0.1826172,2.7265625,0.546875c0.8486328,0.3647461,1.5908203,0.8647461,2.2265625,1.5
			c0.6352539,0.6357422,1.1352539,1.3779297,1.5,2.2265625C23.8173828,11.1225586,24,12.03125,24,13v1h2
			c0.5517578,0,1.0703125,0.1044922,1.5546875,0.3125c0.484375,0.2084961,0.9086914,0.4951172,1.2734375,0.859375
			c0.0791626,0.0792847,0.1403198,0.1723633,0.2121582,0.2572632l1.4938965-0.2660522l0.0708008-0.0073242
			c0.0913086-0.0097656,0.222168-0.0195313,0.3945313-0.0239258l0.21875-0.003418l0.0233154,0.0004883
			c-0.281189-0.5102539-0.6051636-0.9844971-1.0150146-1.3867188c-0.546875-0.5361328-1.1875-0.9609375-1.921875-1.2734375
			S26.7861328,12,25.953125,12c-0.1459961-1.1352539-0.4765625-2.1923828-0.9921875-3.171875
			C24.4453125,7.8491211,23.7915039,7.0029297,23,6.2890625c-0.7919922-0.7133789-1.7006836-1.2734375-2.7265625-1.6796875
			C19.2470703,4.203125,18.15625,4,17,4c-0.7709961,0-1.5209961,0.09375-2.25,0.28125
			c-0.7294922,0.1875-1.4169922,0.4584961-2.0625057,0.8125c-0.6459904,0.3544922-1.2421818,0.7890625-1.7890568,1.3046875
			S9.8696289,7.4951172,9.453125,8.140625C8.9633789,8.046875,8.4790039,8,8,8C6.8955078,8,5.8564453,8.2084961,4.8828125,8.625
			c-0.9741211,0.4169922-1.8232422,0.9873047-2.546875,1.7109375C1.6118164,11.0600586,1.0415039,11.9091797,0.625,12.8828125
			C0.2080078,13.8569336,0,14.8959961,0,16c0,1.1044922,0.2080078,2.1435547,0.625,3.1171875
			c0.4165039,0.9741211,0.9868164,1.8232422,1.7109375,2.546875c0.7236328,0.7241211,1.5727539,1.2944336,2.546875,1.7109375
			C5.8564453,23.7919922,6.8955078,24,8,24h3.03125V22z"/>
	</g>
	<path d="M31.7360229,17.1398926c-0.1082153-0.0028687-0.22229-0.0060425-0.3426514-0.0092773
		c-0.0602417-0.0014038-0.1185303-0.0021362-0.1749268-0.0021362s-0.1107788,0.0007324-0.163147,0.0021362
		c-0.1051025,0.0032349-0.1852417,0.0078125-0.2408447,0.013916l-16.6531982,2.9638672
		c-0.055603,0.0124512-0.1328735,0.0185547-0.2315674,0.0185547c-0.098999,0-0.2055054-0.0014648-0.3195801-0.0046387
		c-0.1143188-0.0029297-0.223999-0.0061035-0.3287964-0.0092773c-0.1050415-0.0028687-0.1884155-0.0046387-0.250061-0.0046387
		v4.7421875c0.0740967,0,0.1621094-0.0014648,0.2639771-0.0046387c0.1018677-0.0028687,0.2052002-0.0060425,0.3103027-0.0092773
		c0.0523682-0.0014038,0.1036987-0.0021362,0.1538696-0.0021362s0.0992432,0.0007324,0.1470947,0.0021362
		c0.09552,0.0032349,0.1806641,0.0078125,0.2547607,0.013916c0.1171875,0.0185547,0.2251587,0.0355835,0.3241577,0.0509644
		c0.0986938,0.015625,0.194519,0.0324097,0.2871094,0.0509033c0.0926514,0.0185547,0.1881714,0.0370483,0.2871094,0.055603
		c0.0986938,0.0184937,0.206665,0.0402222,0.3242188,0.0648193l2.4451904,0.4353027l0.0011597,0.0001831
		c-0.0330811,0.1875-0.0537109,0.3712158-0.0537109,0.5386963C17.7764893,27.6779175,19.0985718,29,20.7294312,29
		c1.4609375,0,2.6660156-1.0634766,2.9029541-2.4568481l0.0132446,0.0023804l7.0669556,1.2596436
		c0.055542,0.0124512,0.1418457,0.0185547,0.2593384,0.0185547c0.1172485,0,0.2407837,0,0.3704834,0
		c0.1296387,0,0.2546997-0.0014648,0.3751221-0.0046387C31.8379517,27.8162231,31.9320068,27.8144531,32,27.8144531V17.1445313
		C31.9320068,17.1445313,31.8439941,17.1430664,31.7360229,17.1398926z M20.7294312,27.5
		c-0.8011475,0-1.4529419-0.6517944-1.4529419-1.4529419c0-0.0800171,0.0253906-0.1798706,0.0413208-0.2733765l2.8390503,0.5063477
		C22.0441284,26.9697876,21.4505615,27.5,20.7294312,27.5z M30,25.6466675l-5.2064209-0.9280396l0.0014038-0.0083008
		l-1.9580688-0.3471069l-3.5010986-0.6205444l-1.989502-0.3526611l-0.0001221,0.0007935l-1.5827637-0.2817993
		c-0.1207275-0.0251465-0.2322998-0.0474243-0.3357544-0.0668335L15.164856,22.991333
		c-0.0438232-0.0087891-0.0882568-0.0172729-0.133606-0.0255127v-0.980835L30,19.3209229V25.6466675z"/>
</g>
</svg>
