<?xml version="1.0" encoding="utf-8"?>
<!-- Generator: Adobe Illustrator 19.1.0, SVG Export Plug-In . SVG Version: 6.00 Build 0)  -->
<svg version="1.1" id="Layer_1" xmlns="http://www.w3.org/2000/svg" xmlns:xlink="http://www.w3.org/1999/xlink" x="0px" y="0px"
	 width="32px" height="32px" viewBox="0 0 32 32" style="enable-background:new 0 0 32 32;" xml:space="preserve">
<g>
	<path d="M15,21H8c-0.8271484,0-1.6113281-0.15625-2.3310547-0.4638672C4.9345703,20.222168,4.2890625,19.7895508,3.75,19.2495117
		c-0.5400391-0.5390625-0.9726563-1.184082-1.2861328-1.918457C2.15625,16.6113281,2,15.8271484,2,15
		c0-0.8261719,0.15625-1.6108398,0.4638672-2.3305664C2.7773438,11.9350586,3.2099609,11.2895508,3.75,10.7504883
		c0.5390625-0.5395508,1.1855469-0.9726563,1.9199219-1.2866211C6.3886719,9.15625,7.1728516,9,8,9
		c0.3496094,0,0.7119141,0.0356445,1.078125,0.1054688l1.3242188,0.2529297l0.7324219-1.1352539
		c0.3242188-0.5039063,0.7060547-0.9648438,1.1347656-1.3691406c0.4228516-0.3979492,0.8867188-0.7363281,1.3789063-1.0063477
		c0.4980469-0.2729492,1.0361328-0.484375,1.6005859-0.6293945c1.4003906-0.3623047,2.9755859-0.269043,4.2880859,0.2504883
		c0.7978516,0.315918,1.5126953,0.7553711,2.1240234,1.3056641c0.0216064,0.0194702,0.0380859,0.0445557,0.0594482,0.0643311
		c0.7741699-0.1351318,1.5984497-0.2108154,2.4606934-0.2265015C23.8257446,6.1328125,23.4379883,5.6842041,23,5.2890625
		c-0.7890625-0.7109375-1.7070313-1.2758789-2.7265625-1.6796875C18.5693359,2.9345703,16.5566406,2.8144531,14.75,3.28125
		c-0.7246094,0.1865234-1.4189453,0.4594727-2.0625,0.8125c-0.6416016,0.3515625-1.2431641,0.7900391-1.7900391,1.3051758
		c-0.546875,0.515625-1.0322266,1.1020508-1.4433594,1.7407227L9.453125,7.140625
		C7.8339844,6.8334961,6.2705078,7.03125,4.8828125,7.625c-0.9697266,0.4150391-1.8271484,0.9907227-2.546875,1.7109375
		c-0.7207031,0.7197266-1.296875,1.5771484-1.7119141,2.5478516C0.2099609,12.8535156,0,13.9018555,0,15
		c0,1.0991211,0.2109375,2.1479492,0.625,3.1171875c0.4140625,0.9697266,0.9892578,1.8266602,1.7109375,2.546875
		c0.7197266,0.7207031,1.5771484,1.2963867,2.546875,1.7109375C5.8515625,22.7895508,6.9003906,23,8,23h7V21z"/>
</g>
<path d="M24.5,8.6030273c-4.2753906,0-7.5,1.7338867-7.5,4.0332031v10.9667969c0,2.2993164,3.2246094,4.0332031,7.5,4.0332031
	s7.5-1.7338867,7.5-4.0332031V12.6362305C32,10.3369141,28.7753906,8.6030273,24.5,8.6030273z M24.5,10.6030273
	c3.3066406,0,5.5,1.2236328,5.5,2.0332031s-2.1933594,2.0336914-5.5,2.0336914S19,13.4458008,19,12.6362305
	S21.1933594,10.6030273,24.5,10.6030273z M24.5,25.6362305c-3.3066406,0-5.5-1.2236328-5.5-2.0332031v-8.1747437
	c1.3490601,0.7713623,3.2801514,1.2416382,5.5,1.2416382s4.1509399-0.4702759,5.5-1.2416382v8.1747437
	C30,24.4125977,27.8066406,25.6362305,24.5,25.6362305z"/>
<g>
</g>
<g>
</g>
<g>
</g>
<g>
</g>
<g>
</g>
<g>
</g>
<g>
</g>
<g>
</g>
<g>
</g>
<g>
</g>
<g>
</g>
<g>
</g>
<g>
</g>
<g>
</g>
<g>
</g>
</svg>
