<?xml version="1.0" encoding="utf-8"?>
<!-- Generator: Adobe Illustrator 19.1.0, SVG Export Plug-In . SVG Version: 6.00 Build 0)  -->
<svg version="1.1" id="Layer_1" xmlns="http://www.w3.org/2000/svg" xmlns:xlink="http://www.w3.org/1999/xlink" x="0px" y="0px"
	 width="32px" height="32px" viewBox="0 0 32 32" style="enable-background:new 0 0 32 32;" xml:space="preserve">
<g>
	<g>
		<path d="M14,22H8c-0.8334961,0-1.6123047-0.15625-2.3359375-0.46875c-0.7241211-0.3125-1.359375-0.7421875-1.90625-1.2890625
			S2.78125,19.0600586,2.46875,18.3359375C2.15625,17.6123047,2,16.8334961,2,16c0-0.8227539,0.15625-1.5986328,0.46875-2.328125
			c0.3125-0.7290039,0.7421875-1.3671875,1.2890625-1.9140625s1.1821289-0.9765625,1.90625-1.2890625
			C6.3876953,10.15625,7.1665039,10,8,10c0.8642578,0,1.6874943,0.1826172,2.46875,0.546875
			c0.2602539-0.6875,0.609375-1.3095703,1.046875-1.8671875c0.4375-0.5571289,0.9399414-1.0336914,1.5078125-1.4296875
			c0.5673828-0.3955078,1.1899414-0.703125,1.8671875-0.921875C15.5673828,6.109375,16.2705078,6,17,6
			c0.96875,0,1.8774414,0.1826172,2.7265625,0.546875c0.8486328,0.3647461,1.5908203,0.8647461,2.2265625,1.5
			c0.6187744,0.6192627,1.1043091,1.3434448,1.4664307,2.1647339c0.3824463-0.2861328,0.7871094-0.5432739,1.2352295-0.7360229
			c0.1702881-0.0732422,0.3441772-0.1360474,0.5199585-0.1924438c-0.0697632-0.1522827-0.135498-0.3062744-0.2138062-0.4550171
			C24.4453125,7.8491211,23.7915039,7.0029297,23,6.2890625c-0.7919922-0.7133789-1.7006836-1.2734375-2.7265625-1.6796875
			C19.2470703,4.203125,18.15625,4,17,4c-0.7709961,0-1.5209961,0.09375-2.25,0.28125
			c-0.7294922,0.1875-1.4169922,0.4584961-2.0625057,0.8125c-0.6459904,0.3544922-1.2421818,0.7890625-1.7890568,1.3046875
			S9.8696289,7.4951172,9.453125,8.140625C8.9633789,8.046875,8.4790039,8,8,8C6.8955078,8,5.8564453,8.2084961,4.8828125,8.625
			c-0.9741211,0.4169922-1.8232422,0.9873047-2.546875,1.7109375C1.6118164,11.0600586,1.0415039,11.9091797,0.625,12.8828125
			C0.2080078,13.8569336,0,14.8959961,0,16c0,1.1044922,0.2080078,2.1435547,0.625,3.1171875
			c0.4165039,0.9741211,0.9868164,1.8232422,1.7109375,2.546875c0.7236328,0.7241211,1.5727539,1.2944336,2.546875,1.7109375
			C5.8564453,23.7919922,6.8955078,24,8,24h6.3485718C14.1220093,23.361084,14,22.6904907,14,22z"/>
	</g>
	<path d="M29.796875,17.859375c0.6875,0.46875,1.2265625,1.0678711,1.6171875,1.796875C31.8046875,20.3857422,32,21.1669922,32,22
		h-2c0-0.4165039-0.078125-0.8071289-0.234375-1.171875c-0.15625-0.3642578-0.3701172-0.6821289-0.640625-0.953125
		c-0.2714844-0.2705078-0.5888672-0.484375-0.953125-0.640625C27.8066406,19.078125,27.4160156,19,27,19
		c-0.4169922,0-0.8076172,0.078125-1.171875,0.234375c-0.3652344,0.15625-0.6826172,0.3701172-0.953125,0.640625
		c-0.2714844,0.2709961-0.484375,0.5888672-0.640625,0.953125C24.078125,21.1928711,24,21.5834961,24,22
		c0,0.5419922-0.1044922,1.0576172-0.3125057,1.546875c-0.2089787,0.4897461-0.5058537,0.9272461-0.8906193,1.3125
		c0.6875,0.46875,1.2265625,1.0678711,1.6171875,1.796875C24.8046875,27.3857422,25,28.1669922,25,29h-2
		c0-0.4165039-0.078125-0.8071289-0.234375-1.171875c-0.15625-0.3642578-0.3701172-0.6821289-0.640625-0.953125
		c-0.2714844-0.2705078-0.5888672-0.484375-0.953125-0.640625C20.8066406,26.078125,20.4160156,26,20,26
		c-0.4169922,0-0.8076172,0.078125-1.171875,0.234375c-0.3652344,0.15625-0.6826172,0.3701172-0.953125,0.640625
		c-0.2714844,0.2709961-0.484375,0.5888672-0.640625,0.953125C17.078125,28.1928711,17,28.5834961,17,29h-2
		c0-0.8330078,0.1953125-1.6142578,0.5859375-2.34375c0.390625-0.7290039,0.9296875-1.328125,1.6171875-1.796875
		c-0.3857422-0.375-0.6826172-0.8095703-0.8906307-1.3046875C16.1035156,23.0600586,16,22.5419922,16,22
		c0-0.5517578,0.1035156-1.0703125,0.3124943-1.5546875c0.2080135-0.484375,0.4941463-0.9086914,0.8593807-1.2734375
		c0.3642578-0.3642578,0.7890625-0.6508789,1.2734375-0.859375C18.9296875,18.1044922,19.4472656,18,20,18
		c0.5410156,0,1.0566406,0.1044922,1.546875,0.3125c0.4892578,0.2084961,0.9267578,0.5053711,1.3125,0.890625
		c0.3642578-0.53125,0.8125-0.9790039,1.34375-1.34375c-0.3857422-0.375-0.6826172-0.8095703-0.8906307-1.3046875
		C23.1035156,16.0600586,23,15.5419922,23,15c0-0.5517578,0.1035156-1.0703125,0.3124943-1.5546875
		c0.2080135-0.484375,0.4941463-0.9086914,0.8593807-1.2734375c0.3642578-0.3642578,0.7890625-0.6508789,1.2734375-0.859375
		C25.9296875,11.1044922,26.4472656,11,27,11c0.5517578,0,1.0703125,0.1044922,1.5546875,0.3125
		c0.484375,0.2084961,0.9082031,0.4951172,1.2734375,0.859375c0.3642578,0.3647461,0.6503906,0.7890625,0.8593693,1.2734375
		C30.8955078,13.9296875,31,14.4482422,31,15c0,0.5419922-0.1044922,1.0576172-0.3125057,1.546875
		C30.4785156,17.0366211,30.1816406,17.4741211,29.796875,17.859375z M20,24c0.28125,0,0.5410156-0.0517578,0.78125-0.15625
		c0.2392578-0.1040039,0.4501953-0.2470703,0.6328125-0.4296875c0.1816406-0.1821289,0.3251953-0.3930664,0.4296875-0.6328125
		C21.9472656,22.5419922,22,22.28125,22,22s-0.0527344-0.5415039-0.15625-0.78125
		c-0.1044922-0.2392578-0.2480469-0.4501953-0.4296875-0.6328125c-0.1826172-0.1821289-0.3935547-0.3251953-0.6328125-0.4296875
		C20.5410156,20.0522461,20.28125,20,20,20s-0.5419922,0.0522461-0.78125,0.15625
		c-0.2402344,0.1044922-0.4511719,0.2475586-0.6328125,0.4296875c-0.1826172,0.1826172-0.3261719,0.3935547-0.4296875,0.6328125
		C18.0517578,21.4584961,18,21.71875,18,22s0.0517578,0.5419922,0.15625,0.78125
		c0.1035156,0.2397461,0.2470703,0.4506836,0.4296875,0.6328125c0.1816406,0.1826172,0.3925781,0.3256836,0.6328125,0.4296875
		C19.4580078,23.9482422,19.71875,24,20,24z M25,15c0,0.28125,0.0517578,0.5419922,0.15625,0.78125
		c0.1035156,0.2397461,0.2470703,0.4506836,0.4296875,0.6328125c0.1816406,0.1826172,0.3925781,0.3256836,0.6328125,0.4296875
		C26.4580078,16.9482422,26.71875,17,27,17s0.5410156-0.0517578,0.78125-0.15625
		c0.2392578-0.1040039,0.4501953-0.2470703,0.6328125-0.4296875c0.1816406-0.1821289,0.3251953-0.3930664,0.4296875-0.6328125
		C28.9472656,15.5419922,29,15.28125,29,15s-0.0527344-0.5415039-0.15625-0.78125
		c-0.1044922-0.2392578-0.2480469-0.4501953-0.4296875-0.6328125c-0.1826172-0.1821289-0.3935547-0.3251953-0.6328125-0.4296875
		C27.5410156,13.0522461,27.28125,13,27,13s-0.5419922,0.0522461-0.78125,0.15625
		c-0.2402344,0.1044922-0.4511719,0.2475586-0.6328125,0.4296875c-0.1826172,0.1826172-0.3261719,0.3935547-0.4296875,0.6328125
		C25.0517578,14.4584961,25,14.71875,25,15z"/>
</g>
</svg>
