<?xml version="1.0" encoding="utf-8"?>
<!-- Generator: Adobe Illustrator 19.1.0, SVG Export Plug-In . SVG Version: 6.00 Build 0)  -->
<svg version="1.1" id="Layer_1" xmlns="http://www.w3.org/2000/svg" xmlns:xlink="http://www.w3.org/1999/xlink" x="0px" y="0px"
	 width="32px" height="32px" viewBox="0 0 32 32" style="enable-background:new 0 0 32 32;" xml:space="preserve">
<g>
	<path d="M25.953125,14c0.8330078,0,1.6171875,0.15625,2.3515625,0.46875s1.375,0.7373047,1.921875,1.2734375
		c0.546875,0.5366211,0.9790039,1.1694336,1.296875,1.8984375C31.8408203,18.3701172,32,19.15625,32,20
		c0,0.8334961-0.15625,1.6123047-0.46875,2.3359375c-0.3125,0.7241211-0.7421875,1.359375-1.2890625,1.90625
		S29.0571289,25.21875,28.328125,25.53125C27.5986328,25.84375,26.8227539,26,26,26H8
		c-1.1044922,0-2.1435547-0.2080078-3.1171875-0.625c-0.9741211-0.4165039-1.8232422-0.9868164-2.546875-1.7109375
		C1.6118164,22.9404297,1.0415039,22.0913086,0.625,21.1171875C0.2080078,20.1435547,0,19.1044922,0,18
		c0-1.1040039,0.2080078-2.1430664,0.625-3.1171875c0.4165039-0.9736328,0.9868164-1.8227539,1.7109375-2.546875
		c0.7236328-0.7236328,1.5727539-1.2939453,2.546875-1.7109375C5.8564453,10.2084961,6.8955078,10,8,10
		c0.4790039,0,0.9633789,0.046875,1.453125,0.140625c0.4165039-0.6455078,0.8984375-1.2265625,1.4453125-1.7421875
		s1.1430664-0.9501953,1.7890568-1.3046875c0.6455135-0.3540039,1.3330135-0.625,2.0625057-0.8125
		C15.4790039,6.09375,16.2290039,6,17,6c1.15625,0,2.2470703,0.203125,3.2734375,0.609375
		C21.2993164,7.015625,22.2080078,7.5756836,23,8.2890625c0.7915039,0.7138672,1.4453125,1.5600586,1.9609375,2.5390625
		C25.4765625,11.8076172,25.8071289,12.8647461,25.953125,14z M26,24c0.5517578,0,1.0703125-0.1040039,1.5546875-0.3125
		c0.484375-0.2080078,0.9086914-0.4946289,1.2734375-0.859375c0.3642578-0.3642578,0.6508789-0.7890625,0.8593693-1.2734375
		C29.8955078,21.0703125,30,20.5522461,30,20c0-0.5517578-0.1044922-1.0703125-0.3125057-1.5546875
		c-0.2084904-0.484375-0.4951115-0.9086914-0.8593693-1.2734375c-0.3647461-0.3642578-0.7890625-0.6508789-1.2734375-0.859375
		C27.0703125,16.1044922,26.5517578,16,26,16h-2v-1c0-0.96875-0.1826172-1.8774414-0.546875-2.7265625
		c-0.3647461-0.8486328-0.8647461-1.5908203-1.5-2.2265625c-0.6357422-0.6352539-1.3779297-1.1352539-2.2265625-1.5
		C18.8774414,8.1826172,17.96875,8,17,8c-0.7294922,0-1.4326172,0.109375-2.109375,0.328125
		C14.2133789,8.546875,13.5908203,8.8544922,13.0234375,9.25c-0.5678711,0.3959961-1.0703125,0.8725586-1.5078125,1.4296875
		c-0.4375,0.5576172-0.7866211,1.1796875-1.046875,1.8671875C9.6874943,12.1826172,8.8642578,12,8,12
		c-0.8334961,0-1.6123047,0.15625-2.3359375,0.46875c-0.7241211,0.3125-1.359375,0.7421875-1.90625,1.2890625
		S2.78125,14.9428711,2.46875,15.671875C2.15625,16.4013672,2,17.1772461,2,18c0,0.8334961,0.15625,1.6123047,0.46875,2.3359375
		c0.3125,0.7241211,0.7421875,1.359375,1.2890625,1.90625s1.1821289,0.9765625,1.90625,1.2890625
		C6.3876953,23.84375,7.1665039,24,8,24H26z"/>
</g>
</svg>
