<?xml version="1.0" encoding="utf-8"?>
<!-- Generator: Adobe Illustrator 19.1.0, SVG Export Plug-In . SVG Version: 6.00 Build 0)  -->
<svg version="1.1" id="Layer_1" xmlns="http://www.w3.org/2000/svg" xmlns:xlink="http://www.w3.org/1999/xlink" x="0px" y="0px"
	 width="32px" height="32px" viewBox="0 0 32 32" style="enable-background:new 0 0 32 32;" xml:space="preserve">
<g>
	<path d="M26.515625,11.1875c0.65625,0.1772461,1.2578125,0.4506836,1.8046875,0.8203125
		c0.546875,0.3701172,1.0205078,0.8100586,1.421875,1.3203125c0.4008789,0.5107422,0.7109375,1.078125,0.9296875,1.703125
		S31,16.3125,31,17c0,0.8334961-0.15625,1.6123047-0.46875,2.3359375c-0.3125,0.7241211-0.7421875,1.359375-1.2890625,1.90625
		S28.0571289,22.21875,27.328125,22.53125C26.5986328,22.84375,25.8227539,23,25,23h-6v-2h6
		c0.5517578,0,1.0703125-0.1040039,1.5546875-0.3125c0.484375-0.2080078,0.9086914-0.4946289,1.2734375-0.859375
		c0.3642578-0.3642578,0.6508789-0.7890625,0.8593693-1.2734375C28.8955078,18.0703125,29,17.5522461,29,17
		c0-0.5727539-0.1069336-1.1040039-0.3203125-1.59375c-0.2138672-0.4892578-0.5078125-0.9111328-0.8828125-1.265625
		c-0.375-0.3540039-0.8125-0.6328125-1.3125-0.8359375S25.453125,13,24.890625,13
		c-0.125-0.8540039-0.390625-1.6484375-0.796875-2.3828125c-0.4062557-0.734375-0.9140625-1.3696289-1.5234375-1.90625
		c-0.609375-0.5361328-1.3046875-0.9555664-2.0859375-1.2578125C19.703125,7.1513672,18.875,7,18,7
		c-0.8022461,0-1.5654297,0.1303711-2.2890625,0.390625C14.9868164,7.6513672,14.328125,8.0107422,13.734375,8.46875
		c-0.59375,0.4584961-1.1069336,1.0107422-1.5390625,1.65625c-0.4326172,0.6459961-0.7475586,1.3491211-0.9453125,2.109375
		c-0.4584961-0.3955078-0.9638672-0.7001953-1.515625-0.9140625C9.1821289,11.1069336,8.6040039,11,8,11
		c-0.6875057,0-1.3359375,0.1303711-1.9453125,0.390625c-0.609375,0.2607422-1.140625,0.6171875-1.59375,1.0703125
		s-0.8100586,0.984375-1.0703125,1.59375C3.1298828,14.6640625,3,15.3125,3,16s0.1298828,1.3359375,0.390625,1.9453125
		c0.2602539,0.609375,0.6171875,1.140625,1.0703125,1.59375s0.984375,0.8100586,1.59375,1.0703125
		C6.6640625,20.8701172,7.3124943,21,8,21h5v2H8c-0.96875,0-1.8779297-0.1845703-2.7265625-0.5546875
		c-0.8491211-0.3696289-1.5888672-0.8696289-2.21875-1.5c-0.6303711-0.6298828-1.1303711-1.3696289-1.5-2.21875
		C1.1845703,17.8779297,1,16.96875,1,16s0.1845703-1.8774414,0.5546875-2.7265625
		c0.3696289-0.8486328,0.8696289-1.5883789,1.5-2.21875c0.6298828-0.6298828,1.3696289-1.1298828,2.21875-1.5
		C6.1220703,9.1850586,7.03125,9,8,9c0.7705078,0,1.5361328,0.1303711,2.296875,0.390625
		c0.40625-0.6767578,0.8876953-1.2861328,1.4453125-1.828125c0.5571289-0.5415039,1.1665039-1.0024414,1.828125-1.3828125
		c0.6611328-0.3798828,1.3671818-0.671875,2.1171818-0.875S17.2080078,5,18,5c0.96875,0,1.8984375,0.1513672,2.7890625,0.453125
		C21.6796875,5.7553711,22.5,6.1796875,23.25,6.7265625s1.40625,1.1982422,1.96875,1.953125
		C25.78125,9.4350586,26.2133789,10.2709961,26.515625,11.1875z M17,16.421875V27h-2V16.421875l-2.296875,2.28125l-1.40625-1.40625
		L16,12.59375l4.703125,4.703125l-1.40625,1.40625L17,16.421875z"/>
</g>
</svg>
