<?xml version="1.0" encoding="utf-8"?>
<!-- Generator: Adobe Illustrator 19.1.0, SVG Export Plug-In . SVG Version: 6.00 Build 0)  -->
<svg version="1.1" id="Layer_1" xmlns="http://www.w3.org/2000/svg" xmlns:xlink="http://www.w3.org/1999/xlink" x="0px" y="0px"
	 width="32px" height="32px" viewBox="0 0 32 32" style="enable-background:new 0 0 32 32;" xml:space="preserve">
<g>
	<path d="M8,20c-0.8334961,0-1.6123047-0.15625-2.3359375-0.46875c-0.7241211-0.3125-1.359375-0.7421875-1.90625-1.2890625
		S2.78125,17.0600586,2.46875,16.3359375C2.15625,15.6123047,2,14.8334961,2,14c0-0.8227539,0.15625-1.5986328,0.46875-2.328125
		c0.3125-0.7290039,0.7421875-1.3671875,1.2890625-1.9140625S4.9399414,8.78125,5.6640625,8.46875
		C6.3876953,8.15625,7.1665039,8,8,8c0.8642578,0,1.6874943,0.1826172,2.46875,0.546875
		c0.2602539-0.6875,0.609375-1.3095703,1.046875-1.8671875c0.4375-0.5571289,0.9399414-1.0336914,1.5078125-1.4296875
		c0.5673828-0.3955078,1.1899414-0.703125,1.8671875-0.921875C15.5673828,4.109375,16.2705078,4,17,4
		c0.96875,0,1.8774414,0.1826172,2.7265625,0.546875c0.8486328,0.3647461,1.5908203,0.8647461,2.2265625,1.5
		c0.6352539,0.6357422,1.1352539,1.3779297,1.5,2.2265625C23.8173828,9.1225586,24,10.03125,24,11v1h2
		c0.5517578,0,1.0703125,0.1044922,1.5546875,0.3125c0.484375,0.2084961,0.9086914,0.4951172,1.2734375,0.859375
		C29.0733643,13.4174805,29.2702026,13.7002563,29.4449463,14h2.2127686
		c-0.0429077-0.1204834-0.0831299-0.2418823-0.1342773-0.359375c-0.3178711-0.7290039-0.75-1.3618164-1.296875-1.8984375
		c-0.546875-0.5361328-1.1875-0.9609375-1.921875-1.2734375S26.7861328,10,25.953125,10
		c-0.1459961-1.1352539-0.4765625-2.1923828-0.9921875-3.171875C24.4453125,5.8491211,23.7915039,5.0029297,23,4.2890625
		c-0.7919922-0.7133789-1.7006836-1.2734375-2.7265625-1.6796875C19.2470703,2.203125,18.15625,2,17,2
		c-0.7709961,0-1.5209961,0.09375-2.25,0.28125c-0.7294922,0.1875-1.4169922,0.4584961-2.0625057,0.8125
		c-0.6459904,0.3544922-1.2421818,0.7890625-1.7890568,1.3046875S9.8696289,5.4951172,9.453125,6.140625
		C8.9633789,6.046875,8.4790039,6,8,6C6.8955078,6,5.8564453,6.2084961,4.8828125,6.625
		c-0.9741211,0.4169922-1.8232422,0.9873047-2.546875,1.7109375C1.6118164,9.0600586,1.0415039,9.9091797,0.625,10.8828125
		C0.2080078,11.8569336,0,12.8959961,0,14c0,1.1044922,0.2080078,2.1435547,0.625,3.1171875
		c0.4165039,0.9741211,0.9868164,1.8232422,1.7109375,2.546875c0.7236328,0.7241211,1.5727539,1.2944336,2.546875,1.7109375
		C5.8564453,21.7919922,6.8955078,22,8,22V20z"/>
	<path d="M30,18v10H12V18H30 M32,16H10v14h22V16L32,16z"/>
	<path d="M18,22v2h-2v-2H18 M20,20h-6v6h6V20L20,20z"/>
	<rect x="22" y="20" width="2" height="2"/>
	<rect x="26" y="20" width="2" height="2"/>
	<rect x="22" y="24" width="2" height="2"/>
	<rect x="26" y="24" width="2" height="2"/>
</g>
</svg>
