<?xml version="1.0" encoding="utf-8"?>
<!-- Generator: Adobe Illustrator 19.1.0, SVG Export Plug-In . SVG Version: 6.00 Build 0)  -->
<svg version="1.1" id="Layer_1" xmlns="http://www.w3.org/2000/svg" xmlns:xlink="http://www.w3.org/1999/xlink" x="0px" y="0px"
	 width="32px" height="32px" viewBox="0 0 32 32" style="enable-background:new 0 0 32 32;" xml:space="preserve">
<g>
	<path d="M31.543438,14.6446247c-0.3178711-0.7290039-0.75-1.3618164-1.296875-1.8984375
		c-0.546875-0.5361328-1.1875-0.9609375-1.921875-1.2734375s-1.5185547-0.46875-2.3515625-0.46875
		c-0.1459961-1.1352539-0.4765625-2.1923828-0.9921875-3.1718745c-0.515625-0.9790039-1.1694336-1.8251953-1.9609375-2.5390625
		c-0.7919922-0.7133789-1.7006836-1.2734375-2.7265625-1.6796875c-1.0263672-0.40625-2.1171875-0.609375-3.2734375-0.609375
		c-0.7709961,0-1.5209961,0.09375-2.25,0.28125c-0.7294922,0.1875-1.4169922,0.4584961-2.0625,0.8125
		c-0.6459961,0.3544922-1.2421875,0.7890625-1.7890625,1.3046875S9.8896294,6.4991174,9.4731255,7.1446252
		c-0.4897461-0.09375-0.9741211-0.140625-1.453125-0.140625c-1.1044917,0-2.1435542,0.2084961-3.117187,0.625
		c-0.9741211,0.4169917-1.8232422,0.9873042-2.546875,1.710937c-0.7241212,0.7241211-1.2944337,1.5732422-1.7109376,2.546875
		c-0.4169922,0.9741211-0.625,2.0131836-0.625,3.1171875c0,1.1044922,0.2080078,2.1435547,0.625,3.1171875
		c0.4165039,0.9741211,0.9868164,1.8232422,1.7109376,2.546875c0.7236328,0.7241211,1.5727539,1.2944336,2.546875,1.7109375
		c0.9736328,0.4169922,2.0126953,0.625,3.117187,0.625h5.7745361c0.0169067-0.0169678,0.0353394-0.0356445,0.0519409-0.0523071
		c0.2268677-0.2284546,0.4240723-0.427063,0.5437012-0.5475464c0.0424805-0.0427856,0.0826416-0.083252,0.102478-0.1032715
		c-0.0419922-0.1191406-0.0810547-0.2392578-0.1166992-0.3603516c-0.0911255-0.3064575-0.1567993-0.6199341-0.2055664-0.9365234
		H8.0200005c-0.8334956,0-1.6123042-0.15625-2.335937-0.46875c-0.7241211-0.3125-1.359375-0.7421875-1.90625-1.2890625
		s-0.9765625-1.1821289-1.2890625-1.90625c-0.3125-0.7236328-0.46875-1.5024414-0.46875-2.3359375
		c0-0.8227539,0.15625-1.5986328,0.46875-2.328125c0.3125-0.7290039,0.7421875-1.3671875,1.2890625-1.9140625
		s1.1821289-0.9765625,1.90625-1.2890625c0.7236328-0.3125,1.5024414-0.46875,2.335937-0.46875
		c0.8642578,0,1.6875,0.1826172,2.46875,0.546875c0.2602539-0.6875,0.609375-1.3095703,1.046875-1.867187
		c0.4375-0.5571289,0.9399414-1.0336914,1.5078125-1.4296875c0.5673828-0.3955078,1.1899414-0.703125,1.8671875-0.921875
		c0.6767578-0.21875,1.3798828-0.328125,2.109375-0.328125c0.96875,0,1.8774414,0.1826172,2.7265625,0.546875
		c0.8486328,0.3647461,1.5908203,0.8647461,2.2265625,1.5c0.6352539,0.6357422,1.1352539,1.3779292,1.5,2.226562
		c0.3642578,0.8491211,0.546875,1.7578125,0.546875,2.7265625v1h2c0.5517578,0,1.0703125,0.1044922,1.5546875,0.3125
		c0.484375,0.2084961,0.9086914,0.4951172,1.2734375,0.859375c0.3642578,0.3647461,0.6508789,0.7890625,0.859375,1.2734375
		c0.2080078,0.484375,0.3125,1.0029297,0.3125,1.5546875c0,0.5522461-0.1044922,1.0703125-0.3125,1.5546875
		c-0.2084961,0.484375-0.4951172,0.9091797-0.859375,1.2734375c-0.2513428,0.2513428-0.5415649,0.4517212-0.8496094,0.6287231
		c-0.015625,0.2548828-0.0436401,0.5067139-0.0863647,0.7550049c-0.0009155,0.0054932-0.0015259,0.0109863-0.0025024,0.0164795
		c-0.083374,0.4779663-0.2146606,0.9429932-0.3972168,1.3907471c0.210022-0.0282593,0.7578125-0.0544434,0.8356934-0.0878296
		c0.7290039-0.3125,1.3671875-0.7421875,1.9140625-1.2890625s0.9765625-1.1821289,1.2890625-1.90625
		c0.3125-0.7236328,0.46875-1.5024414,0.46875-2.3359375C32.0200005,16.1602497,31.8608208,15.3741169,31.543438,14.6446247z"/>
	<path d="M16.0825005,19.9110508c0-0.6875,0.1298828-1.328125,0.390625-1.921875
		c0.2597656-0.59375,0.6142578-1.1113281,1.0625-1.5546875c0.4472656-0.4423838,0.9707031-0.7890635,1.5703125-1.0390635
		c0.5986328-0.25,1.2421875-0.375,1.9296875-0.375c0.6972656,0,1.3486328,0.1308594,1.953125,0.390625
		c0.6035156,0.2607422,1.1298828,0.6171885,1.578125,1.0703135c0.4472656,0.453125,0.8017578,0.9824219,1.0625,1.5859375
		c0.2597656,0.6044922,0.390625,1.2558594,0.390625,1.953125c0,0.6777344-0.1279297,1.3154297-0.3828125,1.9140625
		c-0.2558594,0.5996094-0.6015625,1.1230469-1.0390625,1.5703125c-0.4375,0.4482422-0.953125,0.8027344-1.546875,1.0625
		c-0.59375,0.2607422-1.234375,0.390625-1.921875,0.390625c-0.5,0-0.9902344-0.0703125-1.46875-0.2109375
		c-0.4794922-0.140625-0.9326172-0.3408203-1.359375-0.6015625l-3.140625,3.140625
		c-0.2402344,0.2402344-0.4746094,0.4824219-0.703125,0.7265625c-0.2294922,0.2451172-0.46875,0.4765625-0.71875,0.6953125
		c-0.1044922,0.09375-0.2060547,0.1669922-0.3046875,0.21875c-0.0996094,0.0527344-0.2216797,0.078125-0.3671875,0.078125
		c-0.2714844,0-0.5107422-0.1035156-0.71875-0.3125c-0.2089844-0.2080078-0.3125-0.4472656-0.3125-0.71875
		c0-0.1455078,0.0253906-0.2675781,0.078125-0.3671875c0.0517578-0.0986328,0.125-0.2001953,0.21875-0.3046875
		c0.21875-0.25,0.4501953-0.4892578,0.6953125-0.71875c0.2441406-0.2285156,0.4863281-0.4628906,0.7265625-0.703125
		c0.53125-0.53125,1.0546875-1.0566406,1.5703125-1.578125c0.515625-0.5205078,1.0390625-1.046875,1.5703125-1.578125
		c-0.2607422-0.4267578-0.4609375-0.8769531-0.6015625-1.3515625C16.152813,20.8983555,16.0825005,20.4110508,16.0825005,19.9110508
		z M18.0825005,20.0985508c0,0.3964844,0.0751953,0.765625,0.2265625,1.109375
		c0.1503906,0.34375,0.3535156,0.6464844,0.609375,0.90625c0.2548828,0.2607422,0.5566406,0.4638672,0.90625,0.609375
		c0.3486328,0.1464844,0.7207031,0.21875,1.1171875,0.21875c0.40625,0,0.7939453-0.0800781,1.1640625-0.2421875
		c0.3691406-0.1611328,0.7001953-0.3828125,0.9921875-0.6640625c0.2910156-0.28125,0.5234375-0.6035156,0.6953125-0.96875
		c0.171875-0.3642578,0.2578125-0.75,0.2578125-1.15625c0-0.375-0.0810547-0.7363281-0.2421875-1.0859375
		c-0.1621094-0.3486328-0.3779297-0.6611328-0.6484375-0.9375c-0.2714844-0.2753906-0.5839844-0.4941406-0.9375-0.65625
		c-0.3544922-0.1611328-0.71875-0.2421875-1.09375-0.2421875c-0.40625,0-0.7949219,0.0859375-1.1640625,0.2578125
		c-0.3701172,0.171875-0.6933594,0.4042969-0.96875,0.6953125c-0.2763672,0.2919922-0.4980469,0.6230469-0.6640625,0.9921875
		C18.1655083,19.3046055,18.0825005,19.6923008,18.0825005,20.0985508z"/>
</g>
<g>
</g>
<g>
</g>
<g>
</g>
<g>
</g>
<g>
</g>
<g>
</g>
</svg>
