<?xml version="1.0" encoding="utf-8"?>
<!-- Generator: Adobe Illustrator 19.1.0, SVG Export Plug-In . SVG Version: 6.00 Build 0)  -->
<svg version="1.1" id="Layer_1" xmlns="http://www.w3.org/2000/svg" xmlns:xlink="http://www.w3.org/1999/xlink" x="0px" y="0px"
	 width="32px" height="32px" viewBox="0 0 32 32" style="enable-background:new 0 0 32 32;" xml:space="preserve">
<style type="text/css">
	.st0{fill-rule:evenodd;clip-rule:evenodd;}
</style>
<path d="M21.1606445,22.0673828l-0.2573242-0.2578125V21H8c-0.8276367,0-1.6113281-0.15625-2.3305664-0.4638672
	c-0.734375-0.3139648-1.3798828-0.746582-1.9199219-1.2866211c-0.5395508-0.5390625-0.972168-1.184082-1.2851563-1.918457
	C2.15625,16.6113281,2,15.8271484,2,15c0-0.8261719,0.1557617-1.6108398,0.4633789-2.3305664
	c0.3139648-0.734375,0.746582-1.3798828,1.2871094-1.9189453c0.5390625-0.5395508,1.1845703-0.9726563,1.9194336-1.2866211
	C6.3886719,9.15625,7.1723633,9,8,9c0.3496094,0,0.7124023,0.0356445,1.078125,0.1054688l1.3242188,0.2529297l0.7324219-1.1352539
	c0.324707-0.5039063,0.706543-0.9648438,1.1347656-1.3691406c0.4223633-0.3979492,0.8867188-0.7363281,1.3789063-1.0063477
	c0.4980469-0.2729492,1.0361328-0.484375,1.6005859-0.6293945c1.4003906-0.3623047,2.9755859-0.269043,4.2880859,0.2504883
	c0.7978516,0.315918,1.5126953,0.7553711,2.1240234,1.3056641c0.2007446,0.1812134,0.3740845,0.3936768,0.5534668,0.5991821
	c0.6296997-0.3132935,1.3026123-0.5510864,2.012146-0.6904297C23.8588867,6.1774292,23.4584351,5.7025757,23,5.2890625
	c-0.7895508-0.7109375-1.7070313-1.2758789-2.7265625-1.6796875c-1.7045898-0.6748047-3.7177734-0.793457-5.5229492-0.328125
	C14.0253906,3.4677734,13.331543,3.7407227,12.6875,4.09375c-0.6411133,0.3515625-1.2431641,0.7900391-1.7900391,1.3051758
	c-0.5463867,0.515625-1.0327148,1.1020508-1.4438477,1.7407227L9.453125,7.140625
	C7.8334961,6.8325195,6.2700195,7.03125,4.8833008,7.625c-0.9702148,0.4150391-1.8276367,0.9907227-2.546875,1.7109375
	c-0.7211914,0.7197266-1.2973633,1.5771484-1.7119141,2.5478516C0.2099609,12.8535156,0,13.9018555,0,15
	c0,1.0991211,0.2104492,2.1479492,0.625,3.1171875c0.4140625,0.9697266,0.9897461,1.8266602,1.7104492,2.546875
	C3.0561523,21.3847656,3.9130859,21.9604492,4.8828125,22.375C5.8515625,22.7895508,6.9003906,23,8,23h12.2286377
	L21.1606445,22.0673828z"/>
<path d="M26.7304688,30.5546875L23,26.9951172v-1.5820313l0.6748047-0.6982422l-1.1787109-1.1416016l1.546875-1.5234375
	L23,20.9716797v-1.0839844c-1.9707031-1.0058594-3.1679688-2.9858398-3.1679688-5.3198242
	c0-3.3295898,2.7060547-6.0380859,6.0332031-6.0380859c3.3769531,0,6.1240234,2.7084961,6.1240234,6.0380859
	c0,2.3979492-1.1044922,4.3354492-2.9892578,5.3168945v8.6269531L26.7304688,30.5546875z M25.0419922,26.1787109
	l1.7275391,1.6494141L27,27.6210938v-9.0800781l0.6513672-0.2421875c2.0341797-0.7568359,2.3378906-2.6621094,2.3378906-3.730957
	c0-2.1889648-1.8886719-4.0380859-4.1240234-4.0380859c-2.2236328,0-4.0332031,1.8115234-4.0332031,4.0380859
	c0,1.75,0.9404297,3.1450195,2.5166016,3.730957L25,18.5410156v1.6220703l1.859375,1.921875l-1.5,1.4765625l1.1435547,1.1083984
	L25.0419922,26.1787109z"/>
<circle class="st0" cx="25.7779884" cy="13.0852194" r="1.3257611"/>
<g>
</g>
<g>
</g>
<g>
</g>
<g>
</g>
<g>
</g>
<g>
</g>
<g>
</g>
<g>
</g>
<g>
</g>
<g>
</g>
<g>
</g>
<g>
</g>
<g>
</g>
<g>
</g>
<g>
</g>
</svg>
