<?xml version="1.0" encoding="utf-8"?>
<!-- Generator: Adobe Illustrator 19.1.0, SVG Export Plug-In . SVG Version: 6.00 Build 0)  -->
<svg version="1.1" id="Layer_1" xmlns="http://www.w3.org/2000/svg" xmlns:xlink="http://www.w3.org/1999/xlink" x="0px" y="0px"
	 width="32px" height="32px" viewBox="0 0 32 32" style="enable-background:new 0 0 32 32;" xml:space="preserve">
<g>
	<g>
		<path d="M10,28l9-18l9,18H10z M12.828125,26.25h12.34375L19,13.90625L12.828125,26.25z M18,23v-5h2v5H18z M18,26v-2h2v2H18z"/>
	</g>
	<path d="M31.5234375,15.640625c-0.3178711-0.7290039-0.75-1.3618164-1.296875-1.8984375
		c-0.546875-0.5361328-1.1875-0.9609375-1.921875-1.2734375S26.7861328,12,25.953125,12
		c-0.1459961-1.1352539-0.4765625-2.1923828-0.9921875-3.171875C24.4453125,7.8491211,23.7915039,7.0029297,23,6.2890625
		c-0.7919922-0.7133789-1.7006836-1.2734375-2.7265625-1.6796875C19.2470703,4.203125,18.15625,4,17,4
		c-0.7709961,0-1.5209961,0.09375-2.25,0.28125c-0.7294922,0.1875-1.4169922,0.4584961-2.0625057,0.8125
		c-0.6459904,0.3544922-1.2421818,0.7890625-1.7890568,1.3046875S9.8696289,7.4951172,9.453125,8.140625
		C8.9633789,8.046875,8.4790039,8,8,8C6.8955078,8,5.8564453,8.2084961,4.8828125,8.625
		c-0.9741211,0.4169922-1.8232422,0.9873047-2.546875,1.7109375C1.6118164,11.0600586,1.0415039,11.9091797,0.625,12.8828125
		C0.2080078,13.8569336,0,14.8959961,0,16c0,1.1044922,0.2080078,2.1435547,0.625,3.1171875
		c0.4165039,0.9741211,0.9868164,1.8232422,1.7109375,2.546875c0.7236328,0.7241211,1.5727539,1.2944336,2.546875,1.7109375
		C5.8564453,23.7919922,6.8955078,24,8,24h1.7640991l1-2H8c-0.8334961,0-1.6123047-0.15625-2.3359375-0.46875
		c-0.7241211-0.3125-1.359375-0.7421875-1.90625-1.2890625S2.78125,19.0600586,2.46875,18.3359375
		C2.15625,17.6123047,2,16.8334961,2,16c0-0.8227539,0.15625-1.5986328,0.46875-2.328125
		c0.3125-0.7290039,0.7421875-1.3671875,1.2890625-1.9140625s1.1821289-0.9765625,1.90625-1.2890625
		C6.3876953,10.15625,7.1665039,10,8,10c0.8642578,0,1.6874943,0.1826172,2.46875,0.546875
		c0.2602539-0.6875,0.609375-1.3095703,1.046875-1.8671875c0.4375-0.5571289,0.9399414-1.0336914,1.5078125-1.4296875
		c0.5673828-0.3955078,1.1899414-0.703125,1.8671875-0.921875C15.5673828,6.109375,16.2705078,6,17,6
		c0.96875,0,1.8774414,0.1826172,2.7265625,0.546875c0.8486328,0.3647461,1.5908203,0.8647461,2.2265625,1.5
		c0.6352539,0.6357422,1.1352539,1.3779297,1.5,2.2265625C23.8173828,11.1225586,24,12.03125,24,13v1h2
		c0.5517578,0,1.0703125,0.1044922,1.5546875,0.3125c0.484375,0.2084961,0.9086914,0.4951172,1.2734375,0.859375
		c0.3642578,0.3647461,0.6508789,0.7890625,0.8593693,1.2734375C29.8955078,16.9296875,30,17.4482422,30,18
		c0,0.5522461-0.1044922,1.0703125-0.3125057,1.5546875c-0.2084904,0.484375-0.4951115,0.9091797-0.8593693,1.2734375
		c-0.3647461,0.3647461-0.7890625,0.6513672-1.2734375,0.859375c-0.1323242,0.0569458-0.2734985,0.086731-0.4109497,0.1281128
		l0.9086304,1.8173828c0.0919189-0.0339355,0.1853027-0.0629883,0.2757568-0.1017456
		c0.7290039-0.3125,1.3671875-0.7421875,1.9140625-1.2890625s0.9765625-1.1821289,1.2890625-1.90625
		C31.84375,19.6123047,32,18.8334961,32,18C32,17.15625,31.8408203,16.3701172,31.5234375,15.640625z"/>
</g>
</svg>
