<?xml version="1.0" encoding="utf-8"?>
<!-- Generator: Adobe Illustrator 19.1.0, SVG Export Plug-In . SVG Version: 6.00 Build 0)  -->
<svg version="1.1" id="Layer_1" xmlns="http://www.w3.org/2000/svg" xmlns:xlink="http://www.w3.org/1999/xlink" x="0px" y="0px"
	 width="32px" height="32px" viewBox="-7 9 32 32" style="enable-background:new -7 9 32 32;" xml:space="preserve">
<g>
	<rect x="3" y="12" width="2" height="2"/>
	<g>
		<g>
			<path d="M3,19v22h13V19H3z M14,21v4H5v-4H14z M5,39V27h9v12H5z"/>
		</g>
		<rect x="11" y="22" width="2" height="2"/>
	</g>
	<g>
		<path d="M11,9v10h2v-2h9v12h-6v2h8V9H11z M22,15h-9v-4h9V15z"/>
		<path d="M3,29h-6V17h9v2h2V9H-5v22h8V29z M-3,11h9v4h-9V11z"/>
		<rect x="19" y="12" width="2" height="2"/>
	</g>
</g>
</svg>
