<?xml version="1.0" encoding="utf-8"?>
<!-- Generator: Adobe Illustrator 19.1.0, SVG Export Plug-In . SVG Version: 6.00 Build 0)  -->
<svg version="1.1" id="Layer_1" xmlns="http://www.w3.org/2000/svg" xmlns:xlink="http://www.w3.org/1999/xlink" x="0px" y="0px"
	 width="32px" height="32px" viewBox="0 0 32 32" style="enable-background:new 0 0 32 32;" xml:space="preserve">
<g>
	<path d="M14,30h0.2937622l0.875061-3.5093994c-0.1166992-0.2376709-0.2319336-0.4761353-0.3719482-0.7015381
		c-0.3857422-0.6196289-0.8515625-1.1821289-1.3984375-1.6875c-0.546875-0.5048828-1.1591797-0.9296875-1.8359432-1.2734375
		c0.7602596-0.5625,1.356451-1.2705078,1.7890682-2.125C13.7836914,19.8491211,14,18.9482422,14,18
		c0-0.8227539,0.1586914-1.5986328,0.4765625-2.328125c0.3173828-0.7290039,0.7470703-1.3642578,1.2890625-1.90625
		c0.5415039-0.5415039,1.1767578-0.9711914,1.90625-1.2890625C18.4008789,12.1591797,19.1767578,12,20,12
		c0.8227539,0,1.5986328,0.1591797,2.328125,0.4765625c0.7290039,0.3178711,1.3642578,0.7475586,1.90625,1.2890625
		c0.4450073,0.4454346,0.7952271,0.9699707,1.0892334,1.541626c0.4620972-0.4503174,0.9934082-0.8109741,1.5875244-1.0640869
		c0.0352783-0.0149536,0.0730591-0.0195923,0.1085815-0.0337524c-0.0755005-0.1394653-0.138916-0.2852783-0.2228394-0.4203491
		c-0.3857422-0.6196289-0.8515625-1.1821289-1.3984375-1.6875c-0.546875-0.5048828-1.1591797-0.9296875-1.8359432-1.2734375
		c0.7602596-0.5625,1.356451-1.2705078,1.7890682-2.125C25.7836914,7.8491211,26,6.9482422,26,6
		c0-0.8227539-0.1591797-1.5986328-0.4765625-2.328125c-0.3178711-0.7290039-0.7475586-1.3642578-1.2890625-1.90625
		c-0.5419922-0.5415039-1.1772461-0.9711914-1.90625-1.2890625C21.5986328,0.1591797,20.8227539,0,20,0
		c-0.8232422,0-1.5991211,0.1591797-2.328125,0.4765625c-0.7294922,0.3178711-1.3647461,0.7475586-1.90625,1.2890625
		c-0.5419922,0.5419922-0.9716797,1.1772461-1.2890625,1.90625C14.1586914,4.4013672,14,5.1772461,14,6
		c0,0.9482422,0.2158203,1.8491211,0.6484375,2.703125c0.4321289,0.8544922,1.0283203,1.5625,1.7890568,2.125
		c-0.7812443,0.3959961-1.4794865,0.9013672-2.0937443,1.515625c-0.6147461,0.6147461-1.1201172,1.3125-1.515625,2.09375
		c-0.5625-0.7602539-1.2709961-1.3564453-2.125-1.7890625C9.8486328,12.2163086,8.9477539,12,8,12
		c-0.8232422,0-1.5991211,0.1591797-2.328125,0.4765625c-0.7294922,0.3178711-1.3647461,0.7475586-1.90625,1.2890625
		c-0.5419922,0.5419922-0.9716797,1.1772461-1.2890625,1.90625C2.1586914,16.4013672,2,17.1772461,2,18
		c0,0.9482422,0.2158203,1.8491211,0.6484375,2.703125c0.4321289,0.8544922,1.0283203,1.5625,1.7890573,2.125
		c-0.6772408,0.34375-1.2890573,0.7685547-1.8359323,1.2734375c-0.546875,0.5053711-1.0131836,1.0678711-1.3984375,1.6875
		c-0.3857422,0.6201172-0.6826172,1.2866211-0.8906304,2C0.1040039,28.5029297,0,29.2397461,0,30h2
		c0-0.8227539,0.1586914-1.5986328,0.4765625-2.328125c0.3173828-0.7290039,0.7470703-1.3642578,1.2890625-1.90625
		c0.5415039-0.5415039,1.1767578-0.9711914,1.90625-1.2890625C6.4008789,24.1591797,7.1767578,24,8,24
		c0.8227539,0,1.5986328,0.1591797,2.328125,0.4765625c0.7290039,0.3178711,1.3642578,0.7475586,1.90625,1.2890625
		c0.5415039,0.5419922,0.9711914,1.1772461,1.2890625,1.90625C13.8408203,28.4013672,14,29.1772461,14,30z M16.3203125,7.5546875
		C16.1064453,7.0703125,16,6.5522461,16,6c0-0.5415039,0.1064453-1.0571289,0.3203125-1.546875
		c0.2133789-0.4892578,0.5-0.9140625,0.859375-1.2734375s0.78125-0.6455078,1.265625-0.859375
		C18.9296875,2.1069336,19.4477539,2,20,2c0.5415039,0,1.0571289,0.1069336,1.546875,0.3203125
		c0.4892578,0.2138672,0.9140625,0.5,1.2734375,0.859375s0.6455078,0.7841797,0.859375,1.2734375
		C23.8930664,4.9428711,24,5.4584961,24,6c0,0.5522461-0.1069336,1.0703125-0.3203125,1.5546875
		c-0.2138672,0.484375-0.5,0.90625-0.859375,1.265625s-0.7841797,0.6459961-1.2734375,0.859375
		C21.0571289,9.8935547,20.5415039,10,20,10c-0.5522461,0-1.0703125-0.1064453-1.5546875-0.3203125
		c-0.484375-0.2133789-0.90625-0.5-1.265625-0.859375S16.5336914,8.0390625,16.3203125,7.5546875z M9.546875,21.6796875
		C9.0571289,21.8935547,8.5415039,22,8,22c-0.5522461,0-1.0703125-0.1064453-1.5546875-0.3203125
		c-0.484375-0.2133789-0.90625-0.5-1.265625-0.859375s-0.6459961-0.78125-0.859375-1.265625C4.1064453,19.0703125,4,18.5522461,4,18
		c0-0.5415039,0.1064453-1.0571289,0.3203125-1.546875c0.2133789-0.4892578,0.5-0.9140625,0.859375-1.2734375
		s0.78125-0.6455078,1.265625-0.859375C6.9296875,14.1069336,7.4477539,14,8,14c0.5415039,0,1.0571289,0.1069336,1.546875,0.3203125
		c0.4892578,0.2138672,0.9140625,0.5,1.2734375,0.859375s0.6455078,0.7841797,0.859375,1.2734375
		C11.8930664,16.9428711,12,17.4584961,12,18c0,0.5522461-0.1069336,1.0703125-0.3203125,1.5546875
		c-0.2138672,0.484375-0.5,0.90625-0.859375,1.265625S10.0361328,21.4663086,9.546875,21.6796875z"/>
	<path d="M28.421875,23.84091l-6.674715,6.69034L15.856535,32l1.46875-5.890625l2.28409-2.268465l2-2l5.078125-5.078125
		c0.2915039-0.2910156,0.6274414-0.5175781,1.0078125-0.6796875c0.3798828-0.1611338,0.7783203-0.2421885,1.1953125-0.2421885
		c0.4267578,0,0.828125,0.0839844,1.203125,0.250001c0.375,0.1669922,0.703125,0.390625,0.984375,0.671875
		s0.5048828,0.6123047,0.671875,0.9921875C31.9165039,18.1358318,32,18.5391521,32,18.96591
		c0,0.34375-0.0390625,0.6435547-0.1171875,0.8984375c-0.078125,0.2558594-0.1875,0.4921875-0.328125,0.7109375
		s-0.3076172,0.4296875-0.5,0.6328125c-0.1928711,0.203125-0.4038086,0.4140625-0.6328125,0.6328125L28.421875,23.84091z
		 M28.890625,17.84091c-0.3022461,0-0.5625,0.109375-0.78125,0.328125l-8.97159,8.97159L18.606535,29.25l2.109375-0.53125
		l6.799715-6.78409c-0.0209961-0.0205078-0.0185547-0.046875,0.0078125-0.078125
		c0.0258789-0.03125,0.0493164-0.0361328,0.0703125-0.015625c0.125-0.125,0.3227539-0.3017578,0.59375-0.53125
		c0.2705078-0.2285156,0.5415039-0.4765625,0.8125-0.7421875c0.2705078-0.265625,0.5078125-0.5390625,0.7109375-0.8203125
		s0.3046875-0.5410156,0.3046875-0.78125c0-0.3125-0.1123047-0.578125-0.3359375-0.796875
		C29.4555664,17.950285,29.1923828,17.84091,28.890625,17.84091z"/>
</g>
<g>
</g>
<g>
</g>
<g>
</g>
<g>
</g>
<g>
</g>
<g>
</g>
<g>
</g>
<g>
</g>
<g>
</g>
<g>
</g>
<g>
</g>
<g>
</g>
<g>
</g>
<g>
</g>
<g>
</g>
</svg>
