<?xml version="1.0" encoding="utf-8"?>
<!-- Generator: Adobe Illustrator 19.1.0, SVG Export Plug-In . SVG Version: 6.00 Build 0)  -->
<svg version="1.1" id="Layer_1" xmlns="http://www.w3.org/2000/svg" xmlns:xlink="http://www.w3.org/1999/xlink" x="0px" y="0px"
	 width="32px" height="32px" viewBox="0 0 32 32" style="enable-background:new 0 0 32 32;" xml:space="preserve">
<g>
	<path d="M16,3c1.46875,0,2.8828125,0.1904297,4.2421875,0.5703125C21.6015625,3.9506836,22.875,4.4897461,24.0624943,5.1875
		C25.25,5.8857422,26.3305664,6.7216797,27.3046875,7.6953125C28.2783203,8.6694336,29.1142578,9.75,29.8124943,10.9375
		c0.6977596,1.1875,1.2368221,2.4609375,1.6171932,3.8203125C31.8095703,16.1171875,32,17.53125,32,19
		c0,1.0625-0.1044922,2.1069336-0.3125057,3.1328125c-0.2084904,1.0263672-0.5107365,2.0209961-0.9062443,2.984375
		C30.3852539,26.0810547,29.8955078,27,29.3124943,27.875c-0.5834904,0.875-1.25,1.6875-2,2.4375L25.90625,28.90625
		c0.6562443-0.65625,1.2368164-1.3671875,1.7421875-2.1328125c0.5048828-0.765625,0.9321289-1.5703125,1.28125-2.4140625
		c0.3486328-0.84375,0.6142578-1.7158203,0.796875-2.6171875C29.9086914,20.8413086,30,19.9272461,30,19
		c0-1.2915039-0.1669922-2.5336914-0.5-3.7265625c-0.3334961-1.1923828-0.8046875-2.3071289-1.4140625-3.34375
		c-0.609375-1.0361328-1.3388672-1.9790039-2.1875-2.828125c-0.8491211-0.8486328-1.7919922-1.578125-2.828125-2.1875
		C22.0336914,6.3046875,20.9189453,5.8334961,19.7265625,5.5C18.5336914,5.1669922,17.2915039,5,16,5
		c-1.2919922,0-2.5341797,0.1669922-3.7265625,0.5c-1.1928711,0.3334961-2.3076172,0.8046875-3.34375,1.4140625
		c-1.0366211,0.609375-1.9794922,1.3388672-2.828125,2.1875c-0.8491211,0.8491211-1.578125,1.7919922-2.1875,2.828125
		C3.3046875,12.9663086,2.8330078,14.0810547,2.5,15.2734375C2.1665039,16.4663086,2,17.7084961,2,19
		c0,0.9272461,0.0908203,1.8413086,0.2734375,2.7421875c0.1821289,0.9013672,0.4477539,1.7734375,0.796875,2.6171875
		c0.3486328,0.84375,0.7758789,1.6484375,1.28125,2.4140625C4.8564453,27.5390625,5.4374943,28.25,6.09375,28.90625
		L4.6874948,30.3125c-0.7500002-0.75-1.4169869-1.5625-2.0000002-2.4375C2.1040039,27,1.6142578,26.0810547,1.21875,25.1171875
		c-0.3959961-0.9633789-0.6982422-1.9580078-0.9062554-2.984375C0.1040039,21.1069336,0,20.0625,0,19
		c0-1.46875,0.1899414-2.8828125,0.5703125-4.2421875C0.9501953,13.3984375,1.4892578,12.125,2.1874945,10.9375
		C2.8852539,9.75,3.7211914,8.6694336,4.6953125,7.6953125C5.6689453,6.7216797,6.75,5.8857422,7.9374943,5.1875
		C9.125,4.4897461,10.3984375,3.9506836,11.7578125,3.5703125C13.1171875,3.1904297,14.53125,3,16,3z M16,9
		c1.3852539,0,2.6845703,0.2607422,3.8984375,0.78125c1.2133789,0.5209961,2.2734375,1.234375,3.1796875,2.140625
		s1.6196289,1.9663086,2.140625,3.1796875C25.7392578,16.3154297,26,17.6147461,26,19
		c0,1.3334961-0.2529297,2.609375-0.7578125,3.828125c-0.5053711,1.21875-1.2265625,2.3022461-2.1640625,3.25L21.65625,24.65625
		c0.75-0.75,1.328125-1.6142578,1.734375-2.59375C23.796875,21.0834961,24,20.0625,24,19
		c0-1.1040039-0.2109375-2.140625-0.6328125-3.109375s-0.9951172-1.8149414-1.71875-2.5390625
		c-0.7241211-0.7236328-1.5703125-1.296875-2.5390625-1.71875S17.1040039,11,16,11
		c-1.1044922,0-2.140625,0.2109375-3.109375,0.6328125s-1.8154297,0.9951172-2.5390625,1.71875
		c-0.7241211,0.7241211-1.296875,1.5703125-1.71875,2.5390625S8,17.8959961,8,19c0,1.0625,0.203125,2.0834961,0.609375,3.0625
		c0.40625,0.9794922,0.984375,1.84375,1.734375,2.59375l-1.421875,1.421875c-0.9375-0.9477539-1.6591797-2.03125-2.1640625-3.25
		C6.2524414,21.609375,6,20.3334961,6,19c0-1.3852539,0.2602539-2.6845703,0.78125-3.8984375
		c0.5205078-1.2133789,1.234375-2.2734375,2.140625-3.1796875s1.9658203-1.6196289,3.1796875-2.140625
		C13.3149414,9.2607422,14.6142578,9,16,9z M16,15c0.5415039,0,1.0571289,0.1069336,1.546875,0.3203125
		c0.4892578,0.2138672,0.9140625,0.5,1.2734375,0.859375s0.6455078,0.7841797,0.859375,1.2734375
		C19.8930664,17.9428711,20,18.4584961,20,19c0,0.5522461-0.1069336,1.0703125-0.3203125,1.5546875
		c-0.2138672,0.484375-0.5,0.90625-0.859375,1.265625s-0.7841797,0.6459961-1.2734375,0.859375
		C17.0571289,22.8935547,16.5415039,23,16,23c-0.5522461,0-1.0703125-0.1064453-1.5546875-0.3203125
		c-0.484375-0.2133789-0.90625-0.5-1.265625-0.859375s-0.6459961-0.78125-0.859375-1.265625
		C12.1064453,20.0703125,12,19.5522461,12,19c0-0.5415039,0.1064453-1.0571289,0.3203125-1.546875
		c0.2133789-0.4892578,0.5-0.9140625,0.859375-1.2734375s0.78125-0.6455078,1.265625-0.859375
		C14.9296875,15.1069336,15.4477539,15,16,15z M16,21c0.28125,0,0.5415039-0.0517578,0.78125-0.15625
		c0.2392578-0.1040039,0.4501953-0.2470703,0.6328125-0.4296875c0.1821289-0.1821289,0.3251953-0.3930664,0.4296875-0.6328125
		C17.9477539,19.5419922,18,19.28125,18,19s-0.0522461-0.5415039-0.15625-0.78125
		c-0.1044922-0.2392578-0.2475586-0.4501953-0.4296875-0.6328125c-0.1826172-0.1821289-0.3935547-0.3251953-0.6328125-0.4296875
		C16.5415039,17.0522461,16.28125,17,16,17s-0.5419922,0.0522461-0.78125,0.15625
		c-0.2397461,0.1044922-0.4506836,0.2475586-0.6328125,0.4296875c-0.1826172,0.1826172-0.3256836,0.3935547-0.4296875,0.6328125
		C14.0517578,18.4584961,14,18.71875,14,19s0.0517578,0.5419922,0.15625,0.78125
		c0.1040039,0.2397461,0.2470703,0.4506836,0.4296875,0.6328125c0.1821289,0.1826172,0.3930664,0.3256836,0.6328125,0.4296875
		C15.4580078,20.9482422,15.71875,21,16,21z"/>
</g>
</svg>
