<?xml version="1.0" encoding="utf-8"?>
<!-- Generator: Adobe Illustrator 19.1.0, SVG Export Plug-In . SVG Version: 6.00 Build 0)  -->
<svg version="1.1" id="Layer_1" xmlns="http://www.w3.org/2000/svg" xmlns:xlink="http://www.w3.org/1999/xlink" x="0px" y="0px"
	 width="32px" height="32px" viewBox="0 0 32 32" style="enable-background:new 0 0 32 32;" xml:space="preserve">
<g>
	<path d="M21.1142578,23.3720703c-1.9736328,0.8339844-4.2558594,0.8339844-6.2275391,0
		c-0.9541016-0.4042969-1.8100586-0.9814453-2.543457-1.7148438c-0.7353516-0.7353516-1.3125-1.5908203-1.715332-2.5439453
		C10.2114258,18.1279297,10,17.0800781,10,16s0.2114258-2.1279297,0.6279297-3.1132813
		c0.402832-0.953125,0.9799805-1.8085938,1.7158203-2.5439453c0.7329102-0.7333984,1.5888672-1.3105469,2.5419922-1.7148438
		c1.9736328-0.8339844,4.2558594-0.8339844,6.2275391,0c0.9541016,0.4042969,1.8100586,0.9814453,2.5429688,1.7148438
		l1.4150391-1.4140625c-0.9165039-0.9169922-1.9853516-1.6376953-3.1787109-2.1425781
		c-2.46875-1.0429688-5.3154297-1.0429688-7.7861328,0c-1.1923828,0.5048828-2.2612305,1.2255859-3.1772461,2.1425781
		c-0.918457,0.9179688-1.6396484,1.9873047-2.1430664,3.1787109C8.3944702,13.0337524,8.0985718,14.0031128,8,15H1
		c-0.5523071,0-1,0.4476929-1,1c0,0.5522461,0.4476929,1,1,1h7c0.0985718,0.9968872,0.3944702,1.9662476,0.7861328,2.8925781
		c0.503418,1.1914063,1.2246094,2.2607422,2.1425781,3.1787109c0.9165039,0.9169922,1.9853516,1.6376953,3.1787109,2.1425781
		C15.3417969,25.7353516,16.6513672,26,18,26s2.6582031-0.2646484,3.8935547-0.7861328
		c1.1923828-0.5048828,2.2612305-1.2255859,3.1777344-2.1425781L23.65625,21.6572266
		C22.9233398,22.390625,22.0673828,22.9677734,21.1142578,23.3720703z"/>
	<path d="M31,15H20.8162842C20.4030151,13.8374634,19.3043213,13,18,13c-1.6568604,0-3,1.3431396-3,3s1.3431396,3,3,3
		c1.3043213,0,2.4030151-0.8374634,2.8162842-2H31c0.5523071,0,1-0.4477539,1-1C32,15.4476929,31.5523071,15,31,15z"/>
</g>
</svg>
