<?xml version="1.0" encoding="utf-8"?>
<!-- Generator: Adobe Illustrator 19.1.0, SVG Export Plug-In . SVG Version: 6.00 Build 0)  -->
<svg version="1.1" id="Layer_1" xmlns="http://www.w3.org/2000/svg" xmlns:xlink="http://www.w3.org/1999/xlink" x="0px" y="0px"
	 width="32px" height="32px" viewBox="-7 9 32 32" style="enable-background:new -7 9 32 32;" xml:space="preserve">
<path d="M17,22.0791016v-2.0126953c0-2.208252-2.9767456-3.8903809-7-4.0205078v-2.0126953C10,11.7338867,6.7758789,10,2.5,10
	S-5,11.7338867-5,14.0332031V25c0,2.208252,2.9767456,3.8903809,7,4.0205078v2.0126953c0,2.208252,2.9767456,3.8903809,7,4.0205078
	v2.0126953c0,2.2998047,3.2241211,4.0336914,7.5,4.0336914s7.5-1.7338867,7.5-4.0336914V26.1000977
	C24,23.8914185,21.0232544,22.2092285,17,22.0791016z M15,20.0664063c0,0.8095703-2.1938477,2.0336914-5.5,2.0336914
	S4,20.8759766,4,20.0664063s2.1938477-2.0332031,5.5-2.0332031S15,19.2568359,15,20.0664063z M2.5,12
	C5.8061523,12,8,13.2236328,8,14.0332031s-2.1938477,2.0332031-5.5,2.0332031S-3,14.8427734-3,14.0332031S-0.8061523,12,2.5,12z
	 M2,20.0664063v6.9439697C-1.0178833,26.8924561-3,25.7669067-3,25v-8.1750488
	c1.3770142,0.7872925,3.6345825,1.2554321,5.93573,1.2352295C2.3387451,18.6446533,2,19.3253784,2,20.0664063z M9,26.1000977
	v6.9434814c-3.0178833-0.1179199-5-1.2434692-5-2.010376v-8.1746216c1.4014893,0.8013306,3.6265259,1.2476807,5.9655151,1.2079468
	C9.350769,24.6571045,9,25.34729,9,26.1000977z M22,37.0664063c0,0.8095703-2.1938477,2.0336914-5.5,2.0336914
	S11,37.8759766,11,37.0664063v-8.1745605c1.348938,0.7712402,3.2799683,1.2414551,5.5,1.2414551s4.151062-0.4702148,5.5-1.2414551
	V37.0664063z M16.5,28.1333008c-3.3061523,0-5.5-1.2236328-5.5-2.0332031s2.1938477-2.0336914,5.5-2.0336914
	s5.5,1.2241211,5.5,2.0336914S19.8061523,28.1333008,16.5,28.1333008z"/>
</svg>
