<?xml version="1.0" encoding="utf-8"?>
<!-- Generator: Adobe Illustrator 19.1.0, SVG Export Plug-In . SVG Version: 6.00 Build 0)  -->
<svg version="1.1" id="Layer_1" xmlns="http://www.w3.org/2000/svg" xmlns:xlink="http://www.w3.org/1999/xlink" x="0px" y="0px"
	 width="32px" height="32px" viewBox="0 0 32 32" style="enable-background:new 0 0 32 32;" xml:space="preserve">
<rect x="13" y="4" width="2" height="2"/>
<path d="M17,26.1567383V30H2V10h15v5.8432617l2-2V0H0v32h19v-3.8432617L17,26.1567383z M2,2h15v6H2V2z"/>
<polygon points="21.1938477,31.8999023 21.1938477,30.1000977 23.9130859,30.1000977 14.8134766,21 23.9130859,11.8999023 
	21.1938477,11.8999023 21.1938477,10.1000977 26.9936523,10.1000977 26.9936523,15.8999023 25.1938477,15.8999023 
	25.1938477,13.1806641 18.2744141,20.1000977 28.4287109,20.1000977 26.2822266,17.953125 27.546875,16.6884766 31.8583984,21 
	27.546875,25.3115234 26.2822266,24.046875 28.4287109,21.8999023 18.2744141,21.8999023 25.1938477,28.8193359 
	25.1938477,26.1000977 26.9936523,26.1000977 26.9936523,31.8999023 "/>
<g>
</g>
<g>
</g>
<g>
</g>
<g>
</g>
<g>
</g>
<g>
</g>
<g>
</g>
<g>
</g>
<g>
</g>
<g>
</g>
<g>
</g>
<g>
</g>
<g>
</g>
<g>
</g>
<g>
</g>
</svg>
