<?xml version="1.0" encoding="utf-8"?>
<!-- Generator: Adobe Illustrator 19.1.0, SVG Export Plug-In . SVG Version: 6.00 Build 0)  -->
<svg version="1.1" id="Layer_1" xmlns="http://www.w3.org/2000/svg" xmlns:xlink="http://www.w3.org/1999/xlink" x="0px" y="0px"
	 width="35px" height="32px" viewBox="0 0 35 32" style="enable-background:new 0 0 35 32;" xml:space="preserve">
<g>
	<polygon points="2,2 14,2 14,3 16,3 16,0 0,0 0,27 4,27 4,25 2,25 2,8 4,8 4,6 2,6 	"/>
	<path d="M20,26.0091553V30H8V13h12v2.8336182l2-2.0001221V13v-2V5H6v27h14h2v-3.9907227L20,26.0091553z M8,7h12v4H8V7z"/>
	<polygon points="24.1211643,31.8214283 24.1211643,30.0216236 26.8404026,30.0216236 17.7407932,20.921526 26.8404026,11.8214283 
		24.1211643,11.8214283 24.1211643,10.0216236 29.920969,10.0216236 29.920969,15.8214283 28.1211643,15.8214283 
		28.1211643,13.10219 21.2017307,20.0216236 31.3560276,20.0216236 29.2095432,17.874651 30.4741917,16.6100025 
		34.7857132,20.921526 30.4741917,25.2330494 29.2095432,23.968401 31.3560276,21.8214283 21.2017307,21.8214283 
		28.1211643,28.7408619 28.1211643,26.0216236 29.920969,26.0216236 29.920969,31.8214283 	"/>
</g>
<g>
</g>
<g>
</g>
<g>
</g>
<g>
</g>
<g>
</g>
<g>
</g>
<g>
</g>
<g>
</g>
<g>
</g>
<g>
</g>
<g>
</g>
<g>
</g>
<g>
</g>
<g>
</g>
<g>
</g>
</svg>
