<?xml version="1.0" encoding="utf-8"?>
<!-- Generator: Adobe Illustrator 19.2.1, SVG Export Plug-In . SVG Version: 6.00 Build 0)  -->
<svg version="1.1" id="Layer_1" xmlns="http://www.w3.org/2000/svg" xmlns:xlink="http://www.w3.org/1999/xlink" x="0px" y="0px"
	 width="32px" height="32px" viewBox="0 0 32 32" style="enable-background:new 0 0 32 32;" xml:space="preserve">
<g>
	<g>
		<g>
			<path d="M23,13c1.2392578,0,2.40625,0.2373047,3.5,0.7109375c1.09375,0.4746094,2.046875,1.1171875,2.859375,1.9296875
				S30.8149414,17.40625,31.2890625,18.5C31.7626953,19.59375,32,20.7607422,32,22c0,1.2402344-0.2373047,2.40625-0.7109375,3.5
				c-0.4741211,1.09375-1.1171875,2.046875-1.9296875,2.859375S27.59375,29.8154297,26.5,30.2890625
				C25.40625,30.7636719,24.2392578,31,23,31c-1.2397461,0-2.40625-0.2363281-3.5-0.7109375
				c-1.09375-0.4736328-2.046875-1.1171875-2.859375-1.9296875S15.1845703,26.59375,14.7109375,25.5
				C14.2368164,24.40625,14,23.2402344,14,22c0-1.2392578,0.2368164-2.40625,0.7109375-3.5
				c0.4736328-1.09375,1.1171875-2.046875,1.9296875-2.859375S18.40625,14.1855469,19.5,13.7109375
				C20.59375,13.2373047,21.7602539,13,23,13z M30.25,22c0-1-0.1904297-1.9394531-0.5703125-2.8203125
				C29.2993164,18.2998047,28.78125,17.53125,28.125,16.875s-1.4248047-1.1738281-2.3046875-1.5546875
				C24.9399414,14.9404297,24,14.75,23,14.75s-1.9404297,0.1904297-2.8203125,0.5703125
				C19.2993164,15.7011719,18.53125,16.21875,17.875,16.875s-1.1748047,1.4248047-1.5546875,2.3046875
				C15.9399414,20.0605469,15.75,21,15.75,22s0.1899414,1.9404297,0.5703125,2.8203125
				C16.7001953,25.7011719,17.21875,26.46875,17.875,27.125s1.4243164,1.1748047,2.3046875,1.5546875
				C21.0595703,29.0605469,22,29.25,23,29.25s1.9399414-0.1894531,2.8203125-0.5703125
				C26.7001953,28.2998047,27.46875,27.78125,28.125,27.125s1.1743164-1.4238281,1.5546875-2.3046875
				C30.0595703,23.9404297,30.25,23,30.25,22z"/>
			<polygon points="22.2438316,23.3660088 19.9559288,21.0889702 18.5472984,22.4976006 23.2438316,27.1941338 
				27.9535484,22.484417 26.5449181,21.0757866 24.256216,23.3660088 24.2570152,16.789484 22.2570152,16.789484 			"/>
		</g>
	</g>
	<path d="M12.4248657,25H2v-7h10.7613525c0.2756348-0.7047119,0.6179199-1.3747559,1.026001-2H6V6l10.0688477,5.109375L26,6
		v5.4248657c0.6976929,0.1976318,1.3661499,0.4611816,2,0.7855835V2H4v11l-4,4v10l13.1967773-0.0283813
		C12.8788452,26.3460693,12.6195679,25.6873779,12.4248657,25z M26.0688477,4l-10,4.890625L6.0688477,4H26.0688477z"/>
</g>
<g>
</g>
<g>
</g>
<g>
</g>
<g>
</g>
<g>
</g>
<g>
</g>
<g>
</g>
<g>
</g>
<g>
</g>
<g>
</g>
<g>
</g>
<g>
</g>
<g>
</g>
<g>
</g>
<g>
</g>
</svg>
