<?xml version="1.0" encoding="utf-8"?>
<!-- Generator: Adobe Illustrator 19.1.0, SVG Export Plug-In . SVG Version: 6.00 Build 0)  -->
<svg version="1.1" id="Layer_1" xmlns="http://www.w3.org/2000/svg" xmlns:xlink="http://www.w3.org/1999/xlink" x="0px" y="0px"
	 width="38px" height="32px" viewBox="0 0 38 32" style="enable-background:new 0 0 38 32;" xml:space="preserve">
<g>
	<g>
		<path d="M18,17v15h20V17H18z M35.1973267,19L28,23.7983398L20.8026733,19H35.1973267z M20,30v-9.1315308l8,5.3331909l8-5.3331909
			V30H20z"/>
	</g>
	<path d="M25.1664429,15h2.22229c-0.1747437-0.4238892-0.371582-0.8348389-0.6152954-1.21875
		c-0.390625-0.6142578-0.8623047-1.171875-1.4140625-1.671875c-0.5522461-0.5-1.171875-0.921875-1.859375-1.265625
		c0.78125-0.5625,1.3930664-1.265625,1.8359375-2.109375C25.7783203,7.890625,26,6.9794922,26,6
		c0-0.8222656-0.15625-1.5986328-0.46875-2.328125c-0.3125-0.7285156-0.7421875-1.3671875-1.2890625-1.9140625
		S23.0571289,0.78125,22.328125,0.46875C21.5986328,0.15625,20.8227539,0,20,0c-0.8334961,0-1.6123047,0.15625-2.3359375,0.46875
		c-0.7241211,0.3125-1.359375,0.7421875-1.90625,1.2890625S14.78125,2.9433594,14.46875,3.671875
		C14.15625,4.4013672,14,5.1777344,14,6c0,0.9794922,0.2211914,1.890625,0.6640625,2.734375
		C15.1064453,9.578125,15.71875,10.28125,16.5,10.84375C15.7080078,11.2402344,15,11.75,14.375,12.375
		s-1.1357422,1.3339844-1.53125,2.125c-0.5625-0.78125-1.265625-1.3925781-2.109375-1.8359375
		C9.890625,12.2216797,8.9790039,12,8,12c-0.8334961,0-1.6123047,0.15625-2.3359375,0.46875
		c-0.7241211,0.3125-1.359375,0.7421875-1.90625,1.2890625S2.78125,14.9433594,2.46875,15.671875
		C2.15625,16.4013672,2,17.1777344,2,18c0,0.9794922,0.2211914,1.890625,0.6640625,2.734375
		C3.1064453,21.578125,3.71875,22.28125,4.5,22.84375c-0.6875,0.34375-1.3076172,0.765625-1.859375,1.265625
		c-0.5522461,0.5-1.0234375,1.0576172-1.4140625,1.671875c-0.390625,0.6152344-0.6928711,1.28125-0.90625,2
		C0.1064453,28.5,0,29.2402344,0,30h2c0-0.8222656,0.15625-1.5986328,0.46875-2.328125
		c0.3125-0.7285156,0.7421875-1.3671875,1.2890625-1.9140625s1.1821289-0.9765625,1.90625-1.2890625
		C6.3876953,24.15625,7.1665039,24,8,24c0.8227539,0,1.5986328,0.15625,2.328125,0.46875
		c0.7290039,0.3125,1.3671875,0.7421875,1.9140625,1.2890625S13.21875,26.9433594,13.53125,27.671875
		C13.84375,28.4013672,14,29.1777344,14,30h2c0-0.7597656-0.1069336-1.5-0.3203125-2.21875
		c-0.2138672-0.71875-0.515625-1.3847656-0.90625-2c-0.390625-0.6142578-0.8623047-1.171875-1.4140625-1.671875
		c-0.5522461-0.5-1.171875-0.921875-1.859375-1.265625c0.78125-0.5625,1.3930664-1.265625,1.8359375-2.109375
		C13.7783203,19.890625,14,18.9794922,14,18c0-0.8222656,0.15625-1.5986328,0.46875-2.328125
		c0.3125-0.7285156,0.7421875-1.3671875,1.2890625-1.9140625s1.1821289-0.9765625,1.90625-1.2890625
		C18.3876953,12.15625,19.1665039,12,20,12c0.8227539,0,1.5986328,0.15625,2.328125,0.46875
		c0.7290039,0.3125,1.3671875,0.7421875,1.9140625,1.2890625C24.6098633,14.1254883,24.9047241,14.5499268,25.1664429,15z
		 M11.6875,19.5546875c-0.2084961,0.484375-0.4951172,0.9091797-0.859375,1.2734375
		c-0.3647461,0.3652344-0.7890625,0.6513672-1.2734375,0.859375C9.0703125,21.8964844,8.5517578,22,8,22
		c-0.5522461,0-1.0703125-0.1035156-1.5546875-0.3125c-0.484375-0.2080078-0.9091797-0.4941406-1.2734375-0.859375
		c-0.3647461-0.3642578-0.6513672-0.7890625-0.859375-1.2734375C4.1040039,19.0703125,4,18.5527344,4,18
		c0-0.5517578,0.1040039-1.0703125,0.3125-1.5546875c0.2080078-0.484375,0.4946289-0.9082031,0.859375-1.2734375
		c0.3642578-0.3642578,0.7890625-0.6503906,1.2734375-0.859375C6.9296875,14.1044922,7.4477539,14,8,14
		c0.5517578,0,1.0703125,0.1044922,1.5546875,0.3125c0.484375,0.2089844,0.9086914,0.4951172,1.2734375,0.859375
		c0.3642578,0.3652344,0.6508789,0.7890625,0.859375,1.2734375C11.8955078,16.9296875,12,17.4482422,12,18
		C12,18.5527344,11.8955078,19.0703125,11.6875,19.5546875z M21.5546875,9.6875C21.0703125,9.8964844,20.5517578,10,20,10
		c-0.5522461,0-1.0703125-0.1035156-1.5546875-0.3125c-0.484375-0.2080078-0.9091797-0.4941406-1.2734375-0.859375
		c-0.3647461-0.3642578-0.6513672-0.7890625-0.859375-1.2734375C16.1040039,7.0703125,16,6.5527344,16,6
		c0-0.5517578,0.1040039-1.0703125,0.3125-1.5546875c0.2080078-0.484375,0.4946289-0.9082031,0.859375-1.2734375
		c0.3642578-0.3642578,0.7890625-0.6503906,1.2734375-0.859375C18.9296875,2.1044922,19.4477539,2,20,2
		c0.5517578,0,1.0703125,0.1044922,1.5546875,0.3125c0.484375,0.2089844,0.9086914,0.4951172,1.2734375,0.859375
		c0.3642578,0.3652344,0.6508789,0.7890625,0.859375,1.2734375C23.8955078,4.9296875,24,5.4482422,24,6
		c0,0.5527344-0.1044922,1.0703125-0.3125,1.5546875c-0.2084961,0.484375-0.4951172,0.9091797-0.859375,1.2734375
		C22.4633789,9.1933594,22.0390625,9.4794922,21.5546875,9.6875z"/>
</g>
<g>
</g>
<g>
</g>
<g>
</g>
<g>
</g>
<g>
</g>
<g>
</g>
<g>
</g>
<g>
</g>
<g>
</g>
<g>
</g>
<g>
</g>
<g>
</g>
<g>
</g>
<g>
</g>
<g>
</g>
</svg>
