<?xml version="1.0" encoding="utf-8"?>
<!-- Generator: Adobe Illustrator 19.1.0, SVG Export Plug-In . SVG Version: 6.00 Build 0)  -->
<svg version="1.1" id="Layer_1" xmlns="http://www.w3.org/2000/svg" xmlns:xlink="http://www.w3.org/1999/xlink" x="0px" y="0px"
	 width="32px" height="32px" viewBox="0 0 32 32" style="enable-background:new 0 0 32 32;" xml:space="preserve">
<g>
	<g>
		<path d="M14.1629639,30c-0.0072632-0.1046143-0.0306396-0.2044678-0.0306396-0.3110352
			c0-0.5928955,0.1235352-1.1580811,0.3532104-1.6889648H8V6h8v8h8v0.1335449
			c0.0223389-0.0003662,0.0440063-0.005127,0.0664063-0.005127c0.6784668,0,1.3360596,0.1584473,1.9335938,0.4603882V12.578125
			L17.421875,4H15l-4-4H0v26h6v4H14.1629639z M18,7.421875L22.578125,12H18V7.421875z M2,24V2h8.15625l2,2H6v20H2z"/>
	</g>
	<path d="M31.8222656,30.5875206C31.9399414,30.3160362,32,30.0133018,32,29.6890831
		c0-0.3759766-0.0820313-0.7172852-0.2514648-1.0444336c-0.171875-0.3310547-0.40625-0.6069336-0.715332-0.8417969
		l-0.2944336-0.2236328l0.1279297-0.347168c0.2856445-0.7753906,0.4306641-1.6040039,0.4306641-2.4628906
		c0-0.75-0.1137695-1.4858398-0.3383789-2.1860352c-0.2250977-0.7021484-0.5498047-1.359375-0.9658203-1.953125
		c-0.4160156-0.5927734-0.921875-1.1259766-1.503418-1.5849609c-0.5776367-0.4550781-1.2294922-0.8173828-1.9379883-1.0761719
		l-0.2172852-0.0795898l-0.0800781-0.2172852c-0.1708984-0.4638672-0.4501953-0.8291016-0.8530273-1.1162109
		c-0.8007813-0.569335-1.8691406-0.5698233-2.6708984,0.0004883c-0.4023438,0.2866211-0.6816406,0.6518555-0.8525391,1.1157227
		l-0.0800781,0.2172852l-0.2177734,0.0795898c-0.7075195,0.2583008-1.359375,0.6206055-1.9375,1.0761719
		c-0.5810547,0.4584961-1.0869141,0.9916992-1.5029297,1.5854492c-0.4165039,0.59375-0.7412109,1.2504883-0.9658203,1.9521484
		s-0.3388672,1.4375-0.3388672,2.1865234c0,0.8588867,0.1450195,1.6875,0.4306641,2.4628906l0.1279297,0.347168
		l-0.2944336,0.2236328c-0.3100586,0.2353516-0.5439453,0.5107422-0.7148438,0.8417969
		c-0.1699219,0.3261719-0.2519531,0.6674805-0.2519531,1.0444336c0,0.3242188,0.0600586,0.6269531,0.1782227,0.8989258
		c0.1201172,0.2768555,0.2880859,0.5239258,0.4990234,0.7353516c0.2099609,0.2104492,0.4575195,0.378418,0.7353516,0.4990234
		c0.5322266,0.2314453,1.2163086,0.2412109,1.8188477-0.0043945c0.2905273-0.1186523,0.5361328-0.2924805,0.7509766-0.5307617
		l0.2587891-0.2875977l0.3432617,0.1782227c2.0991211,1.0913086,4.5981445,1.0922852,6.6992188,0l0.34375-0.1782227
		l0.2587891,0.2880859c0.2138672,0.2382813,0.4594727,0.4116211,0.75,0.5302734
		c0.6025391,0.2460938,1.2856445,0.237793,1.8193359,0.0043945c0.277832-0.1210938,0.5253906-0.2890625,0.7353516-0.4990234
		C31.5332031,31.1129112,31.7011719,30.8653526,31.8222656,30.5875206z M28.7578125,27.4825401l-0.0683594,0.1166992
		l-0.1176758,0.065918c-0.5,0.2807617-0.8369141,0.6630859-1.0292969,1.1694336l-0.0488281,0.128418l-0.1079102,0.0854492
		c-0.4672852,0.3706055-0.9941406,0.6567383-1.5668945,0.8505859c-0.5693359,0.1923828-1.1586914,0.2900391-1.7524414,0.2900391
		c-0.5942383,0-1.1835938-0.0976563-1.7524414-0.2900391c-0.5727539-0.1933594-1.1000977-0.4794922-1.5673828-0.8505859
		l-0.1079102-0.0854492l-0.0488281-0.1279297c-0.1928711-0.5068359-0.5297852-0.8896484-1.0292969-1.1699219l-0.1176758-0.065918
		l-0.0688477-0.1166992c-0.4829102-0.8212891-0.7275391-1.7338867-0.7275391-2.7133789
		c0-1.0439453,0.284668-2.0214844,0.8466797-2.9042969c0.5615234-0.8818359,1.3261719-1.5566406,2.2724609-2.0058594
		l0.3457031-0.1640625l0.2485352,0.2905273c0.2158203,0.2524414,0.4663086,0.4384766,0.7651367,0.5698242
		c0.6005859,0.265625,1.2822266,0.2651367,1.8818359,0.0004883c0.2993164-0.1313477,0.5498047-0.3178711,0.7666016-0.5703125
		l0.2485352-0.2905273l0.3452148,0.1640625c0.9458008,0.4492188,1.7104492,1.1240234,2.2719727,2.0058594
		c0.5620117,0.8837891,0.8466797,1.8608398,0.8466797,2.9042969C29.4858398,25.7491417,29.2412109,26.6622276,28.7578125,27.4825401
		z"/>
</g>
<g>
</g>
<g>
</g>
<g>
</g>
<g>
</g>
<g>
</g>
<g>
</g>
<g>
</g>
<g>
</g>
<g>
</g>
<g>
</g>
<g>
</g>
<g>
</g>
<g>
</g>
<g>
</g>
<g>
</g>
</svg>
