<?xml version="1.0" encoding="utf-8"?>
<!-- Generator: Adobe Illustrator 19.1.0, SVG Export Plug-In . SVG Version: 6.00 Build 0)  -->
<svg version="1.1" id="Layer_1" xmlns="http://www.w3.org/2000/svg" xmlns:xlink="http://www.w3.org/1999/xlink" x="0px" y="0px"
	 width="32px" height="32px" viewBox="0 0 32 32" style="enable-background:new 0 0 32 32;" xml:space="preserve">
<g>
	<path d="M19,12v-2H2V8h26v0.3570557c0.1151123,0.041748,0.2312012,0.0801392,0.3442383,0.1292725
		C28.9692383,8.7595215,29.5145874,9.1340332,30,9.5722046V6H0v12h18v-2H2v-4H19z"/>
	<path d="M26,10c0.5415039,0,1.0571289,0.1074219,1.546875,0.3203125c0.4892578,0.2138672,0.9140625,0.5,1.2734375,0.859375
		s0.6455078,0.7841797,0.859375,1.2734375C29.8930664,12.9433594,30,13.4589844,30,14v2h2v10H20V16h2v-2
		c0-0.5410156,0.1064453-1.0566406,0.3203125-1.546875c0.2133789-0.4892578,0.5-0.9140625,0.859375-1.2734375
		s0.78125-0.6455078,1.265625-0.859375C24.9296875,10.1074219,25.4477539,10,26,10z M30,18h-8v6h8V18z M24,16h4v-2
		c0-0.2705078-0.0522461-0.5283203-0.15625-0.7734375c-0.1044922-0.2441406-0.2475586-0.4580078-0.4296875-0.640625
		c-0.1826172-0.1816406-0.3959961-0.3251953-0.640625-0.4296875C26.5283203,12.0527344,26.2705078,12,26,12
		c-0.28125,0-0.5419922,0.0527344-0.78125,0.15625c-0.2397461,0.1044922-0.4506836,0.2480469-0.6328125,0.4296875
		c-0.1826172,0.1826172-0.3256836,0.3935547-0.4296875,0.6328125C24.0517578,13.4589844,24,13.71875,24,14V16z"/>
</g>
<g>
</g>
<g>
</g>
<g>
</g>
<g>
</g>
<g>
</g>
<g>
</g>
<g>
</g>
<g>
</g>
<g>
</g>
<g>
</g>
<g>
</g>
<g>
</g>
<g>
</g>
<g>
</g>
<g>
</g>
</svg>
