<svg id="Layer_1" data-name="Layer 1" xmlns="http://www.w3.org/2000/svg" width="32" height="32" viewBox="0 0 32 32">
  <title>Artboard 1</title>
  <path d="M0,15a12.87,12.87,0,0,1,1-3.93A13.06,13.06,0,0,1,3.14,7.59L4.55,9a10.44,10.44,0,0,0-1.7,2.83A11.49,11.49,0,0,0,2,15Zm3.14,9.5A13.06,13.06,0,0,1,1,21a13.45,13.45,0,0,1-1-4H2a12.13,12.13,0,0,0,.84,3.25,10.43,10.43,0,0,0,1.7,2.83ZM4.55,6.19A13.1,13.1,0,0,1,12,3.09v2a11.75,11.75,0,0,0-3.2.8A10.45,10.45,0,0,0,6,7.59ZM12,29a13.1,13.1,0,0,1-7.45-3.09L6,24.5A10.43,10.43,0,0,0,8.8,26.2,11.72,11.72,0,0,0,12,27ZM16,1V13h3l-4,4-4-4h3V1Zm5.45,24.91A13.1,13.1,0,0,1,14,29V27a11.72,11.72,0,0,0,3.2-.8A10.44,10.44,0,0,0,20,24.5ZM28,18V15H20l2-2h6V10l4,4Zm-2-1a13.1,13.1,0,0,1-3.09,7.45l-1.41-1.42a10.45,10.45,0,0,0,1.7-2.83A11.75,11.75,0,0,0,24,17Z"/>
</svg>
