<?xml version="1.0" encoding="utf-8"?>
<!-- Generator: Adobe Illustrator 19.1.0, SVG Export Plug-In . SVG Version: 6.00 Build 0)  -->
<svg version="1.1" id="Layer_1" xmlns="http://www.w3.org/2000/svg" xmlns:xlink="http://www.w3.org/1999/xlink" x="0px" y="0px"
	 width="32px" height="32px" viewBox="0 0 32 32" style="enable-background:new 0 0 32 32;" xml:space="preserve">
<g>
	<path d="M24.71875,14.640625c0.4267578,0.75,0.7470703,1.5341797,0.9609375,2.3515625C25.8930664,17.8105469,26,18.6464844,26,19.5
		v1.609375L16,26.125L6,21.109375c0-0.625,0.0078125-1.2080078,0.0234375-1.75
		c0.015625-0.5410156,0.0625-1.0703125,0.140625-1.5859375s0.203125-1.0253906,0.375-1.53125
		c0.171875-0.5048828,0.4189453-1.0390625,0.7421875-1.6015625L4,13v9.171875c0.3017578,0.1044922,0.5751953,0.25,0.8203125,0.4375
		c0.2446289,0.1875,0.4555664,0.40625,0.6328125,0.65625c0.1767578,0.25,0.3125,0.5234375,0.40625,0.8203125S6,24.6875,6,25v5H0v-5
		c0-0.3125,0.046875-0.6171875,0.140625-0.9140625s0.2290039-0.5703125,0.40625-0.8203125
		c0.1767578-0.25,0.3876953-0.46875,0.6328125-0.65625C1.4243164,22.421875,1.6977539,22.2763672,2,22.171875V12l-2-1l16-8l16,8
		L24.71875,14.640625z M4,25c0-0.2705078-0.0991211-0.5048828-0.296875-0.703125C3.5048828,24.0996094,3.2705078,24,3,24
		c-0.2709961,0-0.5053711,0.0996094-0.703125,0.296875C2.0986328,24.4951172,2,24.7294922,2,25v3h2V25z M4.46875,11L16,16.765625
		L27.53125,11L16,5.234375L4.46875,11z M24,19.875c0-0.8017578-0.078125-1.5488281-0.234375-2.2421875
		c-0.15625-0.6923828-0.4326172-1.3925781-0.8281307-2.1015625L16,19l-6.9375057-3.46875
		c-0.3437443,0.6044922-0.6069279,1.2421875-0.7890568,1.9140625C8.0908203,18.1171875,8,18.8027344,8,19.5v0.375l8,4L24,19.875z"/>
</g>
</svg>
