<?xml version="1.0" encoding="utf-8"?>
<!-- Generator: Adobe Illustrator 19.1.0, SVG Export Plug-In . SVG Version: 6.00 Build 0)  -->
<svg version="1.1" id="Layer_1" xmlns="http://www.w3.org/2000/svg" xmlns:xlink="http://www.w3.org/1999/xlink" x="0px" y="0px"
	 width="32px" height="32px" viewBox="0 0 32 32" style="enable-background:new 0 0 32 32;" xml:space="preserve">
<g>
	<path d="M18,20.3187866c-0.2709351,0.1622314-0.5487061,0.3137817-0.8445435,0.4366455
		c0.1680908-0.4598389,0.2988281-0.9296875,0.3917847-1.4077759c0.0929565-0.4781494,0.161438-0.9603882,0.2058716-1.4476929
		h2.3536987c0.0808716-0.427124,0.2050781-0.8444824,0.3804932-1.2466431
		c0.0700073-0.1606445,0.1671143-0.3010864,0.2487793-0.4533081h-2.8634644
		c0.0174561-0.5661621,0.0265503-1.1330566,0.0265503-1.7000122c0-0.5661011-0.0132446-1.1330566-0.0397949-1.7000122h3.2272949
		c0.0705566,0.2838745,0.1237183,0.5669556,0.1594238,0.8499756c0.0352783,0.2839355,0.0531006,0.5669556,0.0531006,0.8500366
		c0,0.2838745-0.0178223,0.5669556-0.0531006,0.8499756c-0.0024414,0.0194092-0.0083008,0.0387573-0.0109253,0.0581665
		c0.1675415-0.2224121,0.3339233-0.446167,0.5304565-0.6425171c0.3545532-0.3548584,0.7665405-0.6449585,1.2025757-0.9041748
		c-0.0674438-0.9320068-0.2753296-1.8208008-0.6397095-2.6618652c-0.4473877-1.0309448-1.0558472-1.9324341-1.8261719-2.7026978
		c-0.7703247-0.7703247-1.6713867-1.3787842-2.7027588-1.8261719C16.7678223,6.2241211,15.6679688,6,14.4992065,6
		s-2.269043,0.2241211-3.300415,0.6707153C10.1669922,7.118103,9.2663574,7.7265625,8.4960938,8.4968872
		C7.725769,9.2671509,7.1168823,10.1686401,6.6699219,11.199585C6.2224731,12.2313843,5.9992065,13.3312378,5.9992065,14.5
		c0,1.1870117,0.225769,2.2976685,0.6773071,3.3335571c0.4515991,1.0359497,1.0645752,1.937439,1.8394775,2.7027588
		c0.7744751,0.7661743,1.6821289,1.367981,2.7226563,1.8062744C12.2787476,22.7808228,13.3922729,23,14.5788574,23
		c0.7703247,0,1.5140991-0.1012573,2.2312622-0.305481C17.2236938,22.5772705,17.6173096,22.4228516,18,22.2479858V20.3187866z
		 M13.0648193,10.6218872c0.0352783-0.2125244,0.0817871-0.4449463,0.1394653-0.6972656
		c0.057251-0.2523804,0.1261597-0.5088501,0.2058716-0.7703247c0.0796509-0.2606812,0.1726074-0.4996948,0.2788696-0.7172241
		c0.1062622-0.2166138,0.225769-0.3934326,0.3585815-0.53125c0.1328125-0.1369629,0.2830811-0.2058105,0.4515991-0.2058105
		c0.1502075,0,0.2921753,0.0713501,0.4249878,0.2124634c0.1328125,0.1419678,0.2523193,0.321228,0.3585815,0.5379028
		c0.1062622,0.2174683,0.1992188,0.4581909,0.2789307,0.7238159c0.0796509,0.265625,0.1481323,0.5245972,0.2058716,0.7769775
		c0.057251,0.2523193,0.1062012,0.4830933,0.1460571,0.6906128c0.039856,0.208374,0.0639038,0.361084,0.0730591,0.4581909
		h-2.9882813C13.0071411,10.9937134,13.0291138,10.8343506,13.0648193,10.6218872z M7.9116821,16.2000122
		c-0.0709839-0.2830811-0.1240845-0.5661621-0.1593628-0.8500366C7.7166138,15.0669556,7.6992188,14.7838745,7.6992188,14.5
		c0-0.2830811,0.017395-0.5661011,0.0531006-0.8500366c0.0352783-0.28302,0.0883789-0.5661011,0.1593628-0.8499756h3.227356
		c-0.0531006,1.1339111-0.0531006,2.2669678,0,3.4000244H7.9116821z M10.0167847,19.6132813
		c-0.5623779-0.4955444-1.0292969-1.0666504-1.4011841-1.7133179h2.65625
		c0.0531006,0.4873047,0.1261597,0.9745483,0.2191162,1.4609375c0.0930176,0.4873047,0.2279053,0.9612427,0.4050903,1.4211426
		C11.2054443,20.4989624,10.5787354,20.1096802,10.0167847,19.6132813z M11.5109253,9.6323853
		c-0.0975342,0.4831543-0.1772461,0.9720459-0.2390747,1.4675903h-2.65625
		c0.3718872-0.645813,0.8433838-1.2193604,1.4144287-1.7199097c0.571106-0.4996948,1.2019653-0.8914795,1.8925781-1.175415
		C11.7454224,8.6744995,11.6080322,9.1501465,11.5109253,9.6323853z M15.9733887,18.3914185
		c-0.0265503,0.2124634-0.0664063,0.4448853-0.1195068,0.6972656c-0.0531006,0.2523193-0.1195068,0.5096436-0.1992188,0.7702637
		c-0.0797119,0.2614746-0.1726685,0.4980469-0.2789307,0.7105713c-0.1062012,0.2125244-0.2324219,0.3876343-0.378479,0.5245972
		c-0.1461182,0.1378174-0.3121338,0.2058716-0.4980469,0.2058716c-0.1772461,0-0.3345337-0.0680542-0.4714966-0.2058716
		c-0.1373901-0.1369629-0.2589722-0.3120728-0.3652344-0.5245972s-0.1992188-0.4515381-0.2789307-0.7171631
		c-0.0796509-0.265625-0.1460571-0.5221558-0.1992188-0.7703247c-0.0531006-0.2473755-0.0975342-0.4781494-0.1328125-0.6906128
		c-0.0356445-0.2125244-0.0576782-0.3760376-0.0664063-0.4914551h3.0546875
		C16.0219727,18.0153809,16,18.178894,15.9733887,18.3914185z M16.1593628,16.2000122h-3.3203125
		C12.8125,15.6338501,12.7991943,15.0669556,12.7991943,14.5c0-0.5578003,0.0133057-1.1239624,0.039856-1.7000122h3.3203125
		c0.0265503,0.5760498,0.039856,1.1422119,0.039856,1.7000122C16.1992188,15.0669556,16.1859131,15.6338501,16.1593628,16.2000122z
		 M18.9484253,9.3535156c0.5752563,0.5005493,1.0533447,1.0823975,1.4343872,1.74646h-2.6695557
		c-0.0622559-0.5046997-0.1485596-1.0002441-0.2589722-1.4874878c-0.1108398-0.4864502-0.2548218-0.9645386-0.4316406-1.4343872
		C17.7307129,8.4619751,18.3727417,8.8538208,18.9484253,9.3535156z"/>
</g>
<path d="M2,4h25.9992065v9.3567505c0.1154175,0.0418091,0.2317505,0.0803223,0.3450317,0.1295776
	c0.6246338,0.2730103,1.1697388,0.6473389,1.6549683,1.0852661V2H0v25h18.0000057v-2H2V4z"/>
<path d="M26,15c0.5415039,0,1.0571289,0.1074219,1.546875,0.3203125c0.4892578,0.2138672,0.9140625,0.5,1.2734375,0.859375
	s0.6455078,0.7841797,0.859375,1.2734375C29.8930664,17.9433594,30,18.4589844,30,19v2h2v10H20V21h2v-2
	c0-0.5410156,0.1064453-1.0566406,0.3203125-1.546875c0.2133789-0.4892578,0.5-0.9140625,0.859375-1.2734375
	s0.78125-0.6455078,1.265625-0.859375C24.9296875,15.1074219,25.4477539,15,26,15z M30,23h-8v6h8V23z M24,21h4v-2
	c0-0.2705078-0.0522461-0.5283203-0.15625-0.7734375c-0.1044922-0.2441406-0.2475586-0.4580078-0.4296875-0.640625
	c-0.1826172-0.1816406-0.3959961-0.3251953-0.640625-0.4296875C26.5283203,17.0527344,26.2705078,17,26,17
	c-0.28125,0-0.5419922,0.0527344-0.78125,0.15625c-0.2397461,0.1044922-0.4506836,0.2480469-0.6328125,0.4296875
	c-0.1826172,0.1826172-0.3256836,0.3935547-0.4296875,0.6328125C24.0517578,18.4589844,24,18.71875,24,19V21z"/>
<g>
</g>
<g>
</g>
<g>
</g>
<g>
</g>
<g>
</g>
<g>
</g>
<g>
</g>
<g>
</g>
<g>
</g>
<g>
</g>
<g>
</g>
<g>
</g>
<g>
</g>
<g>
</g>
<g>
</g>
</svg>
