<?xml version="1.0" encoding="utf-8"?>
<!-- Generator: Adobe Illustrator 19.1.0, SVG Export Plug-In . SVG Version: 6.00 Build 0)  -->
<svg version="1.1" id="Layer_1" xmlns="http://www.w3.org/2000/svg" xmlns:xlink="http://www.w3.org/1999/xlink" x="0px" y="0px"
	 width="32px" height="32px" viewBox="0 0 32 32" style="enable-background:new 0 0 32 32;" xml:space="preserve">
<path d="M24,3h-2H10H8H1v6v2v4v2v4v2v6h14h2h14v-6v-2v-4v-2v-4V9V3H24z M10,5h12v4h-5h-2h-5V5z M3,5h5v4H3V5z M3,11h5h2h5v4h-5H8H3
	V11z M22,21h-5h-2h-5v-4h5h2h5V21z M3,17h5v4H3V17z M15,27H3v-4h5h2h5V27z M29,27H17v-4h5h2h5V27z M29,21h-5v-4h5V21z M29,15h-5h-2
	h-5v-4h5h2h5V15z M24,9V5h5v4H24z"/>
</svg>
