<?xml version="1.0" encoding="utf-8"?>
<!-- Generator: Adobe Illustrator 19.1.0, SVG Export Plug-In . SVG Version: 6.00 Build 0)  -->
<svg version="1.1" id="Layer_1" xmlns="http://www.w3.org/2000/svg" xmlns:xlink="http://www.w3.org/1999/xlink" x="0px" y="0px"
	 width="32px" height="32px" viewBox="0 0 32 32" style="enable-background:new 0 0 32 32;" xml:space="preserve">
<g>
	<path d="M32,22c0,0.90625-0.1171875,1.78125-0.3515625,2.625s-0.5678711,1.6386719-1,2.3828125
		c-0.4326172,0.7451172-0.9506836,1.421875-1.5546875,2.03125c-0.6044922,0.609375-1.2734375,1.1357422-2.0078125,1.578125
		c-0.734375,0.4433594-1.5234432,0.7841797-2.3671875,1.0234375C23.875,31.8808594,23,32,22.09375,32
		c-1.3959961,0-2.7060547-0.2578125-3.9296875-0.7734375c-1.2241211-0.515625-2.2919922-1.2236328-3.203125-2.125
		c-0.9116211-0.9003906-1.6328125-1.9609375-2.1640625-3.1796875S12,23.3964844,12,22
		c0-1.375,0.2626953-2.6689453,0.7890625-3.8828125C13.3149414,16.9042969,14.03125,15.84375,14.9374943,14.9375
		c0.9062557-0.90625,1.965826-1.6220703,3.1796932-2.1484375C19.3305664,12.2636719,20.625,12,22,12
		s2.6689453,0.2636719,3.8828125,0.7890625C27.0961914,13.3154297,28.15625,14.03125,29.0624943,14.9375
		c0.9062557,0.90625,1.622076,1.9667969,2.1484432,3.1796875C31.7368164,19.3310547,32,20.625,32,22z M14,22
		c0,0.3339844,0.0205078,0.6669922,0.0624943,1c0.0415096,0.3339844,0.1040096,0.6669922,0.1875057,1h3.796875
		c-0.0625-1.3330078-0.0625-2.6660156,0-4H14.25c-0.0834961,0.3339844-0.1459961,0.6669922-0.1875057,1
		C14.0205078,21.3339844,14,21.6669922,14,22z M18.96875,14.59375c-0.8125,0.3339844-1.5546875,0.7949219-2.2265625,1.3828125
		C16.0703125,16.5654297,15.515625,17.2402344,15.078125,18h3.125c0.0727539-0.5830078,0.1665039-1.1582031,0.28125-1.7265625
		C18.5986328,15.7060547,18.7602539,15.1464844,18.96875,14.59375z M15.078125,26
		c0.4375,0.7607422,0.9868164,1.4326172,1.6484375,2.015625c0.6611328,0.5839844,1.3984375,1.0419922,2.2109318,1.375
		c-0.2084904-0.5410156-0.3671818-1.0986328-0.4765568-1.671875C18.3515625,27.1464844,18.265625,26.5732422,18.203125,26H15.078125
		z M23.953125,24C23.984375,23.3339844,24,22.6669922,24,22c0-0.65625-0.015625-1.3222656-0.046875-2h-3.90625
		C20.015625,20.6777344,20,21.34375,20,22c0,0.6669922,0.015625,1.3339844,0.046875,2H23.953125z M22,30
		c0.21875,0,0.4140625-0.0800781,0.5859375-0.2421875c0.171875-0.1611328,0.3203125-0.3671875,0.4453125-0.6171875
		s0.234375-0.5283203,0.328125-0.8359375c0.09375-0.3066406,0.171875-0.609375,0.234375-0.90625
		s0.109375-0.5703125,0.140625-0.8203125S23.7915039,26.1357422,23.8124943,26H20.21875
		c0.0102539,0.1357422,0.0361328,0.328125,0.078125,0.578125c0.0415039,0.25,0.09375,0.5214844,0.15625,0.8125
		c0.0625,0.2919922,0.140625,0.59375,0.2343693,0.90625c0.0937557,0.3125,0.2031307,0.59375,0.3281307,0.84375
		s0.2680664,0.4560547,0.4296875,0.6171875C21.6064453,29.9199219,21.7915039,30,22,30z M22,14
		c-0.1982422,0-0.375,0.0810547-0.53125,0.2421875c-0.1562557,0.1621094-0.296875,0.3701172-0.421875,0.625
		c-0.125,0.2558594-0.2343807,0.5371094-0.328125,0.84375c-0.09375,0.3076172-0.1748047,0.609375-0.2421875,0.90625
		c-0.0678711,0.296875-0.1225586,0.5703125-0.1640682,0.8203125c-0.0419865,0.25-0.0678654,0.4375-0.0781193,0.5625H23.75
		c-0.0107422-0.1142578-0.0390625-0.2939453-0.0859375-0.5390625c-0.046875-0.2441406-0.1044922-0.515625-0.171875-0.8125
		C23.4243164,16.3515625,23.34375,16.046875,23.25,15.734375s-0.203125-0.5957031-0.328125-0.8515625
		C22.796875,14.6279297,22.65625,14.4169922,22.5,14.25C22.34375,14.0839844,22.1767578,14,22,14z M28.921875,18
		c-0.4482422-0.78125-1.0107422-1.4658203-1.6875-2.0546875c-0.6772461-0.5878906-1.4326172-1.0488281-2.265625-1.3828125
		c0.2080078,0.5527344,0.3774414,1.1152344,0.5078125,1.6875c0.1298828,0.5732422,0.2314453,1.15625,0.3046875,1.75H28.921875z
		 M25.125,29.359375c0.8017578-0.3330078,1.5258789-0.7890625,2.171875-1.3671875
		C27.9423828,27.4140625,28.484375,26.75,28.921875,26h-3.09375c-0.0522461,0.5732422-0.1328125,1.140625-0.2421875,1.703125
		S25.3227539,28.8183594,25.125,29.359375z M25.953125,20C25.984375,20.6669922,26,21.3339844,26,22
		c0,0.6669922-0.0107422,1.3339844-0.03125,2H29.75c0.0830078-0.3330078,0.1455078-0.6660156,0.1874943-1
		C29.9790039,22.6669922,30,22.3339844,30,22c0-0.3330078-0.0209961-0.6660156-0.0625057-1
		c-0.0419865-0.3330078-0.1044865-0.6660156-0.1874943-1H25.953125z"/>
</g>
<path d="M10.6974487,26H4c-1.1030273,0-2-0.8969727-2-2s0.8969727-2,2-2h6c0-0.6829834,0.0703125-1.3482056,0.1799316-2H4
	c-0.7280273,0-1.4111328,0.1953125-2,0.5366211V4c0-1.1030273,0.8969727-2,2-2h16v8.1799316
	C20.6517944,10.0703125,21.3170166,10,22,10s1.3482056,0.0703125,2,0.1799316V8h-2V6h2V2h-2V0H4C1.7944336,0,0,1.7944336,0,4v20
	c0,2.2055664,1.7944336,4,4,4h7.6184692C11.2520752,27.3674927,10.9448853,26.6987915,10.6974487,26z"/>
</svg>
