<?xml version="1.0" encoding="utf-8"?>
<!-- Generator: Adobe Illustrator 19.1.0, SVG Export Plug-In . SVG Version: 6.00 Build 0)  -->
<svg version="1.1" id="Layer_1" xmlns="http://www.w3.org/2000/svg" xmlns:xlink="http://www.w3.org/1999/xlink" x="0px" y="0px"
	 width="32px" height="32px" viewBox="0 0 32 32" style="enable-background:new 0 0 32 32;" xml:space="preserve">
<g>
	<path d="M5.421875,16H4.8124948L16,27.1875L25.1874943,18h2.8281307L16,30.015625l-13.515625-13.5
		c-0.3647461-0.3642578-0.6875-0.7578125-0.96875-1.1796875S0.9892578,14.46875,0.78125,14h3.796875L9,9.59375l7,6.984375
		l5-4.984375L23.421875,14h5.546875c0.3330078-0.53125,0.5883789-1.09375,0.765625-1.6875
		C29.9111328,11.71875,30,11.109375,30,10.484375c0-0.90625-0.1694336-1.75-0.5078125-2.53125
		c-0.3388672-0.78125-0.8022461-1.4609375-1.390625-2.0390625c-0.5888672-0.578125-1.2763672-1.03125-2.0625-1.359375
		C25.2524414,4.2265625,24.40625,4.0625,23.5,4.0625c-0.875,0-1.6513672,0.1381836-2.328125,0.4140625
		c-0.6772461,0.2763672-1.3022461,0.6381836-1.875,1.0859375c-0.5732422,0.4482422-1.1225586,0.9560547-1.6484375,1.5234375
		C17.1220703,7.6538086,16.5727539,8.2294922,16,8.8125c-0.5625057-0.5625-1.109375-1.1298828-1.640625-1.703125
		c-0.53125-0.5727539-1.0859375-1.0883789-1.6640625-1.546875c-0.578125-0.4580078-1.2084961-0.8330078-1.890625-1.125
		C10.1220703,4.1459961,9.3540039,4,8.5,4C7.6040039,4,6.7626953,4.1694336,5.9765625,4.5078125
		c-0.7866211,0.3388672-1.4741211,0.8022461-2.0625,1.390625c-0.5888672,0.5888672-1.0522461,1.2763672-1.390625,2.0625
		C2.1845703,8.7475586,2.015625,9.5888672,2.015625,10.484375c0,0.4897461,0.0571289,0.9951172,0.1718695,1.515625H0.140625
		c-0.0522461-0.25-0.0859375-0.5-0.1015625-0.75S0.015625,10.75,0.015625,10.5c0-1.1767578,0.2211914-2.28125,0.6640625-3.3125
		c0.4423828-1.03125,1.046875-1.9321289,1.8125-2.703125C3.2578125,3.7138672,4.15625,3.1069336,5.1874943,2.6640625
		C6.21875,2.2216797,7.3227539,2,8.5,2c0.8642578,0,1.6352539,0.0991211,2.3124943,0.296875
		c0.6767635,0.1982422,1.3046932,0.4716797,1.8828182,0.8203125c0.578125,0.3491211,1.1298828,0.7685547,1.65625,1.2578125
		C14.8774414,4.8647461,15.4267578,5.4013672,16,5.984375c0.5727539-0.5830078,1.1220703-1.1196289,1.6484375-1.609375
		c0.5258789-0.4892578,1.078125-0.9086914,1.65625-1.2578125c0.578125-0.3486328,1.2055664-0.6220703,1.8828068-0.8203125
		C21.8642578,2.0991211,22.6352539,2,23.5,2c1.1665039,0,2.265625,0.2216797,3.296875,0.6640625
		c1.03125,0.4428711,1.9296875,1.0444336,2.6953125,1.8046875c0.765625,0.7607422,1.3696289,1.65625,1.8125,2.6875
		C31.7470703,8.1875,31.96875,9.2866211,31.96875,10.453125c0,1.0107422-0.1772461,1.9921875-0.5312557,2.9453125
		C31.0830078,14.3515625,30.578125,15.21875,29.921875,16h-7.34375L21,14.40625l-5,5.015625L9,12.40625L5.421875,16z"/>
</g>
</svg>
