<?xml version="1.0" encoding="utf-8"?>
<!-- Generator: Adobe Illustrator 19.1.0, SVG Export Plug-In . SVG Version: 6.00 Build 0)  -->
<svg version="1.1" id="Layer_1" xmlns="http://www.w3.org/2000/svg" xmlns:xlink="http://www.w3.org/1999/xlink" x="0px" y="0px"
	 width="32px" height="32px" viewBox="0 0 32 32" style="enable-background:new 0 0 32 32;" xml:space="preserve">
<g id="Notif_x5F_Help_1_">
	<path d="M16,32C7.1777344,32,0,24.8222656,0,16S7.1777344,0,16,0s16,7.1777344,16,16S24.8222656,32,16,32z M16,2
		C8.2802734,2,2,8.2802734,2,16s6.2802734,14,14,14s14-6.2802734,14-14S23.7197266,2,16,2z"/>
	<g>
		<path d="M17.0268555,21h-2v-1.8935547c0-1.2568359,0.5766602-2.4267578,1.6240234-3.2944336l0.1166992-0.0830078
			c0.0068359-0.0043945,0.6953125-0.4291992,1.2304688-0.9638672c0.4716797-0.4716797,0.9755859-1.2373047,0.9755859-1.9702148
			c0-1.4848633-1.3769531-2.7871094-2.9467773-2.7871094C14.4145508,10.0078125,13,11.3100586,13,12.7949219h-2V12h0.0727539
			c0.4111328-2.2324219,2.5126953-3.9921875,4.9541016-3.9921875c2.6816406,0,4.9467773,2.1923828,4.9467773,4.7871094
			c0,1.6445313-1.0917969,2.9150391-1.5610352,3.3847656c-0.6005859,0.5996094-1.3081055,1.0688477-1.5322266,1.2119141
			c-0.5507813,0.4750977-0.8535156,1.0820313-0.8535156,1.7148438V21z"/>
		<rect x="15" y="23" width="2" height="2"/>
	</g>
</g>
</svg>
