<?xml version="1.0" encoding="utf-8"?>
<!-- Generator: Adobe Illustrator 19.1.0, SVG Export Plug-In . SVG Version: 6.00 Build 0)  -->
<svg version="1.1" id="Layer_1" xmlns="http://www.w3.org/2000/svg" xmlns:xlink="http://www.w3.org/1999/xlink" x="0px" y="0px"
	 width="32px" height="32px" viewBox="0 0 32 32" style="enable-background:new 0 0 32 32;" xml:space="preserve">
<g>
	<path d="M14.5,15.7109375c0.6993408,0.3034668,1.3346558,0.6833496,1.9190063,1.1246948l1.4188232-1.4255981
		C16.9746094,14.7196045,16.0182495,14.1660767,14.96875,13.75c0.46875-0.3222656,0.890625-0.6972656,1.265625-1.125
		c0.375-0.4267578,0.6923828-0.8876953,0.953125-1.3828125c0.2602539-0.4941406,0.4609375-1.015625,0.6015625-1.5625
		S18,8.5732422,18,8c0-0.96875-0.1850586-1.8769531-0.5546875-2.7265625c-0.3701172-0.8486328-0.8701172-1.5878906-1.5-2.21875
		c-0.6303711-0.6298828-1.3701172-1.1298828-2.21875-1.5C12.8774414,1.1855469,11.96875,1,11,1
		S9.1220703,1.1855469,8.2734375,1.5546875c-0.8491211,0.3701172-1.5888672,0.8701172-2.21875,1.5
		c-0.6303711,0.6308594-1.1303711,1.3701172-1.5,2.21875C4.1845703,6.1230469,4,7.03125,4,8
		c0,0.5732422,0.0703125,1.1328125,0.2109375,1.6796875s0.3408203,1.0683594,0.6015625,1.5625
		C5.0727539,11.7373047,5.390625,12.1982422,5.765625,12.625c0.375,0.4277344,0.796875,0.8027344,1.265625,1.125
		c-1.2397461,0.4902344-2.3022461,1.1123047-3.1875,1.8671875c-0.8857422,0.7558594-1.6147461,1.6171875-2.1875,2.5859375
		c-0.5732422,0.96875-0.9921875,2.0263672-1.2578125,3.171875C0.1328125,22.5214844,0,23.7294922,0,25h2v-1
		c0-1.2392578,0.2368164-2.40625,0.7109375-3.5c0.4736328-1.09375,1.1171875-2.046875,1.9296875-2.859375
		S6.40625,16.1855469,7.5,15.7109375C8.59375,15.2373047,9.7602539,15,11,15C12.2392578,15,13.40625,15.2373047,14.5,15.7109375z
		 M7.4765625,11.5234375c-0.453125-0.453125-0.8125-0.9814453-1.078125-1.5859375C6.1328125,9.3339844,6,8.6875,6,8
		s0.1328125-1.3330078,0.3984375-1.9375c0.265625-0.6035156,0.625-1.1328125,1.078125-1.5859375
		s0.9814453-0.8125,1.5859375-1.078125C9.6665039,3.1328125,10.3125,3,11,3s1.3330078,0.1328125,1.9375,0.3984375
		c0.6040039,0.265625,1.1328125,0.625,1.5859375,1.078125s0.8125,0.9824219,1.078125,1.5859375C15.8671875,6.6669922,16,7.3125,16,8
		s-0.1328125,1.3339844-0.3984375,1.9375c-0.265625,0.6044922-0.625,1.1328125-1.078125,1.5859375
		s-0.9819336,0.8125-1.5859375,1.078125C12.3330078,12.8671875,11.6875,13,11,13s-1.3334961-0.1328125-1.9375-0.3984375
		C8.4580078,12.3359375,7.9296875,11.9765625,7.4765625,11.5234375z"/>
	<path d="M22.482605,13.578125L13,23.1065674L13.8934326,24L15,23.0087891V31h15v-7.9912109L31.1065674,24L32,23.1065674
		L22.482605,13.578125z M28.25,23.0087891V29.25H24V24h-3v5.25h-4.25v-6.2412109v-1.1895142l5.7348633-5.7625732L28.25,21.8284912
		V23.0087891z"/>
</g>
<g>
</g>
<g>
</g>
<g>
</g>
<g>
</g>
<g>
</g>
<g>
</g>
<g>
</g>
<g>
</g>
<g>
</g>
<g>
</g>
<g>
</g>
<g>
</g>
<g>
</g>
<g>
</g>
<g>
</g>
</svg>
