<?xml version="1.0" encoding="utf-8"?>
<!-- Generator: Adobe Illustrator 19.1.0, SVG Export Plug-In . SVG Version: 6.00 Build 0)  -->
<svg version="1.1" id="Layer_1" xmlns="http://www.w3.org/2000/svg" xmlns:xlink="http://www.w3.org/1999/xlink" x="0px" y="0px"
	 width="32px" height="32px" viewBox="0 0 32 32" style="enable-background:new 0 0 32 32;" xml:space="preserve">
<g>
	<path d="M20,10c0,0.9169922-0.1201172,1.8022461-0.359375,2.65625c-0.2397461,0.8544922-0.5756836,1.6513672-1.0078125,2.390625
		c-0.4326172,0.7397461-0.953125,1.4140625-1.5625,2.0234375s-1.2841797,1.1303711-2.0234375,1.5625
		c-0.7397461,0.4326172-1.5366211,0.7685547-2.390625,1.0078125C11.8017578,19.8803711,10.9165039,20,10,20
		c-1.3857422,0-2.6850586-0.2602539-3.8984375-0.78125c-1.2138672-0.5205078-2.2734375-1.234375-3.1796875-2.140625
		s-1.6201172-1.9658203-2.140625-3.1796875C0.2602539,12.6850586,0,11.3857422,0,10
		c0-0.9165039,0.1196289-1.8017578,0.359375-2.65625c0.2392578-0.8540039,0.5751953-1.6508789,1.0078125-2.390625
		c0.4321289-0.7392578,0.953125-1.4140625,1.5625-2.0234375s1.2836914-1.1298828,2.0234375-1.5625
		C5.6923828,0.9350586,6.4892578,0.5991211,7.34375,0.359375C8.1977539,0.1201172,9.0830078,0,10,0
		c0.9165039,0,1.8017578,0.1201172,2.65625,0.359375c0.8540039,0.2397461,1.6508789,0.5756836,2.390625,1.0078125
		c0.7392578,0.4326172,1.4140625,0.953125,2.0234375,1.5625s1.1298828,1.2841797,1.5625,2.0234375
		c0.4321289,0.7397461,0.7680664,1.5366211,1.0078125,2.390625C19.8798828,8.1982422,20,9.0834961,20,10z M2,10
		c0,1.1044922,0.2109375,2.140625,0.6328125,3.109375s0.9946289,1.8154297,1.71875,2.5390625
		c0.7236328,0.7241211,1.5703125,1.296875,2.5390625,1.71875S8.8955078,18,10,18c1.1040039,0,2.140625-0.2109375,3.109375-0.6328125
		s1.8149414-0.9946289,2.5390625-1.71875c0.7236328-0.7236328,1.296875-1.5703125,1.71875-2.5390625S18,11.1044922,18,10
		c0-1.1040039-0.2109375-2.140625-0.6328125-3.109375s-0.9951172-1.8149414-1.71875-2.5390625
		c-0.7241211-0.7236328-1.5703125-1.296875-2.5390625-1.71875S11.1040039,2,10,2C8.8955078,2,7.859375,2.2109375,6.890625,2.6328125
		s-1.8154297,0.9951172-2.5390625,1.71875c-0.7241211,0.7241211-1.296875,1.5703125-1.71875,2.5390625S2,8.8959961,2,10z M26,9
		c0,1.5625-0.203125,3.0678711-0.609375,4.515625c-0.40625,1.4482422-0.9794922,2.8022461-1.71875,4.0625
		c-0.7397461,1.2607422-1.6279297,2.4091797-2.6640625,3.4453125c-1.0366211,1.0366211-2.1850586,1.921875-3.4453182,2.65625
		C16.3017578,24.4140625,14.9477539,24.984375,13.5,25.390625C12.0517578,25.796875,10.546875,26,8.984375,26v-2
		c1.375,0,2.7031193-0.1767578,3.984375-0.53125c1.28125-0.3540039,2.4765625-0.8564453,3.5859375-1.5078125
		c1.109375-0.6508789,2.1220703-1.4321289,3.0390625-2.34375c0.9165039-0.9111328,1.7001953-1.9243164,2.3515625-3.0390625
		c0.6508789-1.1142578,1.15625-2.3095703,1.515625-3.5859375C23.8203125,11.7163086,24,10.3857422,24,9H26z M27,22
		c0.6874943,0,1.3330078,0.1328125,1.9374943,0.3984375c0.6040096,0.265625,1.1328182,0.625,1.5859432,1.078125
		s0.8125,0.9819336,1.078125,1.5859375C31.8671875,25.6669922,32,26.3125,32,27s-0.1328125,1.3359375-0.3984375,1.9453125
		s-0.625,1.140625-1.078125,1.59375s-0.9819336,0.8100586-1.5859432,1.0703125C28.3330078,31.8701172,27.6874943,32,27,32
		c-0.6875057,0-1.3359375-0.1298828-1.9453125-0.390625c-0.609375-0.2602539-1.140625-0.6171875-1.59375-1.0703125
		s-0.8100586-0.984375-1.0703125-1.59375C22.1298828,28.3359375,22,27.6875,22,27s0.1298828-1.3330078,0.390625-1.9375
		c0.2602539-0.6040039,0.6171875-1.1328125,1.0703125-1.5859375s0.984375-0.8125,1.59375-1.078125S26.3124943,22,27,22z M27,30
		c0.4165039,0,0.8071289-0.078125,1.171875-0.234375c0.3642578-0.15625,0.6821289-0.3696289,0.953125-0.640625
		c0.2705078-0.2705078,0.484375-0.5883789,0.640625-0.953125C29.921875,27.8076172,30,27.4169922,30,27
		c0-0.4165039-0.078125-0.8071289-0.234375-1.171875c-0.15625-0.3642578-0.3701172-0.6821289-0.640625-0.953125
		c-0.2709961-0.2705078-0.5888672-0.484375-0.953125-0.640625C27.8071289,24.078125,27.4165039,24,27,24
		c-0.4169922,0-0.8076172,0.078125-1.171875,0.234375c-0.3647461,0.15625-0.6826172,0.3701172-0.953125,0.640625
		c-0.2709961,0.2709961-0.484375,0.5888672-0.640625,0.953125C24.078125,26.1928711,24,26.5834961,24,27
		c0,0.4169922,0.078125,0.8076172,0.234375,1.171875c0.15625,0.3647461,0.3696289,0.6826172,0.640625,0.953125
		c0.2705078,0.2709961,0.5883789,0.484375,0.953125,0.640625C26.1923828,29.921875,26.5830078,30,27,30z"/>
</g>
</svg>
