<?xml version="1.0" encoding="utf-8"?>
<!-- Generator: Adobe Illustrator 19.1.0, SVG Export Plug-In . SVG Version: 6.00 Build 0)  -->
<svg version="1.1" id="Layer_1" xmlns="http://www.w3.org/2000/svg" xmlns:xlink="http://www.w3.org/1999/xlink" x="0px" y="0px"
	 width="32px" height="32px" viewBox="0 0 32 32" style="enable-background:new 0 0 32 32;" xml:space="preserve">
<path d="M25,9H7c-3.8598633,0-7,3.1401367-7,7s3.1401367,7,7,7h18c3.8598633,0,7-3.1401367,7-7S28.8598633,9,25,9z M2,16
	c0-2.7568359,2.2431641-5,5-5h16.1137695C21.7996216,12.2910156,21,14.0822754,21,16c0,1.914917,0.7991333,3.7080688,2.1132813,5H7
	C4.2431641,21,2,18.7568359,2,16z M26.4697266,20.7540894C24.4234619,20.0950317,23,18.1586914,23,16
	c0-2.1622925,1.4238281-4.0949097,3.4723511-4.7532959C28.5079346,11.8798218,30,13.7589722,30,16
	C30,18.2420044,28.5066528,20.1217651,26.4697266,20.7540894z"/>
<g>
</g>
<g>
</g>
<g>
</g>
<g>
</g>
<g>
</g>
<g>
</g>
<g>
</g>
<g>
</g>
<g>
</g>
<g>
</g>
<g>
</g>
<g>
</g>
<g>
</g>
<g>
</g>
<g>
</g>
</svg>
