<?xml version="1.0" encoding="utf-8"?>
<!-- Generator: Adobe Illustrator 19.1.0, SVG Export Plug-In . SVG Version: 6.00 Build 0)  -->
<svg version="1.1" id="Layer_1" xmlns="http://www.w3.org/2000/svg" xmlns:xlink="http://www.w3.org/1999/xlink" x="0px" y="0px"
	 width="32px" height="32px" viewBox="0 0 32 32" style="enable-background:new 0 0 32 32;" xml:space="preserve">
<path d="M16,31.8833008c-8.7431641,0-15.8564453-7.1132813-15.8564453-15.8564453
	C0.1435547,7.2832031,7.2568359,0.1699219,16,0.1699219s15.8564453,7.1132813,15.8564453,15.8569336
	C31.8564453,24.7700195,24.7431641,31.8833008,16,31.8833008z M8.9604492,28.1791992l0.1142578,0.0649414
	c2.1147461,1.203125,4.5092773,1.8393555,6.925293,1.8393555s4.8105469-0.6362305,6.925293-1.8393555l0.1142578-0.0649414
	l-3.0507813-3.050293l-0.0625,0.0268555C18.6787109,25.6992188,17.3574219,25.9746094,16,25.9746094
	c-1.3569336,0-2.6782227-0.2753906-3.9257813-0.8188477l-0.0625-0.0268555L8.9604492,28.1791992z M23.9775391,21.8959961
	c-0.6342773,0.8696289-1.3969727,1.625-2.2666016,2.2446289l-0.0961914,0.0688477l2.9443359,2.9443359l0.0698242-0.0546875
	c0.8686523-0.6782227,1.6479492-1.4428711,2.315918-2.2724609l0.0566406-0.0698242l-2.9550781-2.9550781L23.9775391,21.8959961z
	 M4.9985352,24.7568359l0.0566406,0.0698242c0.6679688,0.8295898,1.4472656,1.5942383,2.315918,2.2724609l0.0698242,0.0546875
	l2.9448242-2.9443359l-0.0961914-0.0688477c-0.8706055-0.6201172-1.6333008-1.375-2.2670898-2.2446289l-0.0688477-0.0942383
	L4.9985352,24.7568359z M16,8.0268555c-4.4521484,0-8.0742188,3.6220703-8.0742188,8.0742188
	c0,4.4516602,3.6220703,8.0737305,8.0742188,8.0737305s8.0742188-3.6220703,8.0742188-8.0737305
	C24.0742188,11.6489258,20.4521484,8.0268555,16,8.0268555z M25.0283203,12.1123047l0.0268555,0.0625
	c0.543457,1.2490234,0.8188477,2.5698242,0.8188477,3.9262695c0,1.3896484-0.2915039,2.7441406-0.8666992,4.0253906
	l-0.0283203,0.0629883l3.0595703,3.0595703l0.0654297-0.1113281c1.2773438-2.1650391,1.9526367-4.6240234,1.9526367-7.1108398
	c0-2.4169922-0.6362305-4.8115234-1.8393555-6.9248047L28.1523438,8.987793L25.0283203,12.1123047z M3.7827148,9.1020508
	c-1.203125,2.1132813-1.8393555,4.5078125-1.8393555,6.9248047c0,2.4868164,0.675293,4.9458008,1.9526367,7.1108398
	l0.0654297,0.1113281l3.0595703-3.0595703l-0.0283203-0.0629883c-0.5751953-1.28125-0.8666992-2.6357422-0.8666992-4.0253906
	c0-1.3564453,0.2753906-2.6772461,0.8188477-3.9262695l0.0268555-0.0625L3.8476563,8.987793L3.7827148,9.1020508z
	 M21.7006836,8.0546875l0.0942383,0.0688477c0.8701172,0.6342773,1.6254883,1.3964844,2.2451172,2.2666016l0.0688477,0.0961914
	l3.0185547-3.0185547l-0.0546875-0.0698242c-0.6777344-0.8676758-1.4423828-1.6469727-2.2729492-2.315918l-0.0698242-0.0566406
	L21.7006836,8.0546875z M7.1992188,5.0820313c-0.8300781,0.6689453-1.5947266,1.4482422-2.2719727,2.315918L4.8725586,7.4677734
	l3.0185547,3.0185547l0.0688477-0.0961914c0.6196289-0.8701172,1.375-1.6323242,2.2451172-2.2666016l0.0942383-0.0688477
	L7.2695313,5.0253906L7.1992188,5.0820313z M16,6.2270508c1.3896484,0,2.7441406,0.2915039,4.0253906,0.8666992l0.0629883,0.0283203
	l3.1342773-3.1342773l-0.1113281-0.0654297C20.9462891,2.6450195,18.4873047,1.9697266,16,1.9697266
	c-2.4868164,0-4.9462891,0.675293-7.1118164,1.9526367L8.7768555,3.987793l3.1347656,3.1342773L11.9746094,7.09375
	C13.2558594,6.5185547,14.6103516,6.2270508,16,6.2270508z"/>
<g>
</g>
<g>
</g>
<g>
</g>
<g>
</g>
<g>
</g>
<g>
</g>
</svg>
