<?xml version="1.0" encoding="utf-8"?>
<!-- Generator: Adobe Illustrator 19.1.0, SVG Export Plug-In . SVG Version: 6.00 Build 0)  -->
<svg version="1.1" id="Layer_1" xmlns="http://www.w3.org/2000/svg" xmlns:xlink="http://www.w3.org/1999/xlink" x="0px" y="0px"
	 width="32px" height="32px" viewBox="0 0 32 32" style="enable-background:new 0 0 32 32;" xml:space="preserve">
<g>
	<path d="M16,0c1.0102539,0,1.984375,0.1303711,2.921875,0.390625c0.9375,0.2607422,1.8149414,0.6303711,2.6328125,1.109375
		c0.8173828,0.4794922,1.5595703,1.0522461,2.2265625,1.71875C24.4477539,3.8857422,25.0205078,4.6279297,25.5,5.4453125
		c0.4790039,0.8178711,0.8486328,1.6953125,1.109375,2.6328125C26.8696289,9.015625,27,9.9897461,27,11
		c0,1.5107422-0.2866211,2.9116211-0.859375,4.203125c-0.5732422,1.2919922-1.390625,2.4638672-2.4531307,3.515625
		c-0.8647404,0.8544922-1.5288029,1.8076172-1.9921818,2.859375C21.2314453,22.6303711,21,23.7709961,21,25v4
		c0,0.4169922-0.078125,0.8076172-0.234375,1.171875c-0.15625,0.3647461-0.3701172,0.6826172-0.640625,0.953125
		c-0.2709961,0.2709961-0.5888672,0.484375-0.953125,0.640625C18.8071289,31.921875,18.4165039,32,18,32h-4
		c-0.4169922,0-0.8076172-0.078125-1.171875-0.234375c-0.3647461-0.15625-0.6826172-0.3696289-0.953125-0.640625
		c-0.2709961-0.2705078-0.484375-0.5883789-0.640625-0.953125C11.078125,29.8076172,11,29.4169922,11,29v-4
		c0-1.2290039-0.2319336-2.3696289-0.6953125-3.421875c-0.4638672-1.0517578-1.1279297-2.0048828-1.9921932-2.859375
		C7.25,17.6669922,6.4321289,16.4951172,5.859375,15.203125C5.2861328,13.9116211,5,12.5107422,5,11
		c0-1.0102539,0.1298828-1.984375,0.390625-2.921875C5.6508789,7.140625,6.0205078,6.2631836,6.5,5.4453125
		C6.9790039,4.6279297,7.5517578,3.8857422,8.21875,3.21875C8.8852539,2.5522461,9.6274414,1.9794922,10.4453125,1.5
		c0.8173828-0.4790039,1.6953125-0.8486328,2.6328125-1.109375C14.015625,0.1303711,14.9892578,0,16,0z M19.046875,24
		c0.1352539-1.34375,0.4790039-2.5625,1.03125-3.65625c0.5517578-1.09375,1.296875-2.1142578,2.2343693-3.0625
		c0.8642635-0.875,1.528326-1.8305664,1.9921932-2.8671875C24.7680664,13.3779297,25,12.2397461,25,11
		c0-1.2392578-0.2373047-2.40625-0.7109375-3.5c-0.4741211-1.09375-1.1171875-2.046875-1.9296875-2.859375
		S20.59375,3.1850586,19.5,2.7109375C18.40625,2.2373047,17.2392578,2,16,2c-1.2397461,0-2.40625,0.2373047-3.5,0.7109375
		C11.40625,3.1850586,10.453125,3.828125,9.640625,4.640625S8.1845703,6.40625,7.7109375,7.5C7.2368164,8.59375,7,9.7607422,7,11
		c0,1.2397461,0.2314453,2.3779297,0.6953125,3.4140625C8.1586914,15.4506836,8.8227539,16.40625,9.6874943,17.28125
		C10.625,18.2294922,11.3696289,19.25,11.921875,20.34375c0.5517578,1.09375,0.8955078,2.3125,1.03125,3.65625H19.046875z M18,30
		c0.2705078,0,0.5048828-0.0986328,0.703125-0.296875C18.9008789,29.5053711,19,29.2709961,19,29v-3h-6v3
		c0,0.2709961,0.0986328,0.5053711,0.296875,0.703125C13.4946289,29.9013672,13.7290039,30,14,30H18z"/>
</g>
</svg>
