<?xml version="1.0" encoding="utf-8"?>
<!-- Generator: Adobe Illustrator 19.1.0, SVG Export Plug-In . SVG Version: 6.00 Build 0)  -->
<svg version="1.1" id="Layer_1" xmlns="http://www.w3.org/2000/svg" xmlns:xlink="http://www.w3.org/1999/xlink" x="0px" y="0px"
	 width="32px" height="32px" viewBox="0 0 32 32" style="enable-background:new 0 0 32 32;" xml:space="preserve">
<g>
	<path d="M29,12c0.40625,0,0.7915039,0.078125,1.15625,0.234375c0.3642578,0.15625,0.6845703,0.3701172,0.9609375,0.640625
		c0.2758789,0.2709961,0.4921875,0.5888672,0.6484375,0.953125C31.921875,14.1928711,32,14.5834961,32,15
		c0,0.3334961-0.0522461,0.6513672-0.15625,0.953125l-4,12c-0.1044922,0.3022461-0.25,0.5810547-0.4375,0.8359375
		C27.21875,29.0444336,27,29.2607422,26.75,29.4375c-0.25,0.1772461-0.5234375,0.3154297-0.8203125,0.4140625
		C25.6328125,29.9506836,25.3227539,30,25,30h-8c-1.8647461,0-3.6616211-0.359375-5.390625-1.078125
		c-0.75-0.3017578-1.5029297-0.53125-2.2578125-0.6875C8.5961914,28.078125,7.8124943,28,7,28H0V14h6.515625
		c0.6767578,0,1.3149414-0.125,1.9140625-0.375c0.5986328-0.25,1.1376953-0.6142578,1.6171875-1.09375l9.71875-9.703125
		c0.2602539-0.2602539,0.5205078-0.4633789,0.78125-0.609375C20.8071289,2.0732422,21.125,2,21.5,2
		c0.34375,0,0.6665039,0.0654297,0.96875,0.1953125c0.3017578,0.1303711,0.5673828,0.3100586,0.796875,0.5390625
		c0.2290039,0.2294922,0.4086914,0.4951172,0.5390625,0.796875C23.9345703,3.8334961,24,4.15625,24,4.5
		c0,0.84375-0.09375,1.6484375-0.28125,2.4140625S23.2548828,8.4375,22.890625,9.1875
		c-0.2084961,0.4482422-0.3857422,0.9038086-0.53125,1.3671875C22.2133789,11.0185547,22.1142578,11.5,22.0624943,12H29z M25,28
		c0.2080078,0,0.4008789-0.0625,0.578125-0.1875c0.1767578-0.125,0.3017578-0.2915039,0.375-0.5
		c0.0517578-0.1455078,0.1484375-0.4267578,0.2890625-0.84375c0.140625-0.4165039,0.3095703-0.9189453,0.5078125-1.5078125
		c0.1977539-0.5883789,0.4165039-1.234375,0.65625-1.9375c0.2392578-0.703125,0.4790039-1.4140625,0.71875-2.1328125
		c0.2392578-0.71875,0.4711914-1.4189453,0.6953125-2.1015625c0.2236328-0.6821289,0.4243164-1.296875,0.6015625-1.84375
		c0.1767578-0.546875,0.3173828-0.9946289,0.421875-1.34375C29.9477539,15.2529297,30,15.0522461,30,15
		c0-0.2705078-0.0991211-0.5048828-0.296875-0.703125C29.5048828,14.0991211,29.2705078,14,29,14h-9
		c0-0.5517578,0.0126953-1.0649414,0.0390625-1.5390625c0.0258789-0.4736328,0.078125-0.9345703,0.15625-1.3828125
		c0.078125-0.4477539,0.1899414-0.8955078,0.3359375-1.34375C20.6767578,9.2866211,20.8696289,8.8125,21.109375,8.3125
		c0.2915039-0.6040039,0.5126953-1.2211914,0.6640625-1.8515625C21.9243164,5.8310547,22,5.1772461,22,4.5
		c0-0.1455078-0.046875-0.265625-0.140625-0.359375S21.6455078,4,21.5,4c-0.0625057,0-0.1171875,0.0234375-0.1640625,0.0703125
		S21.2446289,4.1616211,21.203125,4.203125l-9.734375,9.75c-0.3334961,0.3334961-0.6904297,0.625-1.0703125,0.875
		c-0.3803711,0.25-0.7841797,0.4638672-1.2109432,0.640625C8.3540039,15.8232422,7.4633789,16,6.515625,16H2v10h5
		c1.8540039,0,3.6508789,0.359375,5.390625,1.078125C13.890625,27.6928711,15.4267578,28,17,28H25z"/>
</g>
</svg>
