<?xml version="1.0" encoding="utf-8"?>
<!-- Generator: Adobe Illustrator 19.1.0, SVG Export Plug-In . SVG Version: 6.00 Build 0)  -->
<svg version="1.1" id="Layer_1" xmlns="http://www.w3.org/2000/svg" xmlns:xlink="http://www.w3.org/1999/xlink" x="0px" y="0px"
	 width="32px" height="32px" viewBox="0 0 32 32" style="enable-background:new 0 0 32 32;" xml:space="preserve">
<g>
	<path d="M15.828125,12c-0.2709961,0-0.5053711,0.0991211-0.703125,0.296875l-5.125,5.125
		c-0.1875057,0.1875-0.4194336,0.3310547-0.6953125,0.4296875C9.0283203,17.9506836,8.7602539,18,8.5,18
		c-0.34375,0-0.6669922-0.0649414-0.96875-0.1953125c-0.3022461-0.1298828-0.5678711-0.3095703-0.796875-0.5390625
		c-0.2294922-0.2290039-0.4091797-0.4946289-0.5390625-0.796875C6.0649414,16.1669922,6,15.84375,6,15.5
		c0-0.09375,0.0390625-0.3017578,0.1171875-0.625C6.1953125,14.5522461,6.28125,14.1982422,6.375,13.8125
		c0.09375-0.3852539,0.1874943-0.7524414,0.28125-1.1015625C6.75,12.3623047,6.8124943,12.125,6.84375,12H2
		c-0.28125,0-0.5419922-0.0517578-0.78125-0.15625c-0.2397461-0.1040039-0.4506836-0.2446289-0.6328125-0.421875
		c-0.1826172-0.1767578-0.3256836-0.3876953-0.4296875-0.6328125C0.0517578,10.5444336,0,10.2866211,0,10.015625
		c0-0.1142578,0.0102539-0.2265625,0.03125-0.3359375c0.0205078-0.109375,0.046875-0.2158203,0.078125-0.3203125l2.65625-8
		C2.9008789,0.953125,3.1455078,0.625,3.5,0.375C3.8540039,0.125,4.2446289,0,4.671875,0H20v12H15.828125z M13.703125,10.875
		c0.28125-0.28125,0.6064453-0.4970703,0.9765625-0.6484375C15.0493164,10.0756836,15.4321289,10,15.828125,10H18V2H4.671875L2,10
		h7.40625l-1.390625,5.59375c0.0205078,0.1147461,0.078125,0.2109375,0.1718693,0.2890625C8.28125,15.9609375,8.3852539,16,8.5,16
		c0.0102539,0,0.0283203-0.0048828,0.0546875-0.015625c0.0258789-0.0102539,0.0439453-0.015625,0.0546875-0.015625L13.703125,10.875
		z M30,20c0.28125,0,0.5415039,0.0522461,0.78125,0.15625c0.2392578,0.1044922,0.4501953,0.2475586,0.6328125,0.4296875
		c0.1821289,0.1826172,0.3251953,0.3935547,0.4296875,0.6328125C31.9477539,21.4584961,32,21.7138672,32,21.984375
		c0,0.1147461-0.0107422,0.2265625-0.03125,0.3359375c-0.0209961,0.109375-0.046875,0.2163086-0.078125,0.3203125l-2.65625,8
		C29.0986328,31.046875,28.8540039,31.375,28.5,31.625C28.1455078,31.875,27.7548828,32,27.328125,32H12V20h4.171875
		c0.2705078,0,0.5048828-0.0986328,0.703125-0.296875l5.125-5.125c0.1874943-0.1875,0.4189453-0.3305664,0.6953125-0.4296875
		C22.9711914,14.0498047,23.2392578,14,23.5,14c0.34375,0,0.6665039,0.0654297,0.96875,0.1953125
		c0.3017578,0.1303711,0.5673828,0.3100586,0.796875,0.5390625c0.2290039,0.2294922,0.4086914,0.4951172,0.5390625,0.796875
		C25.9345703,15.8334961,26,16.15625,26,16.5c0,0.0625-0.0185547,0.1796875-0.0546875,0.3515625
		c-0.0366211,0.171875-0.0834961,0.3725586-0.140625,0.6015625C25.7470703,17.6826172,25.6874943,17.9272461,25.625,18.1875
		c-0.0625057,0.2607422-0.125,0.5107422-0.1875057,0.75c-0.0624943,0.2397461-0.1201115,0.4560547-0.1718693,0.6484375
		C25.2133789,19.7788086,25.1767578,19.9169922,25.15625,20H30z M30,22h-7.40625l1.390625-5.59375
		c-0.0209961-0.1142578-0.078125-0.2109375-0.1718807-0.2890625C23.71875,16.0390625,23.6142578,16,23.5,16
		c-0.0107422,0-0.0288086,0.0053711-0.0546875,0.015625c-0.0263672,0.0107422-0.0444336,0.015625-0.0546875,0.015625
		l-5.09375,5.09375c-0.28125,0.28125-0.6069336,0.4975586-0.9765625,0.6484375C16.9501953,21.9248047,16.5673828,22,16.171875,22H14
		v8h13.328125L30,22z"/>
</g>
</svg>
