<?xml version="1.0" encoding="utf-8"?>
<!-- Generator: Adobe Illustrator 19.1.0, SVG Export Plug-In . SVG Version: 6.00 Build 0)  -->
<svg version="1.1" id="Layer_1" xmlns="http://www.w3.org/2000/svg" xmlns:xlink="http://www.w3.org/1999/xlink" x="0px" y="0px"
	 width="32px" height="32px" viewBox="0 0 32 32" style="enable-background:new 0 0 32 32;" xml:space="preserve">
<g>
	<path d="M14,20v-2c0.7915039,0,1.5493164-0.0908203,2.2734375-0.2734375c0.7236328-0.1821289,1.3618164-0.4736328,1.9140568-0.875
		c0.5517635-0.4008789,0.9921932-0.9165039,1.3203182-1.546875C19.8359375,14.6748047,20,13.90625,20,13
		c0-0.6875-0.1328125-1.3330078-0.3984375-1.9375c-0.265625-0.6040039-0.625-1.1328125-1.078125-1.5859375
		s-0.9819336-0.8125-1.5859432-1.078125C16.3330078,8.1328125,15.6874943,8,15,8H7
		C6.3124943,8,5.6665039,8.1328125,5.0624948,8.3984375c-0.6044869,0.265625-1.1328073,0.625-1.5859323,1.078125
		s-0.8125,0.9819336-1.078125,1.5859375C2.1328125,11.6669922,2,12.3125,2,13c0,0.90625,0.1640625,1.6748047,0.4921875,2.3046875
		c0.328125,0.6303711,0.7680664,1.1459961,1.320307,1.546875c0.5517633,0.4013672,1.1899469,0.6928711,1.914068,0.875
		C6.4501953,17.9091797,7.2080078,18,8,18v2H7c-0.96875,0-1.8779297-0.1845703-2.7265625-0.5546875
		c-0.8491211-0.3696289-1.5888672-0.8696289-2.21875-1.5c-0.6303711-0.6298828-1.1303711-1.3696289-1.5-2.21875
		C0.1845703,14.8779297,0,13.96875,0,13s0.1845703-1.8774414,0.5546875-2.7265625
		c0.3696289-0.8486328,0.8696289-1.5883789,1.5-2.21875c0.6298828-0.6298828,1.3696289-1.1298828,2.21875-1.5
		C5.1220703,6.1850586,6.03125,6,7,6h8c0.96875,0,1.8774414,0.1850586,2.7265625,0.5546875
		c0.8486328,0.3701172,1.5883789,0.8701172,2.21875,1.5c0.6298828,0.6303711,1.1298828,1.3701172,1.5,2.21875
		C21.8149414,11.1225586,22,12.03125,22,13s-0.1850586,1.8779297-0.5546875,2.7265625
		c-0.3701172,0.8491211-0.8701172,1.5888672-1.5,2.21875c-0.6303711,0.6303711-1.3701172,1.1303711-2.21875,1.5
		C16.8774414,19.8154297,15.96875,20,15,20H14z M24,12v2c0.7915039,0,1.5493164,0.0913086,2.2734375,0.2734375
		c0.7236328,0.1826172,1.3618164,0.4741211,1.9140568,0.875c0.5517635,0.4013672,0.9921932,0.9169922,1.3203182,1.546875
		C29.8359375,17.3256836,30,18.09375,30,19c0,0.6875-0.1328125,1.3334961-0.3984375,1.9375
		c-0.265625,0.6044922-0.625,1.1328125-1.078125,1.5859375s-0.9819336,0.8125-1.5859432,1.078125
		C26.3330078,23.8671875,25.6874943,24,25,24h-8c-0.6875057,0-1.3334961-0.1328125-1.9375057-0.3984375
		c-0.6044865-0.265625-1.1328068-0.625-1.5859318-1.078125s-0.8125-0.9814453-1.078125-1.5859375
		C12.1328125,20.3334961,12,19.6875,12,19c0-0.90625,0.1640625-1.6743164,0.4921875-2.3046875
		c0.328125-0.6298828,0.7680664-1.1455078,1.3203068-1.546875c0.5517635-0.4008789,1.1899471-0.6923828,1.9140682-0.875
		C16.4501953,14.0913086,17.2080078,14,18,14v-2h-1c-0.96875,0-1.8779297,0.1850586-2.7265625,0.5546875
		c-0.8491211,0.3701172-1.5888672,0.8701172-2.21875,1.5c-0.6303711,0.6303711-1.1303711,1.3701172-1.5,2.21875
		C10.1845703,17.1225586,10,18.03125,10,19s0.1845703,1.8779297,0.5546875,2.7265625
		c0.3696289,0.8491211,0.8696289,1.5888672,1.5,2.21875c0.6298828,0.6303711,1.3696289,1.1303711,2.21875,1.5
		C15.1220703,25.8154297,16.03125,26,17,26h8c0.96875,0,1.8774414-0.1845703,2.7265625-0.5546875
		c0.8486328-0.3696289,1.5883789-0.8696289,2.21875-1.5c0.6298828-0.6298828,1.1298828-1.3696289,1.5-2.21875
		C31.8149414,20.8779297,32,19.96875,32,19s-0.1850586-1.8774414-0.5546875-2.7265625
		c-0.3701172-0.8486328-0.8701172-1.5883789-1.5-2.21875c-0.6303711-0.6298828-1.3701172-1.1298828-2.21875-1.5
		C26.8774414,12.1850586,25.96875,12,25,12H24z"/>
</g>
</svg>
