<?xml version="1.0" encoding="utf-8"?>
<!-- Generator: Adobe Illustrator 19.1.0, SVG Export Plug-In . SVG Version: 6.00 Build 0)  -->
<svg version="1.1" id="Layer_1" xmlns="http://www.w3.org/2000/svg" xmlns:xlink="http://www.w3.org/1999/xlink" x="0px" y="0px"
	 width="32px" height="32px" viewBox="0 0 32 32" style="enable-background:new 0 0 32 32;" xml:space="preserve">
<style type="text/css">
	.st0{fill-rule:evenodd;clip-rule:evenodd;}
</style>
<path class="st0" d="M23.4089966,15.9163208l0.0276489,3.3866882L17.0568237,13H17v-2.7486572
	C17.7383423,9.8834229,18.25,9.1311035,18.25,8.25C18.25,7.0073242,17.2426147,6,16,6s-2.25,1.0073242-2.25,2.25
	c0,0.8811035,0.5116577,1.6334839,1.25,2.0012817V13h-0.0568237l-6.3798218,6.303009l0.0276489-3.3251495L7,17.5073242V22h4.2426758
	l1.5910034-2H9.6516113L15,14.8106689v8.9734497L13,21.75V24l3,3l3-3v-2.25l-2,2v-8.93927L22.3483887,20h-3.1820679l1.5910645,2H25
	v-4.4926758L23.4089966,15.9163208z"/>
</svg>
