<?xml version="1.0" encoding="utf-8"?>
<!-- Generator: Adobe Illustrator 19.1.0, SVG Export Plug-In . SVG Version: 6.00 Build 0)  -->
<svg version="1.1" id="Layer_1" xmlns="http://www.w3.org/2000/svg" xmlns:xlink="http://www.w3.org/1999/xlink" x="0px" y="0px"
	 width="32px" height="32px" viewBox="0 0 32 32" style="enable-background:new 0 0 32 32;" xml:space="preserve">
<g>
	<path d="M31,32H1l6-18h8V9.90625c-0.5834961-0.125-1.1201172-0.3378906-1.609375-0.640625
		C12.9008789,8.9638672,12.4790039,8.5966797,12.125,8.1640625c-0.3544922-0.4316406-0.6303711-0.9189453-0.828125-1.4609375
		C11.0986328,6.1621094,11,5.59375,11,5c0-0.6875,0.1298828-1.3330078,0.390625-1.9375
		c0.2602539-0.6035156,0.6171875-1.1328125,1.0703125-1.5859375s0.984375-0.8125,1.59375-1.078125S15.3124943,0,16,0
		c0.6874943,0,1.3330078,0.1328125,1.9374943,0.3984375c0.6040096,0.265625,1.1328182,0.625,1.5859432,1.078125
		s0.8125,0.9824219,1.078125,1.5859375C20.8671875,3.6669922,21,4.3125,21,5c0,0.59375-0.0991211,1.1621094-0.296875,1.703125
		C20.5048828,7.2451172,20.2290039,7.7324219,19.875,8.1640625c-0.3544922,0.4326172-0.7763672,0.7998047-1.265625,1.1015625
		C18.1196289,9.5683594,17.5830078,9.78125,17,9.90625V14h8L31,32z M3.78125,30h24.4375l-4.6562557-14H17v7.5
		c0,0.09375-0.0390625,0.1748047-0.1171875,0.2421875c-0.078125,0.0683594-0.171875,0.1201172-0.28125,0.15625
		c-0.109375,0.0371094-0.21875,0.0625-0.328125,0.078125S16.0727539,24,16,24c-0.0732422,0-0.1640625-0.0078125-0.2734375-0.0234375
		s-0.21875-0.0410156-0.328125-0.078125c-0.109375-0.0361328-0.203125-0.0878906-0.28125-0.15625
		C15.0390625,23.6748047,15,23.59375,15,23.5V16H8.4374943L3.78125,30z M13,5c0,0.4169922,0.078125,0.8076172,0.234375,1.171875
		C13.390625,6.5371094,13.6040039,6.8544922,13.875,7.125c0.2705078,0.2714844,0.5883789,0.484375,0.953125,0.640625
		C15.1923828,7.921875,15.5830078,8,16,8c0.4165039,0,0.8071289-0.078125,1.171875-0.234375
		C17.5361328,7.609375,17.8540039,7.3964844,18.125,7.125c0.2705078-0.2705078,0.484375-0.5878906,0.640625-0.953125
		C18.921875,5.8076172,19,5.4169922,19,5c0-0.4160156-0.078125-0.8066406-0.234375-1.171875
		C18.609375,3.4638672,18.3955078,3.1464844,18.125,2.875c-0.2709961-0.2705078-0.5888672-0.484375-0.953125-0.640625
		C16.8071289,2.078125,16.4165039,2,16,2c-0.4169922,0-0.8076172,0.078125-1.171875,0.234375
		C14.4633789,2.390625,14.1455078,2.6044922,13.875,2.875c-0.2709961,0.2714844-0.484375,0.5888672-0.640625,0.953125
		C13.078125,4.1933594,13,4.5839844,13,5z"/>
</g>
</svg>
