<?xml version="1.0" encoding="utf-8"?>
<!-- Generator: Adobe Illustrator 19.1.0, SVG Export Plug-In . SVG Version: 6.00 Build 0)  -->
<svg version="1.1" id="Layer_1" xmlns="http://www.w3.org/2000/svg" xmlns:xlink="http://www.w3.org/1999/xlink" x="0px" y="0px"
	 width="32px" height="32px" viewBox="0 0 32 32" style="enable-background:new 0 0 32 32;" xml:space="preserve">
<g>
	<path d="M14.953125,30c0.46875,0.7397461,1.0258789,1.40625,1.671875,2H8v-2h4v-2H8.34375
		c-0.875,0-1.6982422-0.1665039-2.46875-0.5c-0.7709961-0.3330078-1.4428711-0.7861328-2.015625-1.359375
		C3.2861328,25.5678711,2.8330078,24.8959961,2.5,24.125C2.1665039,23.3544922,2,22.53125,2,21.65625V16h2v5.65625
		c0,0.59375,0.1142578,1.15625,0.34375,1.6875c0.2290039,0.53125,0.5390625,0.9921875,0.9296875,1.3828125
		S6.125,25.4272461,6.65625,25.65625C7.1874943,25.8857422,7.75,26,8.34375,26H14v4H14.953125z M9,24
		c-0.4169922,0-0.8076172-0.078125-1.171875-0.234375C7.4633789,23.609375,7.1455078,23.3959961,6.875,23.125
		c-0.2709961-0.2705078-0.484375-0.5883789-0.640625-0.953125C6.078125,21.8076172,6,21.4169922,6,21V3
		c0-0.4165039,0.078125-0.8071289,0.234375-1.171875C6.390625,1.4638672,6.6040039,1.1459961,6.875,0.875
		c0.2705078-0.2705078,0.5883789-0.484375,0.953125-0.640625C8.1923828,0.078125,8.5830078,0,9,0h8
		c0.4165039,0,0.8071289,0.078125,1.171875,0.234375C18.5361328,0.390625,18.8540039,0.6044922,19.125,0.875
		c0.2705078,0.2709961,0.484375,0.5888672,0.640625,0.953125C19.921875,2.1928711,20,2.5834961,20,3v13.03125
		c-0.3544922,0.1147461-0.6982422,0.2475586-1.03125,0.3984375C18.6352539,16.5810547,18.3124943,16.7553711,18,16.953125V3
		c0-0.2705078-0.0991211-0.5048828-0.296875-0.703125C17.5048828,2.0991211,17.2705078,2,17,2H9
		C8.7290039,2,8.4946289,2.0991211,8.296875,2.296875C8.0986328,2.4951172,8,2.7294922,8,3v18
		c0,0.2709961,0.0986328,0.5053711,0.296875,0.703125C8.4946289,21.9013672,8.7290039,22,9,22h3h2.03125
		c-0.0209961,0.0209961-0.0341797,0.1279297-0.0390625,0.3203125c-0.0053711,0.1928711-0.0078125,0.4038086-0.0078125,0.6328125
		c0,0.2294922,0.0024414,0.4482422,0.0078125,0.65625C13.9970703,23.8178711,14,23.9482422,14,24H9z M23,18
		c0.96875,0,1.8774414,0.1826172,2.7265625,0.546875c0.8486328,0.3647461,1.5908203,0.8647461,2.2265625,1.5
		c0.6352539,0.6357422,1.1352539,1.3779297,1.5,2.2265625C29.8173828,23.1225586,30,24.03125,30,25
		s-0.1826172,1.8779297-0.546875,2.7265625c-0.3647461,0.8491211-0.8647461,1.5913086-1.5,2.2265625
		c-0.6357422,0.6357422-1.3779297,1.1357422-2.2265625,1.5C24.8774414,31.8178711,23.96875,32,23,32
		s-1.8779297-0.1821289-2.7265625-0.546875c-0.8491211-0.3642578-1.5913086-0.8642578-2.2265625-1.5
		c-0.6357422-0.6352539-1.1357422-1.3774414-1.5-2.2265625C16.1821289,26.8779297,16,25.96875,16,25
		s0.1821289-1.8774414,0.546875-2.7265625c0.3642578-0.8486328,0.8642578-1.5908203,1.5-2.2265625
		c0.6352539-0.6352539,1.3774414-1.1352539,2.2265625-1.5C21.1220703,18.1826172,22.03125,18,23,18z M18,25
		c0,0.6875,0.1298828,1.3359375,0.390625,1.9453125c0.2602539,0.609375,0.6171875,1.140625,1.0703125,1.59375
		s0.984375,0.8100586,1.59375,1.0703125C21.6640625,29.8701172,22.3124943,30,23,30
		c0.4892578,0,0.96875-0.0703125,1.4374943-0.2109375C24.90625,29.6484375,25.34375,29.4428711,25.75,29.171875L18.828125,22.25
		c-0.2709961,0.40625-0.4765625,0.84375-0.6171875,1.3125S18,24.5107422,18,25z M27.171875,27.75
		c0.2705078-0.40625,0.4765625-0.84375,0.6171875-1.3125S28,25.4897461,28,25c0-0.6875-0.1328125-1.3330078-0.3984375-1.9375
		c-0.265625-0.6040039-0.625-1.1328125-1.078125-1.5859375s-0.9819336-0.8125-1.5859432-1.078125
		C24.3330078,20.1328125,23.6874943,20,23,20c-0.4897461,0-0.96875,0.0703125-1.4375057,0.2109375
		C21.09375,20.3515625,20.65625,20.5576172,20.25,20.828125L27.171875,27.75z"/>
</g>
</svg>
