<?xml version="1.0" encoding="utf-8"?>
<!-- Generator: Adobe Illustrator 19.1.0, SVG Export Plug-In . SVG Version: 6.00 Build 0)  -->
<svg version="1.1" id="Layer_1" xmlns="http://www.w3.org/2000/svg" xmlns:xlink="http://www.w3.org/1999/xlink" x="0px" y="0px"
	 width="32px" height="32px" viewBox="0 0 32 32" style="enable-background:new 0 0 32 32;" xml:space="preserve">
<g>
	<path d="M27,16v5.65625c0,0.875-0.1669922,1.6982422-0.5,2.46875c-0.3334961,0.7709961-0.7866211,1.4428711-1.359375,2.015625
		C24.5673828,26.7138672,23.8955078,27.1669922,23.125,27.5c-0.7709961,0.3334961-1.59375,0.5-2.46875,0.5H17v2h4v2H11v-2h4v-2
		h-3.65625c-0.875,0-1.6982422-0.1665039-2.46875-0.5c-0.7709961-0.3330078-1.4428711-0.7861328-2.015625-1.359375
		C6.2861328,25.5678711,5.8330078,24.8959961,5.5,24.125C5.1665039,23.3544922,5,22.53125,5,21.65625V16h2
		c0,0.5732422-0.0185547,1.21875-0.0546875,1.9375c-0.0366211,0.71875-0.0444336,1.4506836-0.0234375,2.1953125
		c0.0205078,0.7451172,0.0908203,1.46875,0.2109375,2.171875c0.1196289,0.703125,0.3408203,1.328125,0.6640625,1.875
		C8.1196289,24.7265625,8.5649414,25.1669922,9.1328125,25.5C9.7001953,25.8334961,10.4374943,26,11.34375,26h9.3125
		c0.9062443,0,1.6430664-0.1665039,2.2109375-0.5c0.5673828-0.3330078,1.0126953-0.7734375,1.3359375-1.3203125
		c0.3227539-0.546875,0.5439453-1.171875,0.6640625-1.875c0.1196289-0.703125,0.1899414-1.4267578,0.2109375-2.171875
		c0.0205078-0.7446289,0.0126953-1.4736328-0.0234375-2.1875C25.0180664,17.2319336,25,16.5834961,25,16H27z M12,24
		c-0.4169922,0-0.8076172-0.078125-1.171875-0.234375C10.4633789,23.609375,10.1455078,23.3959961,9.875,23.125
		c-0.2709961-0.2705078-0.484375-0.5883789-0.640625-0.953125C9.078125,21.8076172,9,21.4169922,9,21V3
		c0-0.4165039,0.078125-0.8071289,0.234375-1.171875C9.390625,1.4638672,9.6040039,1.1459961,9.875,0.875
		c0.2705078-0.2705078,0.5883789-0.484375,0.953125-0.640625C11.1923828,0.078125,11.5830078,0,12,0h8
		c0.4165039,0,0.8071289,0.078125,1.171875,0.234375C21.5361328,0.390625,21.8540039,0.6044922,22.125,0.875
		c0.2705078,0.2709961,0.484375,0.5888672,0.640625,0.953125C22.921875,2.1928711,23,2.5834961,23,3v18
		c0,0.4169922-0.078125,0.8076172-0.234375,1.171875c-0.15625,0.3647461-0.3701172,0.6826172-0.640625,0.953125
		c-0.2709961,0.2709961-0.5888672,0.484375-0.953125,0.640625C20.8071289,23.921875,20.4165039,24,20,24H12z M11,21
		c0,0.2709961,0.0986328,0.5053711,0.296875,0.703125C11.4946289,21.9013672,11.7290039,22,12,22h8
		c0.2705078,0,0.5048828-0.0986328,0.703125-0.296875C20.9008789,21.5053711,21,21.2709961,21,21V3
		c0-0.2705078-0.0991211-0.5048828-0.296875-0.703125C20.5048828,2.0991211,20.2705078,2,20,2h-8
		c-0.2709961,0-0.5053711,0.0991211-0.703125,0.296875C11.0986328,2.4951172,11,2.7294922,11,3V21z"/>
</g>
</svg>
