<svg xmlns="http://www.w3.org/2000/svg" width="32" height="32" viewBox="0 0 32 32">
  <title>Artboard 1</title>
  <g id="Symbols">
    <g>
      <polygon points="12 22 12 24 2 24 2 9 7 9 7 14 12 14 12 16 14 16 14 13 8 7 0 7 0 26 14 26 14 22 12 22"/>
      <polygon points="26 7 26 12 31 12 26 7"/>
      <polygon points="7 20 7 18 19.17 18 15.88 14.71 17.29 13.29 23 19 17.29 24.71 15.88 23.3 19.17 20 7 20"/>
      <g>
        <line x1="19.93" y1="26" x2="19.97" y2="25.97"/>
        <polygon points="31 14 24 14 24 7 17 7 17 12 18.41 11 26.41 19 20 26 31 26 31 14"/>
      </g>
    </g>
  </g>
</svg>
