<?xml version="1.0" encoding="utf-8"?>
<!-- Generator: Adobe Illustrator 19.1.0, SVG Export Plug-In . SVG Version: 6.00 Build 0)  -->
<svg version="1.1" id="Layer_1" xmlns="http://www.w3.org/2000/svg" xmlns:xlink="http://www.w3.org/1999/xlink" x="0px" y="0px"
	 width="32px" height="32px" viewBox="0 0 32 32" style="enable-background:new 0 0 32 32;" xml:space="preserve">
<g>
	<path d="M19.5,0c1.0415039,0,2.0180664,0.1953125,2.9296875,0.5859375c0.9111328,0.390625,1.7055664,0.9248047,2.3828068,1.6015625
		c0.6767635,0.6772461,1.2109432,1.4716797,1.6015682,2.3828125C26.8046875,5.4819336,27,6.4584961,27,7.5V21
		c0,1.0107422-0.1303711,1.984375-0.390625,2.921875c-0.2607422,0.9375-0.6303711,1.8154297-1.109375,2.6328125
		c-0.4794922,0.8178711-1.0522461,1.5600586-1.71875,2.2265625c-0.6669922,0.6669922-1.4091797,1.2397461-2.2265625,1.71875
		c-0.8178711,0.4794922-1.6953125,0.8491211-2.6328125,1.109375C17.984375,31.8701172,17.0102539,32,16,32
		c-1.0107422,0-1.984375-0.1298828-2.921875-0.390625c-0.9375-0.2602539-1.8154297-0.6298828-2.6328125-1.109375
		c-0.8178711-0.4790039-1.5600586-1.0517578-2.2265625-1.71875C7.5517578,28.1147461,6.9790039,27.3725586,6.5,26.5546875
		c-0.4794922-0.8173828-0.8491211-1.6953125-1.109375-2.6328125C5.1298828,22.984375,5,22.0107422,5,21V7.5
		c0-1.0415039,0.1953125-2.0180664,0.5859375-2.9296875C5.9765625,3.6591797,6.5102539,2.8647461,7.1874943,2.1875
		c0.6767635-0.6767578,1.4711971-1.2109375,2.3828182-1.6015625C10.4814453,0.1953125,11.4580078,0,12.5,0H19.5z M25,7.5
		c0-0.7602539-0.1435547-1.4736328-0.4296875-2.140625c-0.2866211-0.6665039-0.6796875-1.25-1.1796875-1.75
		s-1.0834961-0.8930664-1.75-1.1796875C20.9736328,2.1435547,20.2602539,2,19.5,2H17v10h-2V2h-2.5
		c-0.7607422,0-1.4741211,0.1435547-2.140625,0.4296875c-0.6669922,0.2866211-1.25,0.6796875-1.75,1.1796875
		s-0.8935547,1.0834961-1.1796875,1.75C7.1430664,6.0263672,7,6.7397461,7,7.5V21c0,1.2397461,0.2368164,2.40625,0.7109375,3.5
		c0.4736328,1.09375,1.1171875,2.046875,1.9296875,2.859375S11.40625,28.8154297,12.5,29.2890625
		C13.59375,29.7631836,14.7602539,30,16,30c1.2392578,0,2.40625-0.2368164,3.5-0.7109375
		c1.09375-0.4736328,2.046875-1.1171875,2.859375-1.9296875S23.8149414,25.59375,24.2890625,24.5
		C24.7626953,23.40625,25,22.2397461,25,21V7.5z"/>
</g>
</svg>
