<?xml version="1.0" encoding="utf-8"?>
<!-- Generator: Adobe Illustrator 19.1.0, SVG Export Plug-In . SVG Version: 6.00 Build 0)  -->
<svg version="1.1" id="Layer_1" xmlns="http://www.w3.org/2000/svg" xmlns:xlink="http://www.w3.org/1999/xlink" x="0px" y="0px"
	 width="32px" height="32px" viewBox="0 0 32 32" style="enable-background:new 0 0 32 32;" xml:space="preserve">
<g>
	<path d="M32,9v14c0,0.5522461-0.1069336,1.0703125-0.3203125,1.5546875c-0.2138672,0.484375-0.5,0.90625-0.859375,1.265625
		s-0.7841797,0.6459961-1.2734375,0.859375C29.0571289,26.8935547,28.5415039,27,28,27H3.890625
		c-0.53125,0-1.0341797-0.1040039-1.5078125-0.3125c-0.4741211-0.2080078-0.8857422-0.4868164-1.234375-0.8359375
		c-0.3491211-0.3486328-0.6279297-0.7602539-0.8359429-1.234375C0.1040039,24.1435547,0,23.640625,0,23.109375V5h28v4H32z M30,11h-2
		v11c0,0.2709961-0.0991211,0.5053711-0.296875,0.703125C27.5048828,22.9013672,27.2705078,23,27,23
		c-0.2709961,0-0.5053711-0.0986328-0.703125-0.296875C26.0986328,22.5053711,26,22.2709961,26,22V7H2v16.109375
		c0,0.2607422,0.0493164,0.5053711,0.1484375,0.734375c0.0986328,0.2294922,0.234375,0.4296875,0.40625,0.6015625
		s0.3720703,0.3076172,0.6015625,0.40625C3.3852539,24.9506836,3.6298828,25,3.890625,25H28
		c0.28125,0,0.5415039-0.0517578,0.78125-0.15625c0.2392578-0.1040039,0.4501953-0.2470703,0.6328125-0.4296875
		c0.1821289-0.1821289,0.3251953-0.3930664,0.4296875-0.6328125C29.9477539,23.5419922,30,23.28125,30,23V11z M24,11H4V9h20V11z
		 M14,23H4V12.953125h10V23z M6,21h6v-6.046875H6V21z M24,15h-8v-2h8V15z M24,19h-8v-2h8V19z M24,23h-8v-2h8V23z"/>
</g>
</svg>
