<?xml version="1.0" encoding="utf-8"?>
<!-- Generator: Adobe Illustrator 19.1.0, SVG Export Plug-In . SVG Version: 6.00 Build 0)  -->
<svg version="1.1" id="Layer_1" xmlns="http://www.w3.org/2000/svg" xmlns:xlink="http://www.w3.org/1999/xlink" x="0px" y="0px"
	 width="32px" height="32px" viewBox="0 0 32 32" style="enable-background:new 0 0 32 32;" xml:space="preserve">
<g>
	<path d="M3,24c1.46875,0,2.8852539-0.1894531,4.25-0.5703125c1.3642578-0.3798828,2.6376953-0.9189453,3.8203125-1.6171875
		c1.1821289-0.6972656,2.2602539-1.5332031,3.234375-2.5078125c0.9736328-0.9736328,1.8095703-2.0517578,2.5078068-3.234375
		c0.6977596-1.1816406,1.2368221-2.4550781,1.6171932-3.8203125C18.8095703,10.8857422,19,9.46875,19,8
		c0-1.3847656-0.1772461-2.7441406-0.53125-4.078125C18.1142578,2.5888672,17.5986328,1.3232422,16.921875,0.125
		C18.2548828,0.2919922,19.53125,0.609375,20.75,1.078125S23.0986328,2.1464844,24.140625,2.875
		C25.1821289,3.6044922,26.125,4.4453125,26.96875,5.3984375c0.8437443,0.953125,1.5649414,1.9902344,2.1640625,3.109375
		c0.5986328,1.1201172,1.0595703,2.3125,1.3828125,3.578125C30.8383789,13.3515625,31,14.65625,31,16
		c0,1.46875-0.1904297,2.8857422-0.5703125,4.25c-0.3803711,1.3652344-0.9194336,2.6386719-1.6171932,3.8203125
		c-0.6982365,1.1826172-1.534174,2.2607422-2.5078068,3.234375c-0.9741211,0.9746094-2.0522461,1.8105469-3.234375,2.5078125
		c-1.1826172,0.6982422-2.4560547,1.2373047-3.8203125,1.6171875C17.8852539,31.8105469,16.46875,32,15,32
		c-1.4375057,0-2.8388672-0.1875-4.203125-0.5625c-1.3647461-0.375-2.6484375-0.9140625-3.8515625-1.6171875
		s-2.3046875-1.5566406-3.3046875-2.5625c-1-1.0048828-1.8544922-2.1328125-2.5625-3.3828125
		c0.3227539,0.0419922,0.6430664,0.0732422,0.9609375,0.09375C2.3564453,23.9902344,2.6767578,24,3,24z M15,30
		c1.2915039,0,2.5336914-0.1660156,3.7265625-0.5c1.1923828-0.3330078,2.3071289-0.8046875,3.34375-1.4140625
		c1.0361328-0.609375,1.9790039-1.3378906,2.828125-2.1875c0.8486328-0.8486328,1.578125-1.7910156,2.1875-2.828125
		c0.609375-1.0361328,1.0805664-2.1503906,1.4140625-3.34375C28.8330078,18.5341797,29,17.2919922,29,16
		c0-1.4160156-0.2084961-2.7890625-0.625-4.1171875c-0.4169922-1.328125-1.0029297-2.5566406-1.7578125-3.6875
		C25.8618164,7.0654297,24.9477539,6.0576172,23.875,5.171875c-1.0732422-0.8847656-2.265625-1.59375-3.578125-2.125
		C20.765625,4.6621094,21,6.3125,21,8c0,1.5214844-0.1826172,2.9921875-0.546875,4.4140625
		c-0.3647461,1.421875-0.8857422,2.765625-1.5625,4.03125c-0.6772461,1.265625-1.4951172,2.4375-2.4531307,3.515625
		c-0.9584904,1.078125-2.0263615,2.0263672-3.2031193,2.84375c-1.1772461,0.8183594-2.4506836,1.4902344-3.8203125,2.015625
		C8.0439453,25.3466797,6.6040039,25.6982422,5.09375,25.875c1.3330078,1.3339844,2.8461914,2.3544922,4.5390625,3.0625
		C11.3251953,29.6464844,13.1142578,30,15,30z"/>
</g>
</svg>
