<?xml version="1.0" encoding="utf-8"?>
<!-- Generator: Adobe Illustrator 19.1.0, SVG Export Plug-In . SVG Version: 6.00 Build 0)  -->
<svg version="1.1" id="Layer_1" xmlns="http://www.w3.org/2000/svg" xmlns:xlink="http://www.w3.org/1999/xlink" x="0px" y="0px"
	 width="32px" height="32px" viewBox="0 0 32 32" style="enable-background:new 0 0 32 32;" xml:space="preserve">
<g>
	<path d="M16,0c1.46875,0,2.8852539,0.1904297,4.25,0.5703125c1.3642578,0.3803711,2.6376953,0.9194336,3.8203125,1.6171875
		c1.1821289,0.6982422,2.2602539,1.5341797,3.234375,2.5078125c0.9736328,0.9741211,1.8095703,2.0522461,2.5078068,3.234375
		c0.6977596,1.1826172,1.2368221,2.4560547,1.6171932,3.8203125C31.8095703,13.1147461,32,14.53125,32,16
		s-0.1904297,2.8857422-0.5703125,4.25c-0.3803711,1.3647461-0.9194336,2.6381836-1.6171932,3.8203125
		c-0.6982365,1.1826172-1.534174,2.2607422-2.5078068,3.234375c-0.9741211,0.9741211-2.0522461,1.8100586-3.234375,2.5078125
		c-1.1826172,0.6982422-2.4560547,1.2373047-3.8203125,1.6171875C18.8852539,31.8100586,17.46875,32,16,32
		s-2.8857422-0.1899414-4.25-0.5703125c-1.3647461-0.3798828-2.640625-0.9165039-3.828125-1.609375
		c-1.1875-0.6923828-2.2685547-1.5258789-3.2421875-2.5c-0.9741211-0.9736328-1.8076172-2.0546875-2.5-3.2421875
		c-0.6928711-1.1875-1.2294922-2.4609375-1.609375-3.8203125C0.1899414,18.8984375,0,17.4794922,0,16
		c0-1.46875,0.1899414-2.8852539,0.5703125-4.25c0.3798828-1.3642578,0.9189453-2.6376953,1.617182-3.8203125
		c0.6977594-1.1821289,1.5336969-2.2602539,2.507818-3.234375C5.6689453,3.7216797,6.7470703,2.8857422,7.9296875,2.1875
		C9.1118164,1.4897461,10.3852539,0.9506836,11.75,0.5703125C13.1142578,0.1904297,14.53125,0,16,0z M16,30
		c1.2915039,0,2.5336914-0.1665039,3.7265625-0.5c1.1923828-0.3330078,2.3071289-0.8046875,3.34375-1.4140625
		c1.0361328-0.609375,1.9790039-1.3383789,2.828125-2.1875c0.8486328-0.8486328,1.578125-1.7915039,2.1875-2.828125
		c0.609375-1.0361328,1.0805664-2.1508789,1.4140625-3.34375C29.8330078,18.5341797,30,17.2919922,30,16
		c0-1.2915039-0.1669922-2.5336914-0.5-3.7265625c-0.3334961-1.1923828-0.8046875-2.3071289-1.4140625-3.34375
		c-0.609375-1.0361328-1.3388672-1.9790039-2.1875-2.828125c-0.8491211-0.8486328-1.7919922-1.578125-2.828125-2.1875
		C22.0336914,3.3046875,20.9189453,2.8334961,19.7265625,2.5C18.5336914,2.1669922,17.2915039,2,16,2
		c-1.2919922,0-2.5341797,0.1669922-3.7265625,0.5c-1.1928711,0.3334961-2.3076172,0.8046875-3.34375,1.4140625
		c-1.0366211,0.609375-1.9794922,1.3388672-2.828125,2.1875c-0.8491211,0.8491211-1.578125,1.7919922-2.1875,2.828125
		C3.3046875,9.9663086,2.8330078,11.0810547,2.5,12.2734375C2.1665039,13.4663086,2,14.7084961,2,16
		c0,1.2919922,0.1665039,2.5341797,0.5,3.7265625c0.3330078,1.1928711,0.8017578,2.3076172,1.40625,3.34375
		c0.6040039,1.0366211,1.3330078,1.9819336,2.1875,2.8359375c0.8540039,0.8544922,1.7993164,1.5834961,2.8359375,2.1875
		c1.0361328,0.6044922,2.1508789,1.0732422,3.34375,1.40625C13.4658203,29.8334961,14.7080078,30,16,30z"/>
</g>
<path d="M15,8v12.5859375L10.4140625,16L9,17.4140625l7,7l7-7L21.5859375,16L17,20.5859375V8H15z"/>
<g>
</g>
<g>
</g>
<g>
</g>
<g>
</g>
<g>
</g>
<g>
</g>
<g>
</g>
<g>
</g>
<g>
</g>
<g>
</g>
<g>
</g>
<g>
</g>
<g>
</g>
<g>
</g>
<g>
</g>
</svg>
