<?xml version="1.0" encoding="utf-8"?>
<!-- Generator: Adobe Illustrator 19.1.0, SVG Export Plug-In . SVG Version: 6.00 Build 0)  -->
<svg version="1.1" id="Layer_1" xmlns="http://www.w3.org/2000/svg" xmlns:xlink="http://www.w3.org/1999/xlink" x="0px" y="0px"
	 width="32px" height="32px" viewBox="0 0 32 32" style="enable-background:new 0 0 32 32;" xml:space="preserve">
<g>
	<g>
		<rect x="8" y="4" width="2" height="2"/>
		<rect x="4" y="4" width="2" height="2"/>
		<rect x="4" y="8" width="2" height="2"/>
		<rect x="8" y="8" width="2" height="2"/>
		<rect x="8" y="12" width="2" height="2"/>
		<rect x="4" y="12" width="2" height="2"/>
		<rect x="4" y="16" width="2" height="2"/>
		<rect x="8" y="16" width="2" height="2"/>
		<rect x="8" y="20" width="2" height="2"/>
		<rect x="4" y="20" width="2" height="2"/>
		<rect x="16" y="12" width="2" height="2"/>
		<rect x="16" y="16" width="2" height="2"/>
		<rect x="16" y="20" width="2" height="2"/>
		<rect x="8" y="24" width="2" height="2"/>
		<rect x="4" y="24" width="2" height="2"/>
		<rect x="16" y="24" width="2" height="2"/>
	</g>
	<g>
		<g>
			<g>
				<path d="M21,13v19h11V13H21z M30,15v4h-7v-4H30z M23,30v-9h7v9H23z"/>
			</g>
			<rect x="27" y="16" width="2" height="2"/>
		</g>
	</g>
	<path d="M14,30V10h10v1h2V8H14V0H0v32h12h2h5v-2H14z M12,8v22H2V2h10V8z"/>
</g>
<g>
</g>
<g>
</g>
<g>
</g>
<g>
</g>
<g>
</g>
<g>
</g>
<g>
</g>
<g>
</g>
<g>
</g>
<g>
</g>
<g>
</g>
<g>
</g>
<g>
</g>
<g>
</g>
<g>
</g>
</svg>
