<?xml version="1.0" encoding="utf-8"?>
<!-- Generator: Adobe Illustrator 19.1.0, SVG Export Plug-In . SVG Version: 6.00 Build 0)  -->
<svg version="1.1" id="Layer_1" xmlns="http://www.w3.org/2000/svg" xmlns:xlink="http://www.w3.org/1999/xlink" x="0px" y="0px"
	 width="32px" height="32px" viewBox="0 0 32 32" style="enable-background:new 0 0 32 32;" xml:space="preserve">
<path d="M23.140625,24.890625c0.8847656,0.5522461,1.5830078,1.2788086,2.09375,2.1796875
	C25.7441406,27.9716797,26,28.9482422,26,30h-2c0-0.5517578-0.1044922-1.0703125-0.3125057-1.5546875
	c-0.2089787-0.484375-0.4951115-0.9086914-0.8593693-1.2734375c-0.3652344-0.3642578-0.7890625-0.6508789-1.2734375-0.859375
	C21.0703125,26.1044922,20.5517578,26,20,26c-0.5527344,0-1.0703125,0.1044922-1.5546875,0.3125
	c-0.484375,0.2084961-0.9091797,0.4951172-1.2734375,0.859375c-0.3652344,0.3647461-0.6513672,0.7890625-0.8593807,1.2734375
	C16.1035156,28.9296875,16,29.4482422,16,30h-2c0-1.0517578,0.2548828-2.0283203,0.765625-2.9296875
	c0.5097656-0.9008789,1.2080078-1.6274414,2.09375-2.1796875c-0.59375-0.4790039-1.0527344-1.0595703-1.375-1.7421875
	C15.1611328,22.4663086,15,21.75,15,21c0-0.6875,0.1298828-1.3330078,0.390625-1.9375
	c0.2597656-0.6040039,0.6171875-1.1328125,1.0703125-1.5859375s0.984375-0.8125,1.59375-1.078125S19.3124943,16,20,16
	c0.6874943,0,1.3330078,0.1328125,1.9374943,0.3984375c0.6035213,0.265625,1.1328182,0.625,1.5859432,1.078125
	s0.8125,0.9819336,1.078125,1.5859375C24.8671875,19.6669922,25,20.3125,25,21c0,0.75-0.1640625,1.4663086-0.4921875,2.1484375
	C24.1796875,23.8310547,23.7236328,24.4116211,23.140625,24.890625z M17,21c0,0.4169922,0.078125,0.8076172,0.234375,1.171875
	c0.15625,0.3647461,0.3691406,0.6826172,0.640625,0.953125c0.2705078,0.2709961,0.5878906,0.484375,0.953125,0.640625
	C19.1923828,23.921875,19.5830078,24,20,24c0.4160156,0,0.8066406-0.078125,1.171875-0.234375
	c0.3642578-0.15625,0.6816406-0.3696289,0.953125-0.640625c0.2705078-0.2705078,0.484375-0.5883789,0.640625-0.953125
	C22.921875,21.8076172,23,21.4169922,23,21c0-0.4165039-0.078125-0.8071289-0.234375-1.171875
	c-0.15625-0.3642578-0.3701172-0.6821289-0.640625-0.953125c-0.2714844-0.2705078-0.5888672-0.484375-0.953125-0.640625
	C20.8066406,18.078125,20.4160156,18,20,18c-0.4169922,0-0.8076172,0.078125-1.171875,0.234375
	c-0.3652344,0.15625-0.6826172,0.3701172-0.953125,0.640625c-0.2714844,0.2709961-0.484375,0.5888672-0.640625,0.953125
	C17.078125,20.1928711,17,20.5834961,17,21z"/>
<path d="M31.5234375,14.640625c-0.3178711-0.7290039-0.75-1.3618164-1.296875-1.8984375
	c-0.546875-0.5361328-1.1875-0.9609375-1.921875-1.2734375S26.7861328,11,25.953125,11
	c-0.1459961-1.1352539-0.4765625-2.1923828-0.9921875-3.171875C24.4453125,6.8491211,23.7915039,6.0029297,23,5.2890625
	c-0.7919922-0.7133789-1.7006836-1.2734375-2.7265625-1.6796875C19.2470703,3.203125,18.15625,3,17,3
	c-0.7709961,0-1.5209961,0.09375-2.25,0.28125c-0.7294922,0.1875-1.4169922,0.4584961-2.0625057,0.8125
	c-0.6459904,0.3544922-1.2421818,0.7890625-1.7890568,1.3046875S9.8696289,6.4951172,9.453125,7.140625
	C8.9633789,7.046875,8.4790039,7,8,7C6.8955078,7,5.8564453,7.2084961,4.8828125,7.625
	c-0.9741211,0.4169922-1.8232422,0.9873047-2.546875,1.7109375C1.6118164,10.0600586,1.0415039,10.9091797,0.625,11.8828125
	C0.2080078,12.8569336,0,13.8959961,0,15c0,1.1044922,0.2080078,2.1435547,0.625,3.1171875
	c0.4165039,0.9741211,0.9868164,1.8232422,1.7109375,2.546875c0.7236328,0.7241211,1.5727539,1.2944336,2.546875,1.7109375
	C5.8564453,22.7919922,6.8955078,23,8,23h5.3012085C13.1077271,22.3532104,13,21.6853638,13,21H8
	c-0.8334961,0-1.6123047-0.15625-2.3359375-0.46875c-0.7241211-0.3125-1.359375-0.7421875-1.90625-1.2890625
	S2.78125,18.0600586,2.46875,17.3359375C2.15625,16.6123047,2,15.8334961,2,15c0-0.8227539,0.15625-1.5986328,0.46875-2.328125
	c0.3125-0.7290039,0.7421875-1.3671875,1.2890625-1.9140625S4.9399414,9.78125,5.6640625,9.46875C6.3876953,9.15625,7.1665039,9,8,9
	c0.8642578,0,1.6874943,0.1826172,2.46875,0.546875c0.2602539-0.6875,0.609375-1.3095703,1.046875-1.8671875
	c0.4375-0.5571289,0.9399414-1.0336914,1.5078125-1.4296875c0.5673828-0.3955078,1.1899414-0.703125,1.8671875-0.921875
	C15.5673828,5.109375,16.2705078,5,17,5c0.96875,0,1.8774414,0.1826172,2.7265625,0.546875
	c0.8486328,0.3647461,1.5908203,0.8647461,2.2265625,1.5c0.6352539,0.6357422,1.1352539,1.3779297,1.5,2.2265625
	C23.8173828,10.1225586,24,11.03125,24,12v1h2c0.5517578,0,1.0703125,0.1044922,1.5546875,0.3125
	c0.484375,0.2084961,0.9086914,0.4951172,1.2734375,0.859375c0.3642578,0.3647461,0.6508789,0.7890625,0.8593693,1.2734375
	C29.8955078,15.9296875,30,16.4482422,30,17c0,0.5522461-0.1044922,1.0703125-0.3125057,1.5546875
	c-0.2084904,0.484375-0.4951115,0.9091797-0.8593693,1.2734375c-0.3647461,0.3647461-0.7890625,0.6513672-1.2734375,0.859375
	c-0.1808472,0.0778198-0.3712769,0.1262817-0.5615845,0.1750488C26.9940186,20.9086914,27,20.9536743,27,21
	c0,0.6693115-0.1049194,1.3220825-0.2921753,1.9558716c0.5631104-0.0645752,1.1039429-0.2034302,1.6203003-0.4246216
	c0.7290039-0.3125,1.3671875-0.7421875,1.9140625-1.2890625s0.9765625-1.1821289,1.2890625-1.90625
	C31.84375,18.6123047,32,17.8334961,32,17C32,16.15625,31.8408203,15.3701172,31.5234375,14.640625z"/>
</svg>
