<?xml version="1.0" encoding="utf-8"?>
<!-- Generator: Adobe Illustrator 19.1.0, SVG Export Plug-In . SVG Version: 6.00 Build 0)  -->
<svg version="1.1" id="Layer_1" xmlns="http://www.w3.org/2000/svg" xmlns:xlink="http://www.w3.org/1999/xlink" x="0px" y="0px"
	 width="32px" height="32px" viewBox="0 0 32 32" style="enable-background:new 0 0 32 32;" xml:space="preserve">
<g>
	<rect x="11" y="4" width="2" height="2"/>
	<rect x="7" y="4" width="2" height="2"/>
	<rect x="7" y="8" width="2" height="2"/>
	<rect x="11" y="8" width="2" height="2"/>
	<rect x="11" y="12" width="2" height="2"/>
	<rect x="7" y="12" width="2" height="2"/>
	<rect x="7" y="16" width="2" height="2"/>
	<rect x="11" y="16" width="2" height="2"/>
	<rect x="11" y="20" width="2" height="2"/>
	<rect x="7" y="20" width="2" height="2"/>
	<path d="M17,8V0H3v32h12h2h12V8H17z M15,30H5V2h10v6V30z M27,30H17V10h10V30z"/>
	<rect x="23" y="12" width="2" height="2"/>
	<rect x="19" y="12" width="2" height="2"/>
	<rect x="19" y="16" width="2" height="2"/>
	<rect x="23" y="16" width="2" height="2"/>
	<rect x="23" y="20" width="2" height="2"/>
	<rect x="19" y="20" width="2" height="2"/>
	<rect x="11" y="24" width="2" height="2"/>
	<rect x="7" y="24" width="2" height="2"/>
	<rect x="23" y="24" width="2" height="2"/>
	<rect x="19" y="24" width="2" height="2"/>
</g>
</svg>
