<?xml version="1.0" encoding="utf-8"?>
<!-- Generator: Adobe Illustrator 19.1.0, SVG Export Plug-In . SVG Version: 6.00 Build 0)  -->
<svg version="1.1" id="Layer_1" xmlns="http://www.w3.org/2000/svg" xmlns:xlink="http://www.w3.org/1999/xlink" x="0px" y="0px"
	 width="32px" height="32px" viewBox="0 0 32 32" style="enable-background:new 0 0 32 32;" xml:space="preserve">
<g>
	<path d="M16,0c1.46875,0,2.8852539,0.1904297,4.25,0.5703125c1.3642578,0.3803711,2.640625,0.9169922,3.828125,1.609375
		c1.1875,0.6928711,2.2680664,1.5263672,3.2421875,2.5c0.9736328,0.9741211,1.8071289,2.0546875,2.5,3.2421875
		c0.6923828,1.1875,1.2290039,2.4638672,1.609375,3.828125C31.8095703,13.1147461,32,14.53125,32,16
		s-0.1904297,2.8857422-0.5703125,4.25c-0.3803711,1.3647461-0.9169922,2.640625-1.609375,3.828125
		c-0.6928711,1.1875-1.5263672,2.2685547-2.5,3.2421875c-0.9741211,0.9741211-2.0546875,1.8076172-3.2421875,2.5
		c-1.1875,0.6928711-2.4638672,1.2294922-3.828125,1.609375C18.8852539,31.8100586,17.46875,32,16,32
		c-0.5522461,0-1.0703125-0.1064453-1.5546875-0.3203125c-0.484375-0.2133789-0.90625-0.5-1.265625-0.859375
		s-0.6459961-0.78125-0.859375-1.265625C12.1064453,29.0703125,12,28.5522461,12,28
		c0-0.5102539,0.0493164-0.9555664,0.1484375-1.3359375C12.2470703,26.2841797,12.3696289,25.9375,12.515625,25.625
		C12.6611328,25.3125,12.8227539,25.0209961,13,24.75c0.1767578-0.2705078,0.3383789-0.5439453,0.484375-0.8203125
		c0.1455078-0.2758789,0.2680664-0.5673828,0.3671875-0.875C13.9501953,22.7475586,14,22.3959961,14,22
		c0-0.5415039-0.1069336-1.0571289-0.3203125-1.546875c-0.2138672-0.4892578-0.5-0.9140625-0.859375-1.2734375
		s-0.7841797-0.6455078-1.2734375-0.859375C11.0571289,18.1069336,10.5415039,18,10,18
		c-0.3959961,0-0.7475586,0.0498047-1.0546875,0.1484375c-0.3076172,0.0991211-0.5991211,0.2216797-0.875,0.3671875
		C7.7939453,18.6616211,7.5205078,18.8232422,7.25,19c-0.2709961,0.1772461-0.5625057,0.3388672-0.875,0.484375
		c-0.3125057,0.1459961-0.6616211,0.2685547-1.046875,0.3671875C4.9423828,19.9506836,4.5,20,4,20
		c-0.5522461,0-1.0703125-0.1064453-1.5546875-0.3203125c-0.484375-0.2133789-0.90625-0.5-1.265625-0.859375
		s-0.6459961-0.78125-0.859375-1.265625C0.1064453,17.0703125,0,16.5522461,0,16c0-1.46875,0.1899414-2.8852539,0.5703125-4.25
		c0.3798828-1.3642578,0.9165039-2.640625,1.609375-3.828125c0.6923828-1.1875,1.5258789-2.2680664,2.5-3.2421875
		c0.9736328-0.9736328,2.0546875-1.8071289,3.2421875-2.5c1.1875-0.6923828,2.4609375-1.2290039,3.8203125-1.609375
		C13.1015625,0.1904297,14.5205078,0,16,0z M16,30c1.28125,0,2.5180664-0.1665039,3.7109375-0.5
		c1.1923828-0.3330078,2.3071289-0.8046875,3.34375-1.4140625c1.0361328-0.609375,1.9814453-1.3408203,2.8359375-2.1953125
		c0.8540039-0.8540039,1.5859375-1.7993164,2.1953125-2.8359375c0.609375-1.0361328,1.0805664-2.1508789,1.4140625-3.34375
		C29.8330078,18.5185547,30,17.28125,30,16s-0.1669922-2.5180664-0.5-3.7109375
		c-0.3334961-1.1923828-0.8046875-2.3071289-1.4140625-3.34375c-0.609375-1.0361328-1.3413086-1.9814453-2.1953125-2.8359375
		c-0.8544922-0.8540039-1.7998047-1.5859375-2.8359375-2.1953125C22.0180664,3.3046875,20.9033203,2.8334961,19.7109375,2.5
		C18.5180664,2.1669922,17.28125,2,16,2s-2.5185547,0.1669922-3.7109375,0.5
		c-1.1928711,0.3334961-2.3076172,0.8046875-3.34375,1.4140625C7.9086914,4.5234375,6.9633789,5.2553711,6.109375,6.109375
		C5.2548828,6.9638672,4.5234375,7.9091797,3.9140625,8.9453125C3.3046875,9.9819336,2.8330078,11.0966797,2.5,12.2890625
		C2.1665039,13.4819336,2,14.71875,2,16c0,0.28125,0.0517578,0.5419922,0.15625,0.78125
		c0.1040039,0.2397461,0.2470703,0.4506836,0.4296875,0.6328125C2.7680664,17.5966797,2.9790039,17.7397461,3.21875,17.84375
		C3.4580078,17.9482422,3.71875,18,4,18c0.3955078,0,0.7470703-0.0493164,1.0546875-0.1484375
		c0.3071289-0.0986328,0.5986328-0.2211914,0.875-0.3671875c0.2758789-0.1455078,0.546875-0.3071289,0.8125-0.484375
		c0.265625-0.1767578,0.5517578-0.3383789,0.859375-0.484375c0.3071289-0.1455078,0.6533203-0.2680664,1.0390625-0.3671875
		C9.0258789,16.0498047,9.4790039,16,10,16c0.8330078,0,1.6142578,0.15625,2.34375,0.46875
		c0.7290039,0.3125,1.3642578,0.7397461,1.90625,1.28125c0.5415039,0.5419922,0.96875,1.1772461,1.28125,1.90625
		C15.84375,20.3857422,16,21.1669922,16,22c0,0.5107422-0.0498047,0.9609375-0.1484375,1.3515625
		c-0.0991211,0.390625-0.2216797,0.7397461-0.3671875,1.046875c-0.1459961,0.3076172-0.3076172,0.59375-0.484375,0.859375
		c-0.1772461,0.265625-0.3388672,0.5366211-0.484375,0.8125c-0.1459961,0.2763672-0.2685547,0.5678711-0.3671875,0.875
		C14.0493164,27.2529297,14,27.6044922,14,28c0,0.28125,0.0517578,0.5419922,0.15625,0.78125
		c0.1040039,0.2397461,0.2470703,0.4506836,0.4296875,0.6328125c0.1821289,0.1826172,0.3930664,0.3256836,0.6328125,0.4296875
		C15.4580078,29.9482422,15.71875,30,16,30z M8,10c0.28125,0,0.5415039,0.0522461,0.78125,0.15625
		c0.2392578,0.1044922,0.4501953,0.2475586,0.6328125,0.4296875C9.5961914,10.7685547,9.7392578,10.9794922,9.84375,11.21875
		C9.9477539,11.4584961,10,11.71875,10,12s-0.0522461,0.5419922-0.15625,0.78125
		c-0.1044922,0.2397461-0.2475586,0.4506836-0.4296875,0.6328125C9.2314453,13.5966797,9.0205078,13.7397461,8.78125,13.84375
		C8.5415039,13.9482422,8.28125,14,8,14s-0.5419922-0.0517578-0.78125-0.15625
		c-0.2397461-0.1040039-0.4506836-0.2470703-0.6328125-0.4296875C6.4033203,13.2319336,6.2602539,13.0209961,6.15625,12.78125
		C6.0517578,12.5419922,6,12.28125,6,12s0.0517578-0.5415039,0.15625-0.78125
		c0.1040039-0.2392578,0.2470703-0.4501953,0.4296875-0.6328125C6.7680664,10.4038086,6.9790039,10.2607422,7.21875,10.15625
		C7.4580078,10.0522461,7.71875,10,8,10z M14,6c0.28125,0,0.5415039,0.0522461,0.78125,0.15625
		c0.2392578,0.1044922,0.4501953,0.2475586,0.6328125,0.4296875C15.5961914,6.7685547,15.7392578,6.9794922,15.84375,7.21875
		C15.9477539,7.4584961,16,7.71875,16,8s-0.0522461,0.5419922-0.15625,0.78125
		c-0.1044922,0.2397461-0.2475586,0.4506836-0.4296875,0.6328125C15.2314453,9.5966797,15.0205078,9.7397461,14.78125,9.84375
		C14.5415039,9.9482422,14.28125,10,14,10s-0.5419922-0.0517578-0.78125-0.15625
		c-0.2397461-0.1040039-0.4506836-0.2470703-0.6328125-0.4296875C12.4033203,9.2319336,12.2602539,9.0209961,12.15625,8.78125
		C12.0517578,8.5419922,12,8.28125,12,8s0.0517578-0.5415039,0.15625-0.78125
		c0.1040039-0.2392578,0.2470703-0.4501953,0.4296875-0.6328125C12.7680664,6.4038086,12.9790039,6.2607422,13.21875,6.15625
		C13.4580078,6.0522461,13.71875,6,14,6z M20,22c0.28125,0,0.5415039,0.0522461,0.78125,0.15625
		c0.2392578,0.1044922,0.4501953,0.2475586,0.6328125,0.4296875c0.1821289,0.1826172,0.3251953,0.3935547,0.4296875,0.6328125
		C21.9477539,23.4584961,22,23.71875,22,24s-0.0522461,0.5419922-0.15625,0.78125
		c-0.1044922,0.2397461-0.2475586,0.4506836-0.4296875,0.6328125c-0.1826172,0.1826172-0.3935547,0.3256836-0.6328125,0.4296875
		C20.5415039,25.9482422,20.28125,26,20,26s-0.5419922-0.0517578-0.78125-0.15625
		c-0.2397461-0.1040039-0.4506836-0.2470703-0.6328125-0.4296875c-0.1826172-0.1821289-0.3256836-0.3930664-0.4296875-0.6328125
		C18.0517578,24.5419922,18,24.28125,18,24s0.0517578-0.5415039,0.15625-0.78125
		c0.1040039-0.2392578,0.2470703-0.4501953,0.4296875-0.6328125c0.1821289-0.1821289,0.3930664-0.3251953,0.6328125-0.4296875
		C19.4580078,22.0522461,19.71875,22,20,22z M22,12c-0.28125,0-0.5419922-0.0517578-0.78125-0.15625
		c-0.2397461-0.1040039-0.4506836-0.2470703-0.6328125-0.4296875c-0.1826172-0.1821289-0.3256836-0.3930664-0.4296875-0.6328125
		C20.0517578,10.5419922,20,10.28125,20,10s0.0517578-0.5415039,0.15625-0.78125
		c0.1040039-0.2392578,0.2470703-0.4501953,0.4296875-0.6328125C20.7680664,8.4038086,20.9790039,8.2607422,21.21875,8.15625
		C21.4580078,8.0522461,21.71875,8,22,8s0.5415039,0.0522461,0.78125,0.15625
		c0.2392578,0.1044922,0.4501953,0.2475586,0.6328125,0.4296875C23.5961914,8.7685547,23.7392578,8.9794922,23.84375,9.21875
		C23.9477539,9.4584961,24,9.71875,24,10s-0.0522461,0.5419922-0.15625,0.78125
		c-0.1044922,0.2397461-0.2475586,0.4506836-0.4296875,0.6328125c-0.1826172,0.1826172-0.3935547,0.3256836-0.6328125,0.4296875
		C22.5415039,11.9482422,22.28125,12,22,12z M24,16c0.28125,0,0.5415039,0.0522461,0.78125,0.15625
		c0.2392578,0.1044922,0.4501953,0.2475586,0.6328125,0.4296875c0.1821289,0.1826172,0.3251953,0.3935547,0.4296875,0.6328125
		C25.9477539,17.4584961,26,17.71875,26,18s-0.0522461,0.5419922-0.15625,0.78125
		c-0.1044922,0.2397461-0.2475586,0.4506836-0.4296875,0.6328125c-0.1826172,0.1826172-0.3935547,0.3256836-0.6328125,0.4296875
		C24.5415039,19.9482422,24.28125,20,24,20s-0.5419922-0.0517578-0.78125-0.15625
		c-0.2397461-0.1040039-0.4506836-0.2470703-0.6328125-0.4296875c-0.1826172-0.1821289-0.3256836-0.3930664-0.4296875-0.6328125
		C22.0517578,18.5419922,22,18.28125,22,18s0.0517578-0.5415039,0.15625-0.78125
		c0.1040039-0.2392578,0.2470703-0.4501953,0.4296875-0.6328125c0.1821289-0.1821289,0.3930664-0.3251953,0.6328125-0.4296875
		C23.4580078,16.0522461,23.71875,16,24,16z"/>
</g>
</svg>
