<?xml version="1.0" encoding="utf-8"?>
<!-- Generator: Adobe Illustrator 19.2.1, SVG Export Plug-In . SVG Version: 6.00 Build 0)  -->
<svg version="1.1" id="Layer_1" xmlns="http://www.w3.org/2000/svg" xmlns:xlink="http://www.w3.org/1999/xlink" x="0px" y="0px"
	 width="32px" height="32px" viewBox="0 0 32 32" style="enable-background:new 0 0 32 32;" xml:space="preserve">
<g>
	<g>
		<path d="M16.3330078,26.5585938C16.4856567,26.0169678,16.706665,25.5011597,16.9577637,25H2v-7h16.0783691
			c0.0848999-0.5986328,0.2383423-1.178833,0.4758301-1.7294922c0.0410767-0.09552,0.1027832-0.1773682,0.147644-0.2705078H6V6
			l10.0688477,5.109375L26,6v6.0795288c0.6029053,0.086731,1.1873779,0.2441406,1.7421875,0.487854
			C27.833374,12.6075439,27.9110718,12.6665649,28,12.710022V2H4v11l-4,4v10l16.2485352-0.0349731
			C16.2797241,26.8303833,16.2955933,26.6911621,16.3330078,26.5585938z M26.0688477,4l-10,4.890625L6.0688477,4H26.0688477z"/>
	</g>
	<path d="M28.25,22.796875c0.5722656,0.3027344,1.0908203,0.6748047,1.5546875,1.1171875
		c0.4628906,0.4433594,0.859375,0.9326172,1.1875,1.46875c0.328125,0.5371094,0.578125,1.109375,0.75,1.71875S32,28.34375,32,29v1
		h-2v-1c0-0.6875-0.1328125-1.3330078-0.3984375-1.9375c-0.265625-0.6035156-0.625-1.1328125-1.078125-1.5859375
		s-0.9824219-0.8125-1.5859432-1.078125C26.3330078,24.1328125,25.6874943,24,25,24
		c-0.6875057,0-1.3359375,0.1328125-1.9453125,0.3984375s-1.140625,0.625-1.59375,1.078125S20.6503906,26.4589844,20.390625,27.0625
		C20.1298828,27.6669922,20,28.3125,20,29v1h-2v-1c0-0.65625,0.0859375-1.2890625,0.2578125-1.8984375
		s0.421875-1.1816406,0.75-1.71875c0.328125-0.5361328,0.7207031-1.0253906,1.1796818-1.46875
		c0.4580135-0.4423828,0.9785213-0.8144531,1.5625057-1.1171875c-0.5625057-0.4785156-0.9951172-1.0488281-1.296875-1.7109375
		C20.1503906,20.4248047,20,19.7294922,20,19c0-0.6875,0.1298828-1.3330078,0.390625-1.9375
		c0.2597656-0.6035156,0.6171875-1.1328125,1.0703125-1.5859375s0.984375-0.8125,1.59375-1.078125S24.3124943,14,25,14
		c0.6874943,0,1.3330078,0.1328125,1.9374943,0.3984375c0.6035213,0.265625,1.1328182,0.625,1.5859432,1.078125
		s0.8125,0.9824219,1.078125,1.5859375C29.8671875,17.6669922,30,18.3125,30,19
		c0,0.7294922-0.1542969,1.4248047-0.4609375,2.0859375C29.2314453,21.7480469,28.8017578,22.3183594,28.25,22.796875z M22,19
		c0,0.4169922,0.078125,0.8076172,0.234375,1.171875c0.15625,0.3652344,0.3691406,0.6826172,0.640625,0.953125
		c0.2705078,0.2714844,0.5878906,0.484375,0.953125,0.640625C24.1923828,21.921875,24.5830078,22,25,22
		c0.4160156,0,0.8066406-0.078125,1.171875-0.234375c0.3642578-0.15625,0.6816406-0.3691406,0.953125-0.640625
		c0.2705078-0.2705078,0.484375-0.5878906,0.640625-0.953125C27.921875,19.8076172,28,19.4169922,28,19
		c0-0.4160156-0.078125-0.8066406-0.234375-1.171875c-0.15625-0.3642578-0.3701172-0.6816406-0.640625-0.953125
		c-0.2714844-0.2705078-0.5888672-0.484375-0.953125-0.640625C25.8066406,16.078125,25.4160156,16,25,16
		c-0.4169922,0-0.8076172,0.078125-1.171875,0.234375c-0.3652344,0.15625-0.6826172,0.3701172-0.953125,0.640625
		c-0.2714844,0.2714844-0.484375,0.5888672-0.640625,0.953125C22.078125,18.1933594,22,18.5839844,22,19z"/>
</g>
<g>
</g>
<g>
</g>
<g>
</g>
<g>
</g>
<g>
</g>
<g>
</g>
<g>
</g>
<g>
</g>
<g>
</g>
<g>
</g>
<g>
</g>
<g>
</g>
<g>
</g>
<g>
</g>
<g>
</g>
</svg>
