<?xml version="1.0" encoding="utf-8"?>
<!-- Generator: Adobe Illustrator 19.1.0, SVG Export Plug-In . SVG Version: 6.00 Build 0)  -->
<svg version="1.1" id="Layer_1" xmlns="http://www.w3.org/2000/svg" xmlns:xlink="http://www.w3.org/1999/xlink" x="0px" y="0px"
	 width="32px" height="32px" viewBox="0 0 32 32" style="enable-background:new 0 0 32 32;" xml:space="preserve">
<g>
	<path d="M25.109375,18.953125c0.4580078,0,0.8984375,0.0859375,1.3203125,0.2578125s0.7939453,0.4194336,1.1171875,0.7421875
		l3.4375,3.4375c0.3227539,0.3232422,0.5703125,0.6953125,0.7421875,1.1171875s0.2578125,0.8623047,0.2578125,1.3203125
		c0,0.4584961-0.0859375,0.8984375-0.2578125,1.3203125s-0.4194336,0.7944336-0.7421875,1.1171875
		c-0.59375,0.6044922-1.1357422,1.1381836-1.625,1.6015625c-0.4897461,0.4638672-0.9951172,0.8544922-1.515625,1.171875
		c-0.5209961,0.3178711-1.0991211,0.5576172-1.734375,0.71875C25.4736328,31.9194336,24.7080078,32,23.8124943,32
		c-1.3022404,0-2.6406193-0.203125-4.0156193-0.609375s-2.7421875-0.96875-4.1015625-1.6875s-2.6928711-1.5727539-4-2.5625
		c-1.3076172-0.9892578-2.5419922-2.0703125-3.703125-3.2421875c-1.1616211-1.171875-2.2319336-2.4111328-3.2109375-3.71875
		c-0.9794922-1.3071289-1.8232422-2.640625-2.53125-4c-0.7084961-1.359375-1.2607422-2.7158203-1.65625-4.0703125
		C0.1977539,10.7553711,0,9.4428711,0,8.171875c0-0.8955078,0.0805664-1.6586914,0.2421875-2.2890625
		c0.1611328-0.6298828,0.4008789-1.2080078,0.71875-1.734375c0.3173828-0.5258789,0.7080078-1.03125,1.171875-1.515625
		C2.5961914,2.1484375,3.1298828,1.609375,3.734375,1.015625c0.3227539-0.3227539,0.6923828-0.5727539,1.109375-0.75
		C5.2602539,0.0888672,5.703125,0,6.171875,0c0.4580078,0,0.8984375,0.0888672,1.3203125,0.265625
		c0.421875,0.1772461,0.7939453,0.4272461,1.1171875,0.75l3.4375,3.4375
		c0.3227539,0.3232422,0.5703125,0.6953125,0.7421875,1.1171875S13.046875,6.4326172,13.046875,6.890625
		c0,0.4584961-0.078125,0.8671875-0.2343807,1.2265625C12.65625,8.4765625,12.4633789,8.8022461,12.234375,9.09375
		c-0.2294922,0.2919922-0.4819336,0.5576172-0.7578125,0.796875c-0.2763672,0.2397461-0.5288086,0.4741211-0.7578125,0.703125
		c-0.2294922,0.2294922-0.421875,0.4609375-0.578125,0.6953125S9.90625,11.7763672,9.90625,12.046875
		c0,0.3959961,0.140625,0.734375,0.421875,1.015625l8.6093693,8.609375c0.2812557,0.28125,0.6196346,0.421875,1.0156307,0.421875
		c0.2705078,0,0.5234375-0.078125,0.7578125-0.234375s0.4658203-0.3486328,0.6953125-0.578125
		c0.2290039-0.2290039,0.4633789-0.4814453,0.703125-0.7578125c0.2392578-0.2758789,0.5048828-0.5283203,0.796875-0.7578125
		c0.2915039-0.2290039,0.6171875-0.421875,0.9765625-0.578125S24.6508789,18.953125,25.109375,18.953125z M23.8124943,30
		c0.75,0,1.3774471-0.0703125,1.8828182-0.2109375c0.5048828-0.140625,0.9609375-0.34375,1.3671818-0.609375
		C27.46875,28.9140625,27.8642578,28.5834961,28.25,28.1875c0.3852539-0.3955078,0.828125-0.84375,1.328125-1.34375
		C29.859375,26.5625,30,26.2241211,30,25.828125c0-0.1875-0.0756836-0.4086914-0.2265625-0.6640625
		c-0.1513672-0.2548828-0.3466797-0.5234375-0.5859432-0.8046875c-0.2397404-0.28125-0.5078068-0.5703125-0.8046818-0.8671875
		s-0.5888672-0.578125-0.875-0.84375c-0.2866211-0.265625-0.5522461-0.5102539-0.796875-0.734375
		c-0.2451172-0.2236328-0.4350586-0.4033203-0.5703125-0.5390625c-0.28125-0.28125-0.625-0.421875-1.03125-0.421875
		c-0.2709961,0-0.5209961,0.078125-0.75,0.234375c-0.2294922,0.15625-0.4584961,0.3491211-0.6875,0.578125
		c-0.2294922,0.2294922-0.4663086,0.4819336-0.7109375,0.7578125c-0.2451172,0.2763672-0.5131836,0.5288086-0.8046875,0.7578125
		c-0.2919922,0.2294922-0.6171875,0.421875-0.9765625,0.578125s-0.7685547,0.234375-1.2265625,0.234375
		c-0.4584961,0-0.8984375-0.0859375-1.3203125-0.2578125s-0.7944336-0.4189453-1.1171875-0.7421875L8.90625,14.484375
		c-0.3232422-0.3227539-0.5703125-0.6953125-0.7421875-1.1171875S7.90625,12.5053711,7.90625,12.046875
		c0-0.4580078,0.078125-0.8671875,0.234375-1.2265625S8.4892578,10.1357422,8.71875,9.84375
		c0.2290039-0.2915039,0.4814453-0.5595703,0.7578125-0.8046875c0.2758789-0.2446289,0.5283203-0.4814453,0.7578125-0.7109375
		c0.2290039-0.2290039,0.421875-0.4580078,0.5781193-0.6875c0.1562557-0.2290039,0.2343807-0.4790039,0.2343807-0.75
		c0-0.40625-0.140625-0.75-0.421875-1.03125c-0.1357422-0.1352539-0.3154297-0.3251953-0.5390625-0.5703125
		c-0.2241211-0.2446289-0.46875-0.5102539-0.734375-0.796875c-0.265625-0.2861328-0.546875-0.578125-0.84375-0.875
		S7.921875,3.0522461,7.640625,2.8125c-0.28125-0.2392578-0.5498047-0.4345703-0.8046875-0.5859375
		C6.5805664,2.0756836,6.359375,2,6.171875,2C5.7758789,2,5.4374943,2.140625,5.15625,2.421875
		c-0.5,0.5-0.9453125,0.9428711-1.3359375,1.328125c-0.390625,0.3857422-0.7241211,0.78125-1,1.1875
		c-0.2763672,0.40625-0.484375,0.8623047-0.625,1.3671875C2.0546875,6.8100586,1.984375,7.4326172,1.984375,8.171875
		c0,1.1669922,0.1899414,2.3701172,0.5703125,3.609375c0.3798828,1.2397461,0.90625,2.4794922,1.578125,3.71875
		c0.671875,1.2397461,1.4658203,2.4609375,2.3828125,3.6640625c0.9165039,1.203125,1.9165039,2.3413086,3,3.4140625
		c1.0830078,1.0732422,2.2265625,2.0625,3.4296875,2.96875s2.421875,1.6904297,3.65625,2.3515625
		c1.234375,0.6616211,2.4633789,1.1772461,3.6875,1.546875C21.5126953,29.8154297,22.6874943,30,23.8124943,30z"/>
</g>
</svg>
