<?xml version="1.0" encoding="utf-8"?>
<!-- Generator: Adobe Illustrator 19.1.0, SVG Export Plug-In . SVG Version: 6.00 Build 0)  -->
<svg version="1.1" id="Layer_1" xmlns="http://www.w3.org/2000/svg" xmlns:xlink="http://www.w3.org/1999/xlink" x="0px" y="0px"
	 width="32px" height="32px" viewBox="0 0 32 32" style="enable-background:new 0 0 32 32;" xml:space="preserve">
<g>
	<path d="M31.09375,11.6875c-0.34375,0.34375-0.6796875,0.6591797-1.0078125,0.9453125
		c-0.328125,0.2866211-0.6669922,0.5288086-1.015625,0.7265625c-0.3491211,0.1982422-0.7294922,0.3515625-1.140625,0.4609375
		c-0.4116211,0.109375-0.8779297,0.1640625-1.3984375,0.1640625c-0.3544922,0-0.6928711-0.03125-1.015625-0.09375L19.59375,19.8125
		c0.1352539,0.3959961,0.234375,0.8022461,0.296875,1.21875c0.0625,0.4169922,0.09375,0.8334961,0.09375,1.25
		c0,0.6772461-0.0678711,1.2919922-0.203125,1.84375c-0.1357422,0.5522461-0.3310547,1.0732422-0.5859375,1.5625
		c-0.2553711,0.4897461-0.5678711,0.9584961-0.9375,1.40625c-0.3701172,0.4482422-0.7841797,0.8959961-1.2421875,1.34375
		L11,22.421875l-8.875,8.875L0,32l0.703125-2.125l8.875-8.875l-6.0156307-6.015625
		c0.4477594-0.46875,0.8955133-0.8852539,1.3437555-1.25c0.4477539-0.3642578,0.9189453-0.6743164,1.4140625-0.9296875
		c0.4946289-0.2548828,1.0180664-0.4501953,1.5703125-0.5859375c0.5517578-0.1352539,1.1665039-0.203125,1.84375-0.203125
		c0.8540039,0,1.671875,0.1303711,2.4531193,0.390625l5.9218807-5.921875c-0.0625-0.3227539-0.09375-0.6611328-0.09375-1.015625
		c0-0.5102539,0.0546875-0.9711914,0.1640625-1.3828125c0.109375-0.4111328,0.2626953-0.7939453,0.4609375-1.1484375
		c0.1977539-0.3540039,0.4399414-0.6953125,0.7265625-1.0234375C19.6533203,1.5859375,19.96875,1.25,20.3124943,0.90625
		L31.09375,11.6875z M26.53125,11.984375c0.5727539,0,1.1142578-0.1352539,1.625-0.40625L20.421875,3.84375
		c-0.2709961,0.5107422-0.40625,1.0522461-0.40625,1.625c0,0.2919922,0.0336914,0.5654297,0.1015625,0.8203125
		c0.0673828,0.2553711,0.1430664,0.5185547,0.2265625,0.7890625L12.65625,14.75
		c-0.2607422-0.1040039-0.5053711-0.203125-0.734375-0.296875c-0.2294922-0.09375-0.4584961-0.171875-0.6875-0.234375
		c-0.2294922-0.0625-0.4663086-0.1118164-0.7109375-0.1484375c-0.2451172-0.0361328-0.5078125-0.0546875-0.7890625-0.0546875
		c-0.59375,0-1.1694336,0.0888672-1.7265625,0.265625c-0.5576172,0.1772461-1.0756836,0.4326172-1.5546875,0.765625l10.515625,10.5
		c0.3330078-0.4790039,0.5883789-0.9970703,0.765625-1.5546875C17.9111328,23.4350586,18,22.8647461,18,22.28125
		c0-0.28125-0.0185547-0.5439453-0.0546875-0.7890625c-0.0366211-0.2446289-0.0888672-0.484375-0.15625-0.71875
		c-0.0678711-0.234375-0.1484375-0.4658203-0.2421875-0.6953125c-0.09375-0.2290039-0.1928711-0.4736328-0.296875-0.734375
		l7.671875-7.6875c0.2705078,0.0834961,0.5336914,0.1591797,0.7890625,0.2265625
		C25.9658203,11.9506836,26.2392578,11.984375,26.53125,11.984375z"/>
</g>
</svg>
