<?xml version="1.0" encoding="utf-8"?>
<!-- Generator: Adobe Illustrator 19.1.0, SVG Export Plug-In . SVG Version: 6.00 Build 0)  -->
<svg version="1.1" id="Layer_1" xmlns="http://www.w3.org/2000/svg" xmlns:xlink="http://www.w3.org/1999/xlink" x="0px" y="0px"
	 width="32px" height="32px" viewBox="0 0 32 32" style="enable-background:new 0 0 32 32;" xml:space="preserve">
<path d="M29,7c0-2.2055664-1.7944336-4-4-4c-1.8582764,0-3.4107056,1.2797241-3.8579712,3H3v16l7,7h16V10.8579712
	C27.7202759,10.4107056,29,8.8582764,29,7z M5.8284302,22H10v4.1715698L5.8284302,22z M12,27v-7H5V8h16.1420288
	c0.0944214,0.3630981,0.2384033,0.7035522,0.4248047,1.019104l-7.2738647,7.2738647
	c-0.390625,0.390625-0.390625,1.0234375,0,1.4140625C14.4882813,17.9023438,14.7441406,18,15,18
	s0.5117188-0.0976563,0.7070313-0.2929688l7.2738647-7.2738647C23.2964478,10.6195679,23.6369019,10.7635498,24,10.8579712V27H12z
	 M25,9c-1.1030273,0-2-0.8969727-2-2s0.8969727-2,2-2s2,0.8969727,2,2S26.1030273,9,25,9z"/>
</svg>
