<?xml version="1.0" encoding="utf-8"?>
<!-- Generator: Adobe Illustrator 19.1.0, SVG Export Plug-In . SVG Version: 6.00 Build 0)  -->
<svg version="1.1" id="Layer_1" xmlns="http://www.w3.org/2000/svg" xmlns:xlink="http://www.w3.org/1999/xlink" x="0px" y="0px"
	 width="32px" height="32px" viewBox="0 0 32 32" style="enable-background:new 0 0 32 32;" xml:space="preserve">
<g>
	<path d="M22.046875,21.890625c0-0.6875,0.1298828-1.328125,0.3906193-1.921875
		C22.6972656,19.375,23.0517578,18.8574219,23.5,18.4140625C23.9472656,17.9716797,24.4707031,17.625,25.0703125,17.375
		C25.6689453,17.125,26.3124943,17,27,17c0.6972656,0,1.3486328,0.1308594,1.953125,0.390625
		c0.6035156,0.2607422,1.1298828,0.6171875,1.578125,1.0703125c0.4472656,0.453125,0.8017578,0.9824219,1.0625,1.5859375
		C31.8535156,20.6513672,31.984375,21.3027344,31.984375,22c0,0.6777344-0.1279297,1.3154297-0.3828125,1.9140625
		C31.3457031,24.5136719,31,25.0371094,30.5624943,25.484375c-0.4374943,0.4482422-0.9531193,0.8027344-1.5468693,1.0625
		c-0.59375,0.2607422-1.234375,0.390625-1.921875,0.390625c-0.5,0-0.9902344-0.0703125-1.46875-0.2109375
		c-0.4794922-0.140625-0.9326172-0.3408203-1.359375-0.6015625L21.125,29.265625
		c-0.2402344,0.2402344-0.4746094,0.4824219-0.703125,0.7265625c-0.2294922,0.2451172-0.46875,0.4765625-0.71875,0.6953125
		c-0.1044922,0.09375-0.2060547,0.1669922-0.3046875,0.21875c-0.0996094,0.0527344-0.2216797,0.078125-0.3671875,0.078125
		c-0.2714844,0-0.5107422-0.1035156-0.7187557-0.3125C18.1035156,30.4638672,18,30.2246094,18,29.953125
		c0-0.1455078,0.0253906-0.2675781,0.078125-0.3671875c0.0517578-0.0986328,0.125-0.2001953,0.21875-0.3046875
		c0.21875-0.25,0.4501953-0.4892578,0.6953125-0.71875c0.2441406-0.2285156,0.4863281-0.4628906,0.7265625-0.703125
		c0.53125-0.53125,1.0546875-1.0566406,1.5703125-1.578125c0.515625-0.5205078,1.0390625-1.046875,1.5703125-1.578125
		c-0.2607422-0.4267578-0.4609375-0.8769531-0.6015625-1.3515625C22.1171875,22.8779297,22.046875,22.390625,22.046875,21.890625z
		 M24.046875,22.078125c0,0.3964844,0.0751953,0.765625,0.2265625,1.109375c0.1503906,0.34375,0.3535156,0.6464844,0.609375,0.90625
		c0.2548828,0.2607422,0.5566406,0.4638672,0.90625,0.609375c0.3486328,0.1464844,0.7207031,0.21875,1.1171875,0.21875
		c0.4062443,0,0.7939453-0.0800781,1.1640625-0.2421875c0.3691406-0.1611328,0.7001953-0.3828125,0.9921818-0.6640625
		c0.2910213-0.28125,0.5234432-0.6035156,0.6953182-0.96875c0.171875-0.3642578,0.2578125-0.75,0.2578125-1.15625
		c0-0.375-0.0810547-0.7363281-0.2421875-1.0859375c-0.1621094-0.3486328-0.3779297-0.6611328-0.6484375-0.9375
		c-0.2714844-0.2753906-0.5839844-0.4941406-0.9375057-0.65625C27.8330078,19.0498047,27.46875,18.96875,27.09375,18.96875
		c-0.4062557,0-0.7949219,0.0859375-1.1640625,0.2578125c-0.3701172,0.171875-0.6933594,0.4042969-0.96875,0.6953125
		c-0.2763672,0.2919922-0.4980469,0.6230469-0.6640625,0.9921875C24.1298828,21.2841797,24.046875,21.671875,24.046875,22.078125z"
		/>
	<path d="M20.1384277,23c-0.057251-0.3657837-0.0915527-0.7358398-0.0915527-1.109375
		c0-0.3023071,0.0250854-0.5981445,0.0620117-0.890625H10v-8.3805542l9,4.4899292l9-4.4899292v2.4577637
		c0.6043091,0.0844727,1.1891479,0.2380371,1.7426758,0.4760132C29.8339844,15.5926514,29.9110107,15.6514282,30,15.6941528V9h-4V5
		h-4V1H0v14h4v4h4v4H20.1384277z M26.7723999,11L19,14.890625L11.2276001,11H26.7723999z M4,13H2V3h18v2H4V13z M6,17V7h18v2H8v8H6z"
		/>
</g>
</svg>
