<?xml version="1.0" encoding="utf-8"?>
<!-- Generator: Adobe Illustrator 19.1.0, SVG Export Plug-In . SVG Version: 6.00 Build 0)  -->
<svg version="1.1" id="Layer_1" xmlns="http://www.w3.org/2000/svg" xmlns:xlink="http://www.w3.org/1999/xlink" x="0px" y="0px"
	 width="32px" height="32px" viewBox="0 0 32 32" style="enable-background:new 0 0 32 32;" xml:space="preserve">
<g>
	<path d="M18,30H3V10h15l0,0h2V0H1v32h19v-3h-2V30z M18,2v6H3V2H18z"/>
	<rect x="14" y="4" width="2" height="2"/>
	<polygon points="28,19 28,17 16.4140625,17 19.7070313,13.7070313 18.2929688,12.2929688 12.5859375,18 18.2929688,23.7070313 
		19.7070313,22.2929688 16.4140625,19 	"/>
	<polygon points="15.5859375,27 15.5859375,25 27.171875,25 23.8789063,21.7070313 25.2929688,20.2929688 31,26 
		25.2929688,31.7070313 23.8789063,30.2929688 27.171875,27 	"/>
</g>
</svg>
