<?xml version="1.0" encoding="utf-8"?>
<!-- Generator: Adobe Illustrator 19.1.0, SVG Export Plug-In . SVG Version: 6.00 Build 0)  -->
<svg version="1.1" id="Layer_1" xmlns="http://www.w3.org/2000/svg" xmlns:xlink="http://www.w3.org/1999/xlink" x="0px" y="0px"
	 width="32px" height="32px" viewBox="0 0 32 32" style="enable-background:new 0 0 32 32;" xml:space="preserve">
<g>
	<path d="M28,13.3582153V6h-2v6.8726196C22.7854614,12.2272949,18.902832,12,16,12s-6.7854614,0.2272949-10,0.8726196V6H4v7.3582153
		C1.6464844,14.0524292,0,15.0629883,0,16.5V26h8v-2h16v2h8v-9.5C32,15.0629883,30.3535156,14.0524292,28,13.3582153z M30,24h-4v-2
		H6v2H1.9995117l-0.0053711-7.4580078C2.3374023,15.6547852,7.4501953,14,16,14s13.6625977,1.6547852,14,2.5V24z"/>
	<rect x="17" y="17" width="2" height="2"/>
	<rect x="21" y="17" width="2" height="2"/>
	<rect x="9" y="17" width="2" height="2"/>
	<rect x="13" y="17" width="2" height="2"/>
</g>
</svg>
