<?xml version="1.0" encoding="utf-8"?>
<!-- Generator: Adobe Illustrator 19.1.0, SVG Export Plug-In . SVG Version: 6.00 Build 0)  -->
<svg version="1.1" id="Layer_1" xmlns="http://www.w3.org/2000/svg" xmlns:xlink="http://www.w3.org/1999/xlink" x="0px" y="0px"
	 width="32px" height="32px" viewBox="0 0 32 32" style="enable-background:new 0 0 32 32;" xml:space="preserve">
<g>
	<path d="M28,2c0.28125,0,0.5415039,0.0522461,0.78125,0.15625c0.2392578,0.1044922,0.4501953,0.2475586,0.6328125,0.4296875
		C29.5961914,2.7685547,29.7392578,2.9794922,29.84375,3.21875C29.9477539,3.4584961,30,3.71875,30,4v26H5.578125L2,26.40625V4
		c0-0.28125,0.0517578-0.5415039,0.15625-0.78125c0.1040039-0.2392578,0.2470703-0.4501953,0.4296875-0.6328125
		C2.7680664,2.4038086,2.9790039,2.2607422,3.21875,2.15625C3.4580078,2.0522461,3.71875,2,4,2H28z M28,4h-2v12H6V4H4v21.578125
		L6.40625,28H8v-8h14v8h6V4z M8,14h16V4H8V14z M20,22H10v6h2v-4h2v4h6V22z"/>
</g>
</svg>
