<?xml version="1.0" encoding="utf-8"?>
<!-- Generator: Adobe Illustrator 19.1.0, SVG Export Plug-In . SVG Version: 6.00 Build 0)  -->
<svg version="1.1" id="Layer_1" xmlns="http://www.w3.org/2000/svg" xmlns:xlink="http://www.w3.org/1999/xlink" x="0px" y="0px"
	 width="32px" height="32px" viewBox="0 0 32 32" style="enable-background:new 0 0 32 32;" xml:space="preserve">
<g>
	<path d="M21,0c1.0102539,0,1.984375,0.1303711,2.921875,0.390625c0.9375,0.2607422,1.8125,0.6303711,2.625,1.109375
		c0.8125,0.4794922,1.5546875,1.0546875,2.2265625,1.7265625S30.0205078,4.640625,30.5,5.453125
		c0.4790039,0.8125,0.8486328,1.6875,1.109375,2.625C31.8696289,9.015625,32,9.9897461,32,11
		c0,1.0107422-0.1303711,1.984375-0.390625,2.921875c-0.2607422,0.9375-0.6303711,1.8125-1.109375,2.625
		c-0.4794922,0.8125-1.0546875,1.5546875-1.7265625,2.2265625S27.359375,20.0209961,26.546875,20.5
		c-0.8125,0.4794922-1.6875,0.8491211-2.625,1.109375C22.984375,21.8701172,22.0102539,22,21,22
		c-1.3022461,0-2.5498047-0.21875-3.7421875-0.65625c-1.1928711-0.4375-2.2890625-1.0673828-3.2890625-1.890625l-12.265625,12.25
		C1.5048828,31.9013672,1.2705078,32,1,32c-0.2709961,0-0.5053711-0.0986328-0.703125-0.296875
		C0.0986328,31.5053711,0,31.2709961,0,31c0-0.2705078,0.0986328-0.5048828,0.296875-0.703125l12.25-12.265625
		c-0.8232422-1-1.453125-2.0961914-1.890625-3.2890625C10.21875,13.5498047,10,12.3022461,10,11
		c0-1.0102539,0.1298828-1.984375,0.390625-2.921875c0.2602539-0.9375,0.6298828-1.8125,1.109375-2.625
		c0.4790039-0.8125,1.0546875-1.5546875,1.7265625-2.2265625S14.640625,1.9794922,15.453125,1.5
		c0.8125-0.4790039,1.6875-0.8486328,2.625-1.109375C19.015625,0.1303711,19.9892578,0,21,0z M21,20
		c1.2392578,0,2.40625-0.2368164,3.5-0.7109375c1.09375-0.4736328,2.046875-1.1171875,2.859375-1.9296875
		S28.8149414,15.59375,29.2890625,14.5C29.7626953,13.40625,30,12.2397461,30,11c0-1.2392578-0.2373047-2.40625-0.7109375-3.5
		c-0.4741211-1.09375-1.1171875-2.046875-1.9296875-2.859375S25.59375,3.1850586,24.5,2.7109375
		C23.40625,2.2373047,22.2392578,2,21,2c-1.2397461,0-2.40625,0.2373047-3.5,0.7109375
		c-1.09375,0.4741211-2.046875,1.1171875-2.859375,1.9296875S13.1845703,6.40625,12.7109375,7.5
		C12.2368164,8.59375,12,9.7607422,12,11c0,1.2397461,0.2368164,2.40625,0.7109375,3.5
		c0.4736328,1.09375,1.1171875,2.046875,1.9296875,2.859375S16.40625,18.8154297,17.5,19.2890625
		C18.59375,19.7631836,19.7602539,20,21,20z"/>
</g>
</svg>
