<svg xmlns="http://www.w3.org/2000/svg" width="30" height="33" viewBox="0 0 30 33">
  <title>Asset 1</title>
  <g id="Layer_2" data-name="Layer 2">
    <g id="Symbols">
      <g>
        <path d="M2,10H17v1h2V0H0V32H7V30H2ZM17,2V8H2V2Z"/>
        <rect x="13" y="4" width="2" height="2"/>
        <path d="M30,13V33H9V13ZM11,15V26h1.94l1-1a.69.69,0,0,1,.53-.22A1,1,0,0,1,15,25l2.16,1.53s2.09-7.32,2.73-9.14a1,1,0,0,1,.47-.41,1.73,1.73,0,0,1,.93,0,1.21,1.21,0,0,1,.41.41,17.67,17.67,0,0,1,.88,3.47h1.83a.74.74,0,0,1,.46.16.71.71,0,0,1,.26.4l1,3.59H28l0-10ZM28,31V27s-1.76.06-2.35,0a1.38,1.38,0,0,1-.62-.21,1.61,1.61,0,0,1-.23-.64c-.23-.95-1-3.78-1-3.78H22a.83.83,0,0,1-.47-.16.82.82,0,0,1-.26-.42l-.38-2-2.39,8.36a3.19,3.19,0,0,1-.19.46,1.06,1.06,0,0,1-.56.4,2.23,2.23,0,0,1-.92-.37c-.64-.4-2.3-1.78-2.3-1.78l-1.09,1.06c-.15.15-.36.09-.56.09H11v3Z"/>
      </g>
    </g>
  </g>
</svg>
