<?xml version="1.0" encoding="utf-8"?>
<!-- Generator: Adobe Illustrator 19.1.0, SVG Export Plug-In . SVG Version: 6.00 Build 0)  -->
<svg version="1.1" id="Layer_1" xmlns="http://www.w3.org/2000/svg" xmlns:xlink="http://www.w3.org/1999/xlink" x="0px" y="0px"
	 width="32px" height="32px" viewBox="0 0 32 32" style="enable-background:new 0 0 32 32;" xml:space="preserve">
<g>
	<rect x="7" y="11" width="2" height="2"/>
	<rect x="17" y="11" width="2" height="2"/>
	<path d="M27,8V2H17h-2H5v6H0v22h10h2h8h2h10V8H27z M10,28H2V16h8V28z M10,14H2v-4h8V14z M10,8H7V4h8v4h-3H10z M20,28h-8V16h8V28z
		 M20,14h-8v-4h8V14z M20,8h-3V4h8v4h-3H20z M30,28h-8V16h8V28z M30,14h-8v-4h8V14z"/>
	<rect x="27" y="11" width="2" height="2"/>
	<rect x="12" y="5" width="2" height="2"/>
	<rect x="22" y="5" width="2" height="2"/>
</g>
</svg>
