<?xml version="1.0" encoding="utf-8"?>
<!-- Generator: Adobe Illustrator 19.1.0, SVG Export Plug-In . SVG Version: 6.00 Build 0)  -->
<svg version="1.1" id="Layer_1" xmlns="http://www.w3.org/2000/svg" xmlns:xlink="http://www.w3.org/1999/xlink" x="0px" y="0px"
	 width="32px" height="32px" viewBox="0 0 32 32" style="enable-background:new 0 0 32 32;" xml:space="preserve">
<path d="M27.6110229,20.9945679C27.8651733,20.0126343,28,19.0091553,28,18c0-5.0971069-3.267395-9.6362305-8.031189-11.3083496
	C19.8082275,4.6322021,18.0999756,3,16,3c-2.0999146,0-3.8081055,1.6320801-3.968811,3.6915283C7.2670898,8.3635864,4,12.90271,4,18
	c0,1.0090332,0.1346436,2.0124512,0.3887939,2.9946899C3.5452271,21.7285767,3,22.7966919,3,24c0,2.2055664,1.7944336,4,4,4
	c0.6425171,0,1.2415161-0.1664429,1.7800293-0.4368286C10.8582153,29.1338501,13.3910522,30,16,30
	s5.1417847-0.8661499,7.2199707-2.4368286C23.7584839,27.8335571,24.3574829,28,25,28c2.2055664,0,4-1.7944336,4-4
	C29,22.7966309,28.4547119,21.7285156,27.6110229,20.9945679z M16,5c1.1030273,0,2,0.8969727,2,2s-0.8969727,2-2,2s-2-0.8969727-2-2
	S14.8969727,5,16,5z M5,24c0-1.1030273,0.8969727-2,2-2s2,0.8969727,2,2s-0.8969727,2-2,2S5,25.1030273,5,24z
	 M10.3247681,26.2185669C10.7501831,25.5831299,11,24.8204346,11,24c0-2.2055664-1.7944336-4-4-4
	c-0.2646484,0-0.5224609,0.0288696-0.7728882,0.078186C6.0805664,19.3928833,6,18.697998,6,18
	c0-4.1375732,2.5838013-7.8347778,6.3875732-9.3106689C13.0268555,10.0497437,14.4001465,11,16,11
	c1.5997925,0,2.9730835-0.9501953,3.6123657-2.3104858C23.4159546,10.1655273,26,13.8626099,26,18
	c0,0.6982422-0.0806274,1.3931885-0.2272339,2.078125C25.5223999,20.0288696,25.2646484,20,25,20c-2.2055664,0-4,1.7944336-4,4
	c0,0.8204956,0.2498169,1.5831299,0.6752319,2.2185669C20.010498,27.3704224,18.0320435,28,16,28
	S11.989502,27.3704224,10.3247681,26.2185669z M25,26c-1.1030273,0-2-0.8969727-2-2s0.8969727-2,2-2s2,0.8969727,2,2
	S26.1030273,26,25,26z"/>
</svg>
