<?xml version="1.0" encoding="utf-8"?>
<!-- Generator: Adobe Illustrator 19.1.0, SVG Export Plug-In . SVG Version: 6.00 Build 0)  -->
<svg version="1.1" id="Layer_1" xmlns="http://www.w3.org/2000/svg" xmlns:xlink="http://www.w3.org/1999/xlink" x="0px" y="0px"
	 width="32px" height="32px" viewBox="0 0 32 32" style="enable-background:new 0 0 32 32;" xml:space="preserve">
<g>
	<path d="M29,8v20c0,0.5522461-0.1069336,1.0703125-0.3203125,1.5546875c-0.2138672,0.484375-0.5,0.90625-0.859375,1.265625
		s-0.7841797,0.6459961-1.2734375,0.859375C26.0571289,31.8935547,25.5415039,32,25,32H7
		c-0.5522461,0-1.0703125-0.1064453-1.5546875-0.3203125c-0.484375-0.2133789-0.90625-0.5-1.265625-0.859375
		s-0.6459961-0.78125-0.859375-1.265625C3.1064453,29.0703125,3,28.5522461,3,28V8h4V6
		c0-0.8227539,0.1586914-1.5986328,0.4765625-2.328125c0.3173828-0.7290039,0.7470703-1.3642578,1.2890625-1.90625
		c0.5415039-0.5415039,1.1767578-0.9711914,1.90625-1.2890625C11.4008789,0.1591797,12.1767578,0,13,0
		c1.0830078,0,2.0883789,0.2709961,3.015625,0.8125C16.9423828,0.2709961,17.9374943,0,19,0
		c0.8227539,0,1.5986328,0.1591797,2.328125,0.4765625c0.7290039,0.3178711,1.3642578,0.7475586,1.90625,1.2890625
		c0.5415039,0.5419922,0.9711914,1.1772461,1.2890625,1.90625C24.8408203,4.4013672,25,5.1772461,25,6v2H29z M21.53125,30
		C21.1767578,29.375,21,28.7084961,21,28V10H5v18c0,0.28125,0.0517578,0.5419922,0.15625,0.78125
		c0.1040039,0.2397461,0.2470703,0.4506836,0.4296875,0.6328125C5.7680664,29.5966797,5.9790039,29.7397461,6.21875,29.84375
		C6.4580078,29.9482422,6.71875,30,7,30H21.53125z M9,8h8V6c0-0.5415039-0.1069336-1.0571289-0.3203125-1.546875
		c-0.2138672-0.4892578-0.5-0.9140625-0.859375-1.2734375s-0.7841797-0.6455078-1.2734375-0.859375
		C14.0571289,2.1069336,13.5415039,2,13,2c-0.5522461,0-1.0703125,0.1069336-1.5546875,0.3203125
		c-0.484375,0.2138672-0.90625,0.5-1.265625,0.859375S9.5336914,3.9638672,9.3203125,4.453125C9.1064453,4.9428711,9,5.4584961,9,6
		V8z M23,6c0-0.5415039-0.1069336-1.0571289-0.3203125-1.546875c-0.2138672-0.4892578-0.5-0.9140625-0.859375-1.2734375
		s-0.7841797-0.6455078-1.2734375-0.859375C20.0571289,2.1069336,19.5415039,2,19,2
		c-0.46875,0-0.9116211,0.078125-1.328125,0.234375c0.375,0.46875,0.65625,0.9272461,0.84375,1.375
		c0.1875,0.4482422,0.3149414,0.9013672,0.3828125,1.359375C18.9658203,5.4272461,19,5.9038086,19,6.3984375
		C19,6.8935547,19,7.4272461,19,8h4V6z M27,10h-4v18c0,0.28125,0.0517578,0.5419922,0.15625,0.78125
		c0.1040039,0.2397461,0.2470703,0.4506836,0.4296875,0.6328125c0.1821289,0.1826172,0.3930664,0.3256836,0.6328125,0.4296875
		C24.4580078,29.9482422,24.71875,30,25,30s0.5415039-0.0517578,0.78125-0.15625
		c0.2392578-0.1040039,0.4501953-0.2470703,0.6328125-0.4296875c0.1821289-0.1821289,0.3251953-0.3930664,0.4296875-0.6328125
		C26.9477539,28.5419922,27,28.28125,27,28V10z"/>
</g>
</svg>
