<?xml version="1.0" encoding="utf-8"?>
<!-- Generator: Adobe Illustrator 19.1.0, SVG Export Plug-In . SVG Version: 6.00 Build 0)  -->
<svg version="1.1" id="Layer_1" xmlns="http://www.w3.org/2000/svg" xmlns:xlink="http://www.w3.org/1999/xlink" x="0px" y="0px"
	 width="32px" height="32px" viewBox="0 0 32 32" style="enable-background:new 0 0 32 32;" xml:space="preserve">
<g>
	<path d="M25,24c0.4165039,0,0.8071289,0.078125,1.171875,0.234375c0.3642578,0.15625,0.6821289,0.3701172,0.953125,0.640625
		c0.2705078,0.2709961,0.484375,0.5888672,0.640625,0.953125C27.921875,26.1928711,28,26.5834961,28,27
		c0,0.4169922-0.078125,0.8076172-0.234375,1.171875c-0.15625,0.3647461-0.3701172,0.6826172-0.640625,0.953125
		c-0.2709961,0.2709961-0.5888672,0.484375-0.953125,0.640625C25.8071289,29.921875,25.4165039,30,25,30
		c-0.4169922,0-0.8076172-0.078125-1.171875-0.234375c-0.3647461-0.15625-0.6826172-0.3696289-0.953125-0.640625
		c-0.2709961-0.2705078-0.484375-0.5883789-0.640625-0.953125C22.078125,27.8076172,22,27.4169922,22,27
		c0-0.3227539,0.0571289-0.65625,0.171875-1h-8.34375C13.9423828,26.34375,14,26.6772461,14,27
		c0,0.4169922-0.078125,0.8076172-0.234375,1.171875c-0.15625,0.3647461-0.3701172,0.6826172-0.640625,0.953125
		c-0.2709961,0.2709961-0.5888672,0.484375-0.953125,0.640625C11.8071289,29.921875,11.4165039,30,11,30
		c-0.4169922,0-0.8076172-0.078125-1.171875-0.234375C9.4633789,29.609375,9.1455078,29.3959961,8.875,29.125
		c-0.2709961-0.2705078-0.484375-0.5883789-0.640625-0.953125C8.078125,27.8076172,8,27.4169922,8,27
		c0-0.5727539,0.1533203-1.1040039,0.4609375-1.59375c0.3071289-0.4892578,0.7211914-0.859375,1.2421875-1.109375L2.953125,4H0V2
		h4.390625L5.71875,6H32l-4.65625,14H10.390625l1.328125,4H25z M6.390625,8L9.71875,18h16.171875L29.21875,8H6.390625z M12,27
		c0-0.2705078-0.0991211-0.5048828-0.296875-0.703125C11.5048828,26.0991211,11.2705078,26,11,26
		c-0.2709961,0-0.5053711,0.0991211-0.703125,0.296875C10.0986328,26.4951172,10,26.7294922,10,27
		c0,0.2709961,0.0986328,0.5053711,0.296875,0.703125C10.4946289,27.9013672,10.7290039,28,11,28
		c0.2705078,0,0.5048828-0.0986328,0.703125-0.296875C11.9008789,27.5053711,12,27.2709961,12,27z M25,28
		c0.2705078,0,0.5048828-0.0986328,0.703125-0.296875C25.9008789,27.5053711,26,27.2709961,26,27
		c0-0.2705078-0.0991211-0.5048828-0.296875-0.703125C25.5048828,26.0991211,25.2705078,26,25,26
		c-0.2709961,0-0.5053711,0.0991211-0.703125,0.296875C24.0986328,26.4951172,24,26.7294922,24,27
		c0,0.2709961,0.0986328,0.5053711,0.296875,0.703125C24.4946289,27.9013672,24.7290039,28,25,28z"/>
</g>
</svg>
