<svg xmlns="http://www.w3.org/2000/svg" width="32" height="32" viewBox="0 0 32 32">
  <title>Artboard 5</title>
  <g id="Symbols">
    <g>
      <path d="M15.06,23.31a.61.61,0,0,1,.07-.3,1.15,1.15,0,0,1,.17-.23l.22-.21a1.16,1.16,0,0,0,.21-.24l1,1-.12.12-.13.12-.17.17-.15.14A.62.62,0,0,1,16,24a.72.72,0,0,1-.24,0,.65.65,0,0,1-.49-.19A.69.69,0,0,1,15.06,23.31ZM27.7,13l-8.92,9.47-.22.18a1.71,1.71,0,0,1-.27.16A1.59,1.59,0,0,1,18,23a1.14,1.14,0,0,1-.28,0h-.09l-.09,0L16,21.5a.35.35,0,0,0,0-.1v-.1a1.12,1.12,0,0,1,0-.28,1.5,1.5,0,0,1,.11-.29,2,2,0,0,1,.16-.27,1.36,1.36,0,0,1,.18-.22l9.59-8.83Zm1.36-1.7a.9.9,0,0,1-.06.35,1.23,1.23,0,0,1-.17.29,2.07,2.07,0,0,1-.24.25l-.26.25-1.59-1.61.25-.26a2.23,2.23,0,0,1,.25-.24,1.36,1.36,0,0,1,.28-.17.83.83,0,0,1,.35-.07.93.93,0,0,1,.68.29l.21.21a1.3,1.3,0,0,1,.16.2.85.85,0,0,1,.11.23A1,1,0,0,1,29.06,11.35Z"/>
      <rect x="6" y="14" width="12" height="1"/>
      <rect x="6" y="17" width="11" height="1"/>
      <rect x="6" y="23" width="8" height="1"/>
      <polygon points="20 24 20 27 4 27 4 5 14 5 14 12 20 12 20 14 22 12 22 11 14 3 2 3 2 29 22 29 22 22 20 24"/>
    </g>
  </g>
</svg>
