<?xml version="1.0" encoding="utf-8"?>
<!-- Generator: Adobe Illustrator 19.1.0, SVG Export Plug-In . SVG Version: 6.00 Build 0)  -->
<svg version="1.1" id="Layer_1" xmlns="http://www.w3.org/2000/svg" xmlns:xlink="http://www.w3.org/1999/xlink" x="0px" y="0px"
	 width="32px" height="32px" viewBox="0 0 32 32" style="enable-background:new 0 0 32 32;" xml:space="preserve">
<path d="M30,0H2H0v2h2v16c0,1.6542969,1.3457031,3,3,3h10v6.2192383l-8,2V32h2v-1.2192383l7-1.75l7,1.75V32h2v-2.7807617l-8-2V21h10
	c1.6542969,0,3-1.3457031,3-3V2h2V0H30z M28,18c0,0.5512695-0.4487305,1-1,1H5c-0.5512695,0-1-0.4487305-1-1V2h24V18z"/>
</svg>
