<?xml version="1.0" encoding="utf-8"?>
<!-- Generator: Adobe Illustrator 19.1.0, SVG Export Plug-In . SVG Version: 6.00 Build 0)  -->
<svg version="1.1" id="Layer_1" xmlns="http://www.w3.org/2000/svg" xmlns:xlink="http://www.w3.org/1999/xlink" x="0px" y="0px"
	 width="32px" height="32px" viewBox="0 0 32 32" style="enable-background:new 0 0 32 32;" xml:space="preserve">
<g>
	<path d="M10.578125,4H12v24h-1.421875l-6-6H0V10h4.578125L10.578125,4z M10,7.421875L5.421875,12H2v8h3.421875L10,24.578125
		V7.421875z M17.65625,10.34375c0.75,0.75,1.328125,1.6147461,1.734375,2.59375C19.796875,13.9169922,20,14.9375,20,16
		s-0.203125,2.0834961-0.609375,3.0625c-0.40625,0.9794922-0.984375,1.84375-1.734375,2.59375L16.25,20.25
		c0.5624943-0.5625,0.9946289-1.2109375,1.296875-1.9453125C17.8486328,17.5703125,18,16.8022461,18,16
		c0-0.8017578-0.1513672-1.5703125-0.453125-2.3046875C17.2446289,12.9609375,16.8124943,12.3125,16.25,11.75L17.65625,10.34375z
		 M21.90625,6.09375c0.6562443,0.65625,1.2368164,1.3671875,1.7421875,2.1328125
		c0.5048828,0.765625,0.9321289,1.5703125,1.28125,2.4140625c0.3486328,0.84375,0.6142578,1.71875,0.796875,2.625
		C25.9086914,14.171875,26,15.0834961,26,16c0,0.9272461-0.0913086,1.8413086-0.2734375,2.7421875
		c-0.1826172,0.9013672-0.4482422,1.7734375-0.796875,2.6171875c-0.3491211,0.84375-0.7763672,1.6484375-1.28125,2.4140625
		C23.1430664,24.5390625,22.5624943,25.25,21.90625,25.90625l-1.421875-1.421875c1.125-1.125,1.9921875-2.421875,2.6015625-3.890625
		S24,17.59375,24,16s-0.3046875-3.125-0.9140625-4.59375S21.609375,8.640625,20.484375,7.515625L21.90625,6.09375z
		 M26.140625,1.859375c0.9375,0.9375,1.7680664,1.953125,2.4921875,3.046875C29.3564453,6,29.96875,7.1484375,30.46875,8.3515625
		s0.8774414,2.4482422,1.1328125,3.734375C31.8564453,13.3725586,31.984375,14.6772461,31.984375,16
		c0,1.3232422-0.1279297,2.6279297-0.3828125,3.9140625c-0.2553711,1.2866211-0.6328125,2.53125-1.1328125,3.734375
		S29.3564453,26,28.6328125,27.09375c-0.7241211,1.09375-1.5546875,2.109375-2.4921875,3.046875l-1.40625-1.40625
		c0.84375-0.84375,1.5908203-1.7578125,2.2421875-2.7421875c0.6508789-0.984375,1.2001953-2.0180664,1.6484375-3.1015625
		c0.4477539-1.0830078,0.7890625-2.2055664,1.0234375-3.3671875C29.8828125,18.3623047,30,17.1875,30,16
		s-0.1171875-2.3618164-0.3515625-3.5234375c-0.234375-1.1611328-0.5756836-2.2836914-1.0234375-3.3671875
		c-0.4482422-1.0830078-0.9975586-2.1171875-1.6484375-3.1015625C26.3251953,5.0234375,25.578125,4.109375,24.734375,3.265625
		L26.140625,1.859375z"/>
</g>
</svg>
