<?xml version="1.0" encoding="utf-8"?>
<!-- Generator: Adobe Illustrator 19.1.0, SVG Export Plug-In . SVG Version: 6.00 Build 0)  -->
<svg version="1.1" id="Layer_1" xmlns="http://www.w3.org/2000/svg" xmlns:xlink="http://www.w3.org/1999/xlink" x="0px" y="0px"
	 width="32px" height="32px" viewBox="0 0 32 32" style="enable-background:new 0 0 32 32;" xml:space="preserve">
<g>
	<path d="M16,30c1.6040039,0,3.1430664-0.2470703,4.6171875-0.7421875c1.4736328-0.4946289,2.8173828-1.1923828,4.03125-2.09375
		c1.2133789-0.9008789,2.2705078-1.984375,3.171875-3.25c0.9008789-1.265625,1.5859375-2.6689453,2.0546875-4.2109375
		l1.90625,0.59375c-0.5209961,1.7397461-1.296875,3.3256836-2.328125,4.7578125
		C28.421875,26.4873047,27.2109375,27.71875,25.8203125,28.75s-2.921875,1.8310547-4.59375,2.3984375
		C19.5546875,31.7163086,17.8124943,32,16,32c-1.4272461,0-2.8178711-0.1767578-4.171875-0.53125
		c-1.3544922-0.3540039-2.6328125-0.8671875-3.8359375-1.5390625s-2.3154297-1.4892578-3.3359375-2.453125
		C3.6352539,26.5131836,2.75,25.421875,2,24.203125V28H0v-8h8v2H3.0624945
		c0.6142633,1.21875,1.3774469,2.3203125,2.289068,3.3046875c0.9111328,0.984375,1.9296875,1.8232422,3.0546875,2.515625
		c1.125,0.6928711,2.3305664,1.2294922,3.6171875,1.609375C13.3095703,29.8100586,14.6352539,30,16,30z M32,4v8h-8v-2h4.9374943
		c-0.6147404-1.21875-1.377924-2.3203125-2.2890568-3.3046875c-0.9116211-0.984375-1.9296875-1.8227539-3.0546875-2.515625
		c-1.125-0.6923828-2.3310547-1.2290039-3.6171875-1.609375C18.6899414,2.1904297,17.3642578,2,16,2
		c-1.6044922,0-3.1435547,0.2475586-4.6171875,0.7421875c-1.4741211,0.4951172-2.8178711,1.1928711-4.03125,2.09375
		c-1.2138672,0.9013672-2.2709961,1.984375-3.171875,3.25C3.2783203,9.3515625,2.59375,10.7553711,2.125,12.296875l-1.90625-0.59375
		c0.5205078-1.7290039,1.296875-3.3125,2.328125-4.75S4.7890625,4.28125,6.1796875,3.25s2.921875-1.8305664,4.59375-2.3984375
		C12.4453125,0.2841797,14.1874943,0,16,0c1.4267578,0,2.8173828,0.1772461,4.171875,0.53125
		c1.3540039,0.3544922,2.6328125,0.8671875,3.8359375,1.5390625s2.3149414,1.4897461,3.3359375,2.453125
		C28.3642578,5.4873047,29.25,6.578125,30,7.796875V4H32z"/>
</g>
</svg>
