<?xml version="1.0" encoding="utf-8"?>
<!-- Generator: Adobe Illustrator 19.1.0, SVG Export Plug-In . SVG Version: 6.00 Build 0)  -->
<svg version="1.1" id="Layer_1" xmlns="http://www.w3.org/2000/svg" xmlns:xlink="http://www.w3.org/1999/xlink" x="0px" y="0px"
	 width="32px" height="32px" viewBox="0 0 32 32" style="enable-background:new 0 0 32 32;" xml:space="preserve">
<g>
	<path d="M26,7.828125c0.9165039,0.40625,1.7446289,0.9248047,2.484375,1.5546875
		c0.7392578,0.6303711,1.3696289,1.34375,1.890625,2.140625c0.5205078,0.796875,0.921875,1.6591797,1.203125,2.5859375
		C31.859375,15.0366211,32,16,32,17c0,1.3857422-0.2607422,2.6850586-0.78125,3.8984375
		c-0.5209961,1.2138672-1.234375,2.2734375-2.140625,3.1796875s-1.9663086,1.6201172-3.1796875,2.140625
		C24.6845703,26.7397461,23.3852539,27,22,27c-1.0834961,0-2.1381836-0.1689453-3.1640625-0.5078125
		C17.8095703,26.1538086,16.8642578,25.65625,16,25l-4,4L0,17L14,3h12V7.828125z M12,26.171875l12-12V9.25
		c-0.1875057-0.0415039-0.4169922-0.0703125-0.6875057-0.0859375c-0.2709904-0.015625-0.5546818-0.03125-0.8515568-0.046875
		S21.8696289,9.078125,21.578125,9.046875c-0.2919922-0.03125-0.5546875-0.0859375-0.7890625-0.1640625
		S20.3642578,8.6982422,20.21875,8.5625C20.0727539,8.4272461,20,8.2397461,20,8c0-0.2705078,0.0986328-0.5048828,0.296875-0.703125
		C20.4946289,7.0991211,20.7290039,7,21,7c0.5102539,0,1.0126953,0.0053711,1.5078125,0.015625
		C23.0024414,7.0263672,23.5,7.0888672,24,7.203125V5h-9.171875l-12,12L12,26.171875z M22,25
		c1.1040039,0,2.140625-0.2109375,3.109375-0.6328125s1.8149414-0.9946289,2.5390625-1.71875
		c0.7236328-0.7236328,1.296875-1.5703125,1.71875-2.5390625S30,18.1044922,30,17c0-0.7080078-0.09375-1.4008789-0.28125-2.078125
		c-0.1875-0.6767578-0.453125-1.3149414-0.796875-1.9140625c-0.34375-0.5986328-0.7631836-1.1484375-1.2578125-1.6484375
		c-0.4951172-0.5-1.0498047-0.9267578-1.6640625-1.28125V15l-8.5625057,8.5625
		c0.6665096,0.46875,1.3906307,0.8256836,2.1718807,1.0703125C20.390625,24.8779297,21.1874943,25,22,25z"/>
</g>
</svg>
