<?xml version="1.0" encoding="utf-8"?>
<!-- Generator: Adobe Illustrator 19.1.0, SVG Export Plug-In . SVG Version: 6.00 Build 0)  -->
<svg version="1.1" id="Layer_1" xmlns="http://www.w3.org/2000/svg" xmlns:xlink="http://www.w3.org/1999/xlink" x="0px" y="0px"
	 width="32px" height="32px" viewBox="0 0 32 32" style="enable-background:new 0 0 32 32;" xml:space="preserve">
<g>
	<path d="M11,0c0.6874943,0,1.3330078,0.1328125,1.9374943,0.3984375c0.6040096,0.265625,1.1328182,0.625,1.5859432,1.078125
		s0.8125,0.9819336,1.078125,1.5859375C15.8671875,3.6669922,16,4.3125,16,5c0,0.78125-0.1772461,1.5234375-0.53125,2.2265625
		C15.1142578,7.9296875,14.625,8.515625,14,8.984375V29c0,0.4169922-0.078125,0.8076172-0.234375,1.171875
		c-0.15625,0.3647461-0.3701172,0.6826172-0.640625,0.953125c-0.2709961,0.2709961-0.5888672,0.484375-0.953125,0.640625
		C11.8071289,31.921875,11.4165039,32,11,32c-0.4169922,0-0.8076172-0.078125-1.171875-0.234375
		C9.4633789,31.609375,9.1455078,31.3959961,8.875,31.125c-0.2709961-0.2705078-0.484375-0.5883789-0.640625-0.953125
		C8.078125,29.8076172,8,29.4169922,8,29V8.984375c-0.625-0.46875-1.1147461-1.0546875-1.46875-1.7578125
		C6.1767578,6.5234375,6,5.78125,6,5c0-0.6875,0.1298828-1.3330078,0.390625-1.9375
		c0.2602539-0.6040039,0.6171875-1.1328125,1.0703125-1.5859375s0.984375-0.8125,1.59375-1.078125S10.3124943,0,11,0z M12,7.875
		c0.2915039-0.1665039,0.5595703-0.34375,0.8046875-0.53125c0.2446289-0.1875,0.4555664-0.3930664,0.6328068-0.6171875
		C13.6142578,6.5029297,13.7524414,6.25,13.8515625,5.96875C13.9501953,5.6875,14,5.3647461,14,5
		c0-0.3125-0.0498047-0.6142578-0.1484375-0.90625c-0.0991211-0.2915039-0.234375-0.5625-0.40625-0.8125
		S13.0624943,2.8125,12.8124943,2.625S12.2915039,2.2919922,12,2.1875V5l-1,1l-1-1V2.1875
		c-0.3022461,0.1044922-0.5756836,0.25-0.8203125,0.4375c-0.2451172,0.1875-0.453125,0.40625-0.625,0.65625
		s-0.3076172,0.5209961-0.40625,0.8125C8.0493164,4.3857422,8,4.6875,8,5c0,0.3647461,0.0493164,0.6875,0.1484375,0.96875
		C8.2470703,6.25,8.3852539,6.5029297,8.5624943,6.7265625C8.7392578,6.9506836,8.9501953,7.15625,9.1953125,7.34375
		C9.4399414,7.53125,9.7080078,7.7084961,10,7.875V29c0,0.2709961,0.0986328,0.5053711,0.296875,0.703125
		C10.4946289,29.9013672,10.7290039,30,11,30c0.2705078,0,0.5048828-0.0986328,0.703125-0.296875
		C11.9008789,29.5053711,12,29.2709961,12,29V7.875z M26,18h-2v11c0,0.4169922-0.078125,0.8076172-0.234375,1.171875
		c-0.15625,0.3647461-0.3701172,0.6826172-0.640625,0.953125c-0.2709961,0.2709961-0.5888672,0.484375-0.953125,0.640625
		C21.8071289,31.921875,21.4165039,32,21,32c-0.4169922,0-0.8076172-0.078125-1.171875-0.234375
		c-0.3647461-0.15625-0.6826172-0.3696289-0.953125-0.640625c-0.2709961-0.2705078-0.484375-0.5883789-0.640625-0.953125
		C18.078125,29.8076172,18,29.4169922,18,29V18h-2v-2h4V7.421875l-2-2V0h6v5.421875l-2,2V16h4V18z M20,4.578125l1,1.015625
		l1-1.015625V2h-2V4.578125z M22,18h-2v11c0,0.2709961,0.0986328,0.5053711,0.296875,0.703125
		C20.4946289,29.9013672,20.7290039,30,21,30c0.2705078,0,0.5048828-0.0986328,0.703125-0.296875
		C21.9008789,29.5053711,22,29.2709961,22,29V18z"/>
</g>
</svg>
