<?xml version="1.0" encoding="utf-8"?>
<!-- Generator: Adobe Illustrator 19.1.0, SVG Export Plug-In . SVG Version: 6.00 Build 0)  -->
<svg version="1.1" id="Layer_1" xmlns="http://www.w3.org/2000/svg" xmlns:xlink="http://www.w3.org/1999/xlink" x="0px" y="0px"
	 width="32px" height="32px" viewBox="0 0 32 32" style="enable-background:new 0 0 32 32;" xml:space="preserve">
<g>
	<g>
		<g>
			<path d="M23,14c1.2392578,0,2.40625,0.2373047,3.5,0.7109375c1.09375,0.4746094,2.046875,1.1171875,2.859375,1.9296875
				S30.8149414,18.40625,31.2890625,19.5C31.7626953,20.59375,32,21.7607422,32,23c0,1.2402344-0.2373047,2.40625-0.7109375,3.5
				c-0.4741211,1.09375-1.1171875,2.046875-1.9296875,2.859375S27.59375,30.8154297,26.5,31.2890625
				C25.40625,31.7636719,24.2392578,32,23,32c-1.2397461,0-2.40625-0.2363281-3.5-0.7109375
				c-1.09375-0.4736328-2.046875-1.1171875-2.859375-1.9296875S15.1845703,27.59375,14.7109375,26.5
				C14.2368164,25.40625,14,24.2402344,14,23c0-1.2392578,0.2368164-2.40625,0.7109375-3.5
				c0.4736328-1.09375,1.1171875-2.046875,1.9296875-2.859375S18.40625,15.1855469,19.5,14.7109375
				C20.59375,14.2373047,21.7602539,14,23,14z M23,30c0.96875,0,1.8774414-0.1845703,2.7265625-0.5546875
				c0.8486328-0.3691406,1.5883789-0.8691406,2.21875-1.5c0.6298828-0.6298828,1.1298828-1.3691406,1.5-2.21875
				C29.8149414,24.8779297,30,23.96875,30,23s-0.1850586-1.8769531-0.5546875-2.7265625
				c-0.3701172-0.8486328-0.8701172-1.5878906-1.5-2.21875c-0.6303711-0.6298828-1.3701172-1.1298828-2.21875-1.5
				C24.8774414,16.1855469,23.96875,16,23,16s-1.8779297,0.1855469-2.7265625,0.5546875
				c-0.8491211,0.3701172-1.5888672,0.8701172-2.21875,1.5c-0.6303711,0.6308594-1.1303711,1.3701172-1.5,2.21875
				C16.1845703,21.1230469,16,22.03125,16,23s0.1845703,1.8779297,0.5546875,2.7265625
				c0.3696289,0.8496094,0.8696289,1.5888672,1.5,2.21875c0.6298828,0.6308594,1.3696289,1.1308594,2.21875,1.5
				C21.1220703,29.8154297,22.03125,30,23,30z"/>
		</g>
		<polygon points="26.5890503,19.2318115 21.6541138,24.15625 19.4213257,21.9359131 18.0124512,23.3447876 21.6541138,27 
			28,20.6427612 		"/>
	</g>
	<polygon points="4,25 2,25 2,8 4,8 4,6 2,6 2,2 14,2 14,3 16,3 16,0 0,0 0,27 4,27 	"/>
	<path d="M14.5145874,30H8V13h10.4368896C19.5401001,12.4956665,20.7373657,12.1644287,22,12.0504761V5H6v27h10.687439
		C15.8777466,31.4309692,15.1435547,30.7615356,14.5145874,30z M8,7h12v4H8V7z"/>
</g>
</svg>
