<?xml version="1.0" encoding="utf-8"?>
<!-- Generator: Adobe Illustrator 19.1.0, SVG Export Plug-In . SVG Version: 6.00 Build 0)  -->
<svg version="1.1" id="Layer_1" xmlns="http://www.w3.org/2000/svg" xmlns:xlink="http://www.w3.org/1999/xlink" x="0px" y="0px"
	 width="32px" height="32px" viewBox="0 0 32 32" style="enable-background:new 0 0 32 32;" xml:space="preserve">
<g>
	<rect x="14" y="4" width="2" height="2"/>
	<g>
		<g>
			<path d="M22,14c1.2392578,0,2.40625,0.2373047,3.5,0.7109375c1.09375,0.4746094,2.046875,1.1171875,2.859375,1.9296875
				S29.8149414,18.40625,30.2890625,19.5C30.7626953,20.59375,31,21.7607422,31,23c0,1.2402344-0.2373047,2.40625-0.7109375,3.5
				c-0.4741211,1.09375-1.1171875,2.046875-1.9296875,2.859375S26.59375,30.8154297,25.5,31.2890625
				C24.40625,31.7636719,23.2392578,32,22,32c-1.2397461,0-2.40625-0.2363281-3.5-0.7109375
				c-1.09375-0.4736328-2.046875-1.1171875-2.859375-1.9296875S14.1845703,27.59375,13.7109375,26.5
				C13.2368164,25.40625,13,24.2402344,13,23c0-1.2392578,0.2368164-2.40625,0.7109375-3.5
				c0.4736328-1.09375,1.1171875-2.046875,1.9296875-2.859375S17.40625,15.1855469,18.5,14.7109375
				C19.59375,14.2373047,20.7602539,14,22,14z M22,30c0.96875,0,1.8774414-0.1845703,2.7265625-0.5546875
				c0.8486328-0.3691406,1.5883789-0.8691406,2.21875-1.5c0.6298828-0.6298828,1.1298828-1.3691406,1.5-2.21875
				C28.8149414,24.8779297,29,23.96875,29,23s-0.1850586-1.8769531-0.5546875-2.7265625
				c-0.3701172-0.8486328-0.8701172-1.5878906-1.5-2.21875c-0.6303711-0.6298828-1.3701172-1.1298828-2.21875-1.5
				C23.8774414,16.1855469,22.96875,16,22,16s-1.8779297,0.1855469-2.7265625,0.5546875
				c-0.8491211,0.3701172-1.5888672,0.8701172-2.21875,1.5c-0.6303711,0.6308594-1.1303711,1.3701172-1.5,2.21875
				C15.1845703,21.1230469,15,22.03125,15,23s0.1845703,1.8779297,0.5546875,2.7265625
				c0.3696289,0.8496094,0.8696289,1.5888672,1.5,2.21875c0.6298828,0.6308594,1.3696289,1.1308594,2.21875,1.5
				C20.1220703,29.8154297,21.03125,30,22,30z"/>
		</g>
		<polygon points="25.5890503,19.2318115 20.6541138,24.15625 18.4213257,21.9359131 17.0124512,23.3447876 20.6541138,27 
			27,20.6427612 		"/>
	</g>
	<path d="M13.5145874,30H3V10h15v2.7613525c0.6402588-0.2503662,1.3079224-0.4435425,2-0.5709229V0H1v32h14.687439
		C14.8777466,31.4309692,14.1435547,30.7615356,13.5145874,30z M3,2h15v6H3V2z"/>
</g>
</svg>
