<?xml version="1.0" encoding="utf-8"?>
<!-- Generator: Adobe Illustrator 19.1.0, SVG Export Plug-In . SVG Version: 6.00 Build 0)  -->
<svg version="1.1" id="Layer_1" xmlns="http://www.w3.org/2000/svg" xmlns:xlink="http://www.w3.org/1999/xlink" x="0px" y="0px"
	 width="32px" height="32px" viewBox="0 0 32 32" style="enable-background:new 0 0 32 32;" xml:space="preserve">
<g>
	<path d="M29.4934692,17.989563c-0.8032227-0.208313-1.5734863-0.546875-2.3111572-1.015625
		c-0.4342041-0.2775269-0.859375-0.4817505-1.276062-0.6119995c-0.416687-0.130188-0.885437-0.1953125-1.40625-0.1953125
		s-0.989563,0.0651245-1.40625,0.1953125c-0.416687,0.130249-0.8422852,0.3344727-1.276062,0.6119995
		c-0.7380981,0.46875-1.5083618,0.807312-2.3111572,1.015625c-0.8032227,0.208313-1.6386108,0.3125-2.5065308,0.3125v3.5546875
		c0,0.7641602,0.0996704,1.4973755,0.2994995,2.2005005c0.1993408,0.703125,0.4727783,1.3737183,0.8203125,2.0117188
		c0.3470459,0.6380615,0.7592773,1.2394409,1.2369385,1.8034058c0.4772949,0.5647583,0.9936523,1.0961914,1.5494995,1.5950317
		c0.5554199,0.4996948,1.1369019,0.9594727,1.744812,1.380249C23.2585449,31.269165,23.875,31.6533203,24.5,32
		c0.6160278-0.3466797,1.2304688-0.730835,1.8424683-1.1523438c0.6119385-0.4207764,1.1954346-0.8805542,1.7512817-1.380249
		c0.5554199-0.4988403,1.0717773-1.0302734,1.5494995-1.5950317c0.4772949-0.5639648,0.8894653-1.1653442,1.2369385-1.8034058
		c0.3471069-0.6380005,0.6205444-1.3085938,0.8203125-2.0117188C31.8999023,23.354126,32,22.6209106,32,21.8567505V18.302063
		C31.1316528,18.302063,30.2963257,18.197876,29.4934692,17.989563z M30,21.8569336
		c0,0.574707-0.0751953,1.1313477-0.2236328,1.6547852c-0.1582031,0.5571289-0.3779297,1.0961914-0.6523438,1.6010742
		c-0.2822266,0.5175781-0.6210938,1.0112305-1.0073242,1.4672852c-0.418457,0.4946289-0.8754883,0.9648438-1.3583984,1.3984375
		c-0.4887695,0.4399414-1.0092773,0.8500977-1.5488281,1.2211914c-0.2373047,0.1630859-0.4755859,0.3208008-0.7138672,0.472168
		c-0.2363281-0.1499023-0.472168-0.3061523-0.7055664-0.4677734c-0.5371094-0.3725586-1.0571289-0.7836914-1.5458984-1.2236328
		c-0.4873047-0.4370117-0.9438477-0.9072266-1.3598633-1.3989258c-0.3876953-0.4580078-0.7265625-0.9511719-1.0078125-1.4682617
		c-0.2749023-0.5053711-0.4946289-1.0444336-0.6533203-1.6025391C19.0751953,22.9892578,19,22.4326172,19,21.8569336v-1.7177734
		c0.3408203-0.0566406,0.6772461-0.1274414,1.0078125-0.2133789c1.0019531-0.2602539,1.9711914-0.6850586,2.8818359-1.2631836
		c0.2885742-0.1845703,0.5556641-0.3149414,0.8017578-0.3920898c0.2202148-0.0688477,0.4931641-0.1040039,0.8085938-0.1040039
		s0.5883789,0.0351563,0.8110352,0.1044922c0.2426758,0.0761719,0.5102539,0.2070313,0.7929688,0.3876953
		c0.9155273,0.581543,1.8852539,1.0068359,2.887207,1.2670898C29.3222656,20.0112305,29.6586914,20.0825195,30,20.1391602
		V21.8569336z"/>
	<path d="M14.7734375,25.78125c-0.390625-0.6142578-0.8623047-1.171875-1.4140625-1.671875
		c-0.5522461-0.5-1.171875-0.921875-1.859375-1.265625c0.78125-0.5625,1.3930664-1.265625,1.8359375-2.109375
		C13.7783203,19.890625,14,18.9794922,14,18c0-0.8222656,0.15625-1.5986328,0.46875-2.328125
		c0.3125-0.7285156,0.7421875-1.3671875,1.2890625-1.9140625s1.1821289-0.9765625,1.90625-1.2890625
		C18.3876953,12.15625,19.1665039,12,20,12c0.8227539,0,1.5986328,0.15625,2.328125,0.46875
		c0.7290039,0.3125,1.3671875,0.7421875,1.9140625,1.2890625c0.1327515,0.1327515,0.2366333,0.2880249,0.3555908,0.4315796
		c0.5922241,0.0256958,1.1578369,0.1035767,1.6693115,0.2632446c0.3632202,0.1134033,0.727417,0.2773438,1.0908203,0.4644775
		c-0.1676636-0.3943481-0.3563232-0.7765503-0.5844727-1.1358643c-0.390625-0.6142578-0.8623047-1.171875-1.4140625-1.671875
		c-0.5522461-0.5-1.171875-0.921875-1.859375-1.265625c0.78125-0.5625,1.3930664-1.265625,1.8359375-2.109375
		C25.7783203,7.890625,26,6.9794922,26,6c0-0.8222656-0.15625-1.5986328-0.46875-2.328125
		c-0.3125-0.7285156-0.7421875-1.3671875-1.2890625-1.9140625S23.0571289,0.78125,22.328125,0.46875
		C21.5986328,0.15625,20.8227539,0,20,0c-0.8334961,0-1.6123047,0.15625-2.3359375,0.46875
		c-0.7241211,0.3125-1.359375,0.7421875-1.90625,1.2890625S14.78125,2.9433594,14.46875,3.671875
		C14.15625,4.4013672,14,5.1777344,14,6c0,0.9794922,0.2211914,1.890625,0.6640625,2.734375
		C15.1064453,9.578125,15.71875,10.28125,16.5,10.84375C15.7080078,11.2402344,15,11.75,14.375,12.375
		s-1.1357422,1.3339844-1.53125,2.125c-0.5625-0.78125-1.265625-1.3925781-2.109375-1.8359375
		C9.890625,12.2216797,8.9790039,12,8,12c-0.8334961,0-1.6123047,0.15625-2.3359375,0.46875
		c-0.7241211,0.3125-1.359375,0.7421875-1.90625,1.2890625S2.78125,14.9433594,2.46875,15.671875
		C2.15625,16.4013672,2,17.1777344,2,18c0,0.9794922,0.2211914,1.890625,0.6640625,2.734375
		C3.1064453,21.578125,3.71875,22.28125,4.5,22.84375c-0.6875,0.34375-1.3076172,0.765625-1.859375,1.265625
		c-0.5522461,0.5-1.0234375,1.0576172-1.4140625,1.671875c-0.390625,0.6152344-0.6928711,1.28125-0.90625,2
		C0.1064453,28.5,0,29.2402344,0,30h2c0-0.8222656,0.15625-1.5986328,0.46875-2.328125
		c0.3125-0.7285156,0.7421875-1.3671875,1.2890625-1.9140625s1.1821289-0.9765625,1.90625-1.2890625
		C6.3876953,24.15625,7.1665039,24,8,24c0.8227539,0,1.5986328,0.15625,2.328125,0.46875
		c0.7290039,0.3125,1.3671875,0.7421875,1.9140625,1.2890625S13.21875,26.9433594,13.53125,27.671875
		C13.84375,28.4013672,14,29.1777344,14,30h2c0-0.7597656-0.1069336-1.5-0.3203125-2.21875
		C15.4658203,27.0625,15.1640625,26.3964844,14.7734375,25.78125z M16.3125,7.5546875C16.1040039,7.0703125,16,6.5527344,16,6
		c0-0.5517578,0.1040039-1.0703125,0.3125-1.5546875c0.2080078-0.484375,0.4946289-0.9082031,0.859375-1.2734375
		c0.3642578-0.3642578,0.7890625-0.6503906,1.2734375-0.859375C18.9296875,2.1044922,19.4477539,2,20,2
		c0.5517578,0,1.0703125,0.1044922,1.5546875,0.3125c0.484375,0.2089844,0.9086914,0.4951172,1.2734375,0.859375
		c0.3642578,0.3652344,0.6508789,0.7890625,0.859375,1.2734375C23.8955078,4.9296875,24,5.4482422,24,6
		c0,0.5527344-0.1044922,1.0703125-0.3125,1.5546875c-0.2084961,0.484375-0.4951172,0.9091797-0.859375,1.2734375
		c-0.3647461,0.3652344-0.7890625,0.6513672-1.2734375,0.859375C21.0703125,9.8964844,20.5517578,10,20,10
		c-0.5522461,0-1.0703125-0.1035156-1.5546875-0.3125c-0.484375-0.2080078-0.9091797-0.4941406-1.2734375-0.859375
		C16.8071289,8.4638672,16.5205078,8.0390625,16.3125,7.5546875z M9.5546875,21.6875C9.0703125,21.8964844,8.5517578,22,8,22
		c-0.5522461,0-1.0703125-0.1035156-1.5546875-0.3125c-0.484375-0.2080078-0.9091797-0.4941406-1.2734375-0.859375
		c-0.3647461-0.3642578-0.6513672-0.7890625-0.859375-1.2734375C4.1040039,19.0703125,4,18.5527344,4,18
		c0-0.5517578,0.1040039-1.0703125,0.3125-1.5546875c0.2080078-0.484375,0.4946289-0.9082031,0.859375-1.2734375
		c0.3642578-0.3642578,0.7890625-0.6503906,1.2734375-0.859375C6.9296875,14.1044922,7.4477539,14,8,14
		c0.5517578,0,1.0703125,0.1044922,1.5546875,0.3125c0.484375,0.2089844,0.9086914,0.4951172,1.2734375,0.859375
		c0.3642578,0.3652344,0.6508789,0.7890625,0.859375,1.2734375C11.8955078,16.9296875,12,17.4482422,12,18
		c0,0.5527344-0.1044922,1.0703125-0.3125,1.5546875c-0.2084961,0.484375-0.4951172,0.9091797-0.859375,1.2734375
		C10.4633789,21.1933594,10.0390625,21.4794922,9.5546875,21.6875z"/>
</g>
<g>
</g>
<g>
</g>
<g>
</g>
<g>
</g>
<g>
</g>
<g>
</g>
<g>
</g>
<g>
</g>
<g>
</g>
<g>
</g>
<g>
</g>
<g>
</g>
<g>
</g>
<g>
</g>
<g>
</g>
</svg>
