<svg xmlns="http://www.w3.org/2000/svg" width="29.67" height="29.21" viewBox="0 0 29.67 29.21">
  <title>Asset 2</title>
  <g id="Layer_2" data-name="Layer 2">
    <g id="Symbols">
      <g>
        <path d="M16.52,17a17.09,17.09,0,0,1,1.85,1.19L20,17a10.27,10.27,0,0,0-3.75-2.27,8,8,0,0,0,1.55-1.29A8.3,8.3,0,0,0,19,11.86,8.09,8.09,0,0,0,19.73,10,7.62,7.62,0,0,0,20,8a7.7,7.7,0,0,0-.63-3.11A8.1,8.1,0,0,0,15.11.63a8,8,0,0,0-6.22,0A8.1,8.1,0,0,0,4.63,4.89,7.7,7.7,0,0,0,4,8a7.61,7.61,0,0,0,.27,2A8.07,8.07,0,0,0,5,11.86a8.28,8.28,0,0,0,1.19,1.62,8,8,0,0,0,1.55,1.29,11.69,11.69,0,0,0-3.21,1.78,11.81,11.81,0,0,0-2.45,2.6A11.94,11.94,0,0,0,.55,22.38,12.08,12.08,0,0,0,0,26H2A9.92,9.92,0,0,1,12,16a10.63,10.63,0,0,1,2.34.26A9.94,9.94,0,0,1,16.52,17ZM12,14a5.75,5.75,0,0,1-2.33-.48,6.07,6.07,0,0,1-3.2-3.2,5.93,5.93,0,0,1,0-4.66,6.07,6.07,0,0,1,3.2-3.2,5.93,5.93,0,0,1,4.66,0,6.07,6.07,0,0,1,3.2,3.2,5.93,5.93,0,0,1,0,4.66,6.07,6.07,0,0,1-3.2,3.2A5.76,5.76,0,0,1,12,14Z"/>
        <path d="M28.22,23.7l-.18,1,1.3,1-1,1.63-1.45-.67-.82.67.15,1.45-1.79.49L24,27.9l-1.12-.15-1,1.15-1.63-1,.67-1.3-.67-.79L18.8,26,18.32,24l1.45-.49v-1l-1.15-1,1-1.61,1.45.64.64-.64-.15-1.48L23.34,18,24,19.31l1,.18,1.12-1.15,1.45,1-.48,1.3.48.81,1.63-.15.49,1.78Zm-6.93-.07a2.56,2.56,0,0,0,.21,1A2.63,2.63,0,0,0,22.9,26a2.66,2.66,0,0,0,2,0,2.6,2.6,0,0,0,.83-.56,2.71,2.71,0,0,0,.56-.83,2.62,2.62,0,0,0,0-2,2.63,2.63,0,0,0-1.4-1.4,2.62,2.62,0,0,0-2,0,2.71,2.71,0,0,0-.83.56,2.61,2.61,0,0,0-.77,1.86Z"/>
      </g>
    </g>
  </g>
</svg>
