<?xml version="1.0" encoding="utf-8"?>
<!-- Generator: Adobe Illustrator 19.1.0, SVG Export Plug-In . SVG Version: 6.00 Build 0)  -->
<svg version="1.1" id="Layer_1" xmlns="http://www.w3.org/2000/svg" xmlns:xlink="http://www.w3.org/1999/xlink" x="0px" y="0px"
	 width="32px" height="32px" viewBox="0 0 32 32" style="enable-background:new 0 0 32 32;" xml:space="preserve">
<g>
	<path d="M28.90625,10.75c0.46875,0.2607422,0.8955078,0.5810547,1.2812443,0.9609375
		c0.3852596,0.3803711,0.7109432,0.796875,0.9765682,1.25s0.4711914,0.9375,0.6171875,1.453125
		C31.9267578,14.9296875,32,15.4584961,32,16h-2c0-0.5415039-0.1069336-1.0571289-0.3203125-1.546875
		c-0.2138672-0.4892578-0.5-0.9140625-0.859375-1.2734375s-0.7841797-0.6455078-1.2734375-0.859375
		C27.0571289,12.1069336,26.5415039,12,26,12c-0.5522461,0-1.0703125,0.1069336-1.5546875,0.3203125
		c-0.484375,0.2138672-0.90625,0.5-1.265625,0.859375s-0.6459961,0.7841797-0.859375,1.2734375
		C22.1064453,14.9428711,22,15.4584961,22,16c0,0.9482422-0.2163086,1.8491211-0.6484375,2.703125
		c-0.4326172,0.8544922-1.0288086,1.5625-1.7890682,2.125c0.6767635,0.34375,1.2890682,0.7685547,1.8359432,1.2734375
		c0.546875,0.5053711,1.0126953,1.0678711,1.3984375,1.6875c0.3852539,0.6201172,0.6821289,1.2866211,0.8906193,2
		C23.8955078,26.5029297,24,27.2397461,24,28h-2c0-0.8227539-0.1591797-1.5986328-0.4765625-2.328125
		c-0.3178711-0.7290039-0.7475586-1.3642578-1.2890625-1.90625c-0.5419922-0.5415039-1.1772461-0.9711914-1.90625-1.2890625
		C17.5986328,22.1591797,16.8227539,22,16,22c-0.8232422,0-1.5991211,0.1591797-2.328125,0.4765625
		c-0.7294922,0.3178711-1.3647461,0.7475586-1.90625,1.2890625c-0.5419922,0.5419922-0.9716797,1.1772461-1.2890625,1.90625
		C10.1586914,26.4013672,10,27.1772461,10,28H8c0-0.7602539,0.1040039-1.4970703,0.3124943-2.2109375
		c0.2080135-0.7133789,0.5048885-1.3798828,0.8906307-2c0.3852539-0.6196289,0.8515625-1.1821289,1.3984375-1.6875
		c0.546875-0.5048828,1.1586914-0.9296875,1.8359318-1.2734375c-0.7607365-0.5625-1.3569279-1.2705078-1.7890568-2.125
		C10.2158203,17.8491211,10,16.9482422,10,16c0-0.5415039-0.1069336-1.0571289-0.3203125-1.546875
		c-0.2138672-0.4892578-0.5-0.9140625-0.859375-1.2734375s-0.7841797-0.6455078-1.2734375-0.859375
		C7.0571289,12.1069336,6.5415039,12,6,12c-0.5522461,0-1.0703125,0.1069336-1.5546875,0.3203125
		c-0.484375,0.2138672-0.90625,0.5-1.265625,0.859375s-0.6459961,0.7841797-0.859375,1.2734375
		C2.1064453,14.9428711,2,15.4584961,2,16H0c0-0.5415039,0.0727539-1.0703125,0.21875-1.5859375
		c0.1455078-0.515625,0.3515625-1,0.6171875-1.453125s0.5908203-0.8696289,0.9765571-1.25
		C2.1977539,11.3310547,2.625,11.0107422,3.09375,10.75C2.75,10.3857422,2.4814453,9.9638672,2.2890625,9.484375
		C2.0961914,9.0053711,2,8.5107422,2,8c0-0.5415039,0.1064453-1.0571289,0.3203125-1.546875
		c0.2133789-0.4892578,0.5-0.9140625,0.859375-1.2734375s0.78125-0.6455078,1.265625-0.859375C4.9296875,4.1069336,5.4477539,4,6,4
		c0.5415039,0,1.0571289,0.1069336,1.546875,0.3203125c0.4892578,0.2138672,0.9140625,0.5,1.2734375,0.859375
		s0.6455078,0.7841797,0.859375,1.2734375C9.8930664,6.9428711,10,7.4584961,10,8
		c0,0.5107422-0.0966797,1.0053711-0.2890625,1.484375C9.5180664,9.9638672,9.25,10.3857422,8.90625,10.75
		C9.7602539,11.21875,10.4580078,11.8647461,11,12.6875c0.5624943-0.8330078,1.2836914-1.4892578,2.1640625-1.96875
		C14.0439453,10.2397461,14.9892578,10,16,10c1.0102539,0,1.9555664,0.2397461,2.8359375,0.71875
		C19.7158203,11.1982422,20.4374943,11.8544922,21,12.6875c0.5415039-0.8227539,1.2392578-1.46875,2.09375-1.9375
		c-0.34375-0.3642578-0.6123047-0.7861328-0.8046875-1.265625C22.0961914,9.0053711,22,8.5107422,22,8
		c0-0.5415039,0.1064453-1.0571289,0.3203125-1.546875c0.2133789-0.4892578,0.5-0.9140625,0.859375-1.2734375
		s0.78125-0.6455078,1.265625-0.859375C24.9296875,4.1069336,25.4477539,4,26,4c0.5415039,0,1.0571289,0.1069336,1.546875,0.3203125
		c0.4892578,0.2138672,0.9140625,0.5,1.2734375,0.859375s0.6455078,0.7841797,0.859375,1.2734375
		C29.8930664,6.9428711,30,7.4584961,30,8c0,0.5107422-0.0966797,1.0053711-0.2890625,1.484375
		C29.5180664,9.9638672,29.25,10.3857422,28.90625,10.75z M4,8c0,0.28125,0.0517578,0.5419922,0.15625,0.78125
		c0.1040039,0.2397461,0.2470703,0.4506836,0.4296875,0.6328125C4.7680664,9.5966797,4.9790039,9.7397461,5.21875,9.84375
		C5.4580078,9.9482422,5.71875,10,6,10s0.5415039-0.0517578,0.78125-0.15625
		c0.2392578-0.1040039,0.4501953-0.2470703,0.6328125-0.4296875C7.5961914,9.2319336,7.7392578,9.0209961,7.84375,8.78125
		C7.9477539,8.5419922,8,8.28125,8,8S7.9477539,7.4584961,7.84375,7.21875
		C7.7392578,6.9794922,7.5961914,6.7685547,7.4140625,6.5859375C7.2314453,6.4038086,7.0205078,6.2607422,6.78125,6.15625
		C6.5415039,6.0522461,6.28125,6,6,6S5.4580078,6.0522461,5.21875,6.15625
		C4.9790039,6.2607422,4.7680664,6.4038086,4.5859375,6.5859375C4.4033203,6.7685547,4.2602539,6.9794922,4.15625,7.21875
		C4.0517578,7.4584961,4,7.71875,4,8z M16,20c0.5415039,0,1.0571289-0.1064453,1.546875-0.3203125
		c0.4892578-0.2133789,0.9140625-0.5,1.2734375-0.859375s0.6455078-0.78125,0.859375-1.265625
		C19.8930664,17.0703125,20,16.5522461,20,16c0-0.5415039-0.1069336-1.0571289-0.3203125-1.546875
		c-0.2138672-0.4892578-0.5-0.9140625-0.859375-1.2734375s-0.7841797-0.6455078-1.2734375-0.859375
		C17.0571289,12.1069336,16.5415039,12,16,12c-0.5522461,0-1.0703125,0.1069336-1.5546875,0.3203125
		c-0.484375,0.2138672-0.90625,0.5-1.265625,0.859375s-0.6459961,0.7841797-0.859375,1.2734375
		C12.1064453,14.9428711,12,15.4584961,12,16c0,0.5522461,0.1064453,1.0703125,0.3203125,1.5546875
		c0.2133789,0.484375,0.5,0.90625,0.859375,1.265625s0.78125,0.6459961,1.265625,0.859375
		C14.9296875,19.8935547,15.4477539,20,16,20z M24,8c0,0.28125,0.0517578,0.5419922,0.15625,0.78125
		c0.1040039,0.2397461,0.2470703,0.4506836,0.4296875,0.6328125C24.7680664,9.5966797,24.9790039,9.7397461,25.21875,9.84375
		C25.4580078,9.9482422,25.71875,10,26,10s0.5415039-0.0517578,0.78125-0.15625
		c0.2392578-0.1040039,0.4501953-0.2470703,0.6328125-0.4296875C27.5961914,9.2319336,27.7392578,9.0209961,27.84375,8.78125
		C27.9477539,8.5419922,28,8.28125,28,8s-0.0522461-0.5415039-0.15625-0.78125
		c-0.1044922-0.2392578-0.2475586-0.4501953-0.4296875-0.6328125C27.2314453,6.4038086,27.0205078,6.2607422,26.78125,6.15625
		C26.5415039,6.0522461,26.28125,6,26,6s-0.5419922,0.0522461-0.78125,0.15625
		c-0.2397461,0.1044922-0.4506836,0.2475586-0.6328125,0.4296875C24.4033203,6.7685547,24.2602539,6.9794922,24.15625,7.21875
		C24.0517578,7.4584961,24,7.71875,24,8z"/>
</g>
</svg>
