<?xml version="1.0" encoding="utf-8"?>
<!-- Generator: Adobe Illustrator 19.1.0, SVG Export Plug-In . SVG Version: 6.00 Build 0)  -->
<svg version="1.1" id="Layer_1" xmlns="http://www.w3.org/2000/svg" xmlns:xlink="http://www.w3.org/1999/xlink" x="0px" y="0px"
	 width="32px" height="32px" viewBox="0 0 32 32" style="enable-background:new 0 0 32 32;" xml:space="preserve">
<g>
	<path d="M30,2v28h-6c0-1.1352539-0.203125-2.1899414-0.609375-3.1640625c-0.40625-0.9736328-0.96875-1.8203125-1.6875-2.5390625
		s-1.5654297-1.28125-2.5390625-1.6875C18.1899414,22.203125,17.1352539,22,16,22c-1.1147461,0-2.1591797,0.2084961-3.1328125,0.625
		c-0.9741211,0.4169922-1.8203125,0.984375-2.5390625,1.703125S9.0415039,25.8935547,8.625,26.8671875
		C8.2080078,27.8413086,8,28.8857422,8,30H2V2H30z M28,4H4v24h2.1874943c0.1562557-0.78125,0.403326-1.5336914,0.7421932-2.2578125
		c0.3383789-0.7236328,0.7524414-1.3930664,1.2421875-2.0078125c0.4892578-0.6142578,1.046875-1.1665039,1.671875-1.65625
		c0.625-0.4892578,1.3071289-0.8955078,2.046875-1.21875c-0.6044922-0.3540039-1.1459961-0.7783203-1.625-1.2734375
		c-0.4794922-0.4946289-0.8881836-1.0415039-1.2265625-1.640625c-0.3388672-0.5986328-0.5966797-1.2314453-0.7734375-1.8984375
		C8.0883789,15.3803711,8,14.6982422,8,14c0-1.1040039,0.2080078-2.1430664,0.625-3.1171875
		c0.4165039-0.9736328,0.9868164-1.8227539,1.7109375-2.546875c0.7236328-0.7236328,1.5727539-1.2939453,2.546875-1.7109375
		C13.8564453,6.2084961,14.8955078,6,16,6c1.1040039,0,2.1430664,0.2084961,3.1171875,0.625
		c0.9736328,0.4169922,1.8227539,0.9873047,2.546875,1.7109375c0.7236328,0.7241211,1.2939453,1.5732422,1.7109375,2.546875
		C23.7915039,11.8569336,24,12.8959961,24,14c0,0.6982422-0.0888672,1.3779297-0.265625,2.0390625
		c-0.1772461,0.6616211-0.4326172,1.2890625-0.765625,1.8828125C22.6352539,18.515625,22.2290039,19.0625,21.75,19.5625
		c-0.4794922,0.5-1.015625,0.9272461-1.609375,1.28125c0.7392578,0.3334961,1.4218693,0.7421875,2.0468693,1.2265625
		s1.1796932,1.0341797,1.6640682,1.6484375c0.484375,0.6147461,0.8930664,1.2841797,1.2265625,2.0078125
		C25.4111328,26.4506836,25.65625,27.2084961,25.8124943,28H28V4z M16,20c0.8227539,0,1.5986328-0.1586914,2.328125-0.4765625
		c0.7290039-0.3173828,1.3642578-0.7470703,1.90625-1.2890625c0.5415039-0.5415039,0.9711914-1.1767578,1.2890625-1.90625
		C21.8408203,15.5991211,22,14.8232422,22,14c0-0.8227539-0.1591797-1.5986328-0.4765625-2.328125
		c-0.3178711-0.7290039-0.7475586-1.3642578-1.2890625-1.90625c-0.5419922-0.5415039-1.1772461-0.9711914-1.90625-1.2890625
		C17.5986328,8.1591797,16.8227539,8,16,8c-0.8232422,0-1.5991211,0.1591797-2.328125,0.4765625
		c-0.7294922,0.3178711-1.3647461,0.7475586-1.90625,1.2890625c-0.5419922,0.5419922-0.9716797,1.1772461-1.2890625,1.90625
		C10.1586914,12.4013672,10,13.1772461,10,14c0,0.8232422,0.1586914,1.5991211,0.4765625,2.328125
		c0.3173828,0.7294922,0.7470703,1.3647461,1.2890625,1.90625c0.5415039,0.5419922,1.1767578,0.9716797,1.90625,1.2890625
		C14.4008789,19.8413086,15.1767578,20,16,20z"/>
</g>
</svg>
