<?xml version="1.0" encoding="utf-8"?>
<!-- Generator: Adobe Illustrator 19.1.0, SVG Export Plug-In . SVG Version: 6.00 Build 0)  -->
<svg version="1.1" id="Layer_1" xmlns="http://www.w3.org/2000/svg" xmlns:xlink="http://www.w3.org/1999/xlink" x="0px" y="0px"
	 width="32px" height="32px" viewBox="0 0 32 32" style="enable-background:new 0 0 32 32;" xml:space="preserve">
<g>
	<g>
		<path d="M20.046875,18.890625c0-0.9633789,0.1879883-1.8808594,0.5595703-2.7260742
			c0.1565552-0.3581543,0.3517456-0.6915283,0.5614014-1.0140991c-0.3028564-0.3668213-0.5710449-0.7615967-0.7694092-1.2129517
			C20.1328125,13.3334961,20,12.6875,20,12s0.1328125-1.3330078,0.3984375-1.9375
			c0.265625-0.6040039,0.625-1.1328125,1.078125-1.5859375s0.9814453-0.8125,1.5859318-1.078125
			C23.6665039,7.1328125,24.3124943,7,25,7c0.6874943,0,1.3330078,0.1328125,1.9374943,0.3984375
			c0.6040096,0.265625,1.1328182,0.625,1.5859432,1.078125s0.8125,0.9819336,1.078125,1.5859375
			C29.8671875,10.6669922,30,11.3125,30,12c0,0.2262573-0.0368042,0.440979-0.0655518,0.6582031
			c0.6729736,0.3147583,1.2754517,0.7248535,1.805603,1.2188721C31.9084473,13.2779541,32,12.6537476,32,12
			c0-0.96875-0.1850586-1.8774414-0.5546875-2.7265625c-0.3701172-0.8486328-0.8701172-1.5883789-1.5-2.21875
			c-0.6303711-0.6298828-1.3701172-1.1298828-2.21875-1.5C26.8774414,5.1850586,25.96875,5,25,5
			s-1.8779297,0.1850586-2.7265625,0.5546875c-0.8491211,0.3701172-1.5888672,0.8701172-2.21875,1.5
			c-0.6303711,0.6303711-1.1303711,1.3701172-1.5,2.21875C18.1845703,10.1225586,18,11.03125,18,12
			c0,0.2294922,0.0234375,0.4951172,0.0703125,0.796875c0.046875,0.3022461,0.1118164,0.6171875,0.1953125,0.9453125
			c0.0830078,0.328125,0.1875,0.6616211,0.3125,1c0.125,0.3388672,0.265625,0.65625,0.421875,0.953125
			s0.328125,0.5600586,0.515625,0.7890625c0.1875,0.2294922,0.3852539,0.4013672,0.59375,0.515625h-8.21875
			c0.2080078-0.1142578,0.40625-0.2861328,0.59375-0.515625c0.1875-0.2290039,0.359375-0.4921875,0.515625-0.7890625
			s0.296875-0.6142578,0.421875-0.953125c0.125-0.3383789,0.2290039-0.671875,0.3125-1
			c0.0830078-0.328125,0.1484375-0.6455078,0.1953125-0.953125C13.9765625,12.4819336,14,12.21875,14,12
			c0-0.96875-0.1850586-1.8774414-0.5546875-2.7265625c-0.3701172-0.8486328-0.8701172-1.5883789-1.5-2.21875
			c-0.6303711-0.6298828-1.3701172-1.1298828-2.21875-1.5C8.8774414,5.1850586,7.96875,5,7,5
			S5.1220703,5.1850586,4.2734375,5.5546875c-0.8491211,0.3701172-1.5888672,0.8701172-2.21875,1.5
			c-0.6303711,0.6303711-1.1303711,1.3701172-1.5,2.21875C0.1845703,10.1225586,0,11.03125,0,12
			s0.1845703,1.8779297,0.5546875,2.7265625c0.3696289,0.8491211,0.8696289,1.5888672,1.5,2.21875
			c0.6298828,0.6303711,1.3696289,1.1303711,2.21875,1.5C5.1220703,18.8154297,6.03125,19,7,19h13.0546875
			C20.0541382,18.9633179,20.046875,18.9273682,20.046875,18.890625z M10.5234375,15.5234375
			c-0.453125,0.453125-0.9819336,0.8125-1.5859432,1.078125C8.3330078,16.8671875,7.6874943,17,7,17
			c-0.6875057,0-1.3334961-0.1328125-1.9375052-0.3984375c-0.6044869-0.265625-1.1328073-0.625-1.5859323-1.078125
			s-0.8125-0.9814453-1.078125-1.5859375C2.1328125,13.3334961,2,12.6875,2,12s0.1328125-1.3330078,0.3984375-1.9375
			c0.265625-0.6040039,0.625-1.1328125,1.078125-1.5859375s0.9814453-0.8125,1.5859323-1.078125
			C5.6665039,7.1328125,6.3124943,7,7,7c0.6874943,0,1.3330078,0.1328125,1.9374943,0.3984375
			c0.6040096,0.265625,1.1328182,0.625,1.5859432,1.078125s0.8125,0.9819336,1.078125,1.5859375
			C11.8671875,10.6669922,12,11.3125,12,12s-0.1328125,1.3334961-0.3984375,1.9375
			C11.3359375,14.5419922,10.9765625,15.0703125,10.5234375,15.5234375z"/>
	</g>
	<path d="M22.046875,18.890625c0-0.6875,0.1298828-1.328125,0.3906193-1.921875
		C22.6972656,16.375,23.0517578,15.8574219,23.5,15.4140625C23.9472656,14.9716797,24.4707031,14.625,25.0703125,14.375
		C25.6689453,14.125,26.3124943,14,27,14c0.6972656,0,1.3486328,0.1308594,1.953125,0.390625
		c0.6035156,0.2607422,1.1298828,0.6171875,1.578125,1.0703125c0.4472656,0.453125,0.8017578,0.9824219,1.0625,1.5859375
		C31.8535156,17.6513672,31.984375,18.3027344,31.984375,19c0,0.6777344-0.1279297,1.3154297-0.3828125,1.9140625
		C31.3457031,21.5136719,31,22.0371094,30.5624943,22.484375c-0.4374943,0.4482422-0.9531193,0.8027344-1.5468693,1.0625
		c-0.59375,0.2607422-1.234375,0.390625-1.921875,0.390625c-0.5,0-0.9902344-0.0703125-1.46875-0.2109375
		c-0.4794922-0.140625-0.9326172-0.3408203-1.359375-0.6015625L21.125,26.265625
		c-0.2402344,0.2402344-0.4746094,0.4824219-0.703125,0.7265625c-0.2294922,0.2451172-0.46875,0.4765625-0.71875,0.6953125
		c-0.1044922,0.09375-0.2060547,0.1669922-0.3046875,0.21875c-0.0996094,0.0527344-0.2216797,0.078125-0.3671875,0.078125
		c-0.2714844,0-0.5107422-0.1035156-0.7187557-0.3125C18.1035156,27.4638672,18,27.2246094,18,26.953125
		c0-0.1455078,0.0253906-0.2675781,0.078125-0.3671875c0.0517578-0.0986328,0.125-0.2001953,0.21875-0.3046875
		c0.21875-0.25,0.4501953-0.4892578,0.6953125-0.71875c0.2441406-0.2285156,0.4863281-0.4628906,0.7265625-0.703125
		c0.53125-0.53125,1.0546875-1.0566406,1.5703125-1.578125c0.515625-0.5205078,1.0390625-1.046875,1.5703125-1.578125
		c-0.2607422-0.4267578-0.4609375-0.8769531-0.6015625-1.3515625C22.1171875,19.8779297,22.046875,19.390625,22.046875,18.890625z
		 M24.046875,19.078125c0,0.3964844,0.0751953,0.765625,0.2265625,1.109375c0.1503906,0.34375,0.3535156,0.6464844,0.609375,0.90625
		c0.2548828,0.2607422,0.5566406,0.4638672,0.90625,0.609375c0.3486328,0.1464844,0.7207031,0.21875,1.1171875,0.21875
		c0.4062443,0,0.7939453-0.0800781,1.1640625-0.2421875c0.3691406-0.1611328,0.7001953-0.3828125,0.9921818-0.6640625
		c0.2910213-0.28125,0.5234432-0.6035156,0.6953182-0.96875c0.171875-0.3642578,0.2578125-0.75,0.2578125-1.15625
		c0-0.375-0.0810547-0.7363281-0.2421875-1.0859375c-0.1621094-0.3486328-0.3779297-0.6611328-0.6484375-0.9375
		c-0.2714844-0.2753906-0.5839844-0.4941406-0.9375057-0.65625C27.8330078,16.0498047,27.46875,15.96875,27.09375,15.96875
		c-0.4062557,0-0.7949219,0.0859375-1.1640625,0.2578125c-0.3701172,0.171875-0.6933594,0.4042969-0.96875,0.6953125
		c-0.2763672,0.2919922-0.4980469,0.6230469-0.6640625,0.9921875C24.1298828,18.2841797,24.046875,18.671875,24.046875,19.078125z"
		/>
</g>
</svg>
