<?xml version="1.0" encoding="utf-8"?>
<!-- Generator: Adobe Illustrator 19.1.0, SVG Export Plug-In . SVG Version: 6.00 Build 0)  -->
<svg version="1.1" id="Layer_1" xmlns="http://www.w3.org/2000/svg" xmlns:xlink="http://www.w3.org/1999/xlink" x="0px" y="0px"
	 width="32px" height="32px" viewBox="0 0 32 32" style="enable-background:new 0 0 32 32;" xml:space="preserve">
<g>
	<path d="M25,9c0.96875,0,1.8774414,0.1850586,2.7265625,0.5546875c0.8486328,0.3701172,1.5883789,0.8701172,2.21875,1.5
		c0.6298828,0.6303711,1.1298828,1.3701172,1.5,2.21875C31.8149414,14.1225586,32,15.03125,32,16
		s-0.1850586,1.8779297-0.5546875,2.7265625c-0.3701172,0.8491211-0.8701172,1.5888672-1.5,2.21875
		c-0.6303711,0.6303711-1.3701172,1.1303711-2.21875,1.5C26.8774414,22.8154297,25.96875,23,25,23H7
		c-0.96875,0-1.8779297-0.1845703-2.7265625-0.5546875c-0.8491211-0.3696289-1.5888672-0.8696289-2.21875-1.5
		c-0.6303711-0.6298828-1.1303711-1.3696289-1.5-2.21875C0.1845703,17.8779297,0,16.96875,0,16
		s0.1845703-1.8774414,0.5546875-2.7265625c0.3696289-0.8486328,0.8696289-1.5883789,1.5-2.21875
		c0.6298828-0.6298828,1.3696289-1.1298828,2.21875-1.5C5.1220703,9.1850586,6.03125,9,7,9s1.8774414,0.1850586,2.7265625,0.5546875
		c0.8486328,0.3701172,1.5883789,0.8701172,2.21875,1.5c0.6298828,0.6303711,1.1298828,1.3701172,1.5,2.21875
		C13.8149414,14.1225586,14,15.03125,14,16c0,0.21875-0.0234375,0.4819336-0.0703125,0.7890625
		c-0.046875,0.3076172-0.1123047,0.625-0.1953125,0.953125c-0.0834961,0.328125-0.1875,0.6616211-0.3125,1
		c-0.125,0.3388672-0.265625,0.65625-0.421875,0.953125s-0.328125,0.5600586-0.515625,0.7890625
		c-0.1875,0.2294922-0.3857422,0.4013672-0.59375,0.515625h8.21875c-0.2084961-0.1142578-0.40625-0.2861328-0.59375-0.515625
		C19.328125,20.2553711,19.15625,19.9921875,19,19.6953125s-0.296875-0.6142578-0.421875-0.953125
		c-0.125-0.3383789-0.2294922-0.671875-0.3125-1c-0.0834961-0.328125-0.1484375-0.6430664-0.1953125-0.9453125
		C18.0234375,16.4951172,18,16.2294922,18,16c0-0.96875,0.1845703-1.8774414,0.5546875-2.7265625
		c0.3696289-0.8486328,0.8696289-1.5883789,1.5-2.21875c0.6298828-0.6298828,1.3696289-1.1298828,2.21875-1.5
		C23.1220703,9.1850586,24.03125,9,25,9z M2,16c0,0.6875,0.1328125,1.3334961,0.3984375,1.9375
		c0.265625,0.6044922,0.625,1.1328125,1.078125,1.5859375s0.9814453,0.8125,1.5859323,1.078125
		C5.6665039,20.8671875,6.3124943,21,7,21c0.6874943,0,1.3330078-0.1328125,1.9374943-0.3984375
		c0.6040096-0.265625,1.1328182-0.625,1.5859432-1.078125s0.8125-0.9814453,1.078125-1.5859375
		C11.8671875,17.3334961,12,16.6875,12,16s-0.1328125-1.3330078-0.3984375-1.9375
		c-0.265625-0.6040039-0.625-1.1328125-1.078125-1.5859375s-0.9819336-0.8125-1.5859432-1.078125
		C8.3330078,11.1328125,7.6874943,11,7,11c-0.6875057,0-1.3334961,0.1328125-1.9375052,0.3984375
		c-0.6044869,0.265625-1.1328073,0.625-1.5859323,1.078125s-0.8125,0.9819336-1.078125,1.5859375
		C2.1328125,14.6669922,2,15.3125,2,16z M25,21c0.6874943,0,1.3330078-0.1328125,1.9374943-0.3984375
		c0.6040096-0.265625,1.1328182-0.625,1.5859432-1.078125s0.8125-0.9814453,1.078125-1.5859375
		C29.8671875,17.3334961,30,16.6875,30,16s-0.1328125-1.3330078-0.3984375-1.9375
		c-0.265625-0.6040039-0.625-1.1328125-1.078125-1.5859375s-0.9819336-0.8125-1.5859432-1.078125
		C26.3330078,11.1328125,25.6874943,11,25,11c-0.6875057,0-1.3334961,0.1328125-1.9375057,0.3984375
		c-0.6044865,0.265625-1.1328068,0.625-1.5859318,1.078125s-0.8125,0.9819336-1.078125,1.5859375
		C20.1328125,14.6669922,20,15.3125,20,16s0.1328125,1.3334961,0.3984375,1.9375
		c0.265625,0.6044922,0.625,1.1328125,1.078125,1.5859375s0.9814453,0.8125,1.5859318,1.078125
		C23.6665039,20.8671875,24.3124943,21,25,21z"/>
</g>
</svg>
