<?xml version="1.0" encoding="utf-8"?>
<!-- Generator: Adobe Illustrator 19.1.0, SVG Export Plug-In . SVG Version: 6.00 Build 0)  -->
<svg version="1.1" id="Layer_1" xmlns="http://www.w3.org/2000/svg" xmlns:xlink="http://www.w3.org/1999/xlink" x="0px" y="0px"
	 width="32px" height="32px" viewBox="0 0 32 32" style="enable-background:new 0 0 32 32;" xml:space="preserve">
<g>
	<path d="M30,14c0,1.5419922-0.2421875,3.0263672-0.7265625,4.453125c-0.484375,1.4277344-1.1669922,2.7324219-2.046875,3.9140625
		c-0.8803711,1.1826172-1.9350586,2.2109375-3.1640682,3.0859375c-1.2294865,0.875-2.5834904,1.53125-4.0624943,1.96875V30h6v2H6v-2
		h6v-2.578125c-1.4897461-0.4375-2.8466797-1.09375-4.0703125-1.96875c-1.2241211-0.875-2.2763672-1.9033203-3.15625-3.0859375
		c-0.8803711-1.1816406-1.5625-2.4863281-2.046875-3.9140625C2.2421875,17.0263672,2,15.5419922,2,14
		c0-1.2910156,0.1665039-2.5332031,0.5-3.7265625c0.3330078-1.1923828,0.8046875-2.3066406,1.4140625-3.34375
		c0.609375-1.0361328,1.3383789-1.9785156,2.1875-2.828125c0.8486328-0.8486328,1.7915039-1.578125,2.828125-2.1875
		C9.9658203,1.3046875,11.0805664,0.8339844,12.2734375,0.5C13.4658203,0.1669922,14.7080078,0,16,0
		c1.2915039,0,2.5336914,0.1669922,3.7265625,0.5c1.1923828,0.3339844,2.3071289,0.8046875,3.34375,1.4140625
		c1.0361328,0.609375,1.9790039,1.3388672,2.828125,2.1875c0.8486328,0.8496094,1.578125,1.7919922,2.1875,2.828125
		c0.609375,1.0371094,1.0805664,2.1513672,1.4140625,3.34375C29.8330078,11.4667969,30,12.7089844,30,14z M16,2
		c-1.1044922,0-2.1669922,0.1435547-3.1875057,0.4296875c-1.0209904,0.2871094-1.9765568,0.6904297-2.8671818,1.2109375
		c-0.890625,0.5214844-1.7006836,1.1464844-2.4296875,1.875c-0.7294922,0.7294922-1.3544922,1.5390625-1.875,2.4296875
		C5.1196289,8.8359375,4.7158203,9.7919922,4.4296875,10.8125C4.1430664,11.8339844,4,12.8964844,4,14h5
		c0-0.96875,0.1821289-1.8769531,0.546875-2.7265625c0.3642578-0.8486328,0.8642578-1.5908203,1.5-2.2265625
		c0.6352539-0.6347656,1.3774414-1.1347656,2.2265625-1.5C14.1220703,7.1826172,15.03125,7,16,7
		s1.8774414,0.1826172,2.7265625,0.546875c0.8486328,0.3652344,1.5908203,0.8652344,2.2265625,1.5
		c0.6352539,0.6357422,1.1352539,1.3779297,1.5,2.2265625C22.8173828,12.1230469,23,13.03125,23,14h5
		c0-1.1035156-0.1435547-2.1660156-0.4296875-3.1875c-0.2866211-1.0205078-0.6904297-1.9765625-1.2109375-2.8671875
		c-0.5209961-0.890625-1.1459961-1.7001953-1.875-2.4296875c-0.7294922-0.7285156-1.5390625-1.3535156-2.4296875-1.875
		c-0.890625-0.5205078-1.8466797-0.9238281-2.8671932-1.2109375C18.1665039,2.1435547,17.1040039,2,16,2z M4.171875,16
		c0.15625,0.9589844,0.4243164,1.8730469,0.8046875,2.7421875C5.3564453,19.6123047,5.8227539,20.4169922,6.375,21.15625
		c0.5517578,0.7402344,1.1796875,1.4091797,1.8828125,2.0078125c0.703125,0.5996094,1.4658203,1.1074219,2.2890625,1.5234375
		c0.8227539,0.4169922,1.6923828,0.7402344,2.609375,0.96875C14.0727539,25.8857422,15.0205078,26,16,26
		c0.96875,0,1.9140625-0.1142578,2.8359375-0.34375c0.921875-0.2285156,1.7939453-0.5517578,2.6171875-0.96875
		c0.8227539-0.4160156,1.5859375-0.9238281,2.2890625-1.5234375c0.703125-0.5986328,1.3305664-1.2675781,1.8828125-2.0078125
		c0.5517578-0.7392578,1.015625-1.5439453,1.390625-2.4140625c0.375-0.8691406,0.6455078-1.7832031,0.8125-2.7421875h-5.125
		c-0.2084961,0.7402344-0.53125,1.4169922-0.96875,2.03125c-0.4375,0.6152344-0.953125,1.140625-1.5468807,1.578125
		c-0.5937443,0.4375-1.25,0.7792969-1.9687443,1.0234375C17.5,20.8779297,16.7602539,21,16,21
		c-0.7709961,0-1.5131836-0.1220703-2.2265625-0.3671875c-0.7138672-0.2441406-1.3671875-0.5859375-1.9609432-1.0234375
		c-0.5937443-0.4375-1.1093693-0.9628906-1.5468693-1.578125C9.828125,17.4169922,9.5048828,16.7402344,9.296875,16H4.171875z
		 M21,14c0-0.6875-0.1303711-1.3359375-0.390625-1.9453125c-0.2607422-0.609375-0.6171875-1.140625-1.0703125-1.59375
		s-0.984375-0.8095703-1.59375-1.0703125C17.3359375,9.1308594,16.6874943,9,16,9
		c-0.6875057,0-1.3359375,0.1308594-1.9453125,0.390625c-0.609375,0.2607422-1.140625,0.6171875-1.59375,1.0703125
		s-0.8100586,0.984375-1.0703125,1.59375C11.1298828,12.6640625,11,13.3125,11,14s0.1298828,1.3359375,0.390625,1.9453125
		c0.2602539,0.609375,0.6171875,1.140625,1.0703125,1.59375s0.984375,0.8105469,1.59375,1.0703125
		C14.6640625,18.8701172,15.3124943,19,16,19c0.6874943,0,1.3359375-0.1298828,1.9453125-0.390625
		c0.609375-0.2597656,1.140625-0.6171875,1.59375-1.0703125s0.8095703-0.984375,1.0703125-1.59375
		C20.8696289,15.3359375,21,14.6875,21,14z M18,30v-2.140625C17.34375,27.953125,16.6767578,28,16,28
		c-0.6772461,0-1.34375-0.046875-2-0.140625V30H18z"/>
</g>
</svg>
