<?xml version="1.0" encoding="utf-8"?>
<!-- Generator: Adobe Illustrator 19.1.0, SVG Export Plug-In . SVG Version: 6.00 Build 0)  -->
<svg version="1.1" id="Layer_1" xmlns="http://www.w3.org/2000/svg" xmlns:xlink="http://www.w3.org/1999/xlink" x="0px" y="0px"
	 width="32px" height="32px" viewBox="0 0 32 32" style="enable-background:new 0 0 32 32;" xml:space="preserve">
<g>
	<path d="M14.440918,26.7910156C14.1118164,26.2294922,13.8529053,25.6234131,13.6295166,25H2V9h27v3.5825195
		c0.6899414,0.4274292,1.3372803,0.923645,1.9150391,1.5009766C30.9454346,14.1139526,30.9699707,14.149231,31,14.1800537V2H0v25
		h14.5821533C14.5379028,26.9284668,14.4834595,26.8635254,14.440918,26.7910156z M2,4h27v3H2V4z"/>
	<g>
		<path d="M19.8933372,20.5620117c-0.0861206-0.0386353-0.1743164-0.074707-0.265625-0.1079102
			s-0.1815796-0.0622559-0.2697754-0.0871582c-0.0887451-0.0249023-0.1691284-0.0373535-0.2407227-0.0373535
			c-0.055542,0-0.1359253,0.0124512-0.2407227,0.0373535c-0.1053467,0.0249023-0.1774292,0.0568237-0.2158203,0.095459
			c0.0383911,0,0.0581055,0.0111694,0.0581055,0.0332031c0.0440674-0.0275269,0.0881958-0.0524292,0.1328125-0.074707
			c0.0440674-0.0220337,0.0938721-0.0332031,0.1494141-0.0332031c0.0549927,0,0.114624,0.0153198,0.1784668,0.0456543
			c0.0632935,0.0305786,0.1296997,0.0651245,0.1992188,0.1037598c0.0689697,0.0388794,0.1421509,0.0734253,0.2199707,0.1037598
			c0.0772705,0.0305786,0.1629028,0.0456543,0.2573242,0.0456543c0.0440674,0,0.0897217-0.0026245,0.1369629-0.0083008
			c0.0466919-0.0054321,0.0923462-0.0109253,0.1369629-0.0166016C20.057766,20.6340942,19.9789085,20.6008911,19.8933372,20.5620117
			z"/>
		<path d="M20.1714134,20.798584c-0.0280151,0.0139771-0.055542,0.0430298-0.0830078,0.0871582
			c0.0881958,0.0222778,0.1878052,0.0332031,0.2988281,0.0332031c0.0830078,0,0.1629028-0.0095825,0.2407227-0.0290527
			c0.0772705-0.0192261,0.1546021-0.0427856,0.2324219-0.0705566c-0.1883545-0.0773315-0.395874-0.1162109-0.6225586-0.1162109
			C20.2212181,20.7529297,20.1988792,20.7848511,20.1714134,20.798584z"/>
		<path d="M31.6928978,19.2463379c-0.2049561-0.722168-0.491333-1.3971558-0.8591309-2.0253906
			c-0.3683472-0.6279907-0.812439-1.2020874-1.3322754-1.7224121c-0.5203857-0.5200806-1.0946655-0.9641724-1.7224121-1.3322754
			c-0.6282959-0.3678589-1.3032227-0.6542358-2.0253906-0.8591309C25.0315208,13.102478,24.2803001,13,23.5000267,13
			c-0.0045166,0-0.008667,0.0008545-0.0131836,0.0008545S23.4781151,13,23.4735985,13
			c-0.7802734,0-1.5314941,0.102478-2.2536621,0.3071289c-0.722168,0.204895-1.397644,0.491272-2.0253906,0.8591309
			c-0.6282349,0.368103-1.2025757,0.8121948-1.7224121,1.3322754c-0.5203247,0.5203247-0.9644165,1.0944214-1.3322754,1.7224121
			c-0.3683472,0.6282349-0.6547241,1.3032227-0.8591309,2.0253906c-0.204895,0.722168-0.3071289,1.4733887-0.3071289,2.2536621
			s0.1022339,1.5314941,0.3071289,2.2536621c0.2044067,0.722168,0.4907837,1.3973999,0.8591309,2.0253906
			c0.3678589,0.6282349,0.8119507,1.2023315,1.3322754,1.7224121c0.5198364,0.5203247,1.0941772,0.9644165,1.7224121,1.3322754
			c0.6277466,0.3683472,1.3032227,0.6547241,2.0253906,0.8591309C21.9421043,29.8977661,22.693325,30,23.4735985,30
			c0.0045166,0,0.008728-0.0008545,0.0132446-0.0008545S23.4955101,30,23.5000267,30
			c0.7802734,0,1.5314941-0.1022339,2.2536621-0.3071289c0.722168-0.2044067,1.3970947-0.4907837,2.0253906-0.8591309
			c0.6277466-0.3678589,1.2020264-0.8119507,1.7224121-1.3322754c0.5198364-0.5200806,0.9639282-1.0941772,1.3322754-1.7224121
			c0.3677979-0.6279907,0.6541748-1.3032227,0.8591309-2.0253906c0.2044067-0.722168,0.3071289-1.4733887,0.3071289-2.2536621
			S31.8973045,19.9685059,31.6928978,19.2463379z M22.2466087,27.1860352
			c0.0108643,0.0222778,0.0233154,0.0181274,0.0373535-0.0124512c0.0134888-0.0303345,0.0150146-0.0510864,0.0041504-0.0622559
			l0.3486328,0.265625c0.1162109,0,0.230835-0.0386353,0.3444824-0.1162109
			c0.1130981-0.0773315,0.2127075-0.1727905,0.2988281-0.286377c0.0855713-0.1133423,0.1561279-0.2350464,0.2116699-0.3652344
			c0.0549927-0.1299438,0.0830078-0.2503052,0.0830078-0.361084c0.1878052-0.1162109,0.366272-0.210144,0.5354004-0.2822266
			c0.1685791-0.0718384,0.3154297-0.1548462,0.4399414-0.2490234c0.1245117-0.0939331,0.2183838-0.2171021,0.2822266-0.3693848
			c0.0632935-0.1520386,0.0840454-0.3693848,0.0622559-0.6516113l0.2822266-0.2988281
			c0-0.1050415-0.0539551-0.2254028-0.1618652-0.361084c-0.1079102-0.135437-0.244873-0.2739258-0.4108887-0.4150391
			s-0.3527832-0.2793579-0.5603027-0.4150391c-0.2075195-0.135437-0.4108887-0.2544556-0.6101074-0.3569336
			c-0.1992188-0.1022339-0.3859863-0.1867676-0.5603027-0.2531738s-0.3112793-0.0996094-0.4108887-0.0996094
			c-0.0166016-0.0166016-0.0539551-0.046936-0.1120605-0.0913086c-0.0581055-0.0441284-0.1219482-0.0884399-0.190918-0.1328125
			c-0.069519-0.0441284-0.1359253-0.0842896-0.1992188-0.1203613c-0.0638428-0.0358276-0.1037598-0.0565796-0.1203613-0.0622559
			l0.0166016-0.0664063c0-0.0220337-0.0238647-0.039978-0.0705566-0.0539551
			c-0.0472412-0.0137329-0.0705566-0.039978-0.0705566-0.0788574c-0.0389404-0.0109253-0.1037598-0.0316772-0.1950684-0.0622559
			c-0.0913086-0.0303345-0.1867676-0.0622559-0.286377-0.095459s-0.1940308-0.0622559-0.2822266-0.0871582
			c-0.0887451-0.0249023-0.1468506-0.0373535-0.1743164-0.0373535c-0.2381592,0-0.4389038,0.0402222-0.6018066,0.1203613
			c-0.1634521,0.0803833-0.2921143,0.2282715-0.3859863,0.4440918l-0.1743164-0.0415039
			c0.0108643,0.0498047,0.0290527,0.1066284,0.0539551,0.170166c0.0249023,0.0637817,0.0373535,0.12323,0.0373535,0.1784668
			c0,0.0886841-0.0197144,0.1716919-0.0581055,0.2490234c-0.0389404,0.0775757-0.0861206,0.1535645-0.1411133,0.2282715
			c-0.055542,0.074707-0.1120605,0.1481323-0.170166,0.2199707c-0.0581055,0.0720825-0.1037598,0.1467896-0.1369629,0.2241211
			l0.1245117,0.0581055c-0.055542,0.1107788-0.0721436,0.2394409-0.0498047,0.3859863
			c0.0217896,0.1467896,0.0648193,0.3071289,0.1286621,0.4814453c0.0632935,0.1743164,0.1395264,0.3584595,0.2282715,0.552002
			c0.0881958,0.1937866,0.1727295,0.388855,0.2531738,0.5852051c0.079895,0.1965942,0.1478271,0.3930054,0.2033691,0.5893555
			c0.0549927,0.1965942,0.0830078,0.3833618,0.0830078,0.5603027c0,0.1162109-0.0181885,0.2339478-0.0539551,0.3527832
			c-0.0363159,0.1190796-0.0721436,0.2365723-0.1079102,0.3527832c-0.0230713,0.0737915-0.0380859,0.147522-0.0552979,0.2213135
			c-0.0005493-0.0003662-0.0012817-0.0005493-0.0018311-0.0009155c-0.5150757-0.3015747-0.9925537-0.6709595-1.4198608-1.0987549
			c-0.4274292-0.4271851-0.796936-0.9047241-1.0988159-1.4203491c-0.302124-0.5150757-0.5408936-1.0786133-0.7099609-1.6759644
			C16.557766,22.7592163,16.4735985,22.1387329,16.4735985,21.5c0-0.2151489,0.0233154-0.4244385,0.0423584-0.6347656
			c0.0328979,0.019104,0.0557251,0.0388794,0.090271,0.0578613c0.1851807,0.102478,0.3776855,0.1937866,0.5769043,0.2739258
			c0.1992188,0.0803833,0.3994751,0.1467896,0.6018066,0.1992188c0.2017822,0.0526733,0.3911743,0.0817261,0.5686035,0.0871582
			l0.2988281,0.5063477c0.0166016,0.0222778,0.020752,0.0139771,0.0124512-0.0249023
			c-0.0083008-0.0386353-0.015564-0.0635376-0.020752-0.074707l0.6640625,0.3735352l0.2822266-0.1494141
			c-0.1276245-0.0498047-0.24646-0.1369629-0.3569336-0.2614746c-0.1110229-0.1245117-0.2189331-0.244873-0.3237305-0.361084
			c-0.1053467-0.1162109-0.2132568-0.2046509-0.3237305-0.265625c-0.1110229-0.06073-0.2324219-0.046936-0.3652344,0.0415039
			l-0.1079102-0.0498047c0.0274658-0.1271362,0.0715942-0.2474976,0.1328125-0.361084
			c0.0606689-0.1133423,0.1162109-0.230896,0.1660156-0.3527832c-0.1551514,0.0609741-0.3128662,0.1177368-0.4731445,0.170166
			c-0.1608276,0.0526733-0.3237305,0.0788574-0.4897461,0.0788574c-0.1883545,0-0.3226929-0.0565796-0.4025879-0.170166
			c-0.0804443-0.1133423-0.1203613-0.258606-0.1203613-0.435791l0.0498047-0.3735352
			c0.0715942-0.0773315,0.1535645-0.1340942,0.244873-0.170166c0.0913086-0.0358276,0.1867676-0.0581055,0.286377-0.0664063
			s0.2002563-0.0067749,0.3029785,0.0041504c0.1021729,0.0111694,0.2002563,0.0222778,0.2946777,0.0332031l-0.1743164-0.1162109
			l0.3569336-0.0332031c0.2210083,0,0.4093018,0.055481,0.5644531,0.1660156
			c0.1546021,0.1107788,0.270813,0.2713013,0.3486328,0.4814453c0.0166016-0.0939331,0.020752-0.1852417,0.0124512-0.2739258
			c-0.0083008-0.0884399-0.0124512-0.1797485-0.0124512-0.2739258c0-0.1548462,0.0425415-0.2752075,0.1286621-0.361084
			c0.0855713-0.0856323,0.1727295-0.1506958,0.2614746-0.1950684c0.0881958-0.0441284,0.1561279-0.0718384,0.2033691-0.0830078
			c0.0466919-0.0109253,0.0316162-0.0166016-0.0456543-0.0166016c-0.0166016,0-0.0166016-0.0026245,0-0.0083008
			c0.0166016-0.0054321,0.0383911-0.0124512,0.0664063-0.020752c0.0274658-0.0083008,0.0539551-0.020752,0.0788574-0.0373535
			s0.0373535-0.0332031,0.0373535-0.0498047c-0.0389404-0.0498047-0.0705566-0.0897827-0.095459-0.1203613
			c-0.0249023-0.0303345-0.0472412-0.0622559-0.0664063-0.095459c-0.0197144-0.0332031-0.0290527-0.0581055-0.0290527-0.074707
			l-0.0166016-0.0332031l0.1079102,0.0581055c0.005188-0.0109253,0.0041504-0.0275269-0.0041504-0.0498047
			c-0.0083008-0.0220337-0.015564-0.0441284-0.020752-0.0664063c-0.0057373-0.0220337-0.0041504-0.0415039,0.0041504-0.0581055
			s0.0316162-0.0249023,0.0705566-0.0249023l0.0332031,0.0083008l-0.0415039,0.2905273l0.0581055-0.0249023v-0.2324219
			l0.7636719-0.2988281l-0.0332031-0.1411133c0.1328125-0.06073,0.2640381-0.1312866,0.3942871-0.2116699
			c0.1296997-0.0801392,0.250061-0.1672974,0.361084-0.2614746l-0.4814453-0.1577148
			c0-0.0552368,0.0332031-0.1008911,0.0996094-0.1369629c0.0664063-0.0358276,0.1463013-0.0648804,0.2407227-0.0871582
			c0.0938721-0.0220337,0.1976318-0.0427856,0.3112793-0.0622559c0.1130981-0.0192261,0.2168579-0.0456543,0.3112793-0.0788574
			c0.0938721-0.0332031,0.1727295-0.074707,0.2365723-0.1245117c0.0632935-0.0498047,0.095459-0.1162109,0.095459-0.1992188
			c0-0.0664063-0.0472412-0.1382446-0.1411133-0.2158203c-0.0944214-0.0773315-0.2023315-0.1506958-0.3237305-0.2199707
			c-0.1219482-0.0690308-0.244873-0.1299438-0.3693848-0.1826172c-0.1245117-0.0524292-0.2147827-0.0897827-0.2697754-0.1120605
			l-0.2988281,0.2324219c-0.0996094-0.1271362-0.1774292-0.230896-0.2324219-0.3112793
			c-0.055542-0.0801392-0.1136475-0.1437378-0.1743164-0.190918c-0.0612183-0.046936-0.1369629-0.0788574-0.2282715-0.095459
			c-0.0556641-0.0101318-0.1518555-0.0112305-0.2352905-0.0151978c0.5139771-0.3008423,1.0765991-0.5391846,1.6721191-0.7081299
			C22.2149925,14.5842285,22.835598,14.5,23.4735985,14.5s1.258667,0.0842285,1.8441772,0.2501221
			c0.5966187,0.1693115,1.1608276,0.4083862,1.6761475,0.710083c0.0127563,0.0075073,0.0241089,0.017395,0.0368652,0.0249634
			l-1.3725586,0.4284058l0.1411133,0.2075195l-0.1245117,0.4814453l0.1328125,0.2822266
			c0.1270752-0.0552368,0.2583618-0.0801392,0.3942871-0.074707c0.135376,0.0056763,0.2681885,0.007019,0.3984375,0.0041504
			c0.1296997-0.0026245,0.2557373-0.0249023,0.3776855-0.0664063c0.1213989-0.0415039,0.2324219-0.142395,0.3320313-0.3029785
			l-0.0498047-0.1577148c0-0.0773315,0.0290527-0.1520386,0.0871582-0.2241211
			c0.0581055-0.0718384,0.1286621-0.1369629,0.2116699-0.1950684c0.0064697-0.0045166,0.013916-0.0072021,0.0204468-0.0116577
			c0.2931519,0.2144165,0.5757446,0.4439697,0.8343506,0.7023926c0.0968628,0.0969238,0.1795044,0.2051392,0.2703247,0.3070679
			c-0.1901855,0.0298462-0.3821411,0.0568848-0.5772705,0.0812988c-0.1992188,0.0249023-0.395874,0.0443726-0.5893555,0.0581055
			c-0.1940308,0.0139771-0.3683472,0.020752-0.5229492,0.020752l-0.1245117,0.0166016l-0.5478516,0.6640625l0.0249023,0.0996094
			c-0.1276245,0.1716919-0.2614746,0.3058472-0.4025879,0.4025879c-0.1411133,0.0969849-0.2645874,0.1965942-0.3693848,0.2988281
			c-0.1053467,0.102478-0.1784668,0.2311401-0.2199707,0.3859863c-0.0415039,0.1550903-0.0238647,0.3764038,0.0539551,0.6640625
			l-0.2075195,0.53125l0.2988281,0.1577148c-0.0166016,0.0166016-0.0456543,0.027771-0.0871582,0.0332031
			c-0.0415039,0.0056763-0.0679932-0.0054321-0.0788574-0.0332031l0.0664063,0.2490234l0.190918,0.0249023l-0.0913086,0.074707
			c0,0.0443726,0.0134888,0.0830078,0.0415039,0.1162109c0.0274658,0.0332031,0.0622559,0.0637817,0.1037598,0.0913086
			c0.0415039,0.027771,0.0840454,0.055481,0.1286621,0.0830078c0.0440674,0.027771,0.079895,0.0581055,0.1079102,0.0913086
			l-0.0166016,0.0249023c0,0.0609741,0.039917,0.1245117,0.1203613,0.190918
			c0.079895,0.0664063,0.1743164,0.1273804,0.2822266,0.1826172c0.1079102,0.055481,0.2142334,0.102478,0.3195801,0.1411133
			c0.1047974,0.0388794,0.1851807,0.0581055,0.2407227,0.0581055c0.0772705,0,0.1618652-0.0166016,0.2531738-0.0498047
			s0.175354-0.06073,0.2531738-0.0830078L27.3100853,21.5l0.1328125,0.0166016c0.0772705,0,0.1519775-0.0095825,0.2241211-0.0290527
			c0.0715942-0.0192261,0.1421509-0.0427856,0.2116699-0.0705566c0.0689697-0.0275269,0.1395264-0.0565796,0.2116699-0.0871582
			c0.0715942-0.0303345,0.1436768-0.0539551,0.2158203-0.0705566l-0.0498047,0.0415039
			C28.3725853,21.3894653,28.5095482,21.4558716,28.667263,21.5c0.1577148,0.0443726,0.3081665,0.074707,0.4523926,0.0913086
			c0.0217896,0.0388794,0.0342407,0.0900269,0.0373535,0.1535645c0.0025635,0.0637817,0.0010376,0.1315308-0.0041504,0.2033691
			c-0.0057373,0.0720825-0.015564,0.1411133-0.0290527,0.2075195c-0.0140381,0.0664063-0.0238647,0.1190796-0.0290527,0.1577148
			c0.1328125,0.2103882,0.2334595,0.3818359,0.3029785,0.5146484c0.0689697,0.1328125,0.1172485,0.2463989,0.1452637,0.340332
			c0.0274658,0.0941772,0.0373535,0.1784668,0.0290527,0.2531738s-0.020752,0.1564331-0.0373535,0.244873
			c-0.0166016,0.0886841-0.03479,0.1950684-0.0539551,0.3195801c-0.0197144,0.1245117-0.0290527,0.286377-0.0290527,0.4855957
			c0,0.1680298,0.0354614,0.3302002,0.0916748,0.4888306c-0.0109863,0.0192261-0.0188599,0.0407715-0.0300293,0.0598755
			c-0.302002,0.5151367-0.671814,0.993103-1.098938,1.4204102c-0.4273071,0.4273071-0.9050903,0.7969971-1.4204102,1.098938
			c-0.515625,0.3023071-1.0792236,0.5411377-1.6762085,0.710083C24.7328148,28.4158325,24.1123924,28.5,23.4735985,28.5
			c-0.5216064,0-1.0256958-0.0704956-1.5140991-0.1816406c0.0671387-0.1104736,0.131958-0.2230835,0.1875-0.34375
			c0.0664063-0.1437378,0.1130981-0.2848511,0.1411133-0.4233398
			C22.3155785,27.4130249,22.3016014,27.2913208,22.2466087,27.1860352z M19.7563744,16.2041016l-0.2739258,0.3901367
			l0.0166016,0.1826172l-0.1328125,0.0996094c-0.1219482,0-0.2189331-0.0373535-0.2905273-0.1120605
			c-0.0721436-0.074707-0.1400757-0.1548462-0.2033691-0.2407227c-0.0390625-0.0523682-0.0869751-0.098938-0.1320801-0.1472778
			c0.2642822-0.2446289,0.5462646-0.4655762,0.8427124-0.6658936L19.7563744,16.2041016z"/>
	</g>
</g>
<g>
</g>
<g>
</g>
<g>
</g>
<g>
</g>
<g>
</g>
<g>
</g>
<g>
</g>
<g>
</g>
<g>
</g>
<g>
</g>
<g>
</g>
<g>
</g>
<g>
</g>
<g>
</g>
<g>
</g>
</svg>
