<?xml version="1.0" encoding="utf-8"?>
<!-- Generator: Adobe Illustrator 19.1.0, SVG Export Plug-In . SVG Version: 6.00 Build 0)  -->
<svg version="1.1" id="Layer_1" xmlns="http://www.w3.org/2000/svg" xmlns:xlink="http://www.w3.org/1999/xlink" x="0px" y="0px"
	 width="32px" height="32px" viewBox="0 0 32 32" style="enable-background:new 0 0 32 32;" xml:space="preserve">
<g>
	<path d="M0,11c0.1040039,0,0.2446289,0.0029297,0.421875,0.0078125c0.1767578,0.0053711,0.3618164,0.0107422,0.5546875,0.015625
		C1.1689453,11.0288086,1.3486328,11.03125,1.515625,11.03125c0.1665039,0,0.2968696-0.0102539,0.390625-0.03125L30,6
		c0.09375-0.0102539,0.2290039-0.0180664,0.40625-0.0234375c0.1767578-0.0048828,0.3671875-0.0048828,0.5703125,0
		c0.203125,0.0053711,0.3955078,0.0107422,0.578125,0.015625C31.7368164,5.9975586,31.8852539,6,32,6v18
		c-0.1147461,0-0.2734375,0.0029297-0.4765625,0.0078125c-0.203125,0.0053711-0.4140625,0.0078125-0.6328125,0.0078125
		s-0.4272461,0-0.625,0c-0.1982422,0-0.34375-0.0102539-0.4375-0.03125l-11.921875-2.125
		c-0.1044922,0.59375-0.3046875,1.1459961-0.6015625,1.65625c-0.296875,0.5107422-0.6640625,0.9482422-1.1015625,1.3125
		c-0.4375,0.3647461-0.9296875,0.6513672-1.4765625,0.859375C14.1796875,25.8959961,13.6040039,26,13,26
		c-0.6875057,0-1.3359375-0.1298828-1.9453125-0.390625c-0.609375-0.2602539-1.140625-0.6171875-1.59375-1.0703125
		s-0.8100586-0.984375-1.0703125-1.59375C8.1298828,22.3359375,8,21.6875,8,21c0-0.2915039,0.03125-0.5883789,0.09375-0.890625
		L3.96875,19.375c-0.1982422-0.0415039-0.3803711-0.078125-0.546875-0.109375c-0.1669922-0.03125-0.328125-0.0625-0.4843805-0.09375
		c-0.1562445-0.03125-0.3178656-0.0595703-0.4843695-0.0859375C2.2861328,19.0600586,2.1040039,19.03125,1.90625,19
		c-0.125-0.0102539-0.2685547-0.0180664-0.4296875-0.0234375c-0.1616211-0.0048828-0.3310547-0.0048828-0.5078125,0
		c-0.1772461,0.0053711-0.3515625,0.0107422-0.5234375,0.015625C0.2734375,18.9975586,0.125,19,0,19V11z M30,8.015625L2,13v4
		c0.0727539,0,0.1298828,0.0053711,0.171875,0.015625L30,21.984375V8.015625z M13,24c0.3642578,0,0.7133789-0.0625,1.046875-0.1875
		c0.3330078-0.125,0.6298828-0.2993164,0.8906193-0.5234375C15.1977539,23.0654297,15.4165039,22.8022461,15.59375,22.5
		c0.1767578-0.3017578,0.296875-0.6352539,0.359375-1l-5.90625-1.046875C10.015625,20.640625,10,20.8232422,10,21
		c0,0.4169922,0.078125,0.8076172,0.234375,1.171875c0.15625,0.3647461,0.3696289,0.6826172,0.640625,0.953125
		c0.2705078,0.2709961,0.5883789,0.484375,0.953125,0.640625C12.1923828,23.921875,12.5830078,24,13,24z"/>
</g>
</svg>
