<?xml version="1.0" encoding="UTF-8"?>
<svg width="24px" height="24px" viewBox="0 0 24 24" version="1.1" xmlns="http://www.w3.org/2000/svg" xmlns:xlink="http://www.w3.org/1999/xlink">
    <!-- Generator: Sketch 52.5 (67469) - http://www.bohemiancoding.com/sketch -->
    <title>Icon - settings</title>
    <desc>Created with Sketch.</desc>
    <g id="Icon---settings" stroke="none" stroke-width="1" fill="none" fill-rule="evenodd">
        <g id="Group-22">
            <polygon id="Path" points="0.885940606 0.232671509 23.9259406 0.232671509 23.9259406 23.2726715 0.885940606 23.2726715"></polygon>
            <path d="M19.4665389,12.6836715 C19.5045389,12.3796715 19.5330389,12.0756715 19.5330389,11.7526715 C19.5330389,11.4296715 19.5045389,11.1256715 19.4665389,10.8216715 L21.4710389,9.25417151 C21.6515389,9.11167151 21.6990389,8.85517151 21.5850389,8.64617151 L19.6850389,5.35917151 C19.5995389,5.20717151 19.4380389,5.12167151 19.2670389,5.12167151 C19.2100389,5.12167151 19.1530389,5.13117151 19.1055389,5.15017151 L16.7400389,6.10017151 C16.2460389,5.72017151 15.7140389,5.40667151 15.1345389,5.16917151 L14.7735389,2.65167151 C14.7450389,2.42367151 14.5455389,2.25267151 14.3080389,2.25267151 L10.5080389,2.25267151 C10.2705389,2.25267151 10.0710389,2.42367151 10.0425389,2.65167151 L9.68153891,5.16917151 C9.10203891,5.40667151 8.57003891,5.72967151 8.07603891,6.10017151 L5.71053891,5.15017151 C5.65353891,5.13117151 5.59653891,5.12167151 5.53953891,5.12167151 C5.37803891,5.12167151 5.21653891,5.20717151 5.13103891,5.35917151 L3.23103891,8.64617151 C3.10753891,8.85517151 3.16453891,9.11167151 3.34503891,9.25417151 L5.34953891,10.8216715 C5.31153891,11.1256715 5.28303891,11.4391715 5.28303891,11.7526715 C5.28303891,12.0661715 5.31153891,12.3796715 5.34953891,12.6836715 L3.34503891,14.2511715 C3.16453891,14.3936715 3.11703891,14.6501715 3.23103891,14.8591715 L5.13103891,18.1461715 C5.21653891,18.2981715 5.37803891,18.3836715 5.54903891,18.3836715 C5.60603891,18.3836715 5.66303891,18.3741715 5.71053891,18.3551715 L8.07603891,17.4051715 C8.57003891,17.7851715 9.10203891,18.0986715 9.68153891,18.3361715 L10.0425389,20.8536715 C10.0710389,21.0816715 10.2705389,21.2526715 10.5080389,21.2526715 L14.3080389,21.2526715 C14.5455389,21.2526715 14.7450389,21.0816715 14.7735389,20.8536715 L15.1345389,18.3361715 C15.7140389,18.0986715 16.2460389,17.7756715 16.7400389,17.4051715 L19.1055389,18.3551715 C19.1625389,18.3741715 19.2195389,18.3836715 19.2765389,18.3836715 C19.4380389,18.3836715 19.5995389,18.2981715 19.6850389,18.1461715 L21.5850389,14.8591715 C21.6990389,14.6501715 21.6515389,14.3936715 21.4710389,14.2511715 L19.4665389,12.6836715 Z M17.5855389,11.0591715 C17.6235389,11.3536715 17.6330389,11.5531715 17.6330389,11.7526715 C17.6330389,11.9521715 17.6140389,12.1611715 17.5855389,12.4461715 L17.4525389,13.5196715 L18.2980389,14.1846715 L19.3240389,14.9826715 L18.6590389,16.1321715 L17.4525389,15.6476715 L16.4645389,15.2486715 L15.6095389,15.8946715 C15.2010389,16.1986715 14.8115389,16.4266715 14.4220389,16.5881715 L13.4150389,16.9966715 L13.2630389,18.0701715 L13.0730389,19.3526715 L11.7430389,19.3526715 L11.5625389,18.0701715 L11.4105389,16.9966715 L10.4035389,16.5881715 C9.99503891,16.4171715 9.61503891,16.1986715 9.23503891,15.9136715 L8.37053891,15.2486715 L7.36353891,15.6571715 L6.15703891,16.1416715 L5.49203891,14.9921715 L6.51803891,14.1941715 L7.36353891,13.5291715 L7.23053891,12.4556715 C7.20203891,12.1611715 7.18303891,11.9426715 7.18303891,11.7526715 C7.18303891,11.5626715 7.20203891,11.3441715 7.23053891,11.0591715 L7.36353891,9.98567151 L6.51803891,9.32067151 L5.49203891,8.52267151 L6.15703891,7.37317151 L7.36353891,7.85767151 L8.35153891,8.25667151 L9.20653891,7.61067151 C9.61503891,7.30667151 10.0045389,7.07867151 10.3940389,6.91717151 L11.4010389,6.50867151 L11.5530389,5.43517151 L11.7430389,4.15267151 L13.0635389,4.15267151 L13.2440389,5.43517151 L13.3960389,6.50867151 L14.4030389,6.91717151 C14.8115389,7.08817151 15.1915389,7.30667151 15.5715389,7.59167151 L16.4360389,8.25667151 L17.4430389,7.84817151 L18.6495389,7.36367151 L19.3145389,8.51317151 L18.2980389,9.32067151 L17.4525389,9.98567151 L17.5855389,11.0591715 Z M12.4059406,8.47350484 C10.594201,8.47350484 9.12677394,9.94093193 9.12677394,11.7526715 C9.12677394,13.5644111 10.594201,15.0318382 12.4059406,15.0318382 C14.2176802,15.0318382 15.6851073,13.5644111 15.6851073,11.7526715 C15.6851073,9.94093193 14.2176802,8.47350484 12.4059406,8.47350484 Z M12.4059406,13.1318382 C11.6473989,13.1318382 11.0267739,12.5112132 11.0267739,11.7526715 C11.0267739,10.9941298 11.6473989,10.3735048 12.4059406,10.3735048 C13.1644823,10.3735048 13.7851073,10.9941298 13.7851073,11.7526715 C13.7851073,12.5112132 13.1644823,13.1318382 12.4059406,13.1318382 Z" id="Shape" fill="#FFFFFF" fill-rule="nonzero"></path>
        </g>
    </g>
</svg>