<?xml version="1.0" encoding="utf-8"?>
<!-- Generator: Adobe Illustrator 14.0.0, SVG Export Plug-In . SVG Version: 6.00 Build 43363)  -->
<!DOCTYPE svg PUBLIC "-//W3C//DTD SVG 1.0//EN" "http://www.w3.org/TR/2001/REC-SVG-20010904/DTD/svg10.dtd">
<svg version="1.0" id="Layer_1" xmlns="http://www.w3.org/2000/svg" xmlns:xlink="http://www.w3.org/1999/xlink" x="0px" y="0px"
	 width="44.356px" height="99.802px" viewBox="0 0 44.356 99.802" enable-background="new 0 0 44.356 99.802" xml:space="preserve">
<g>
	<g>
		<path d="M30.481,84.528c0.588,0,1.064-0.526,1.064-1.174v-1.111c0-0.647-0.477-1.174-1.064-1.174H13.896
			c-0.59,0-1.067,0.526-1.067,1.174v1.111c0,0.647,0.477,1.174,1.067,1.174H30.481z"/>
	</g>
	<g>
		<path d="M30.481,89.582c0.588,0,1.064-0.525,1.064-1.173v-1.111c0-0.648-0.477-1.174-1.064-1.174H13.896
			c-0.59,0-1.067,0.525-1.067,1.174v1.111c0,0.647,0.477,1.173,1.067,1.173H30.481z"/>
	</g>
	<g>
		<path d="M30.481,94.639c0.588,0,1.064-0.528,1.064-1.174v-1.114c0-0.645-0.477-1.174-1.064-1.174H13.896
			c-0.59,0-1.067,0.529-1.067,1.174v1.114c0,0.646,0.477,1.174,1.067,1.174H30.481z"/>
	</g>
	<g>
		<path d="M27.639,96.406c-1,1.997-3.065,3.396-5.451,3.396c-2.371,0-4.47-1.42-5.479-3.396H27.639z"/>
	</g>
</g>
<path d="M31.545,75.432c0-0.954-0.771-1.726-1.726-1.726H14.555c-0.952,0-1.726,0.771-1.726,1.726v2.759
	c0,0.953,0.773,1.726,1.726,1.726H29.82c0.955,0,1.726-0.772,1.726-1.726V75.432z"/>
<path d="M31.545,75.084c0-0.951-0.771-1.726-1.726-1.726H14.555c-0.952,0-1.726,0.774-1.726,1.726v2.762
	c0,0.953,0.773,1.726,1.726,1.726H29.82c0.955,0,1.726-0.772,1.726-1.726V75.084z"/>
<path d="M40.704,32.346c-4.63,0.025-9.801,0.85-13.223,4.271c-4.238,4.238-4.396,10.299-3.52,15.869h-3.517
	c0.795-5.442,0.534-11.287-3.588-15.408c-0.368-0.367-0.756-0.697-1.163-1.006c8.717-2.85,17.432-5.698,26.147-8.547
	c4.423-1.445,2.529-8.444-1.925-6.987c-12.474,4.078-24.948,8.154-37.422,12.233c-3.523,1.152-3.034,5.825-0.435,6.94
	c0.048,0.023,0.097,0.043,0.147,0.063c0.003,0.001,0.003,0.002,0.005,0.002c0.413,0.171,0.886,0.272,1.419,0.276
	c0.823,0.004,1.643,0.033,2.461,0.096c0.224,0.018,0.448,0.04,0.671,0.066c0.021,0.002,0.038,0.006,0.061,0.009
	c0.437,0.066,0.87,0.159,1.302,0.258c0.419,0.096,0.834,0.22,1.244,0.35c0.173,0.058,0.347,0.122,0.518,0.187
	c0.023,0.01,0.044,0.021,0.072,0.032c0.372,0.172,0.724,0.381,1.073,0.593c0.114,0.073,0.221,0.15,0.332,0.227
	c0.036,0.031,0.083,0.07,0.145,0.123c0.23,0.201,0.44,0.425,0.647,0.648c0.042,0.049,0.073,0.086,0.101,0.119
	c0.093,0.135,0.184,0.267,0.27,0.404c0.063,0.1,0.478,0.947,0.438,0.804c0.147,0.391,0.262,0.797,0.368,1.201
	c0.48,1.817,0.331,4.288-0.053,6.514c-0.046,0.27-0.068,0.539-0.071,0.803H8.754c-1.716,0-3.106,1.529-3.106,3.412v14.399
	c0,1.152,0.524,2.171,1.324,2.787l6.092,5.972h0.005c0.299,0.513,0.85,0.86,1.486,0.86H29.82c0.638,0,1.187-0.348,1.486-0.86h0.006
	l5.443-5.972c0.801-0.616,1.323-1.635,1.323-2.787V55.898c0-1.883-1.39-3.412-3.105-3.412h-3.868
	c0.039-0.411,0.026-0.839-0.049-1.267c-0.384-2.223-0.534-4.693-0.055-6.511c0.107-0.405,0.22-0.81,0.369-1.202
	c-0.04,0.144,0.374-0.703,0.438-0.802c0.086-0.139,0.178-0.272,0.27-0.405c0.028-0.033,0.062-0.071,0.102-0.118
	c0.207-0.224,0.415-0.449,0.646-0.649c0.065-0.052,0.109-0.092,0.146-0.123c0.11-0.078,0.22-0.154,0.332-0.225
	c0.349-0.214,0.701-0.421,1.072-0.595c0.027-0.012,0.051-0.022,0.071-0.032c0.174-0.065,0.346-0.128,0.52-0.187
	c0.411-0.13,0.822-0.255,1.242-0.351c0.433-0.097,0.865-0.19,1.304-0.257c0.022-0.004,0.04-0.006,0.059-0.009
	c0.226-0.025,0.448-0.048,0.673-0.066c0.82-0.062,1.639-0.092,2.46-0.097C45.375,39.567,45.377,32.321,40.704,32.346z"/>
<path d="M4.439,27.635c12.474-4.078,24.948-8.154,37.422-12.233c4.419-1.444,2.528-8.441-1.927-6.987
	c-12.473,4.079-24.946,8.157-37.42,12.234C-1.905,22.095-0.014,29.092,4.439,27.635L4.439,27.635z"/>
<path d="M4.377,15.514c8.695-2.842,17.391-5.685,26.085-8.527C34.883,5.542,32.991-1.456,28.537,0
	c-8.696,2.842-17.39,5.685-26.085,8.527C-1.97,9.973-0.076,16.97,4.377,15.514L4.377,15.514z"/>
</svg>
