<?xml version="1.0" encoding="utf-8"?>
<!-- Generator: Adobe Illustrator 14.0.0, SVG Export Plug-In . SVG Version: 6.00 Build 43363)  -->
<!DOCTYPE svg PUBLIC "-//W3C//DTD SVG 1.1//EN" "http://www.w3.org/Graphics/SVG/1.1/DTD/svg11.dtd">
<svg version="1.1" id="Layer_1" xmlns="http://www.w3.org/2000/svg" xmlns:xlink="http://www.w3.org/1999/xlink" x="0px" y="0px"
	 width="100px" height="100px" viewBox="-22.013 0 100 100" enable-background="new -22.013 0 100 100" xml:space="preserve">
<g>
	<g>
		<path d="M35.921,74.975c4.263,0,5.564-1.312,6.505-6.951c1.121-6.729,2.943-13.681,9.816-26.063
			c2.302-4.153,3.729-8.884,3.729-13.973C55.973,12.53,43.442,0,27.987,0C12.531,0,0,12.53,0,27.986c0,5.089,1.429,9.82,3.73,13.973
			c6.873,12.384,8.695,19.336,9.816,26.064c0.938,5.64,2.242,6.949,6.504,6.949C23.416,74.975,30.764,74.975,35.921,74.975z"/>
	</g>
	<g>
		<g>
			<path d="M37.91,81.514c0.713,0,1.291-0.637,1.291-1.42v-1.347c0-0.782-0.578-1.42-1.291-1.42H17.84
				c-0.715,0-1.292,0.638-1.292,1.42v1.347c0,0.783,0.576,1.42,1.292,1.42H37.91z"/>
		</g>
		<g>
			<path d="M37.91,87.632c0.713,0,1.291-0.638,1.291-1.422v-1.343c0-0.784-0.578-1.424-1.291-1.424H17.84
				c-0.715,0-1.292,0.64-1.292,1.424v1.343c0,0.784,0.576,1.422,1.292,1.422H37.91z"/>
		</g>
		<g>
			<path d="M37.91,93.75c0.713,0,1.291-0.636,1.291-1.42v-1.346c0-0.784-0.578-1.42-1.291-1.42H17.84
				c-0.715,0-1.292,0.636-1.292,1.42v1.346c0,0.784,0.576,1.42,1.292,1.42H37.91z"/>
		</g>
		<g>
			<path d="M34.472,95.891C33.26,98.307,30.761,100,27.874,100c-2.869,0-5.41-1.719-6.632-4.109H34.472z"/>
		</g>
	</g>
</g>
</svg>
