<?xml version="1.0" encoding="utf-8"?>
<!-- Generator: Adobe Illustrator 14.0.0, SVG Export Plug-In . SVG Version: 6.00 Build 43363)  -->
<!DOCTYPE svg PUBLIC "-//W3C//DTD SVG 1.0//EN" "http://www.w3.org/TR/2001/REC-SVG-20010904/DTD/svg10.dtd">
<svg version="1.0" id="Layer_1" xmlns="http://www.w3.org/2000/svg" xmlns:xlink="http://www.w3.org/1999/xlink" x="0px" y="0px"
	 width="97.073px" height="100px" viewBox="0 0 97.073 100" enable-background="new 0 0 97.073 100" xml:space="preserve">
<g>
	<polygon points="72.562,60.352 62.54,60.352 53.788,80.878 65.564,80.878 56.651,98.858 76.543,75.943 66.835,75.943 
		72.562,60.352 	"/>
	<path d="M56.651,100c-0.219,0-0.439-0.062-0.632-0.191c-0.479-0.318-0.646-0.942-0.391-1.458l8.094-16.331h-9.935
		c-0.384,0-0.742-0.191-0.953-0.512c-0.212-0.32-0.248-0.727-0.097-1.077l8.751-20.526c0.179-0.421,0.593-0.694,1.051-0.694h10.022
		c0.374,0,0.725,0.183,0.938,0.487c0.214,0.307,0.265,0.697,0.135,1.048l-5.162,14.058h8.07c0.447,0,0.852,0.259,1.04,0.667
		c0.185,0.408,0.114,0.885-0.178,1.223L57.515,99.606C57.291,99.865,56.973,100,56.651,100L56.651,100z M55.517,79.736h10.048
		c0.395,0,0.762,0.203,0.97,0.54c0.208,0.335,0.229,0.754,0.052,1.108l-4.948,9.989l12.4-14.288h-7.203
		c-0.373,0-0.724-0.183-0.938-0.488c-0.214-0.307-0.263-0.696-0.135-1.047l5.163-14.057h-7.633L55.517,79.736L55.517,79.736z"/>
</g>
<path d="M86.787,54.967H9.747C0.968,54.967,0.075,41.234,0,39.67c-0.003-14.568,10.461-20.592,20.342-19.903
	c0.055-0.253,0.143-0.501,0.261-0.742C20.991,18.249,30.287,0,47.254,0c8.745,0,15.764,2.663,20.859,7.913
	c3.767,3.883,5.844,8.557,6.988,12.649c0.588-0.816,1.539-1.312,2.563-1.312c5.395,0,14.933,4.855,18.207,12.763
	c2.028,4.896,2.486,12.693-6.851,22.029C88.429,54.633,87.625,54.967,86.787,54.967L86.787,54.967z M18.842,26.036
	c-6.054,0-12.526,3.542-12.526,13.486c0.204,4.049,1.782,9.125,3.431,9.125h75.7c4.815-5.16,6.358-9.938,4.586-14.215
	c-1.877-4.533-7.192-7.69-10.623-8.595l-3.3,6.132c-0.696,1.292-2.186,1.934-3.601,1.556c-1.416-0.38-2.385-1.682-2.341-3.147
	c0.003-0.103,0.199-11.099-6.623-18.097c-3.857-3.956-9.34-5.962-16.292-5.962c-10.111,0-17.074,9.155-19.762,13.407l5.542,4.669
	c1.179,0.84,2.298,1.79,3.329,2.822c1.197,1.197,1.239,3.124,0.093,4.37c-1.143,1.247-3.067,1.369-4.363,0.279l-2.924-2.463
	C26.047,27.231,22.384,26.036,18.842,26.036L18.842,26.036z"/>
<polygon points="26.483,80.961 23.402,79.466 31.452,62.906 34.532,64.402 26.483,80.961 "/>
<polygon points="33.355,80.961 30.275,79.466 38.324,62.906 41.406,64.402 33.355,80.961 "/>
<polygon points="40.811,80.961 37.732,79.466 45.781,62.906 48.863,64.402 40.811,80.961 "/>
<polygon points="47.441,80.961 44.36,79.466 52.41,62.906 55.49,64.402 47.441,80.961 "/>
</svg>
