<?xml version="1.0" encoding="utf-8"?>
<!-- Generator: Adobe Illustrator 19.1.0, SVG Export Plug-In . SVG Version: 6.00 Build 0)  -->
<svg version="1.1" id="Layer_1" xmlns="http://www.w3.org/2000/svg" xmlns:xlink="http://www.w3.org/1999/xlink" x="0px" y="0px"
	 width="32px" height="32px" viewBox="0 0 32 32" style="enable-background:new 0 0 32 32;" xml:space="preserve">
<g>
	<path d="M16,0L0,32h32L16,0z M16,4.472168L28.7641602,30H3.2358398L16,4.472168z"/>
	<path d="M21,22.5c-0.1340942,0-0.2631226,0.019165-0.3915405,0.0396118l-2.873291-5.746521
		C18.2050781,16.3383179,18.5,15.7039795,18.5,15c0-1.378418-1.121582-2.5-2.5-2.5s-2.5,1.121582-2.5,2.5
		c0,0.7039795,0.2949219,1.3383179,0.7648315,1.7930908l-2.873291,5.746521C11.2631226,22.519165,11.1340942,22.5,11,22.5
		c-1.378418,0-2.5,1.121582-2.5,2.5s1.121582,2.5,2.5,2.5c1.1154175,0,2.0514526-0.7393799,2.3723145-1.75h5.2553711
		C18.9485474,26.7606201,19.8845825,27.5,21,27.5c1.378418,0,2.5-1.121582,2.5-2.5S22.378418,22.5,21,22.5z M15.6084595,17.4603882
		C15.7368774,17.480835,15.8659058,17.5,16,17.5s0.2631226-0.019165,0.3915405-0.0396118l2.873291,5.746521
		c-0.2943726,0.2848511-0.5102539,0.6435547-0.637146,1.0430908h-5.2553711
		c-0.1268921-0.3995361-0.3427734-0.7582397-0.637146-1.0430908L15.6084595,17.4603882z"/>
</g>
<g>
</g>
<g>
</g>
<g>
</g>
<g>
</g>
<g>
</g>
<g>
</g>
<g>
</g>
<g>
</g>
<g>
</g>
<g>
</g>
<g>
</g>
<g>
</g>
<g>
</g>
<g>
</g>
<g>
</g>
</svg>
