<?xml version="1.0" encoding="utf-8"?>
<!-- Generator: Adobe Illustrator 19.1.0, SVG Export Plug-In . SVG Version: 6.00 Build 0)  -->
<svg version="1.1" id="Layer_1" xmlns="http://www.w3.org/2000/svg" xmlns:xlink="http://www.w3.org/1999/xlink" x="0px" y="0px"
	 width="32px" height="32px" viewBox="0 0 32 32" style="enable-background:new 0 0 32 32;" xml:space="preserve">
<path d="M28,8V4h-2V2H8C5.7944336,2,4,3.7944336,4,6v20c0,2.2055664,1.7944336,4,4,4h18V20h2v-4h-2v-2h2v-4h-2V8H28z M24,28H8
	c-1.1030273,0-2-0.8969727-2-2s0.8969727-2,2-2h16V28z M24,22H8c-0.7280273,0-1.4111328,0.1953125-2,0.5366211V6
	c0-1.1030273,0.8969727-2,2-2h16V22z"/>
</svg>
