<?xml version="1.0" encoding="utf-8"?>
<!-- Generator: Adobe Illustrator 19.1.0, SVG Export Plug-In . SVG Version: 6.00 Build 0)  -->
<svg version="1.1" id="Layer_1" xmlns="http://www.w3.org/2000/svg" xmlns:xlink="http://www.w3.org/1999/xlink" x="0px" y="0px"
	 width="32px" height="32px" viewBox="0 0 32 32" style="enable-background:new 0 0 32 32;" xml:space="preserve">
<g>
	<path d="M25.75,1c0.8642578,0,1.6767578,0.1640625,2.4374943,0.4921875
		c0.7602596,0.328125,1.4218807,0.7734375,1.9843807,1.3359375s1.0078125,1.2241211,1.3359375,1.984375
		C31.8359375,5.5732422,32,6.3857422,32,7.25c0,0.5209961-0.0625057,1.0288086-0.1875057,1.5234375
		c-0.125,0.4951172-0.3076115,0.9663086-0.5468693,1.4140625c-0.2397461,0.4482422-0.53125,0.8647461-0.875,1.25
		c-0.34375,0.3857422-0.7294922,0.71875-1.15625,1c0.2602539,0.7397461,0.4531193,1.4897461,0.5781193,2.25
		C29.9374943,15.4482422,30,16.21875,30,17c0,1.6875-0.2944336,3.3203125-0.8828125,4.8984375
		c-0.5888672,1.578125-1.4350586,3.0029297-2.5390625,4.2734375l3.125,3.125l-1.40625,1.40625l-3.125-3.125
		c-1.2709961,1.1044922-2.6953125,1.9506836-4.2734375,2.5390625C19.3203125,30.7060547,17.6874943,31,16,31
		c-1.6875057,0-3.3203125-0.2939453-4.8984375-0.8828125c-1.578125-0.5883789-3.0029297-1.4345703-4.2734375-2.5390625l-3.125,3.125
		l-1.40625-1.40625l3.125-3.125c-1.1044922-1.2705078-1.9506836-2.6953125-2.5390625-4.2734375C2.2939453,20.3203125,2,18.6875,2,17
		c0-0.78125,0.0624945-1.5517578,0.1874945-2.3125c0.125-0.7602539,0.3173883-1.5102539,0.5781305-2.25
		c-0.4272461-0.28125-0.8125-0.6142578-1.15625-1c-0.34375-0.3852539-0.6357422-0.8017578-0.875-1.25
		C0.4946289,9.7397461,0.3124946,9.2685547,0.1874946,8.7734375C0.0624946,8.2788086,0,7.7709961,0,7.25
		c0-0.8642578,0.1640625-1.6767578,0.4921875-2.4375C0.8203125,4.0522461,1.265625,3.390625,1.828125,2.828125
		s1.2236328-1.0078125,1.9843695-1.3359375C4.5727539,1.1640625,5.3852539,1,6.25,1c0.5102539,0,1.015625,0.0625,1.515625,0.1875
		s0.9736328,0.3076172,1.4218693,0.546875c0.4477596,0.2397461,0.8642635,0.53125,1.25,0.875
		c0.3852596,0.34375,0.7187557,0.7294922,1,1.15625c0.7392635-0.2602539,1.4892635-0.453125,2.25-0.578125
		C14.4477539,3.0625,15.21875,3,16,3s1.5517578,0.0625,2.3124943,0.1875c0.7602596,0.125,1.5102596,0.3178711,2.25,0.578125
		c0.2812557-0.4267578,0.6142635-0.8125,1-1.15625c0.3852596-0.34375,0.8017635-0.6352539,1.25-0.875
		c0.4477596-0.2392578,0.918951-0.421875,1.4140682-0.546875C24.7211914,1.0625,25.2290039,1,25.75,1z M6.25,3
		C5.6665039,3,5.1171875,3.1123047,4.6015625,3.3359375C4.0859375,3.5600586,3.6352539,3.8647461,3.25,4.25
		C2.8642578,4.6357422,2.5595703,5.0859375,2.3359375,5.6015625C2.1118164,6.1171875,2,6.6669922,2,7.25
		c0,0.6459961,0.1376953,1.2578125,0.4140625,1.8359375c0.2758789,0.578125,0.6640625,1.0654297,1.1640625,1.4609375
		C4.2446289,9.2553711,5.0830078,8.1044922,6.09375,7.09375c1.0102539-1.0102539,2.1611328-1.8486328,3.453125-2.515625
		c-0.3959961-0.5-0.8828125-0.8876953-1.4609375-1.1640625C7.5078125,3.1381836,6.8955078,3,6.25,3z M16,29
		c1.65625,0,3.2109375-0.3149414,4.6640625-0.9453125c1.453125-0.6298828,2.7236328-1.4892578,3.8125-2.578125
		c1.0883789-1.0883789,1.9477539-2.359375,2.578125-3.8125C27.6845703,20.2109375,28,18.65625,28,17
		s-0.3154297-3.2109375-0.9453125-4.6640625c-0.6303711-1.453125-1.4897461-2.7236328-2.578125-3.8125
		c-1.0888672-1.0883789-2.359375-1.9477539-3.8125-2.578125C19.2109375,5.3154297,17.65625,5,16,5
		s-3.2109375,0.3154297-4.6640625,0.9453125c-1.453125,0.6303711-2.7241211,1.4897461-3.8125,2.578125
		c-1.0888672,1.0888672-1.9482422,2.359375-2.578125,3.8125C4.3149414,13.7890625,4,15.34375,4,17
		s0.3149414,3.2109375,0.9453125,4.6640625c0.6298828,1.453125,1.4892578,2.7241211,2.578125,3.8125
		c1.0883789,1.0888672,2.359375,1.9482422,3.8125,2.578125C12.7890625,28.6850586,14.34375,29,16,29z M22,17v2h-8V9h2v8H22z
		 M28.421875,10.546875c0.5-0.3955078,0.8876953-0.8828125,1.1640625-1.4609375C29.8618164,8.5078125,30,7.8959961,30,7.25
		c0-0.5830078-0.1123047-1.1328125-0.3359375-1.6484375C29.4399414,5.0859375,29.1352539,4.6357422,28.75,4.25
		c-0.3857422-0.3852539-0.8359375-0.6899414-1.3515625-0.9140625C26.8828125,3.1123047,26.3330078,3,25.75,3
		c-0.6459961,0-1.2578125,0.1381836-1.8359375,0.4140625c-0.578125,0.2763672-1.0654297,0.6640625-1.4609375,1.1640625
		c1.2915039,0.6669922,2.4423828,1.5053711,3.453125,2.515625C26.9165039,8.1044922,27.7548828,9.2553711,28.421875,10.546875z"/>
</g>
</svg>
