<?xml version="1.0" encoding="utf-8"?>
<!-- Generator: Adobe Illustrator 19.1.0, SVG Export Plug-In . SVG Version: 6.00 Build 0)  -->
<svg version="1.1" id="Layer_1" xmlns="http://www.w3.org/2000/svg" xmlns:xlink="http://www.w3.org/1999/xlink" x="0px" y="0px"
	 width="32px" height="32px" viewBox="0 0 32 32" style="enable-background:new 0 0 32 32;" xml:space="preserve">
<g>
	<path d="M16,22c0-0.3379517,0.0215454-0.6708374,0.0570679-1H2V7.125l14,6.984375L30,7.125v7.3904419
		c0.491333,0.3275146,0.9486694,0.6991577,1.3662109,1.1159058C31.5913696,15.8568115,31.8007202,16.0956421,32,16.3426514V3H0v20
		h16.0569458C16.0215454,22.6708984,16,22.3380737,16,22z M29.765625,5L16,11.890625L2.234375,5H29.765625z"/>
	<path d="M25,15c0.96875,0,1.8774414,0.1826172,2.7265625,0.546875c0.8486328,0.3652344,1.5908203,0.8652344,2.2265625,1.5
		c0.6352539,0.6357422,1.1352539,1.3779297,1.5,2.2265625C31.8173828,20.1230469,32,21.03125,32,22
		s-0.1826172,1.8779297-0.546875,2.7265625c-0.3647461,0.8496094-0.8647461,1.5917969-1.5,2.2265625
		c-0.6357422,0.6357422-1.3779297,1.1357422-2.2265625,1.5C26.8774414,28.8183594,25.96875,29,25,29
		s-1.8779297-0.1816406-2.7265625-0.546875c-0.8491211-0.3642578-1.5913086-0.8642578-2.2265625-1.5
		c-0.6357422-0.6347656-1.1357422-1.3769531-1.5-2.2265625C18.1821289,23.8779297,18,22.96875,18,22
		s0.1821289-1.8769531,0.546875-2.7265625c0.3642578-0.8486328,0.8642578-1.5908203,1.5-2.2265625
		c0.6352539-0.6347656,1.3774414-1.1347656,2.2265625-1.5C23.1220703,15.1826172,24.03125,15,25,15z M20,22
		c0,0.6875,0.1298828,1.3359375,0.390625,1.9453125c0.2602539,0.609375,0.6171875,1.140625,1.0703125,1.59375
		s0.984375,0.8105469,1.59375,1.0703125C23.6640625,26.8701172,24.3124943,27,25,27
		c0.4892578,0,0.96875-0.0703125,1.4374943-0.2109375C26.90625,26.6484375,27.34375,26.4433594,27.75,26.171875L20.828125,19.25
		c-0.2709961,0.40625-0.4765625,0.84375-0.6171875,1.3125S20,21.5107422,20,22z M29.171875,24.75
		c0.2705078-0.40625,0.4765625-0.84375,0.6171875-1.3125S30,22.4902344,30,22c0-0.6875-0.1328125-1.3330078-0.3984375-1.9375
		c-0.265625-0.6035156-0.625-1.1328125-1.078125-1.5859375s-0.9819336-0.8125-1.5859432-1.078125
		C26.3330078,17.1328125,25.6874943,17,25,17c-0.4897461,0-0.96875,0.0703125-1.4375057,0.2109375
		C23.09375,17.3515625,22.65625,17.5576172,22.25,17.828125L29.171875,24.75z"/>
</g>
</svg>
