<?xml version="1.0" encoding="utf-8"?>
<!-- Generator: Adobe Illustrator 19.1.0, SVG Export Plug-In . SVG Version: 6.00 Build 0)  -->
<svg version="1.1" id="Layer_1" xmlns="http://www.w3.org/2000/svg" xmlns:xlink="http://www.w3.org/1999/xlink" x="0px" y="0px"
	 width="32px" height="32px" viewBox="0 0 32 32" style="enable-background:new 0 0 32 32;" xml:space="preserve">
<g>
	<path d="M19.15625,19.046875c0.2397461-0.3857422,0.5185547-0.7373047,0.8359375-1.0546875
		c0.3178711-0.3183594,0.6694336-0.5966797,1.0546875-0.8359375L20.25,15.21875l1.84375-0.75l0.796875,1.921875
		c0.4169922-0.1044922,0.8647461-0.15625,1.34375-0.15625c0.4794922,0,0.9272461,0.0517578,1.34375,0.15625L26.375,14.46875
		l1.84375,0.75l-0.796875,1.9375c0.3857422,0.2392578,0.7373047,0.5175781,1.0546875,0.8359375
		c0.3178711,0.3173828,0.5966797,0.6689453,0.8359375,1.0546875L31.25,18.25L32,20.09375l-1.921875,0.796875
		c0.1044922,0.4160156,0.15625,0.8642578,0.15625,1.34375c0,0.4785156-0.0517578,0.9267578-0.15625,1.34375L32,24.375l-0.75,1.84375
		l-1.9375-0.796875c-0.4790039,0.78125-1.109375,1.4111328-1.890625,1.890625L28.21875,29.25L26.375,30l-0.796875-1.921875
		c-0.4165039,0.1035156-0.8642578,0.15625-1.34375,0.15625c-0.4790039,0-0.9267578-0.0527344-1.34375-0.15625L22.09375,30
		L20.25,29.25l0.796875-1.9375c-0.78125-0.4794922-1.4111328-1.109375-1.890625-1.890625l-1.9375,0.796875l-0.75-1.84375
		l1.921875-0.796875c-0.1040039-0.4169922-0.15625-0.8652344-0.15625-1.34375c0-0.4794922,0.0522461-0.9277344,0.15625-1.34375
		L16.46875,20.09375l0.75-1.84375L19.15625,19.046875z M24.234375,18.234375c-0.5517578,0-1.0703125,0.1035156-1.5546875,0.3125
		c-0.484375,0.2080078-0.9086914,0.4941406-1.2734375,0.859375c-0.3642578,0.3642578-0.6508789,0.7890625-0.859375,1.2734375
		c-0.2080078,0.484375-0.3125,1.0019531-0.3125,1.5546875c0,0.5517578,0.1044922,1.0703125,0.3125,1.5546875
		c0.2084961,0.484375,0.4951172,0.9082031,0.859375,1.2734375c0.3647461,0.3642578,0.7890625,0.6503906,1.2734375,0.859375
		c0.484375,0.2080078,1.0029297,0.3125,1.5546875,0.3125c0.5522461,0,1.0703125-0.1044922,1.5546875-0.3125
		c0.484375-0.2089844,0.9091797-0.4951172,1.2734375-0.859375c0.3647461-0.3652344,0.6513672-0.7890625,0.859375-1.2734375
		c0.2084961-0.484375,0.3125-1.0029297,0.3125-1.5546875c0-0.5527344-0.1040039-1.0703125-0.3125-1.5546875
		c-0.2080078-0.484375-0.4946289-0.9091797-0.859375-1.2734375c-0.3642578-0.3652344-0.7890625-0.6513672-1.2734375-0.859375
		C25.3046875,18.3378906,24.7866211,18.234375,24.234375,18.234375z M2.234375,11.234375
		c0-0.5732422,0.0732422-1.1513672,0.21875-1.734375L0.3125,8.625l0.75-1.859375L3.21875,7.65625
		c0.6147461-1.0214844,1.4272461-1.8339844,2.4375-2.4375L4.765625,3.078125L6.625,2.3125L7.5,4.453125
		c0.5834961-0.1464844,1.1616211-0.21875,1.734375-0.21875c0.5732422,0,1.1513672,0.0722656,1.734375,0.21875l0.875-2.140625
		l1.859375,0.765625L12.8125,5.21875c1.0209961,0.6035156,1.8334961,1.4160156,2.4375,2.4375l2.15625-0.890625l0.75,1.859375
		L16.015625,9.5c0.1459961,0.5830078,0.21875,1.1611328,0.21875,1.734375c0,0.5722656-0.0727539,1.1503906-0.21875,1.734375
		l2.140625,0.875l-0.75,1.859375L15.25,14.8125c-0.6040039,1.0097656-1.4165039,1.8222656-2.4375,2.4375l0.890625,2.15625
		l-1.859375,0.75l-0.875-2.140625c-0.5830078,0.1455078-1.1611328,0.21875-1.734375,0.21875
		c-0.5727539,0-1.1508789-0.0732422-1.734375-0.21875L6.625,20.15625l-1.859375-0.75L5.65625,17.25
		c-1.0102539-0.6152344-1.8227539-1.4277344-2.4375-2.4375L1.0625,15.703125l-0.75-1.859375l2.140625-0.875
		C2.3076172,12.3847656,2.234375,11.8066406,2.234375,11.234375z M9.234375,6.234375c-0.6875,0-1.3330078,0.1298828-1.9375,0.390625
		C6.6928711,6.8847656,6.1640625,7.2421875,5.7109375,7.6953125s-0.8125,0.984375-1.078125,1.59375
		S4.234375,10.546875,4.234375,11.234375s0.1328125,1.3330078,0.3984375,1.9375
		c0.265625,0.6035156,0.625,1.1328125,1.078125,1.5859375s0.9819336,0.8125,1.5859375,1.078125
		c0.6044922,0.265625,1.25,0.3984375,1.9375,0.3984375s1.3359375-0.1328125,1.9453125-0.3984375s1.140625-0.625,1.59375-1.078125
		s0.8100586-0.9824219,1.0703125-1.5859375c0.2607422-0.6044922,0.390625-1.25,0.390625-1.9375
		s-0.1298828-1.3359375-0.390625-1.9453125c-0.2602539-0.609375-0.6171875-1.140625-1.0703125-1.59375
		s-0.984375-0.8105469-1.59375-1.0703125C10.5703125,6.3642578,9.921875,6.234375,9.234375,6.234375z"/>
	<path d="M28.1776905,10.2082176c-0.1625633,0.2615604-0.351614,0.4999437-0.5668221,0.7151508
		c-0.215538,0.2158689-0.4539223,0.4045897-0.7151508,0.566823l0.5403366,1.3137569L26.1858654,13.3125l-0.5403366-1.3031626
		c-0.2827492,0.0708523-0.5863571,0.1059484-0.9111538,0.1059484c-0.3251286,0-0.6287365-0.0350962-0.9111538-0.1059484
		L23.2828846,13.3125l-1.2501888-0.5085516l0.5403366-1.3137569c-0.2615604-0.1622334-0.4999428-0.3509541-0.7151508-0.566823
		c-0.215538-0.2152071-0.4045887-0.4535904-0.5668221-0.7151508l-1.3137589,0.5403366L19.46875,9.4983654l1.3031635-0.5403357
		c-0.0708542-0.2820873-0.1059494-0.5860262-0.1059494-0.9111547c0-0.3244662,0.0350952-0.6284051,0.1059494-0.9111543
		L19.46875,6.5953846l0.5085506-1.2501884l1.3137589,0.5403357c0.3247967-0.5297408,0.7522316-0.9568443,1.2819729-1.2819729
		l-0.5403366-1.3137577L23.2828846,2.78125l0.5403366,1.3031626c0.2824173-0.0701904,0.5860252-0.105948,0.9111538-0.105948
		c0.3247967,0,0.6284046,0.0357575,0.9111538,0.105948L26.1858654,2.78125l1.2501888,0.5085514L26.8957176,4.603559
		c0.5297413,0.3251286,0.9568443,0.7522321,1.2819729,1.2819729l1.3137589-0.5403357L30,6.5953846l-1.3031635,0.5403361
		c0.0705223,0.2827492,0.1059494,0.586688,0.1059494,0.9111543c0,0.3251286-0.0354271,0.6290674-0.1059494,0.9111547L30,9.4983654
		l-0.5085506,1.2501888L28.1776905,10.2082176z M24.734375,10.7591486c0.3741302,0,0.7257442-0.0701904,1.054184-0.2118959
		c0.3284397-0.1410437,0.6161556-0.3350611,0.8634777-0.582715c0.2469921-0.2469921,0.4413414-0.5350389,0.582716-0.8634777
		c0.1410427-0.3284397,0.2118969-0.6793928,0.2118969-1.0541849c0-0.3741298-0.0708542-0.7257452-0.2118969-1.0541844
		c-0.1413746-0.3284392-0.3357239-0.6158237-0.582716-0.8634777c-0.2473221-0.2469916-0.535038-0.4410095-0.8634777-0.582715
		c-0.3284397-0.1410437-0.6800537-0.2118964-1.054184-0.2118964c-0.3744602,0-0.7257442,0.0708528-1.054184,0.2118964
		c-0.3284397,0.1417055-0.6164856,0.3357234-0.8634777,0.582715c-0.247324,0.247654-0.4416714,0.5350385-0.582716,0.8634777
		c-0.1413746,0.3284392-0.2118969,0.6800547-0.2118969,1.0541844c0,0.3747921,0.0705223,0.7257452,0.2118969,1.0541849
		c0.1410446,0.3284388,0.335392,0.6164856,0.582716,0.8634777c0.2469921,0.247654,0.535038,0.4416714,0.8634777,0.582715
		C24.0086308,10.6889582,24.3599148,10.7591486,24.734375,10.7591486z"/>
</g>
</svg>
