<?xml version="1.0" encoding="utf-8"?>
<!-- Generator: Adobe Illustrator 19.1.0, SVG Export Plug-In . SVG Version: 6.00 Build 0)  -->
<svg version="1.1" id="Layer_1" xmlns="http://www.w3.org/2000/svg" xmlns:xlink="http://www.w3.org/1999/xlink" x="0px" y="0px"
	 width="32px" height="32px" viewBox="0 0 32 32" style="enable-background:new 0 0 32 32;" xml:space="preserve">
<g>
	<rect x="14" y="4" width="2" height="2"/>
	<path d="M15.2346191,30H2V10h15v3.1686401c0.565979-0.4564209,1.2371216-0.8536987,2-1.1798096V0H0v32h17
		C16.2207031,31.4290771,15.6205444,30.7548828,15.2346191,30z M2,2h15v6H2V2z"/>
	<g>
		<path d="M24.5,12.9667969c-4.2753906,0-7.5,1.7338867-7.5,4.0332031v2.0111694l2,1.9935913v-1.2127075
			c1.3490601,0.7713623,3.2801514,1.2416382,5.5,1.2416382s4.1509399-0.4702759,5.5-1.2416382v8.1747437
			C30,28.7763672,27.8066406,30,24.5,30S19,28.7763672,19,27.9667969v-0.9714966l-1.8398438,1.8339844
			C17.8560181,30.6858521,20.7788086,32,24.5,32c4.2753906,0,7.5-1.7338867,7.5-4.0332031V17
			C32,14.7006836,28.7753906,12.9667969,24.5,12.9667969z M24.5,19.0336914c-3.3066406,0-5.5-1.2241211-5.5-2.0336914
			s2.1933594-2.0332031,5.5-2.0332031S30,16.1904297,30,17S27.8066406,19.0336914,24.5,19.0336914z"/>
		<path d="M14.25,19.09375L19.171875,24L14.1875,28.96875l-1.15625-1.15625L15.828125,25H13
			c-0.8334961,0-1.6123047-0.15625-2.3359375-0.46875c-0.7241211-0.3125-1.359375-0.7421875-1.90625-1.2890625
			S7.78125,22.0605469,7.46875,21.3359375C7.15625,20.6123047,7,19.8339844,7,19h2
			c0,0.5527344,0.1040039,1.0703125,0.3125,1.5546875c0.2080078,0.484375,0.4946289,0.9091797,0.859375,1.2734375
			c0.3642578,0.3652344,0.7890625,0.6513672,1.2734375,0.859375C11.9296875,22.8964844,12.4477539,23,13,23h2.828125l-2.734375-2.75
			L14.25,19.09375z"/>
	</g>
</g>
<g>
</g>
<g>
</g>
<g>
</g>
<g>
</g>
<g>
</g>
<g>
</g>
<g>
</g>
<g>
</g>
<g>
</g>
<g>
</g>
<g>
</g>
<g>
</g>
<g>
</g>
<g>
</g>
<g>
</g>
</svg>
