<?xml version="1.0" encoding="utf-8"?>
<!-- Generator: Adobe Illustrator 19.1.0, SVG Export Plug-In . SVG Version: 6.00 Build 0)  -->
<svg version="1.1" id="Layer_1" xmlns="http://www.w3.org/2000/svg" xmlns:xlink="http://www.w3.org/1999/xlink" x="0px" y="0px"
	 width="32px" height="32px" viewBox="0 0 32 32" style="enable-background:new 0 0 32 32;" xml:space="preserve">
<g>
	<path d="M16,1c1.375,0,2.7001953,0.1796875,3.9765625,0.5390625c1.2758789,0.359375,2.4711914,0.8647461,3.5859318,1.515625
		c1.1142635,0.6513672,2.1274471,1.4326172,3.0390682,2.34375c0.9111328,0.9116211,1.6923828,1.9248047,2.34375,3.0390625
		c0.6508789,1.1147461,1.15625,2.3100586,1.515625,3.5859375C30.8203125,13.2998047,31,14.625,31,16
		s-0.1796875,2.7006836-0.5390625,3.9765625c-0.359375,1.2763672-0.8647461,2.4716797-1.515625,3.5859375
		c-0.6513672,1.1147461-1.4326172,2.1279297-2.34375,3.0390625c-0.9116211,0.9116211-1.9248047,1.6928711-3.0390682,2.34375
		c-1.1147404,0.6513672-2.3100529,1.15625-3.5859318,1.515625C18.7001953,30.8203125,17.375,31,16,31
		s-2.7006836-0.1796875-3.9765625-0.5390625c-1.2763672-0.359375-2.4716797-0.8642578-3.5859432-1.515625
		c-1.1147404-0.6508789-2.127924-1.4321289-3.0390568-2.34375c-0.9116211-0.9111328-1.6928711-1.9243164-2.34375-3.0390625
		c-0.6513672-1.1142578-1.15625-2.3095703-1.515625-3.5859375C1.1796875,18.7006836,1,17.375,1,16
		s0.1796875-2.7001953,0.5390625-3.9765625c0.359375-1.2758789,0.8642578-2.4711914,1.515625-3.5859375
		c0.6508789-1.1142578,1.4321289-2.1274414,2.34375-3.0390625c0.9111328-0.9111328,1.9243164-1.6923828,3.0390568-2.34375
		c1.1142635-0.6508789,2.309576-1.15625,3.5859432-1.515625C13.2993164,1.1796875,14.625,1,16,1z M16,29
		c1.1977539,0,2.3486328-0.15625,3.453125-0.46875c1.1040039-0.3125,2.1376953-0.75,3.1015625-1.3125
		c0.9633789-0.5625,1.8408203-1.2392578,2.6328068-2.03125c0.7915096-0.7915039,1.4687557-1.6689453,2.0312557-2.6328125
		c0.5625-0.9633789,1-1.9970703,1.3125-3.1015625C28.84375,18.3491211,29,17.1982422,29,16
		c0-1.1977539-0.15625-2.3486328-0.46875-3.453125c-0.3125-1.1040039-0.75-2.1376953-1.3125-3.1015625
		c-0.5625-0.9633789-1.2397461-1.8408203-2.0312557-2.6328125c-0.7919865-0.7915039-1.6694279-1.46875-2.6328068-2.03125
		c-0.9638672-0.5625-1.9975586-1-3.1015625-1.3125C18.3486328,3.15625,17.1977539,3,16,3
		c-1.1982422,0-2.3491211,0.15625-3.453125,0.46875c-1.1044922,0.3125-2.1381836,0.75-3.1015625,1.3125
		C8.4814453,5.34375,7.6040039,6.0209961,6.8124943,6.8125C6.0205078,7.6044922,5.34375,8.4819336,4.78125,9.4453125
		c-0.5625,0.9638672-1,1.9975586-1.3125,3.1015625C3.15625,13.6513672,3,14.8022461,3,16
		c0,1.1982422,0.15625,2.3491211,0.46875,3.453125c0.3125,1.1044922,0.75,2.1381836,1.3125,3.1015625
		c0.5625,0.9638672,1.2392578,1.8413086,2.0312443,2.6328125c0.7915096,0.7919922,1.668951,1.46875,2.6328182,2.03125
		c0.9633789,0.5625,1.9970703,1,3.1015625,1.3125C13.6508789,28.84375,14.8017578,29,16,29z M19.6874943,7.8125
		C18.4892578,7.2709961,17.2446289,7,15.953125,7c-0.8232422,0-1.6147461,0.1069336-2.375,0.3203125
		c-0.7607422,0.2138672-1.4741211,0.5185547-2.1406307,0.9140625C10.7705078,8.6303711,10.1665039,9.1015625,9.625,9.6484375
		c-0.5419922,0.546875-1.0078125,1.1538086-1.3984375,1.8203125c-0.390625,0.6669922-0.6928711,1.3828125-0.90625,2.1484375
		C7.1064453,14.3828125,7,15.1772461,7,16c0,1.1982422,0.2290039,2.3466797,0.6874943,3.4453125
		C8.1455078,20.5444336,8.796875,21.515625,9.640625,22.359375L8.21875,23.78125
		c-1.0419922-1.0415039-1.8388672-2.2314453-2.390625-3.5703125C5.2758789,18.8725586,5,17.46875,5,16
		c0-1.0102539,0.1298828-1.984375,0.390625-2.921875c0.2602539-0.9375,0.6298828-1.8125,1.109375-2.625
		c0.4790039-0.8125,1.0517578-1.5517578,1.71875-2.21875C8.8852539,7.5678711,9.625,6.9975586,10.4374943,6.5234375
		C11.25,6.0498047,12.125,5.6826172,13.0624943,5.421875C14,5.1616211,14.9790039,5.03125,16,5.03125
		c0.78125,0,1.5493164,0.0810547,2.3046875,0.2421875C19.0595703,5.4350586,19.7915039,5.6772461,20.5,6L19.6874943,7.8125z
		 M18.6874943,14.6875C18.8955078,15.1044922,19,15.5419922,19,16c0,0.4169922-0.078125,0.8076172-0.234375,1.171875
		c-0.15625,0.3647461-0.3701172,0.6826172-0.640625,0.953125c-0.2709961,0.2709961-0.5888672,0.484375-0.953125,0.640625
		C16.8071289,18.921875,16.4165039,19,16,19c-0.4169922,0-0.8076172-0.078125-1.171875-0.234375
		c-0.3647461-0.15625-0.6826172-0.3696289-0.953125-0.640625c-0.2709961-0.2705078-0.484375-0.5883789-0.640625-0.953125
		C13.078125,16.8076172,13,16.4169922,13,16c0-0.4165039,0.078125-0.8071289,0.234375-1.171875
		c0.15625-0.3642578,0.3696289-0.6821289,0.640625-0.953125c0.2705078-0.2705078,0.5883789-0.484375,0.953125-0.640625
		C15.1923828,13.078125,15.5830078,13,16,13c0.4580078,0,0.8955078,0.1044922,1.3124943,0.3125l-0.0156193-0.015625l5.75-5.75
		l1.40625,1.40625l-5.75,5.75L18.6874943,14.6875z M16,17c0.2705078,0,0.5048828-0.0986328,0.703125-0.296875
		C16.9008789,16.5053711,17,16.2709961,17,16c0-0.2705078-0.0991211-0.5048828-0.296875-0.703125
		C16.5048828,15.0991211,16.2705078,15,16,15c-0.2709961,0-0.5053711,0.0991211-0.703125,0.296875
		C15.0986328,15.4951172,15,15.7294922,15,16c0,0.2709961,0.0986328,0.5053711,0.296875,0.703125
		C15.4946289,16.9013672,15.7290039,17,16,17z M26,11.5c0.3227539,0.7084961,0.5649414,1.4404297,0.7265625,2.1953125
		C26.8876953,14.4506836,26.96875,15.21875,26.96875,16c0,1.4584961-0.2734375,2.8623047-0.8203125,4.2109375
		C25.6015625,21.5600586,24.8124943,22.75,23.78125,23.78125l-1.421875-1.421875
		c0.84375-0.84375,1.4946289-1.8071289,1.9531193-2.890625C24.7705078,18.3857422,25,17.2451172,25,16.046875
		c0-1.2915039-0.2709961-2.5361328-0.8125057-3.734375L26,11.5z"/>
</g>
</svg>
