<?xml version="1.0" encoding="utf-8"?>
<!-- Generator: Adobe Illustrator 19.1.0, SVG Export Plug-In . SVG Version: 6.00 Build 0)  -->
<svg version="1.1" id="Layer_1" xmlns="http://www.w3.org/2000/svg" xmlns:xlink="http://www.w3.org/1999/xlink" x="0px" y="0px"
	 width="32px" height="32px" viewBox="0 0 32 32" style="enable-background:new 0 0 32 32;" xml:space="preserve">
<g>
	<rect x="12" y="17" width="2" height="2"/>
	<rect x="12" y="25" width="2" height="2"/>
	<rect x="12" y="21" width="2" height="2"/>
	<rect x="6" y="25" width="2" height="2"/>
	<rect x="6" y="17" width="2" height="2"/>
	<rect x="6" y="21" width="2" height="2"/>
	<rect x="18" y="25" width="2" height="2"/>
	<rect x="12" y="13" width="2" height="2"/>
	<rect x="24" y="21" width="2" height="2"/>
	<rect x="24" y="13" width="2" height="2"/>
	<rect x="24" y="17" width="2" height="2"/>
	<rect x="18" y="13" width="2" height="2"/>
	<rect x="18" y="17" width="2" height="2"/>
	<rect x="18" y="21" width="2" height="2"/>
	<path d="M26,1h-2v2H8V1H6v2H0v28h32V3h-6V1z M30,29H2V11h28V29z M30,5v4H2V5h4v2h2V5h16v2h2V5H30z"/>
</g>
</svg>
