<?xml version="1.0" encoding="utf-8"?>
<!-- Generator: Adobe Illustrator 19.1.0, SVG Export Plug-In . SVG Version: 6.00 Build 0)  -->
<svg version="1.1" id="SYMBOL" xmlns="http://www.w3.org/2000/svg" xmlns:xlink="http://www.w3.org/1999/xlink" x="0px" y="0px"
	 width="32px" height="32px" viewBox="0 0 32 32" style="enable-background:new 0 0 32 32;" xml:space="preserve">
<g>
	<path d="M32,5v24H0V5h8.578125l2-2h10.84375l2,2H32z M30,7h-7.421875l-2-2h-9.15625l-2,2H2v20h28V7z M5,9
		c0.2705078,0,0.5048828,0.0991211,0.703125,0.296875C5.9008789,9.4951172,6,9.7294922,6,10
		c0,0.2709961-0.0991211,0.5053711-0.296875,0.703125C5.5048828,10.9013672,5.2705078,11,5,11
		c-0.2709961,0-0.5053711-0.0986328-0.703125-0.296875C4.0986328,10.5053711,4,10.2709961,4,10
		c0-0.2705078,0.0986328-0.5048828,0.296875-0.703125C4.4946289,9.0991211,4.7290039,9,5,9z M16,9
		c1.1040039,0,2.1430664,0.2084961,3.1171875,0.625c0.9736328,0.4169922,1.8227539,0.9873047,2.546875,1.7109375
		c0.7236328,0.7241211,1.2939453,1.5732422,1.7109375,2.546875C23.7915039,14.8569336,24,15.8959961,24,17
		c0,1.1044922-0.2084961,2.1435547-0.625,3.1171875c-0.4169922,0.9746094-0.9873047,1.8232422-1.7109375,2.546875
		c-0.7241211,0.7246094-1.5732422,1.2949219-2.546875,1.7109375C18.1430664,24.7919922,17.1040039,25,16,25
		c-1.1044922,0-2.1435547-0.2080078-3.1171875-0.625c-0.9741211-0.4160156-1.8232422-0.9863281-2.546875-1.7109375
		C9.6118164,21.9404297,9.0415039,21.0917969,8.625,20.1171875C8.2080078,19.1435547,8,18.1044922,8,17
		c0-1.1040039,0.2080078-2.1430664,0.625-3.1171875c0.4165039-0.9736328,0.9868164-1.8227539,1.7109375-2.546875
		c0.7236328-0.7236328,1.5727539-1.2939453,2.546875-1.7109375C13.8564453,9.2084961,14.8955078,9,16,9z M16,23
		c0.8227539,0,1.5986328-0.1582031,2.328125-0.4765625c0.7290039-0.3173828,1.3642578-0.7470703,1.90625-1.2890625
		c0.5415039-0.5410156,0.9711914-1.1767578,1.2890625-1.90625C21.8408203,18.5991211,22,17.8232422,22,17
		c0-0.8227539-0.1591797-1.5986328-0.4765625-2.328125c-0.3178711-0.7290039-0.7475586-1.3642578-1.2890625-1.90625
		c-0.5419922-0.5415039-1.1772461-0.9711914-1.90625-1.2890625C17.5986328,11.1591797,16.8227539,11,16,11
		c-0.8232422,0-1.5991211,0.1591797-2.328125,0.4765625c-0.7294922,0.3178711-1.3647461,0.7475586-1.90625,1.2890625
		c-0.5419922,0.5419922-0.9716797,1.1772461-1.2890625,1.90625C10.1586914,15.4013672,10,16.1772461,10,17
		c0,0.8232422,0.1586914,1.5991211,0.4765625,2.328125c0.3173828,0.7294922,0.7470703,1.3652344,1.2890625,1.90625
		c0.5415039,0.5419922,1.1767578,0.9716797,1.90625,1.2890625C14.4008789,22.8417969,15.1767578,23,16,23z"/>
</g>
</svg>
