<?xml version="1.0" encoding="utf-8"?>
<!-- Generator: Adobe Illustrator 19.1.0, SVG Export Plug-In . SVG Version: 6.00 Build 0)  -->
<svg version="1.1" id="Layer_1" xmlns="http://www.w3.org/2000/svg" xmlns:xlink="http://www.w3.org/1999/xlink" x="0px" y="0px"
	 width="32px" height="32px" viewBox="0 0 32 32" style="enable-background:new 0 0 32 32;" xml:space="preserve">
<g>
	<path d="M31.421875,11l-1.03125,1.015625c0.0205078,0.0522461,0.0727539,0.2084961,0.15625,0.46875
		c0.0830078,0.2607422,0.1845703,0.5678711,0.3046875,0.921875c0.1196289,0.3544922,0.2470703,0.734375,0.3828125,1.140625
		c0.1352539,0.40625,0.2602539,0.7788086,0.375,1.1171875C31.7236328,16.0029297,31.8540039,16.3959961,32,16.84375V27
		c0,0.28125-0.0522461,0.5419922-0.15625,0.78125c-0.1044922,0.2397461-0.2475586,0.4506836-0.4296875,0.6328125
		c-0.1826172,0.1826172-0.3935547,0.3256836-0.6328125,0.4296875C30.5415039,28.9482422,30.28125,29,30,29h-2
		c-0.28125,0-0.5419922-0.0517578-0.78125-0.15625c-0.2397461-0.1040039-0.4506836-0.2470703-0.6328125-0.4296875
		c-0.1826172-0.1821289-0.3256836-0.3930664-0.4296875-0.6328125C26.0517578,27.5419922,26,27.28125,26,27H6
		c0,0.28125-0.0522461,0.5419922-0.15625,0.78125c-0.1044922,0.2397461-0.2475586,0.4506836-0.4296875,0.6328125
		C5.2314453,28.5966797,5.0205078,28.7397461,4.78125,28.84375C4.5415039,28.9482422,4.28125,29,4,29H2
		c-0.28125,0-0.5419922-0.0517578-0.78125-0.15625c-0.2397461-0.1040039-0.4506836-0.2470703-0.6328125-0.4296875
		C0.4033203,28.2319336,0.2602539,28.0209961,0.15625,27.78125C0.0517578,27.5419922,0,27.28125,0,27V16.84375
		c0.1455078-0.4477539,0.2758789-0.8408203,0.390625-1.1796875c0.1142578-0.3383789,0.2392578-0.7109375,0.375-1.1171875
		c0.1352539-0.40625,0.2626953-0.7861328,0.3828125-1.140625c0.1196289-0.3540039,0.2211914-0.6611328,0.3046875-0.921875
		c0.0830078-0.2602539,0.1352539-0.4165039,0.15625-0.46875L0.578125,11H0V9h1.421875l0.8906195,0.90625L3.46875,6.421875
		c0.1665039-0.5102539,0.4086914-0.9765625,0.7265625-1.3984375c0.3173828-0.421875,0.6845703-0.78125,1.1015625-1.078125
		C5.7133789,3.6484375,6.1689453,3.4169922,6.6640625,3.25C7.1586914,3.0834961,7.6767578,3,8.21875,3h15.5625
		c0.5415039,0,1.0595703,0.0834961,1.5546875,0.25c0.4946289,0.1669922,0.9501953,0.3984375,1.3671875,0.6953125
		c0.4165039,0.296875,0.78125,0.65625,1.09375,1.078125s0.5571289,0.8881836,0.734375,1.3984375l1.1562443,3.484375L30.578125,9H32
		v2H31.421875z M30,25v-7.84375c-0.125-0.3852539-0.2373047-0.7236328-0.3359375-1.015625
		c-0.0991211-0.2915039-0.2060547-0.6118164-0.3203125-0.9609375c-0.1147461-0.3486328-0.2241211-0.6767578-0.328125-0.984375
		C28.9111328,13.8881836,28.8203125,13.625,28.7421875,13.40625S28.6196289,13.0522461,28.609375,13H3.390625
		C3.3696289,13.0522461,3.3227539,13.1875,3.25,13.40625c-0.0732422,0.21875-0.1616211,0.4819336-0.265625,0.7890625
		c-0.1044922,0.3076172-0.2138672,0.6357422-0.328125,0.984375c-0.1147461,0.3491211-0.2216797,0.6694336-0.3203125,0.9609375
		C2.2368164,16.4326172,2.125,16.7709961,2,17.15625V25h6v-1.234375L10.375,19h11.25L24,23.765625V25H30z M6,15
		c0.28125,0,0.5415039,0.0522461,0.78125,0.15625c0.2392578,0.1044922,0.4501953,0.2475586,0.6328125,0.4296875
		C7.5961914,15.7685547,7.7392578,15.9794922,7.84375,16.21875C7.9477539,16.4584961,8,16.71875,8,17
		s-0.0522461,0.5419922-0.15625,0.78125c-0.1044922,0.2397461-0.2475586,0.4506836-0.4296875,0.6328125
		C7.2314453,18.5966797,7.0205078,18.7397461,6.78125,18.84375C6.5415039,18.9482422,6.28125,19,6,19
		s-0.5419922-0.0517578-0.78125-0.15625c-0.2397461-0.1040039-0.4506836-0.2470703-0.6328125-0.4296875
		C4.4033203,18.2319336,4.2602539,18.0209961,4.15625,17.78125C4.0517578,17.5419922,4,17.28125,4,17
		s0.0517578-0.5415039,0.15625-0.78125c0.1040039-0.2392578,0.2470703-0.4501953,0.4296875-0.6328125
		C4.7680664,15.4038086,4.9790039,15.2607422,5.21875,15.15625C5.4580078,15.0522461,5.71875,15,6,15z M8.21875,5
		C7.5624943,5,6.9765625,5.1875,6.4609375,5.5625S5.5830078,6.4326172,5.375,7.046875L4.046875,11h23.90625L26.625,7.046875
		C26.4165039,6.4326172,26.0546875,5.9375,25.5390625,5.5625S24.4374943,5,23.78125,5H8.21875z M22,24.234375L20.375,21h-8.75
		L10,24.234375V25h12V24.234375z M26,15c0.28125,0,0.5415039,0.0522461,0.78125,0.15625
		c0.2392578,0.1044922,0.4501953,0.2475586,0.6328125,0.4296875c0.1821289,0.1826172,0.3251953,0.3935547,0.4296875,0.6328125
		C27.9477539,16.4584961,28,16.71875,28,17s-0.0522461,0.5419922-0.15625,0.78125
		c-0.1044922,0.2397461-0.2475586,0.4506836-0.4296875,0.6328125c-0.1826172,0.1826172-0.3935547,0.3256836-0.6328125,0.4296875
		C26.5415039,18.9482422,26.28125,19,26,19s-0.5419922-0.0517578-0.78125-0.15625
		c-0.2397461-0.1040039-0.4506836-0.2470703-0.6328125-0.4296875c-0.1826172-0.1821289-0.3256836-0.3930664-0.4296875-0.6328125
		C24.0517578,17.5419922,24,17.28125,24,17s0.0517578-0.5415039,0.15625-0.78125
		c0.1040039-0.2392578,0.2470703-0.4501953,0.4296875-0.6328125c0.1821289-0.1821289,0.3930664-0.3251953,0.6328125-0.4296875
		C25.4580078,15.0522461,25.71875,15,26,15z"/>
</g>
</svg>
