<?xml version="1.0" encoding="utf-8"?>
<!-- Generator: Adobe Illustrator 19.1.0, SVG Export Plug-In . SVG Version: 6.00 Build 0)  -->
<svg version="1.1" id="Layer_1" xmlns="http://www.w3.org/2000/svg" xmlns:xlink="http://www.w3.org/1999/xlink" x="0px" y="0px"
	 width="32px" height="32px" viewBox="0 0 32 32" style="enable-background:new 0 0 32 32;" xml:space="preserve">
<g>
	<path d="M24,0c0.28125,0,0.5415039,0.0522461,0.78125,0.15625c0.2392578,0.1044922,0.4501953,0.2475586,0.6328125,0.4296875
		C25.5961914,0.7685547,25.7392578,0.9794922,25.84375,1.21875C25.9477539,1.4584961,26,1.71875,26,2v28
		c0,0.28125-0.0522461,0.5419922-0.15625,0.78125c-0.1044922,0.2397461-0.2475586,0.4506836-0.4296875,0.6328125
		c-0.1826172,0.1826172-0.3935547,0.3256836-0.6328125,0.4296875C24.5415039,31.9482422,24.28125,32,24,32H8
		c-0.28125,0-0.5419922-0.0517578-0.78125-0.15625c-0.2397461-0.1040039-0.4506836-0.2470703-0.6328125-0.4296875
		C6.4033203,31.2319336,6.2602539,31.0209961,6.15625,30.78125C6.0517578,30.5419922,6,30.28125,6,30V2
		c0-0.28125,0.0517578-0.5415039,0.15625-0.78125c0.1040039-0.2392578,0.2470703-0.4501953,0.4296875-0.6328125
		C6.7680664,0.4038086,6.9790039,0.2607422,7.21875,0.15625C7.4580078,0.0522461,7.71875,0,8,0H24z M24,2H8v28h16V2z M14,26h4v2h-4
		V26z"/>
</g>
</svg>
