<?xml version="1.0" encoding="utf-8"?>
<!-- Generator: Adobe Illustrator 19.1.0, SVG Export Plug-In . SVG Version: 6.00 Build 0)  -->
<svg version="1.1" id="Layer_1" xmlns="http://www.w3.org/2000/svg" xmlns:xlink="http://www.w3.org/1999/xlink" x="0px" y="0px"
	 width="32px" height="32px" viewBox="0 0 32 32" style="enable-background:new 0 0 32 32;" xml:space="preserve">
<g>
	<g>
		<g>
			<path d="M3,0v32h14v-2H5V10h15v4h2V0H3z M20,8H5V2h15V8z"/>
			<rect x="16" y="4" width="2" height="2"/>
		</g>
	</g>
	<g>
		<path d="M28,21c0,0.5419922-0.0859375,1.0683594-0.2578125,1.578125C27.5703125,23.0888672,27.3227539,23.5625,27,24v8l-4-2l-4,2
			v-8c-0.3232422-0.4375-0.5703125-0.9111328-0.7421875-1.421875C18.0859375,22.0683594,18,21.5419922,18,21
			c0-0.6875,0.1298828-1.3330078,0.390625-1.9375c0.2602539-0.6035156,0.6171875-1.1328125,1.0703125-1.5859375
			s0.984375-0.8125,1.59375-1.078125S22.3124943,16,23,16c0.6874943,0,1.3330078,0.1328125,1.9374943,0.3984375
			c0.6040096,0.265625,1.1328182,0.625,1.5859432,1.078125s0.8125,0.9824219,1.078125,1.5859375
			C27.8671875,19.6669922,28,20.3125,28,21z M23,18c-0.4169922,0-0.8076172,0.078125-1.171875,0.234375
			c-0.3647461,0.15625-0.6826172,0.3701172-0.953125,0.640625c-0.2709961,0.2714844-0.484375,0.5888672-0.640625,0.953125
			C20.078125,20.1933594,20,20.5839844,20,21c0,0.4169922,0.078125,0.8076172,0.234375,1.171875
			c0.15625,0.3652344,0.3696289,0.6826172,0.640625,0.953125c0.2705078,0.2714844,0.5883789,0.484375,0.953125,0.640625
			C22.1923828,23.921875,22.5830078,24,23,24c0.4165039,0,0.8071289-0.078125,1.171875-0.234375
			c0.3642578-0.15625,0.6821289-0.3691406,0.953125-0.640625c0.2705078-0.2705078,0.484375-0.5878906,0.640625-0.953125
			C25.921875,21.8076172,26,21.4169922,26,21c0-0.4160156-0.078125-0.8066406-0.234375-1.171875
			c-0.15625-0.3642578-0.3701172-0.6816406-0.640625-0.953125c-0.2709961-0.2705078-0.5888672-0.484375-0.953125-0.640625
			C23.8071289,18.078125,23.4165039,18,23,18z M23,27.765625c0.3330078,0.1777344,0.6665039,0.3466797,1,0.5078125
			c0.3330078,0.1621094,0.6665039,0.3261719,1,0.4921875v-3.1875C24.375,25.859375,23.7080078,26,23,26
			c-0.7084961,0-1.375-0.140625-2-0.421875v3.1875c0.3330078-0.1660156,0.6665039-0.3300781,1-0.4921875
			C22.3330078,28.1123047,22.6665039,27.9433594,23,27.765625z"/>
	</g>
</g>
</svg>
