<?xml version="1.0" encoding="utf-8"?>
<!-- Generator: Adobe Illustrator 19.1.0, SVG Export Plug-In . SVG Version: 6.00 Build 0)  -->
<svg version="1.1" id="Layer_1" xmlns="http://www.w3.org/2000/svg" xmlns:xlink="http://www.w3.org/1999/xlink" x="0px" y="0px"
	 width="32px" height="32px" viewBox="0 0 32 32" style="enable-background:new 0 0 32 32;" xml:space="preserve">
<g>
	<path d="M28,5v14H12h-0.8284302l-0.5857849,0.5857849L6,24.1715851V21v-2H4V5H28 M30,3H2v18h2v8l8-8h18V3L30,3z"/>
	<path d="M8.5,17v-0.625c0-0.394043,0.0751953-0.7680664,0.2236328-1.1123047
		c0.1489258-0.3457031,0.3564453-0.652832,0.6162109-0.9130859c0.2597656-0.2597656,0.5688477-0.46875,0.9194336-0.621582
		c0.6938477-0.3032227,1.5371094-0.3032227,2.2260742,0c0.3476563,0.152832,0.6557617,0.3623047,0.9150391,0.621582
		s0.46875,0.5673828,0.621582,0.9150391C14.1733398,15.6088867,14.25,15.9824219,14.25,16.375V17h3.5v-0.625
		c0-0.394043,0.0751953-0.7680664,0.2236328-1.1123047c0.1489258-0.3457031,0.3564453-0.652832,0.6162109-0.9130859
		c0.2597656-0.2597656,0.5688477-0.46875,0.9194336-0.621582c0.6933594-0.3032227,1.5366211-0.3032227,2.2260742,0
		c0.3476563,0.152832,0.6557617,0.3623047,0.9150391,0.621582s0.46875,0.5673828,0.621582,0.9150391
		C23.4233398,15.6088867,23.5,15.9824219,23.5,16.375V17h1.75v-0.625c0-0.4311523-0.0571289-0.8530273-0.1704102-1.2543945
		c-0.112793-0.3999023-0.2797852-0.7822266-0.4960938-1.1367188c-0.2138672-0.3496094-0.4770508-0.675293-0.7832031-0.96875
		c-0.2226563-0.2119141-0.4672852-0.4018555-0.730957-0.5668945c0.2539063-0.2685547,0.4619141-0.5751953,0.6196289-0.9145508
		C23.8955078,11.0878906,24,10.6142578,24,10.125c0-0.4624023-0.0908203-0.9033203-0.2700195-1.3115234
		c-0.1787109-0.4047852-0.4228516-0.7641602-0.7260742-1.0673828s-0.6625977-0.5473633-1.0673828-0.7260742
		c-0.8164063-0.3583984-1.8051758-0.3583984-2.6274414,0c-0.4077148,0.1777344-0.7685547,0.421875-1.0727539,0.7260742
		c-0.3051758,0.3051758-0.5478516,0.6645508-0.7216797,1.0688477C17.3388672,9.2216797,17.25,9.6625977,17.25,10.125
		c0,0.4916992,0.1030273,0.965332,0.3056641,1.4072266c0.1547852,0.3393555,0.362793,0.6464844,0.6206055,0.9155273
		c-0.2666016,0.1650391-0.512207,0.3554688-0.7329102,0.5688477c-0.2998047,0.2895508-0.5610352,0.6147461-0.7768555,0.9672852
		c-0.2163086,0.3544922-0.3833008,0.7368164-0.4960938,1.1367188C16.0571289,15.5219727,16,15.9438477,16,16.375
		c0-0.4311523-0.0571289-0.8530273-0.1704102-1.2543945c-0.112793-0.3999023-0.2797852-0.7822266-0.4960938-1.1367188
		c-0.2138672-0.3496094-0.4770508-0.675293-0.7832031-0.96875c-0.2226563-0.2119141-0.4672852-0.4018555-0.730957-0.5668945
		c0.2539063-0.2685547,0.4619141-0.5751953,0.6196289-0.9145508C14.6455078,11.0878906,14.75,10.6142578,14.75,10.125
		c0-0.4624023-0.0908203-0.9033203-0.2700195-1.3115234c-0.1787109-0.4047852-0.4228516-0.7641602-0.7260742-1.0673828
		s-0.6625977-0.5473633-1.0673828-0.7260742c-0.8164063-0.3583984-1.8051758-0.3583984-2.6274414,0
		c-0.4077148,0.1777344-0.7685547,0.421875-1.0727539,0.7260742C8.6811523,8.0512695,8.4384766,8.4106445,8.2646484,8.8149414
		C8.0888672,9.2216797,8,9.6625977,8,10.125c0,0.4916992,0.1030273,0.965332,0.3056641,1.4072266
		c0.1547852,0.3393555,0.362793,0.6464844,0.6206055,0.9155273c-0.2666016,0.1650391-0.512207,0.3554688-0.7329102,0.5688477
		c-0.2998047,0.2895508-0.5610352,0.6147461-0.7768555,0.9672852c-0.2163086,0.3544922-0.3833008,0.7368164-0.4960938,1.1367188
		C6.8071289,15.5219727,6.75,15.9438477,6.75,16.375V17H8.5z M19.1259766,9.4912109
		c0.0864258-0.2006836,0.199707-0.3696289,0.3476563-0.5175781c0.1464844-0.1464844,0.3203125-0.2631836,0.5175781-0.3476563
		C20.1865234,8.5424805,20.3994141,8.5,20.625,8.5c0.2246094,0,0.4379883,0.0424805,0.6337891,0.1259766
		c0.1962891,0.0844727,0.3706055,0.2016602,0.5170898,0.347168c0.1464844,0.1474609,0.2636719,0.3217773,0.3476563,0.5175781
		C22.2075195,9.6870117,22.25,9.9003906,22.25,10.125c0,0.2255859-0.0424805,0.4384766-0.1264648,0.6342773
		c-0.0839844,0.1967773-0.2006836,0.3706055-0.347168,0.5170898c-0.1479492,0.1479492-0.3168945,0.2612305-0.5170898,0.347168
		c-0.3935547,0.1679688-0.8779297,0.1679688-1.2685547,0c-0.2011719-0.0859375-0.3701172-0.1992188-0.5175781-0.3476563
		c-0.1474609-0.1464844-0.2607422-0.3154297-0.347168-0.5170898C19.0424805,10.5634766,19,10.3505859,19,10.125
		C19,9.9003906,19.0424805,9.6870117,19.1259766,9.4912109z M9.8759766,9.4912109
		c0.0864258-0.2006836,0.199707-0.3696289,0.3476563-0.5175781c0.1464844-0.1464844,0.3203125-0.2631836,0.5175781-0.3476563
		C10.9365234,8.5424805,11.1494141,8.5,11.375,8.5c0.2246094,0,0.4379883,0.0424805,0.6337891,0.1259766
		c0.1962891,0.0844727,0.3706055,0.2016602,0.5170898,0.347168c0.1464844,0.1474609,0.2636719,0.3217773,0.3476563,0.5175781
		C12.9575195,9.6870117,13,9.9003906,13,10.125c0,0.2255859-0.0424805,0.4384766-0.1264648,0.6342773
		c-0.0839844,0.1967773-0.2006836,0.3706055-0.347168,0.5170898c-0.1479492,0.1479492-0.3168945,0.2612305-0.5170898,0.347168
		c-0.3930664,0.1679688-0.8779297,0.1679688-1.2685547,0c-0.2011719-0.0859375-0.3701172-0.1992188-0.5175781-0.3476563
		c-0.1474609-0.1464844-0.2607422-0.3154297-0.347168-0.5170898C9.7924805,10.5634766,9.75,10.3505859,9.75,10.125
		C9.75,9.9003906,9.7924805,9.6870117,9.8759766,9.4912109z"/>
</g>
</svg>
