<?xml version="1.0" encoding="utf-8"?>
<!-- Generator: Adobe Illustrator 19.1.0, SVG Export Plug-In . SVG Version: 6.00 Build 0)  -->
<svg version="1.1" id="Layer_1" xmlns="http://www.w3.org/2000/svg" xmlns:xlink="http://www.w3.org/1999/xlink" x="0px" y="0px"
	 width="32px" height="32px" viewBox="0 0 32 32" style="enable-background:new 0 0 32 32;" xml:space="preserve">
<g>
	<g>
		<polygon points="32,28 32,15 16.2504883,15 18.2504883,17 30,17 30,26 14,26 14,21.2504883 12,19.2504883 12,28 21,28 21,30 
			17,30 17,32 27,32 27,30 23,30 23,28 		"/>
		<path d="M15,14h-2.578125l6,6L17,21.421875l-6-6V18H9v-6h6V14z"/>
	</g>
	<g>
		<path d="M15,30H2V10h15v3h2V0H0v32h15V30z M2,2h15v6H2V2z"/>
		<rect x="13" y="4" width="2" height="2"/>
	</g>
</g>
<g>
</g>
<g>
</g>
<g>
</g>
<g>
</g>
<g>
</g>
<g>
</g>
<g>
</g>
<g>
</g>
<g>
</g>
<g>
</g>
<g>
</g>
<g>
</g>
<g>
</g>
<g>
</g>
<g>
</g>
</svg>
