<?xml version="1.0" encoding="utf-8"?>
<!-- Generator: Adobe Illustrator 19.1.0, SVG Export Plug-In . SVG Version: 6.00 Build 0)  -->
<svg version="1.1" id="Layer_1" xmlns="http://www.w3.org/2000/svg" xmlns:xlink="http://www.w3.org/1999/xlink" x="0px" y="0px"
	 width="32px" height="32px" viewBox="0 0 32 32" style="enable-background:new 0 0 32 32;" xml:space="preserve">
<g>
	<path d="M31.5234375,14.6401367c-0.3183594-0.7270508-0.7548828-1.3657227-1.296875-1.8979492
		c-0.5439453-0.5336914-1.1904297-0.9619141-1.921875-1.2739258C27.5732422,11.1577148,26.7822266,11,25.953125,11
		c-0.1455078-1.1308594-0.4794922-2.1982422-0.9921875-3.1723633C24.4472656,6.8535156,23.7880859,6,23,5.2890625
		c-0.7890625-0.7109375-1.7070313-1.2758789-2.7265625-1.6796875C18.5693359,2.9345703,16.5556641,2.8144531,14.75,3.28125
		c-0.7246094,0.1865234-1.4189453,0.4594727-2.0625,0.8125c-0.6416016,0.3515625-1.2431641,0.7900391-1.7900391,1.3051758
		c-0.546875,0.515625-1.0322266,1.1020508-1.4433594,1.7407227L9.453125,7.140625
		C7.8339844,6.8334961,6.2705078,7.03125,4.8828125,7.625c-0.9697266,0.4150391-1.8271484,0.9907227-2.546875,1.7109375
		c-0.7207031,0.7197266-1.296875,1.5771484-1.7119141,2.5478516C0.2099609,12.8535156,0,13.9018555,0,15
		c0,1.0991211,0.2109375,2.1479492,0.625,3.1171875c0.4140625,0.9697266,0.9892578,1.8266602,1.7109375,2.546875
		c0.7197266,0.7207031,1.5771484,1.2963867,2.546875,1.7109375C5.8515625,22.7895508,6.9003906,23,8,23h1v-2H8
		c-0.8271484,0-1.6113281-0.15625-2.3310547-0.4638672C4.9345703,20.222168,4.2890625,19.7895508,3.75,19.2495117
		c-0.5400391-0.5390625-0.9726563-1.184082-1.2861328-1.918457C2.15625,16.6113281,2,15.8271484,2,15
		c0-0.8261719,0.15625-1.6108398,0.4638672-2.3305664C2.7773438,11.9350586,3.2099609,11.2895508,3.75,10.7504883
		c0.5390625-0.5395508,1.1855469-0.9726563,1.9199219-1.2866211C6.3886719,9.15625,7.1728516,9,8,9
		c0.3496094,0,0.7119141,0.0356445,1.078125,0.1054688l1.3242188,0.2529297l0.7324219-1.1352539
		c0.3242188-0.5039063,0.7060547-0.9648438,1.1347656-1.3691406c0.4228516-0.3979492,0.8867188-0.7363281,1.3789063-1.0063477
		c0.4980469-0.2729492,1.0361328-0.484375,1.6005859-0.6293945c1.3994141-0.3623047,2.9755859-0.269043,4.2880859,0.2504883
		c0.7978516,0.315918,1.5126953,0.7553711,2.1240234,1.3056641c0.6123047,0.5522461,1.1269531,1.2207031,1.5302734,1.9853516
		c0.4013672,0.762207,0.6630859,1.6015625,0.7783203,2.4970703L24.1953125,13h1.7578125
		c0.5585938,0,1.0869141,0.1040039,1.5683594,0.3085938c0.5,0.2133789,0.9394531,0.503418,1.3046875,0.8613281
		c0.3583984,0.3520508,0.6494141,0.7802734,0.8642578,1.269043C29.8955078,15.9130859,30,16.4379883,30,17
		c0,0.5561523-0.1025391,1.0751953-0.3046875,1.5429688C29.5213013,18.946228,29.27948,19.2997437,29,19.6192627v2.5465088
		c0.4504395-0.262146,0.8760986-0.5576172,1.2421875-0.9230957c0.5439453-0.543457,0.9775391-1.1850586,1.2890625-1.90625
		C31.8417969,18.6166992,32,17.8305664,32,17C32,16.1625977,31.8398438,15.3696289,31.5234375,14.6401367z"/>
</g>
<path d="M20,17v-5h-9v17h7h2h7V17H20z M18,27h-5V14h5v3V27z M25,27h-5v-8h5V27z"/>
<g>
	<rect x="14" y="15" width="1" height="1"/>
	<rect x="16" y="15" width="1" height="1"/>
	<rect x="14" y="17" width="1" height="1"/>
	<rect x="16" y="17" width="1" height="1"/>
	<rect x="14" y="19" width="1" height="1"/>
	<rect x="16" y="19" width="1" height="1"/>
	<rect x="14" y="21" width="1" height="1"/>
	<rect x="16" y="21" width="1" height="1"/>
	<rect x="14" y="23" width="1" height="1"/>
	<rect x="16" y="23" width="1" height="1"/>
</g>
<g>
	<rect x="21" y="20" width="1" height="1"/>
	<rect x="23" y="20" width="1" height="1"/>
	<rect x="21" y="22" width="1" height="1"/>
	<rect x="23" y="22" width="1" height="1"/>
	<rect x="21" y="24" width="1" height="1"/>
	<rect x="23" y="24" width="1" height="1"/>
</g>
<g>
</g>
<g>
</g>
<g>
</g>
<g>
</g>
<g>
</g>
<g>
</g>
<g>
</g>
<g>
</g>
<g>
</g>
<g>
</g>
<g>
</g>
<g>
</g>
<g>
</g>
<g>
</g>
<g>
</g>
</svg>
