<?xml version="1.0" encoding="utf-8"?>
<!-- Generator: Adobe Illustrator 19.1.0, SVG Export Plug-In . SVG Version: 6.00 Build 0)  -->
<svg version="1.1" id="Layer_1" xmlns="http://www.w3.org/2000/svg" xmlns:xlink="http://www.w3.org/1999/xlink" x="0px" y="0px"
	 width="32px" height="32px" viewBox="0 0 32 32" style="enable-background:new 0 0 32 32;" xml:space="preserve">
<g>
	<g>
		<g>
			<path d="M12.1943359,21.8515625c0.2250977-0.2416992,0.4589844-0.4736328,0.7011719-0.6948242
				c0.206543-0.1884766,0.409668-0.3701172,0.6074219-0.5458984c0.1582031-0.1401367,0.3007813-0.2734375,0.4262695-0.3984375
				c0.079834-0.079834,0.1742554-0.1398926,0.2596436-0.2124023H8c-0.8334961,0-1.6123047-0.15625-2.3359375-0.46875
				c-0.7241211-0.3125-1.359375-0.7421875-1.90625-1.2890625S2.78125,17.0600586,2.46875,16.3359375
				C2.15625,15.6123047,2,14.8334961,2,14c0-0.8227539,0.15625-1.5986328,0.46875-2.328125
				c0.3125-0.7290039,0.7421875-1.3671875,1.2890625-1.9140625S4.9399414,8.78125,5.6640625,8.46875
				C6.3876953,8.15625,7.1665039,8,8,8c0.8642578,0,1.6874943,0.1826172,2.46875,0.546875
				c0.2602539-0.6875,0.609375-1.3095703,1.046875-1.8671875c0.4375-0.5571289,0.9399414-1.0336914,1.5078125-1.4296875
				c0.5673828-0.3955078,1.1899414-0.703125,1.8671875-0.921875C15.5673828,4.109375,16.2705078,4,17,4
				c0.96875,0,1.8774414,0.1826172,2.7265625,0.546875c0.8486328,0.3647461,1.5908203,0.8647461,2.2265625,1.5
				c0.6352539,0.6357422,1.1352539,1.3779297,1.5,2.2265625c0.2536621,0.5913086,0.4133911,1.2133179,0.4906006,1.8625488
				c0.2859497-0.3248291,0.5870972-0.6447754,0.9088135-0.9436035C25.1055908,8.9574585,25.3740234,8.75,25.6486816,8.5564575
				C25.475708,7.956665,25.2507935,7.3787231,24.9609375,6.828125C24.4453125,5.8491211,23.7915039,5.0029297,23,4.2890625
				c-0.7919922-0.7133789-1.7006836-1.2734375-2.7265625-1.6796875C19.2470703,2.203125,18.15625,2,17,2
				c-0.7709961,0-1.5209961,0.09375-2.25,0.28125c-0.7294922,0.1875-1.4169922,0.4584961-2.0625057,0.8125
				c-0.6459904,0.3544922-1.2421818,0.7890625-1.7890568,1.3046875S9.8696289,5.4951172,9.453125,6.140625
				C8.9633789,6.046875,8.4790039,6,8,6C6.8955078,6,5.8564453,6.2084961,4.8828125,6.625
				c-0.9741211,0.4169922-1.8232422,0.9873047-2.546875,1.7109375C1.6118164,9.0600586,1.0415039,9.9091797,0.625,10.8828125
				C0.2080078,11.8569336,0,12.8959961,0,14c0,1.1044922,0.2080078,2.1435547,0.625,3.1171875
				c0.4165039,0.9741211,0.9868164,1.8232422,1.7109375,2.546875c0.7236328,0.7241211,1.5727539,1.2944336,2.546875,1.7109375
				C5.8564453,21.7919922,6.8955078,22,8,22h4.0731201C12.1159058,21.9517822,12.1503296,21.8989258,12.1943359,21.8515625z"/>
		</g>
		<g>
			<path d="M28.216011,11.6538534c0.0141335,0.0003471,0.0323048,0.0026112,0.0626106,0.0149136l0.0534096,0.0391598
				l0.0008602,0.0003395c0.3529301,0.3459301,0.6614513,0.6599503,0.9244499,0.9393902
				c0.1831112,0.1950006,0.3351498,0.3921299,0.4517002,0.5856199c0.0886898,0.1472902,0.1557198,0.3145704,0.2049294,0.5114508
				c0.0392513,0.1569595,0.086031,0.4437094,0.086031,0.9183493c0,0.5673399-0.0941792,1.1742105-0.2800293,1.8041496
				c-0.2034512,0.6900902-0.4909401,1.3943405-0.8551216,2.0943413c-0.3717899,0.7157993-0.8243294,1.429369-1.3461895,2.1224098
				c-0.5309696,0.7065296-1.12187,1.3880005-1.7569599,2.0261497c-0.6324291,0.6360893-1.3129101,1.2326488-2.0227299,1.7732601
				c-0.6915703,0.5268497-1.4071903,0.9860687-2.1269798,1.3649101c-0.7021103,0.3695297-1.4109707,0.6610394-2.1083698,0.8668804
				c-0.6385498,0.1889896-1.2610893,0.2848186-1.8503304,0.2848186c-0.4657192,0-0.7506104-0.0467796-0.9076099-0.0860291
				c-0.1947708-0.0486908-0.3618393-0.1163006-0.5107002-0.2066402c-0.1964188-0.1192207-0.3920593-0.271101-0.5831499-0.4530106
				c-0.2845802-0.2702789-0.60287-0.5822201-0.98172-0.9756889c-0.0138102-0.0340214-0.0149698-0.0529308-0.0167398-0.0537605
				c0.0293798-0.0753098,0.0725403-0.1532402,0.1265602-0.2292099c0.1026602-0.1439209,0.21838-0.2853603,0.34412-0.4206009
				c0.1508198-0.1622486,0.3069096-0.3169498,0.4664097-0.4620495c0.1938105-0.1769009,0.3830805-0.3466492,0.5668106-0.5095997
				c0.2228088-0.1975307,0.4232788-0.3857994,0.6391392-0.5878506c0.0264816-0.0107422,0.0437775-0.0139942,0.0763969-0.0139942
				c0.0047684,0,0.0098705,0.0000706,0.0153694,0.0001965c0.0401783,0.0200882,0.0753918,0.0420761,0.1078148,0.0674171
				c0.089529,0.0697613,0.1707592,0.1444912,0.2429886,0.2238216c0.15662,0.1716385,0.3054008,0.3318195,0.4480915,0.4824886
				c0.2255096,0.2374916,0.4618092,0.4433308,0.6986599,0.60923c0.4692383,0.3302612,1.0147495,0.5048199,1.5775394,0.5048199
				c0.7360802,0,1.4300194-0.2885284,1.9489403-0.8074398c0.0867195-0.0860996,0.2246895-0.2194996,0.4144001-0.399229
				l0.2948895-0.2792397l0.4157791-0.3937416c0.2746811-0.2595787,0.5713615-0.543869,0.8900108-0.8515282
				c0.3214207-0.3103409,0.6428394-0.6262112,0.9642506-0.9476318c0.3191891-0.3191795,0.6273689-0.6308098,0.9229488-0.9339199
				c0.3122807-0.3195095,0.59758-0.6268997,0.8482399-0.9139099c0.2713909-0.3108692,0.4893913-0.5849895,0.6673412-0.8393192
				c0.2404594-0.3442307,0.5601387-0.8805599,0.5601387-1.5609798c0-0.5511799-0.1727486-1.0903606-0.5062084-1.5687103
				c-0.1640816-0.2325401-0.3619404-0.4623594-0.5916405-0.6865301c-0.1543713-0.14991-0.3205795-0.3065195-0.5020905-0.4721394
				c-0.0711098-0.0646-0.1415691-0.1423407-0.2093906-0.2310104c-0.0301952-0.0394936-0.0560398-0.0812492-0.0796757-0.1297894
				c0.0000153-0.0024261-0.000082-0.0058031-0.0002728-0.010231c0-0.0150099,0.0012093-0.0339994,0.0403385-0.1079693
				c0.2569103-0.2569103,0.5381413-0.5625906,0.8361301-0.9088507c0.2170906-0.2523594,0.4516811-0.4959393,0.6972599-0.7239799
				c0.1923199-0.1785793,0.3937702-0.3294802,0.5988102-0.4485292
				C28.1959515,11.6618032,28.2099152,11.6560574,28.216011,11.6538534 M28.2109814,9.6537962
				c-0.3599701,0-0.7071304,0.0971603-1.0417995,0.2914906c-0.3346691,0.1943197-0.6531506,0.4318295-0.9554291,0.7125196
				c-0.30229,0.2807007-0.5866909,0.57623-0.852541,0.8852701c-0.2665195,0.3097-0.5114498,0.57623-0.7341194,0.7988901
				c-0.2017498,0.2017498-0.3562603,0.4358797-0.46422,0.7017298c-0.1079597,0.26653-0.1619396,0.5398006-0.1619396,0.8204899
				c0,0.2806902,0.0465584,0.5310202,0.1403484,0.7503099c0.093111,0.2199707,0.2105198,0.4210405,0.3508606,0.6045704
				c0.1403503,0.1835299,0.2914906,0.3495197,0.4534302,0.4966097c0.1619396,0.1477699,0.3130798,0.2901411,0.4534302,0.4264402
				c0.1403389,0.1369705,0.2570705,0.2719193,0.3508606,0.4048405c0.0931187,0.1336002,0.1403484,0.2719193,0.1403484,0.4156399
				c0,0.0863705-0.0667992,0.2253704-0.1997185,0.4156494c-0.1336117,0.1909504-0.3117409,0.4142895-0.5344009,0.6693401
				c-0.2233391,0.2557297-0.4804192,0.533041-0.7719097,0.8312798c-0.291481,0.2989101-0.593771,0.6045704-0.9068508,0.9176502
				s-0.6261597,0.62076-0.9392395,0.9230499c-0.3130798,0.3022804-0.6045704,0.5816307-0.8744698,0.8366795
				c-0.2698898,0.2557201-0.5074005,0.4804115-0.7125206,0.6747417c-0.2051296,0.1943283-0.3542385,0.3387184-0.4480286,0.431839
				c-0.1511517,0.1511402-0.3309612,0.2267094-0.5398006,0.2267094c-0.1511402,0-0.2931709-0.0465584-0.4264297-0.1403484
				c-0.1329308-0.093111-0.2661896-0.2105217-0.3994503-0.3508606c-0.1329193-0.1403503-0.2732697-0.2914906-0.4210396-0.4534302
				c-0.1474304-0.1619396-0.31106-0.3130798-0.4912109-0.4534302c-0.1794796-0.1403408-0.3792095-0.2570705-0.5988388-0.3508606
				c-0.2196217-0.0931187-0.4733315-0.1403484-0.7611103-0.1403484c-0.2806911,0-0.5543003,0.0539799-0.8204803,0.1619396
				c-0.2661905,0.1079597-0.5003204,0.2631493-0.7013998,0.46422c-0.1511402,0.1511402-0.3225203,0.3117294-0.5128002,0.4804192
				c-0.1909504,0.1693611-0.3873005,0.3454704-0.5883703,0.5290012c-0.2017498,0.1835289-0.39608,0.3764992-0.5829802,0.57757
				c-0.1875801,0.2017498-0.3562698,0.4088993-0.50741,0.6207695c-0.1511393,0.2125397-0.2719193,0.4338589-0.36166,0.6639404
				c-0.0904198,0.2307701-0.1349497,0.4682693-0.1349497,0.7125301c0,0.2806892,0.0539799,0.5546398,0.1619396,0.8204899
				c0.1079607,0.2665195,0.2624702,0.5006599,0.46422,0.7017288c0.3670607,0.3670597,0.6976805,0.6909409,0.9932203,0.9716301
				c0.2948599,0.2806911,0.6025505,0.5181999,0.9227104,0.7125301c0.3201694,0.1943207,0.6747398,0.3400707,1.0633993,0.4372311
				c0.3886509,0.0971584,0.8528709,0.1457386,1.3926601,0.1457386c0.7843895,0,1.5903702-0.1221199,2.4179401-0.3670597
				c0.82757-0.2442493,1.6517696-0.5829697,2.4722595-1.0148106c0.8204803-0.4318295,1.6227512-0.9459896,2.4074802-1.5438099
				c0.78405-0.5971489,1.5272808-1.24827,2.2290096-1.9540501c0.7017307-0.7051086,1.3477898-1.4500198,1.937521-2.2347488
				c0.5903988-0.78405,1.0978088-1.5849705,1.5222187-2.4020805c0.4247513-0.8164406,0.7577305-1.6335506,0.998621-2.4506607
				C31.879221,16.2163372,32,15.4262171,32,14.6630764c0-0.5465393-0.0485783-1.0148096-0.1457481-1.4034595
				c-0.0971603-0.3886499-0.2408791-0.7408705-0.4318295-1.0580006c-0.1906204-0.3164492-0.4264412-0.6241293-0.7071304-0.9230394
				c-0.2806892-0.2982397-0.6079407-0.6315603-0.9824295-0.99862c-0.2014103-0.2010803-0.4351997-0.3562698-0.7017307-0.46422
				C28.7652817,9.707777,28.4916821,9.6537962,28.2109814,9.6537962L28.2109814,9.6537962z"/>
		</g>
	</g>
	<polygon points="23,18.5887451 17.421875,13 21,13 21,11 14,11 14,18 16,18 16,14.421875 21.5887451,20 	"/>
</g>
</svg>
