<?xml version="1.0" encoding="utf-8"?>
<!-- Generator: Adobe Illustrator 19.1.0, SVG Export Plug-In . SVG Version: 6.00 Build 0)  -->
<svg version="1.1" id="Layer_1" xmlns="http://www.w3.org/2000/svg" xmlns:xlink="http://www.w3.org/1999/xlink" x="0px" y="0px"
	 width="32px" height="32px" viewBox="0 0 32 32" style="enable-background:new 0 0 32 32;" xml:space="preserve">
<path d="M31.5234375,17.640625c-0.3178711-0.7290039-0.75-1.3618164-1.296875-1.8984375
	c-0.546875-0.5361328-1.1875-0.9609375-1.921875-1.2734375S26.7861328,14,25.953125,14
	c-0.1459961-1.1352539-0.4765625-2.1923828-0.9921875-3.171875C24.4453125,9.8491211,23.7915039,9.0029297,23,8.2890625
	c-0.7919922-0.7133789-1.7006836-1.2734375-2.7265625-1.6796875C19.2470703,6.203125,18.15625,6,17,6
	c-0.7709961,0-1.5209961,0.09375-2.25,0.28125c-0.7294922,0.1875-1.4169922,0.4584961-2.0625057,0.8125
	c-0.6459904,0.3544922-1.2421818,0.7890625-1.7890568,1.3046875S9.8696289,9.4951172,9.453125,10.140625
	C8.9633789,10.046875,8.4790039,10,8,10c-1.1044922,0-2.1435547,0.2084961-3.1171875,0.625
	c-0.9741211,0.4169922-1.8232422,0.9873047-2.546875,1.7109375C1.6118164,13.0600586,1.0415039,13.9091797,0.625,14.8828125
	C0.2080078,15.8569336,0,16.8959961,0,18c0,1.1044922,0.2080078,2.1435547,0.625,3.1171875
	c0.4165039,0.9741211,0.9868164,1.8232422,1.7109375,2.546875c0.7236328,0.7241211,1.5727539,1.2944336,2.546875,1.7109375
	C5.8564453,25.7919922,6.8955078,26,8,26h18c0.8227539,0,1.5986328-0.15625,2.328125-0.46875
	c0.7290039-0.3125,1.3671875-0.7421875,1.9140625-1.2890625s0.9765625-1.1821289,1.2890625-1.90625
	C31.84375,21.6123047,32,20.8334961,32,20C32,19.15625,31.8408203,18.3701172,31.5234375,17.640625z M19.7265625,8.546875
	c0.8486328,0.3647461,1.5908203,0.8647461,2.2265625,1.5c0.6352539,0.6357422,1.1352539,1.3779297,1.5,2.2265625
	C23.8173828,13.1225586,24,14.03125,24,15v1h2c0.5517578,0,1.0703125,0.1044922,1.5546875,0.3125
	c0.484375,0.2084961,0.9086914,0.4951172,1.2734375,0.859375c0.3642578,0.3647461,0.6508789,0.7890625,0.8593693,1.2734375
	C29.8955078,18.9296875,30,19.4482422,30,20c0,0.5522461-0.1044922,1.0703125-0.3125057,1.5546875
	c-0.1060734,0.246521-0.2334538,0.4768066-0.3799381,0.6923218L15.2929688,8.2324219C15.8464355,8.0904541,16.4122925,8,17,8
	C17.96875,8,18.8774414,8.1826172,19.7265625,8.546875z M5.6640625,12.46875
	c0.432312-0.1867065,0.8867188-0.3106689,1.3583374-0.3858032L18.9394531,24h-7.8789063l-8.4990234-8.4990234
	c0.3043823-0.6543579,0.6950073-1.2418823,1.1962891-1.7431641C4.3046875,13.2109375,4.9399414,12.78125,5.6640625,12.46875z
	 M5.6640625,23.53125c-0.7241211-0.3125-1.359375-0.7421875-1.90625-1.2890625S2.78125,21.0600586,2.46875,20.3359375
	C2.15625,19.6123047,2,18.8334961,2,18c0-0.2971802,0.0276489-0.5860596,0.0684204-0.8710327L8.9394531,24H8
	C7.1665039,24,6.3876953,23.84375,5.6640625,23.53125z M26,24h-4.9394531L9.184021,12.1234741
	c0.4397583,0.0908203,0.8686523,0.2293701,1.284729,0.4234009c0.2602539-0.6875,0.609375-1.3095703,1.046875-1.8671875
	c0.4375-0.5571289,0.9399414-1.0336914,1.5078125-1.4296875c0.2330322-0.1624146,0.4813843-0.300293,0.7329712-0.4330444
	l14.4907227,14.4907227c-0.2155151,0.1466064-0.4458008,0.2739258-0.6924438,0.3798218C27.0703125,23.8959961,26.5517578,24,26,24z"
	/>
</svg>
