<?xml version="1.0" encoding="utf-8"?>
<!-- Generator: Adobe Illustrator 19.1.0, SVG Export Plug-In . SVG Version: 6.00 Build 0)  -->
<svg version="1.1" id="Layer_1" xmlns="http://www.w3.org/2000/svg" xmlns:xlink="http://www.w3.org/1999/xlink" x="0px" y="0px"
	 width="32px" height="32px" viewBox="-7 9 32 32" style="enable-background:new -7 9 32 32;" xml:space="preserve">
<path d="M5,23v15h20V23H5z M22.1973267,25L15,29.7983398L7.8026733,25H22.1973267z M7,36v-9.1315308l8,5.3331909l8-5.3331909V36H7z"
	/>
<path d="M3,31H1c-0.8334961,0-1.6123047-0.15625-2.3359375-0.46875c-0.7241211-0.3125-1.359375-0.7421875-1.90625-1.2890625
	s-0.9765625-1.1821289-1.2890625-1.90625C-4.84375,26.6123047-5,25.8334961-5,25c0-0.8227539,0.15625-1.5986328,0.46875-2.328125
	c0.3125-0.7290039,0.7421875-1.3671875,1.2890625-1.9140625s1.1821289-0.9765625,1.90625-1.2890625
	C-0.6123047,19.15625,0.1665039,19,1,19c0.8642578,0,1.6874943,0.1826172,2.46875,0.546875
	c0.2602539-0.6875,0.609375-1.3095703,1.046875-1.8671875c0.4375-0.5571289,0.9399414-1.0336914,1.5078125-1.4296875
	c0.5673828-0.3955078,1.1899414-0.703125,1.8671875-0.921875C8.5673828,15.109375,9.2705078,15,10,15
	c0.96875,0,1.8774414,0.1826172,2.7265625,0.546875c0.8486328,0.3647461,1.5908203,0.8647461,2.2265625,1.5
	c0.6352539,0.6357422,1.1352539,1.3779297,1.5,2.2265625C16.6889038,19.8230591,16.840271,20.4003296,16.923584,21h2.029541
	c-0.1459961-1.1352539-0.4765625-2.1923828-0.9921875-3.171875C17.4453125,16.8491211,16.7915039,16.0029297,16,15.2890625
	c-0.7919922-0.7133789-1.7006836-1.2734375-2.7265625-1.6796875C12.2470703,13.203125,11.15625,13,10,13
	c-0.7709961,0-1.5209961,0.09375-2.25,0.28125c-0.7294922,0.1875-1.4169922,0.4584961-2.0625057,0.8125
	c-0.6459904,0.3544922-1.2421818,0.7890625-1.7890568,1.3046875S2.8696289,16.4951172,2.453125,17.140625
	C1.9633789,17.046875,1.4790039,17,1,17c-1.1044922,0-2.1435547,0.2084961-3.1171875,0.625
	c-0.9741211,0.4169922-1.8232422,0.9873047-2.546875,1.7109375c-0.7241211,0.7241211-1.2944336,1.5732422-1.7109375,2.546875
	C-6.7919922,22.8569336-7,23.8959961-7,25c0,1.1044922,0.2080078,2.1435547,0.625,3.1171875
	c0.4165039,0.9741211,0.9868164,1.8232422,1.7109375,2.546875c0.7236328,0.7241211,1.5727539,1.2944336,2.546875,1.7109375
	C-1.1435547,32.7919922-0.1044922,33,1,33h2V31z"/>
</svg>
