<svg xmlns="http://www.w3.org/2000/svg" width="31.82" height="31.49" viewBox="0 0 31.82 31.49">
  <defs>
    <style>
      .cls-1 {
        fill: #0f0808;
      }
    </style>
  </defs>
  <title>Asset 1</title>
  <g id="Layer_2" data-name="Layer 2">
    <g id="Symbols">
      <g>
        <path d="M13.11,18h-5a6.64,6.64,0,0,1-2.5-.47,6.07,6.07,0,0,1-3.2-3.2,6,6,0,0,1,0-4.66,6,6,0,0,1,3.2-3.2,5.95,5.95,0,0,1,4.8.08,7,7,0,0,1,4.42-4.22,7,7,0,0,1,4.84.22,7,7,0,0,1,3.73,3.73A6.84,6.84,0,0,1,24,9v1h2a3.9,3.9,0,0,1,1.55.31A3.83,3.83,0,0,1,29.44,12h2.21c0-.12-.08-.24-.13-.36a6,6,0,0,0-1.3-1.9A6.16,6.16,0,0,0,28.3,8.47,5.94,5.94,0,0,0,26,8a9.3,9.3,0,0,0-1-3.17,9.09,9.09,0,0,0-2-2.54A9,9,0,0,0,20.27.61,8.81,8.81,0,0,0,17,0a9,9,0,0,0-2.25.28,8.86,8.86,0,0,0-2.06.81A8.7,8.7,0,0,0,10.9,2.4,9.35,9.35,0,0,0,9.45,4.14,7.72,7.72,0,0,0,8,4a7.84,7.84,0,0,0-3.12.63A8,8,0,0,0,.63,8.88a8.09,8.09,0,0,0,0,6.23,8,8,0,0,0,4.26,4.26A7.83,7.83,0,0,0,8,20h3.84Z"/>
        <path class="cls-1" d="M31.81,14.5h-8.3v.93c0,.37,1,.74,1,1.11,0,1,0,3,0,3l-3-4.05v-6H22c.19,0,.54,0,.53-.5S22.17,8.5,22,8.5H17s-.53,0-.53.49.33.5.53.5h.45v6l-7,11.1,1,1h13v1a4,4,0,0,0,3.21,3c1.52,0,3.1-2,3.1-3v-1H27.5a1,1,0,0,1,0-2h3.32v-2H27.5a1,1,0,0,1,0-2h3.32v-2H27.5a1,1,0,0,1,0-2h3.32v-1c0-.37,1-.74,1-1.11C31.82,15.21,31.81,14.5,31.81,14.5Zm-7.32,11h-11l4-7h4l3,4Z"/>
      </g>
    </g>
  </g>
</svg>
