<svg xmlns="http://www.w3.org/2000/svg" width="32" height="32" viewBox="0 0 32 32">
  <title>Artboard 1</title>
  <g id="Symbols">
    <g>
      <path d="M12.71,27H0V14.4ZM1,26h9L1,17Z"/>
      <path d="M7,25H2V20ZM3,24H4.64L3,22.34Z"/>
    </g>
    <path d="M31.52,15.64a6,6,0,0,0-1.3-1.9,6.16,6.16,0,0,0-1.92-1.27A5.94,5.94,0,0,0,26,12a9.3,9.3,0,0,0-1-3.17,9.09,9.09,0,0,0-2-2.54,9,9,0,0,0-2.73-1.68A8.81,8.81,0,0,0,17,4a9,9,0,0,0-2.25.28,8.86,8.86,0,0,0-2.06.81A8.7,8.7,0,0,0,10.9,6.4,9.35,9.35,0,0,0,9.45,8.14,7.72,7.72,0,0,0,8,8a7.84,7.84,0,0,0-3.12.63,8,8,0,0,0-2.55,1.71A7.84,7.84,0,0,0,1,12.12l1.44,1.54a6,6,0,0,1,3.19-3.19,5.95,5.95,0,0,1,4.8.08,7,7,0,0,1,4.42-4.22,7,7,0,0,1,4.84.22,7,7,0,0,1,3.73,3.73A6.84,6.84,0,0,1,24,13v1h2a3.9,3.9,0,0,1,1.55.31,4,4,0,0,1,2.13,2.13,4,4,0,0,1,0,3.11,4,4,0,0,1-2.13,2.13A3.89,3.89,0,0,1,26,22H10.27l1,1.05,1,.95H26a5.85,5.85,0,0,0,2.33-.47,6,6,0,0,0,3.2-3.2,6.07,6.07,0,0,0,0-4.7Z"/>
  </g>
</svg>
