<?xml version="1.0" encoding="utf-8"?>
<!-- Generator: Adobe Illustrator 19.1.0, SVG Export Plug-In . SVG Version: 6.00 Build 0)  -->
<svg version="1.1" id="Layer_1" xmlns="http://www.w3.org/2000/svg" xmlns:xlink="http://www.w3.org/1999/xlink" x="0px" y="0px"
	 width="32px" height="32px" viewBox="0 0 32 32" style="enable-background:new 0 0 32 32;" xml:space="preserve">
<g>
	<g>
		<path d="M18.3899536,19.2392578c-0.0303955,0.0151978-0.0602417,0.0466919-0.0900269,0.0945435
			c0.0956421,0.0241699,0.2036743,0.0360107,0.3240967,0.0360107c0.0900269,0,0.1766357-0.0101318,0.2610474-0.0314941
			c0.0838623-0.020874,0.1676636-0.0461426,0.2520752-0.0765381c-0.2042236-0.0838623-0.4293213-0.1260376-0.6751709-0.1260376
			C18.4439697,19.1897583,18.4197388,19.2246094,18.3899536,19.2392578z"/>
		<path d="M18.0883179,18.982666c-0.0933838-0.041626-0.1890259-0.0809937-0.2880859-0.1170044
			c-0.098999-0.0360107-0.1968994-0.0675049-0.2925415-0.0945435c-0.0962524-0.0269775-0.1834717-0.0405273-0.2611084-0.0405273
			c-0.0601807,0-0.1473999,0.0135498-0.2610474,0.0405273c-0.1142578,0.0270386-0.1924438,0.0618896-0.2340698,0.1035156
			c0.041626,0,0.0629883,0.0123901,0.0629883,0.0360107c0.0478516-0.0297852,0.0956421-0.0568237,0.144043-0.0809937
			c0.0478516-0.0236206,0.1018677-0.0360107,0.1620483-0.0360107c0.0596313,0,0.1243286,0.0168457,0.1935425,0.0494995
			c0.0686646,0.0332031,0.140686,0.0709229,0.2160645,0.1125488c0.0748291,0.0421753,0.1541748,0.079895,0.2385864,0.1125488
			c0.0838623,0.0331421,0.1766968,0.0494995,0.2791138,0.0494995c0.0477905,0,0.09729-0.0028076,0.1484985-0.0090332
			c0.0506592-0.0056152,0.1001587-0.0117798,0.1485596-0.0180054C18.2667236,19.0609131,18.1811523,19.0249023,18.0883179,18.982666
			z"/>
		<path d="M22,10c-5.5228271,0-10,4.4771118-10,10c0,5.5228271,4.4771729,10,10,10c5.5228882,0,10-4.4771729,10-10
			C32,14.4771118,27.5228882,10,22,10z M22,28c-0.6608887,0-1.2998657-0.0894775-1.9145508-0.241272
			c0.0629272-0.0823975,0.128479-0.1724243,0.2040405-0.2910156c0.0900269-0.140686,0.1710815-0.2891846,0.243103-0.4456177
			c0.0720215-0.1558838,0.1226196-0.3088989,0.1530151-0.4591675c0.0298462-0.1496582,0.0146484-0.2818604-0.0449829-0.3961182
			c0.0117798,0.024231,0.0252686,0.0197144,0.0404663-0.0134888c0.0146484-0.0326538,0.0163574-0.0551147,0.0045166-0.0675049
			l0.3781128,0.2880859c0.1260376,0,0.2503662-0.041626,0.3735962-0.1260376
			c0.1226807-0.0838623,0.2307129-0.1873779,0.3240967-0.3106079c0.0928345-0.1226807,0.1693726-0.2548828,0.2296143-0.3961182
			c0.0596313-0.140686,0.0900269-0.2711792,0.0900269-0.3916016c0.2036743-0.1260376,0.3972168-0.2279053,0.5806274-0.3060913
			c0.1828613-0.0776367,0.3421021-0.1676636,0.4771729-0.2700806c0.1350098-0.1018677,0.2368774-0.2352295,0.3060913-0.4006348
			c0.0686035-0.164856,0.0911255-0.4006348,0.0675049-0.7067261l0.3060913-0.3240967
			c0-0.1136475-0.0585327-0.2442017-0.1755371-0.3916016c-0.1170654-0.1468506-0.265564-0.2970581-0.4456177-0.4501343
			c-0.1800537-0.1530151-0.3826294-0.3027344-0.6077271-0.4501343c-0.2250366-0.1468506-0.4456177-0.2756958-0.6616821-0.387085
			c-0.2160645-0.1109009-0.4186401-0.2025757-0.607666-0.2745972c-0.1890869-0.0720215-0.3375854-0.1080322-0.4456177-0.1080322
			c-0.0180054-0.0180054-0.0585327-0.0506592-0.121582-0.0990601c-0.0629883-0.0477905-0.1322021-0.0956421-0.2070313-0.144043
			c-0.0754395-0.0477905-0.1474609-0.0911255-0.2160645-0.1304932c-0.0692139-0.0388794-0.1125488-0.0613403-0.1305542-0.0675659
			l0.0180054-0.0720215c0-0.0236206-0.0258789-0.043335-0.0765381-0.0584717
			c-0.0512085-0.0146484-0.0764771-0.043335-0.0764771-0.0855713c-0.0422363-0.0117798-0.1125488-0.0343018-0.2116089-0.0675049
			c-0.098999-0.0326538-0.2025146-0.0675049-0.3105469-0.1035156s-0.2104492-0.0675049-0.3060913-0.0945435
			c-0.0962524-0.0269775-0.1592407-0.0405273-0.1890869-0.0405273c-0.2582397,0-0.4760132,0.0438843-0.65271,0.1305542
			c-0.1772461,0.0872192-0.3167725,0.2475586-0.4185791,0.4816284l-0.1890869-0.0449829
			c0.0118408,0.0540161,0.0314941,0.1159058,0.0585327,0.1845703c0.0269775,0.0691528,0.0405273,0.1339111,0.0405273,0.1935425
			c0,0.0961914-0.0214233,0.1862183-0.0630493,0.2700806c-0.0421753,0.0844116-0.0933838,0.1665649-0.1530151,0.2475586
			c-0.0602417,0.0810547-0.121582,0.1609497-0.1845703,0.2385864c-0.0630493,0.078186-0.1125488,0.1592407-0.1485596,0.243042
			l0.1350708,0.0630493c-0.0602417,0.1204224-0.0782471,0.2599487-0.0540161,0.4186401
			c0.0236206,0.1591797,0.0703125,0.3330688,0.1395264,0.5221558c0.0686035,0.1890259,0.1513672,0.3887939,0.2475586,0.5986328
			c0.0956421,0.2104492,0.1873779,0.4219971,0.2745972,0.6347046c0.0866089,0.2132568,0.1603394,0.4265137,0.2205811,0.6392212
			c0.0596313,0.2131958,0.0900269,0.4157715,0.0900269,0.607666c0,0.1260376-0.0197144,0.2537231-0.0585327,0.3826294
			c-0.0394287,0.1293945-0.0782471,0.2565308-0.1170654,0.3825684c-0.0393677,0.1260376-0.0708618,0.2520752-0.0944824,0.3781128
			c-0.0195923,0.1019897-0.0088501,0.2039185,0.0072632,0.3059082C15.6688843,25.6282959,14,23.0064697,14,20
			c0-0.3129883,0.022644-0.6203613,0.0578003-0.9240723c0.1376343,0.100647,0.2874146,0.2003784,0.4654541,0.2984009
			c0.2008667,0.1113892,0.409668,0.2103882,0.6257324,0.2970581c0.2160645,0.0872192,0.4332275,0.1592407,0.6526489,0.2160645
			c0.2188721,0.057373,0.4242554,0.0889282,0.6166992,0.0945435l0.3240967,0.5491333
			c0.0180054,0.024231,0.022522,0.0151978,0.0134888-0.0269775c-0.0089722-0.041626-0.0168457-0.0686646-0.0224609-0.0810547
			l0.7202148,0.4051514l0.3060913-0.1620483c-0.1384277-0.0540161-0.2672729-0.1485596-0.387146-0.2835693
			c-0.1204224-0.1350708-0.2374268-0.265625-0.3510742-0.3916626c-0.1142578-0.1260376-0.2312622-0.2216797-0.3511353-0.2880859
			c-0.1204224-0.0657959-0.2520752-0.0505981-0.3961182,0.0450439l-0.1170044-0.0540161
			c0.0297852-0.1378784,0.0776367-0.2684326,0.144043-0.3916016c0.0657959-0.1226807,0.1260376-0.2504272,0.1800537-0.3826294
			c-0.1682739,0.0664063-0.3392944,0.1276855-0.5131836,0.1845703c-0.1744385,0.057373-0.3510742,0.0855103-0.5311279,0.0855103
			c-0.2042847,0-0.3500366-0.0613403-0.4366455-0.1845703c-0.0872192-0.1226807-0.1305542-0.2802124-0.1305542-0.4726563
			l0.0540161-0.4050903c0.0776367-0.0838623,0.1665649-0.1452026,0.265564-0.1845703
			c0.0990601-0.0388184,0.2025757-0.0629883,0.3106079-0.0720215c0.1080322-0.0089722,0.2171631-0.0073242,0.3286133,0.0045166
			c0.1108398,0.0123901,0.2171631,0.0241699,0.3195801,0.0360107l-0.1890259-0.1260376l0.387085-0.0360107
			c0.2396851,0,0.4439697,0.0601807,0.6121826,0.1800537c0.1676636,0.1204224,0.2937012,0.2942505,0.3781128,0.5221558
			c0.0180054-0.1018677,0.022522-0.2008667,0.0134888-0.2971191c-0.0089722-0.0956421-0.0134888-0.1946411-0.0134888-0.2970581
			c0-0.1676636,0.0461426-0.2982178,0.1395264-0.3916016c0.0928345-0.0928955,0.1873779-0.163208,0.2836304-0.2116089
			c0.0956421-0.0477905,0.1693115-0.0776367,0.22052-0.0900269c0.0506592-0.0117798,0.0343628-0.0180054-0.0494995-0.0180054
			c-0.0180054,0-0.0180054-0.0028076,0-0.0089722c0.0180054-0.0056152,0.041626-0.0134888,0.0720215-0.022522
			c0.0298462-0.0089722,0.0585327-0.022522,0.0855103-0.0405273c0.0270386-0.0180054,0.0405273-0.0360107,0.0405273-0.0540161
			c-0.0421753-0.0540161-0.0765381-0.0973511-0.1035156-0.1304932c-0.0270386-0.0326538-0.0512085-0.0675659-0.0720215-0.1035767
			C17.9318848,16.75,17.921814,16.7230225,17.921814,16.7050171l-0.0180054-0.0360107l0.1170044,0.0629883
			c0.0056152-0.0117798,0.0045166-0.0297852-0.0045166-0.0540161c-0.0089722-0.0236206-0.0168457-0.0477905-0.0224609-0.0720215
			c-0.0062256-0.0236206-0.0045166-0.0449829,0.0044556-0.0629883c0.0090332-0.0180054,0.0343628-0.0270386,0.0765381-0.0270386
			l0.0360107,0.0090332l-0.0449829,0.3150635l0.0629883-0.0269775v-0.2520752l0.8282471-0.3240967l-0.0360107-0.1530762
			c0.144043-0.0657959,0.286377-0.142334,0.4276123-0.2295532c0.140686-0.0866699,0.2712402-0.1811523,0.3916626-0.2835693
			l-0.5221558-0.1710815c0-0.0596313,0.0360107-0.1091309,0.1080322-0.1484985
			c0.0720215-0.0388794,0.1586304-0.0703735,0.2610474-0.0945435c0.1018677-0.0236206,0.2143555-0.0461426,0.3375854-0.0675049
			c0.1226807-0.020874,0.2352295-0.0495605,0.3376465-0.0855713c0.1018066-0.0360107,0.1873169-0.0809937,0.2565308-0.1350098
			c0.0686646-0.0540161,0.1035767-0.1260376,0.1035767-0.2160645c0-0.0720215-0.0512085-0.1496582-0.1530762-0.2340698
			c-0.102417-0.0838623-0.2194214-0.163208-0.3510742-0.2385864c-0.1322632-0.0748291-0.265625-0.140686-0.4006348-0.1980591
			c-0.1350708-0.0568237-0.2329712-0.0973511-0.2926025-0.121521l-0.3240967,0.2520752
			c-0.1080322-0.1378784-0.1924438-0.2504272-0.2520752-0.3375854c-0.0601807-0.0866699-0.12323-0.1558838-0.1890259-0.2070923
			c-0.0664063-0.0506592-0.1485596-0.0855103-0.2476196-0.1035156c-0.098999-0.0180054-0.2385254-0.0270386-0.4185791-0.0270386
			c-0.0360107,0-0.0855713,0.0214233-0.1485596,0.0630493c-0.0630493,0.0421753-0.1097412,0.0720215-0.1395264,0.0900269
			l0.2340698,0.6661987l-0.2971191,0.4230957l0.0180054,0.1980591l-0.144043,0.1080322
			c-0.1322021,0-0.2374268-0.0404663-0.3150635-0.121521c-0.0782471-0.0809937-0.1519775-0.1676636-0.2205811-0.2610474
			c-0.0692139-0.0928955-0.1474609-0.1800537-0.2340698-0.2611084c-0.0689087-0.0639648-0.1654053-0.0952759-0.2771606-0.1087646
			C17.9078979,12.8534546,19.8545532,12,22,12c1.241394,0,2.4129639,0.2924194,3.4624634,0.7991943l-0.3835449,0.0616455v0.0900269
			c0.1738892,0,0.3375854,0.0422363,0.4906616,0.1260376c0.1530151,0.0844116,0.262207,0.2104492,0.3286133,0.3781128
			l-1.5574951,0.486145l0.1530762,0.2250977l-0.1350708,0.5221558l0.144043,0.3060913
			c0.1378784-0.0596313,0.2802124-0.0866699,0.4276123-0.0810547c0.1468506,0.0062256,0.2908936,0.0078735,0.4321289,0.0045166
			c0.140686-0.0028076,0.2774048-0.0269775,0.409668-0.0720215c0.1316528-0.0449829,0.2520752-0.1541748,0.3601074-0.3286133
			l-0.0540161-0.1710205c0-0.0838623,0.0314941-0.164856,0.0944824-0.243103
			c0.0630493-0.0776367,0.1395874-0.1484985,0.2296143-0.2115479c0.0900269-0.0629883,0.1845093-0.1170044,0.2835693-0.1620483
			c0.0684814-0.0311279,0.1185303-0.0504761,0.1712646-0.0715942c0.4682007,0.359436,0.8991699,0.7642822,1.2776489,1.2164917
			c-0.1552124,0.0354614-0.3173218,0.0692139-0.4991455,0.0974731c-0.2104492,0.0332031-0.4230957,0.0630493-0.6391602,0.0900269
			c-0.2160645,0.0270386-0.4293213,0.0484009-0.6392212,0.0630493c-0.2104492,0.0151367-0.3994751,0.0224609-0.5671387,0.0224609
			l-0.1350708,0.0180054l-0.5941772,0.7202148l0.0270386,0.1080322c-0.1384277,0.1862793-0.2836304,0.3319702-0.4366455,0.4366455
			c-0.1530762,0.1052246-0.2869873,0.2132568-0.4006348,0.3240967c-0.1141968,0.1113892-0.1935425,0.2509766-0.2385864,0.4186401
			c-0.0449829,0.1682129-0.0258789,0.4085083,0.0585327,0.7202148l-0.2250366,0.5761719l0.3240967,0.1710205
			c-0.0180054,0.0180054-0.0495605,0.0303955-0.0945435,0.0360107c-0.0450439,0.0062256-0.0737305-0.0056152-0.0855103-0.0360107
			l0.0720215,0.2700806l0.2070313,0.0270386l-0.098999,0.0809937c0,0.0484009,0.0145874,0.0900269,0.0449829,0.1260376
			c0.0298462,0.0360107,0.0675049,0.0692139,0.1125488,0.0990601c0.0449829,0.0303955,0.0911255,0.0601807,0.1395264,0.0900269
			c0.0478516,0.0303955,0.0866699,0.0629883,0.1170654,0.098999l-0.0180054,0.0270386
			c0,0.0664063,0.0432739,0.1350098,0.1304932,0.2070313c0.0866699,0.0720215,0.1890869,0.1384277,0.3060913,0.1980591
			c0.1170654,0.0602417,0.2324219,0.1114502,0.3466187,0.1530762c0.1136475,0.0421753,0.2008667,0.0629883,0.2611084,0.0629883
			c0.0838013,0,0.1755371-0.0180054,0.2745361-0.0540161c0.0990601-0.0360107,0.1901855-0.0657959,0.2745972-0.0900269
			L26.1322632,20l0.144043,0.0180054c0.0838013,0,0.164856-0.0101318,0.243042-0.0314941
			c0.0776367-0.020874,0.1541748-0.0461426,0.2295532-0.0765381c0.0748291-0.0298462,0.1513672-0.0613403,0.2296143-0.0945435
			c0.0776367-0.0326538,0.1558228-0.0585327,0.2340698-0.0765381l-0.0540161,0.0450439
			C27.2846069,19.880127,27.4331055,19.9521484,27.604187,20c0.1710205,0.0484009,0.3342285,0.0809937,0.4906616,0.098999
			c0.0236206,0.0422363,0.0371094,0.0979004,0.0404663,0.1665649c0.0028076,0.0692139,0.0011597,0.1429443-0.0044556,0.2205811
			c-0.0062256,0.078186-0.0169067,0.1530151-0.0315552,0.2250366c-0.0151978,0.0720215-0.0258789,0.1294556-0.0314941,0.1710815
			c0.144043,0.2284546,0.2531738,0.4141235,0.3286133,0.5581665c0.0748291,0.144043,0.1271362,0.2672729,0.1575317,0.3690796
			c0.0298462,0.102417,0.0405273,0.1936035,0.0314941,0.2745972c-0.0089722,0.0810547-0.0224609,0.1699219-0.0404663,0.265564
			c-0.0180054,0.0962524-0.0377197,0.2116089-0.0585327,0.3466187c-0.0214233,0.1350708-0.0314941,0.3106079-0.0314941,0.5266724
			c0,0.1980591,0.0360107,0.3905029,0.1080322,0.5761719c0.0614014,0.1588135,0.1260986,0.3140259,0.1919556,0.4683228
			C27.3353882,26.5063477,24.8416138,28,22,28z M28.21698,14.975769c0.0049438,0.0060425,0.0091553,0.0126343,0.0140381,0.0187378
			h-0.019165C28.215271,14.9910889,28.2142334,14.9802246,28.21698,14.975769z M28.2973633,15.147522
			c0.0073242-0.0083008,0.0111694-0.0289917,0.017395-0.0410767c0.1584473,0.2039795,0.3067627,0.4154053,0.4452515,0.6343994
			c-0.024292-0.0093384-0.0437012-0.0134888-0.0709839-0.026123c-0.0664063-0.0298462-0.1305542-0.0658569-0.1936035-0.1080322
			c-0.0629883-0.041626-0.1170044-0.0883789-0.1620483-0.1395264c-0.0449829-0.0506592-0.0675049-0.1035767-0.0675049-0.1575928
			C28.2658691,15.225769,28.276001,15.1717529,28.2973633,15.147522z"/>
	</g>
	<path d="M10.0504761,21H8c-0.8334961,0-1.6123047-0.15625-2.3359375-0.46875
		c-0.7241211-0.3125-1.359375-0.7421875-1.90625-1.2890625S2.78125,18.0600586,2.46875,17.3359375
		C2.15625,16.6123047,2,15.8334961,2,15c0-0.8227539,0.15625-1.5986328,0.46875-2.328125
		c0.3125-0.7290039,0.7421875-1.3671875,1.2890625-1.9140625S4.9399414,9.78125,5.6640625,9.46875
		C6.3876953,9.15625,7.1665039,9,8,9c0.8642578,0,1.6874943,0.1826172,2.46875,0.546875
		c0.2602539-0.6875,0.609375-1.3095703,1.046875-1.8671875c0.4375-0.5571289,0.9399414-1.0336914,1.5078125-1.4296875
		c0.5673828-0.3955078,1.1899414-0.703125,1.8671875-0.921875C15.5673828,5.109375,16.2705078,5,17,5
		c0.96875,0,1.8774414,0.1826172,2.7265625,0.546875c0.8486328,0.3647461,1.5908203,0.8647461,2.2265625,1.5
		c0.3048706,0.3051147,0.574707,0.6378174,0.8173218,0.9920044c0.8568726,0.0545654,1.6885376,0.1956787,2.4871826,0.4207153
		c-0.0922241-0.2132568-0.1880493-0.4251099-0.2966919-0.6314697C24.4453125,6.8491211,23.7915039,6.0029297,23,5.2890625
		c-0.7919922-0.7133789-1.7006836-1.2734375-2.7265625-1.6796875C19.2470703,3.203125,18.15625,3,17,3
		c-0.7709961,0-1.5209961,0.09375-2.25,0.28125c-0.7294922,0.1875-1.4169922,0.4584961-2.0625057,0.8125
		c-0.6459904,0.3544922-1.2421818,0.7890625-1.7890568,1.3046875S9.8696289,6.4951172,9.453125,7.140625
		C8.9633789,7.046875,8.4790039,7,8,7C6.8955078,7,5.8564453,7.2084961,4.8828125,7.625
		c-0.9741211,0.4169922-1.8232422,0.9873047-2.546875,1.7109375C1.6118164,10.0600586,1.0415039,10.9091797,0.625,11.8828125
		C0.2080078,12.8569336,0,13.8959961,0,15c0,1.1044922,0.2080078,2.1435547,0.625,3.1171875
		c0.4165039,0.9741211,0.9868164,1.8232422,1.7109375,2.546875c0.7236328,0.7241211,1.5727539,1.2944336,2.546875,1.7109375
		C5.8564453,22.7919922,6.8955078,23,8,23h2.3933105C10.2261353,22.3519287,10.1071777,21.6856689,10.0504761,21z"/>
</g>
</svg>
