<?xml version="1.0" encoding="utf-8"?>
<!-- Generator: Adobe Illustrator 19.1.0, SVG Export Plug-In . SVG Version: 6.00 Build 0)  -->
<svg version="1.1" id="Layer_1" xmlns="http://www.w3.org/2000/svg" xmlns:xlink="http://www.w3.org/1999/xlink" x="0px" y="0px"
	 width="32px" height="32px" viewBox="0 0 32 32" style="enable-background:new 0 0 32 32;" xml:space="preserve">
<g>
	<path d="M12.6630859,21H8c-0.8276367,0-1.6113281-0.15625-2.3305664-0.4638672
		c-0.734375-0.3139648-1.3798828-0.746582-1.9199219-1.2866211c-0.5395508-0.5390625-0.972168-1.184082-1.2851563-1.918457
		C2.15625,16.6113281,2,15.8271484,2,15c0-0.8261719,0.1557617-1.6108398,0.4633789-2.3305664
		c0.3139648-0.734375,0.746582-1.3798828,1.2871094-1.9189453c0.5390625-0.5395508,1.1845703-0.9726563,1.9194336-1.2866211
		C6.3886719,9.15625,7.1723633,9,8,9c0.3496094,0,0.7124023,0.0356445,1.078125,0.1054688l1.3242188,0.2529297l0.7324219-1.1352539
		c0.324707-0.5039063,0.706543-0.9648438,1.1347656-1.3691406c0.4223633-0.3979492,0.8867188-0.7363281,1.3789063-1.0063477
		c0.4980469-0.2729492,1.0361328-0.484375,1.6005859-0.6293945c1.4003906-0.3623047,2.9755859-0.269043,4.2880859,0.2504883
		c0.7978516,0.315918,1.5126953,0.7553711,2.1240234,1.3056641c0.0981445,0.088562,0.1774292,0.1983643,0.2705078,0.2928467
		C22.2784424,7.0263672,22.6331787,7,23,7c0.5335083,0,1.0377808,0.0610352,1.526001,0.1496582
		C24.0861206,6.4628906,23.5927734,5.8238525,23,5.2890625c-0.7895508-0.7109375-1.7070313-1.2758789-2.7265625-1.6796875
		c-1.7050781-0.6748047-3.7182617-0.793457-5.5229492-0.328125C14.0253906,3.4677734,13.331543,3.7407227,12.6875,4.09375
		c-0.6411133,0.3515625-1.2431641,0.7900391-1.7900391,1.3051758c-0.5463867,0.515625-1.0327148,1.1020508-1.4438477,1.7407227
		L9.453125,7.140625C7.8325195,6.8325195,6.2695313,7.03125,4.8833008,7.625
		c-0.9702148,0.4150391-1.8276367,0.9907227-2.546875,1.7109375c-0.7211914,0.7197266-1.2973633,1.5771484-1.7119141,2.5478516
		C0.2099609,12.8535156,0,13.9018555,0,15c0,1.0991211,0.2104492,2.1479492,0.625,3.1171875
		c0.4140625,0.9697266,0.9897461,1.8266602,1.7104492,2.546875C3.0561523,21.3847656,3.9130859,21.9604492,4.8828125,22.375
		C5.8515625,22.7895508,6.9003906,23,8,23h5.5453491C13.1906738,22.3637695,12.9039307,21.6912231,12.6630859,21z"/>
</g>
<path d="M23,9c0.6142578,0,1.1767578,0.0732422,1.6875,0.21875c0.5102539,0.1464844,1.03125,0.3701172,1.5625,0.671875
	c0.4477539,0.2607422,0.90625,0.4638672,1.375,0.609375c0.46875,0.1464844,0.9423828,0.2558594,1.421875,0.328125
	c0.4790039,0.0732422,0.9658203,0.1201172,1.4609375,0.140625C31.0024414,10.9902344,31.5,11,32,11v6.203125
	c0,0.9169922-0.1201172,1.7871094-0.359375,2.609375c-0.2397461,0.8232422-0.5703125,1.6015625-0.9921875,2.3359375
	S29.7290039,23.5732422,29.15625,24.21875c-0.5732422,0.6464844-1.1928711,1.2480469-1.859375,1.8046875
	c-0.6669922,0.5576172-1.3647461,1.0761719-2.09375,1.5546875c-0.7294922,0.4794922-1.4638672,0.9169922-2.203125,1.3125
	c-0.7397461-0.3955078-1.4741211-0.8330078-2.203125-1.3125c-0.7294922-0.4785156-1.4272461-0.9970703-2.09375-1.5546875
	c-0.6669922-0.5566406-1.2866211-1.1582031-1.859375-1.8046875c-0.5732422-0.6455078-1.0703125-1.3359375-1.4921875-2.0703125
	S14.5986328,20.6357422,14.359375,19.8125C14.1196289,18.9902344,14,18.1201172,14,17.203125V11
	c0.5102539,0,1.0078125-0.0097656,1.4921875-0.03125c0.484375-0.0205078,0.9633789-0.0673828,1.4375-0.140625
	c0.4736328-0.0722656,0.9399414-0.1816406,1.3984375-0.328125c0.4580078-0.1455078,0.9165039-0.3486328,1.375-0.609375
	c0.53125-0.3017578,1.0571289-0.5253906,1.578125-0.671875C21.8017578,9.0732422,22.375,9,23,9z M30,12.96875
	c-0.1044922-0.0097656-0.2944336-0.0361328-0.5703125-0.078125c-0.2763672-0.0410156-0.5888672-0.0986328-0.9375-0.171875
	c-0.3491211-0.0722656-0.7163086-0.15625-1.1015625-0.25c-0.3857422-0.09375-0.7397461-0.1894531-1.0625-0.2890625
	c-0.3232422-0.0986328-0.5913086-0.2001953-0.8046875-0.3046875c-0.2138672-0.1035156-0.3256836-0.203125-0.3359375-0.296875
	c-0.3232422-0.2080078-0.671875-0.3564453-1.046875-0.4453125C23.765625,11.0449219,23.3852539,11,23,11
	c-0.3959961,0-0.78125,0.046875-1.15625,0.140625s-0.7294922,0.2402344-1.0625,0.4375
	c-0.0107422,0-0.0185547,0.0078125-0.0234375,0.0234375c-0.0053711,0.015625-0.0131836,0.0185547-0.0234375,0.0078125
	c-0.71875,0.4169922-1.4819336,0.734375-2.2890625,0.953125C17.6376953,12.78125,16.8227539,12.9169922,16,12.96875v4.234375
	c0,1.0732422,0.203125,2.0732422,0.609375,3c0.40625,0.9277344,0.9399414,1.78125,1.6015625,2.5625
	c0.6611328,0.78125,1.4111328,1.4902344,2.25,2.125C21.2993164,25.5263672,22.1455078,26.09375,23,26.59375
	c0.8540039-0.5,1.7001953-1.0673828,2.5390625-1.703125c0.8383789-0.6347656,1.5883789-1.34375,2.25-2.125
	c0.6611328-0.78125,1.1953125-1.6347656,1.6015625-2.5625c0.40625-0.9267578,0.609375-1.9267578,0.609375-3V12.96875z"/>
<g>
</g>
<g>
</g>
<g>
</g>
<g>
</g>
<g>
</g>
<g>
</g>
<g>
</g>
<g>
</g>
<g>
</g>
<g>
</g>
<g>
</g>
<g>
</g>
<g>
</g>
<g>
</g>
<g>
</g>
</svg>
