<?xml version="1.0" encoding="utf-8"?>
<!-- Generator: Adobe Illustrator 19.1.0, SVG Export Plug-In . SVG Version: 6.00 Build 0)  -->
<svg version="1.1" id="Layer_1" xmlns="http://www.w3.org/2000/svg" xmlns:xlink="http://www.w3.org/1999/xlink" x="0px" y="0px"
	 width="32px" height="32px" viewBox="0 0 32 32" style="enable-background:new 0 0 32 32;" xml:space="preserve">
<g>
	<path d="M2,15c0.5415039,0,1.0571289-0.1064453,1.546875-0.3203125c0.4892578-0.2133789,0.9140625-0.5,1.2734375-0.859375
		s0.6455078-0.78125,0.859375-1.265625C5.8930664,12.0703125,6,11.5522461,6,11c0-0.7392578-0.015625-1.4790039-0.046875-2.21875
		c-0.03125-0.7392578-0.0078125-1.4609375,0.0703125-2.1640625s0.2446289-1.3828125,0.5-2.0390625
		C6.7783203,3.921875,7.1874943,3.3125,7.75,2.75c0.5624943-0.5625,1.2133789-0.9946289,1.953125-1.296875
		C10.4423828,1.1513672,11.2080078,1,12,1v2c-0.5522461,0-1.0703125,0.1069336-1.5546875,0.3203125
		c-0.484375,0.2138672-0.90625,0.5-1.265625,0.859375S8.5336914,4.9638672,8.3203125,5.453125C8.1064453,5.9428711,8,6.4584961,8,7
		c0,0.5834961,0.0102539,1.1591797,0.03125,1.7265625c0.0205078,0.5678711,0.0234375,1.125,0.0078125,1.671875
		s-0.0654297,1.078125-0.1484375,1.59375C7.8071289,12.5078125,7.6665039,13,7.46875,13.46875
		C7.2705078,13.9375,7,14.3857422,6.65625,14.8125C6.3124943,15.2397461,5.8696289,15.6357422,5.328125,16
		c0.5415039,0.3647461,0.9843693,0.7607422,1.328125,1.1875C7,17.6147461,7.2705078,18.0625,7.46875,18.53125
		C7.6665039,19,7.8071289,19.4921875,7.890625,20.0078125c0.0830078,0.515625,0.1328125,1.046875,0.1484375,1.59375
		s0.0126953,1.1044922-0.0078125,1.671875C8.0102539,23.8413086,8,24.4169922,8,25
		c0,0.5522461,0.1064453,1.0703125,0.3203125,1.5546875c0.2133789,0.484375,0.5,0.90625,0.859375,1.265625
		s0.78125,0.6459961,1.265625,0.859375C10.9296875,28.8935547,11.4477539,29,12,29v2
		c-0.7919922,0-1.5576172-0.1508789-2.296875-0.453125C8.9633789,30.2451172,8.3124943,29.8125,7.75,29.25
		c-0.5625057-0.5625-0.9716797-1.171875-1.2265625-1.828125c-0.2553711-0.65625-0.421875-1.3359375-0.5-2.0390625
		S5.921875,23.9584961,5.953125,23.21875C5.984375,22.4794922,6,21.7397461,6,21
		c0-0.5415039-0.1069336-1.0571289-0.3203125-1.546875c-0.2138672-0.4892578-0.5-0.9140625-0.859375-1.2734375
		s-0.7841797-0.6455078-1.2734375-0.859375C3.0571289,17.1069336,2.5415039,17,2,17V15z M20,1
		c0.7915039,0,1.5571289,0.1513672,2.296875,0.453125C23.0361328,1.7553711,23.6874943,2.1875,24.25,2.75
		c0.5624943,0.5625,0.9711914,1.171875,1.2265625,1.828125c0.2548828,0.65625,0.421875,1.3359375,0.5,2.0390625
		S26.078125,8.0419922,26.046875,8.78125C26.015625,9.5209961,26,10.2607422,26,11
		c0,0.5522461,0.1064453,1.0703125,0.3203125,1.5546875c0.2133789,0.484375,0.5,0.90625,0.859375,1.265625
		s0.78125,0.6459961,1.265625,0.859375C28.9296875,14.8935547,29.4477539,15,30,15v2
		c-0.5522461,0-1.0703125,0.1069336-1.5546875,0.3203125c-0.484375,0.2138672-0.90625,0.5-1.265625,0.859375
		s-0.6459961,0.7841797-0.859375,1.2734375C26.1064453,19.9428711,26,20.4584961,26,21
		c0,0.7397461,0.015625,1.4794922,0.046875,2.21875c0.03125,0.7397461,0.0078125,1.4609375-0.0703125,2.1640625
		s-0.2451172,1.3828125-0.5,2.0390625C25.2211914,28.078125,24.8124943,28.6875,24.25,29.25
		c-0.5625057,0.5625-1.2138672,0.9951172-1.953125,1.296875C21.5571289,30.8491211,20.7915039,31,20,31v-2
		c0.5415039,0,1.0571289-0.1064453,1.546875-0.3203125c0.4892578-0.2133789,0.9140625-0.5,1.2734375-0.859375
		s0.6455078-0.78125,0.859375-1.265625C23.8930664,26.0703125,24,25.5522461,24,25
		c0-0.5830078-0.0107422-1.1586914-0.03125-1.7265625c-0.0209961-0.5673828-0.0234375-1.125-0.0078125-1.671875
		s0.0649414-1.078125,0.1484375-1.59375C24.1923828,19.4921875,24.3330078,19,24.53125,18.53125
		C24.7290039,18.0625,25,17.6147461,25.34375,17.1875c0.3437443-0.4267578,0.7861328-0.8227539,1.328125-1.1875
		c-0.5419922-0.3642578-0.9843807-0.7602539-1.328125-1.1875c-0.34375-0.4267578-0.6147461-0.875-0.8125-1.34375
		C24.3330078,13,24.1923828,12.5078125,24.109375,11.9921875c-0.0834961-0.515625-0.1328125-1.046875-0.1484375-1.59375
		s-0.0131836-1.1040039,0.0078125-1.671875C23.9892578,8.1591797,24,7.5834961,24,7
		c0-0.5415039-0.1069336-1.0571289-0.3203125-1.546875c-0.2138672-0.4892578-0.5-0.9140625-0.859375-1.2734375
		s-0.7841797-0.6455078-1.2734375-0.859375C21.0571289,3.1069336,20.5415039,3,20,3V1z"/>
</g>
</svg>
