<?xml version="1.0" encoding="utf-8"?>
<!-- Generator: Adobe Illustrator 19.1.0, SVG Export Plug-In . SVG Version: 6.00 Build 0)  -->
<svg version="1.1" id="Layer_1" xmlns="http://www.w3.org/2000/svg" xmlns:xlink="http://www.w3.org/1999/xlink" x="0px" y="0px"
	 width="32px" height="32px" viewBox="0 0 32 32" style="enable-background:new 0 0 32 32;" xml:space="preserve">
<path d="M29,8V6H17V5c0-0.5522461-0.4477539-1-1-1s-1,0.4477539-1,1v1H3v2h2.75354l-1.555542,7H3v2c0,2.7568359,2.2431641,5,5,5
	s5-2.2431641,5-5v-2h-1.197998L10.24646,8H15v18h-4v2h10v-2h-4V8h4.75354l-1.555542,7H19v2c0,2.7568359,2.2431641,5,5,5
	s5-2.2431641,5-5v-2h-1.197998L26.24646,8H29z M8,20c-1.6542969,0-3-1.3457031-3-3h6C11,18.6542969,9.6542969,20,8,20z M9.75354,15
	H6.24646l1.555542-7H8.197998L9.75354,15z M24,20c-1.6542969,0-3-1.3457031-3-3h6C27,18.6542969,25.6542969,20,24,20z M25.75354,15
	H22.24646l1.555542-7h0.3959961L25.75354,15z"/>
</svg>
