<?xml version="1.0" encoding="utf-8"?>
<!-- Generator: Adobe Illustrator 19.1.0, SVG Export Plug-In . SVG Version: 6.00 Build 0)  -->
<svg version="1.1" id="Layer_1" xmlns="http://www.w3.org/2000/svg" xmlns:xlink="http://www.w3.org/1999/xlink" x="0px" y="0px"
	 width="32px" height="32px" viewBox="0 0 32 32" style="enable-background:new 0 0 32 32;" xml:space="preserve">
<g>
	<path d="M11.5624943,17.828125c0.6767635,0.34375,1.2890682,0.7685547,1.8359432,1.2734375
		c0.546875,0.5053711,1.0126953,1.0678711,1.3984375,1.6875c0.3852539,0.6201172,0.6821289,1.2866211,0.8906193,2
		C15.8955078,23.5029297,16,24.2397461,16,25h-2c0-0.8227539-0.1591797-1.5986328-0.4765625-2.328125
		c-0.3178711-0.7290039-0.7475586-1.3642578-1.2890625-1.90625c-0.5419922-0.5415039-1.1772461-0.9711914-1.90625-1.2890625
		C9.5986328,19.1591797,8.8227539,19,8,19c-0.8232422,0-1.5991211,0.1591797-2.328125,0.4765625
		c-0.7294922,0.3178711-1.3647461,0.7475586-1.90625,1.2890625c-0.5419922,0.5419922-0.9716797,1.1772461-1.2890625,1.90625
		C2.1586914,23.4013672,2,24.1772461,2,25H0c0-0.7602539,0.1040039-1.4970703,0.3124946-2.2109375
		c0.2080132-0.7133789,0.5048882-1.3798828,0.8906304-2c0.3852539-0.6196289,0.8515625-1.1821289,1.3984375-1.6875
		c0.546875-0.5048828,1.1586914-0.9296875,1.8359323-1.2734375c-0.7607369-0.5625-1.3569283-1.2705078-1.7890573-2.125
		C2.2158203,14.8491211,2,13.9482422,2,13c0-0.8227539,0.1586914-1.5986328,0.4765625-2.328125
		c0.3173828-0.7290039,0.7470703-1.3642578,1.2890625-1.90625c0.5415039-0.5415039,1.1767578-0.9711914,1.90625-1.2890625
		C6.4008789,7.1591797,7.1767578,7,8,7c0.8227539,0,1.5986328,0.1591797,2.328125,0.4765625
		c0.7290039,0.3178711,1.3642578,0.7475586,1.90625,1.2890625c0.5415039,0.5419922,0.9711914,1.1772461,1.2890625,1.90625
		C13.8408203,11.4013672,14,12.1772461,14,13c0,0.9482422-0.2163086,1.8491211-0.6484375,2.703125
		C12.9189453,16.5576172,12.3227539,17.265625,11.5624943,17.828125z M4,13c0,0.5522461,0.1064453,1.0703125,0.3203125,1.5546875
		c0.2133789,0.484375,0.5,0.90625,0.859375,1.265625s0.78125,0.6459961,1.265625,0.859375C6.9296875,16.8935547,7.4477539,17,8,17
		c0.5415039,0,1.0571289-0.1064453,1.546875-0.3203125c0.4892578-0.2133789,0.9140625-0.5,1.2734375-0.859375
		s0.6455078-0.78125,0.859375-1.265625C11.8930664,14.0703125,12,13.5522461,12,13
		c0-0.5415039-0.1069336-1.0571289-0.3203125-1.546875c-0.2138672-0.4892578-0.5-0.9140625-0.859375-1.2734375
		s-0.7841797-0.6455078-1.2734375-0.859375C9.0571289,9.1069336,8.5415039,9,8,9
		C7.4477539,9,6.9296875,9.1069336,6.4453125,9.3203125c-0.484375,0.2138672-0.90625,0.5-1.265625,0.859375
		s-0.6459961,0.7841797-0.859375,1.2734375C4.1064453,11.9428711,4,12.4584961,4,13z M32,7v2H18V7H32z M18,15h14v2H18V15z M18,23h14
		v2H18V23z"/>
</g>
</svg>
