<?xml version="1.0" encoding="utf-8"?>
<!-- Generator: Adobe Illustrator 19.1.0, SVG Export Plug-In . SVG Version: 6.00 Build 0)  -->
<svg version="1.1" id="Layer_1" xmlns="http://www.w3.org/2000/svg" xmlns:xlink="http://www.w3.org/1999/xlink" x="0px" y="0px"
	 width="32px" height="32px" viewBox="0 0 32 32" style="enable-background:new 0 0 32 32;" xml:space="preserve">
<g>
	<path d="M18.1171875,19.0234375C18.8095703,19.3623047,19.4580078,19.78125,20.0625,20.28125
		c0.2730713,0.2260742,0.5280151,0.4718628,0.7734985,0.7277832c0.0838013,0.0869141,0.1602783,0.1785889,0.2397461,0.2683105
		c0.151123,0.170166,0.2964478,0.3465576,0.4362793,0.5288696c0.4971924,0.6610107,0.9041138,1.3894653,1.2492065,2.1885376
		l1.4893799-1.4862671C24.1646729,22.3395996,24.0895386,22.1644287,23.9959106,22H24
		c-0.0084229-0.0147705-0.0184937-0.0281372-0.0269165-0.0428467c-0.1584473-0.2757568-0.3262329-0.5460205-0.506958-0.8087158
		l-0.0007935-0.000061c-0.5895386-0.8584595-1.2857056-1.6298218-2.090332-2.312439
		c-1.0625-0.9003906-2.2451172-1.5908203-3.546875-2.0703125c0.5727539-0.3642578,1.0908203-0.7939453,1.5546875-1.2890625
		c0.4633789-0.4941406,0.859375-1.0332031,1.1875-1.6171875c0.328125-0.5830078,0.5805664-1.2001953,0.7578125-1.8515625
		C21.5048828,11.3574219,21.59375,10.6875,21.59375,10c0-1.1035156-0.2109375-2.140625-0.6328125-3.109375
		s-0.9951172-1.8144531-1.71875-2.5390625c-0.7241211-0.7236328-1.5703125-1.296875-2.5390625-1.71875S14.6977539,2,13.59375,2
		c-1.1044922,0-2.140625,0.2109375-3.109375,0.6328125s-1.8154297,0.9951172-2.5390625,1.71875
		c-0.7241211,0.7246094-1.296875,1.5703125-1.71875,2.5390625S5.59375,8.8964844,5.59375,10
		c0,0.6875,0.0883789,1.3574219,0.265625,2.0078125c0.1767578,0.6513672,0.4296875,1.2685547,0.7578125,1.8515625
		c0.328125,0.5839844,0.7236328,1.1230469,1.1875,1.6171875c0.4633789,0.4951172,0.9814453,0.9248047,1.5546875,1.2890625
		c-1.1875,0.4375-2.2578125,1.03125-3.2109375,1.78125s-1.7685547,1.6171875-2.4453125,2.6015625
		c-0.6772461,0.984375-1.1982422,2.0605469-1.5625,3.2265625C1.7758789,25.5419922,1.59375,26.75,1.59375,28h2
		c0-1.3955078,0.2578125-2.703125,0.7734375-3.921875s1.2236328-2.2783203,2.125-3.1796875
		c0.9008789-0.9003906,1.9609375-1.609375,3.1796875-2.125S12.1977539,18,13.59375,18
		c0.7915039,0,1.5703125,0.0859375,2.3359375,0.2578125S17.4243164,18.6855469,18.1171875,19.0234375z M13.59375,16
		c-0.8232422,0-1.5991211-0.1582031-2.328125-0.4765625c-0.7294922-0.3173828-1.3647461-0.7470703-1.90625-1.2890625
		c-0.5419922-0.5410156-0.9716797-1.1767578-1.2890625-1.90625C7.7524414,11.5996094,7.59375,10.8232422,7.59375,10
		c0-0.8222656,0.1586914-1.5986328,0.4765625-2.328125c0.3173828-0.7285156,0.7470703-1.3642578,1.2890625-1.90625
		c0.5415039-0.5410156,1.1767578-0.9707031,1.90625-1.2890625C11.9946289,4.1591797,12.7705078,4,13.59375,4
		c0.8227539,0,1.5986328,0.1591797,2.328125,0.4765625c0.7290039,0.3183594,1.3642578,0.7480469,1.90625,1.2890625
		c0.5415039,0.5419922,0.9711914,1.1777344,1.2890625,1.90625C19.4345703,8.4013672,19.59375,9.1777344,19.59375,10
		c0,0.8232422-0.1591797,1.5996094-0.4765625,2.328125c-0.3178711,0.7294922-0.7475586,1.3652344-1.2890625,1.90625
		c-0.5419922,0.5419922-1.1772461,0.9716797-1.90625,1.2890625C15.1923828,15.8417969,14.4165039,16,13.59375,16z"/>
	<path d="M30,22.40625L21.296875,31.125l-4.203125-4.21875L18.5,25.5l2.796875,2.78125L28.59375,21L30,22.40625z"/>
</g>
<g>
</g>
<g>
</g>
<g>
</g>
<g>
</g>
<g>
</g>
<g>
</g>
<g>
</g>
<g>
</g>
<g>
</g>
<g>
</g>
<g>
</g>
<g>
</g>
<g>
</g>
<g>
</g>
<g>
</g>
</svg>
