<?xml version="1.0" encoding="utf-8"?>
<!-- Generator: Adobe Illustrator 19.1.0, SVG Export Plug-In . SVG Version: 6.00 Build 0)  -->
<svg version="1.1" id="Layer_1" xmlns="http://www.w3.org/2000/svg" xmlns:xlink="http://www.w3.org/1999/xlink" x="0px" y="0px"
	 width="32px" height="32px" viewBox="0 0 32 32" style="enable-background:new 0 0 32 32;" xml:space="preserve">
<g>
	<rect x="16" y="4" width="2" height="2"/>
	<path d="M12.5016479,30H5V10h15v1.0393066c0.4871216-0.0432129,0.984375-0.0725098,1.5-0.0725098
		c0.1696777,0,0.333252,0.0097046,0.5,0.0144653V0H3v32h11.2670288C13.4877319,31.4290771,12.8875732,30.7548828,12.5016479,30z
		 M5,2h15v6H5V2z"/>
	<path d="M21.5,12.9667969c-4.2753906,0-7.5,1.7338867-7.5,4.0332031v10.9667969C14,30.2661133,17.2246094,32,21.5,32
		s7.5-1.7338867,7.5-4.0332031V17C29,14.7006836,25.7753906,12.9667969,21.5,12.9667969z M21.5,14.9667969
		c3.3066406,0,5.5,1.2236328,5.5,2.0332031s-2.1933594,2.0336914-5.5,2.0336914S16,17.8095703,16,17
		S18.1933594,14.9667969,21.5,14.9667969z M21.5,30c-3.3066406,0-5.5-1.2236328-5.5-2.0332031v-8.1747437
		c1.3490601,0.7713623,3.2801514,1.2416382,5.5,1.2416382s4.1509399-0.4702759,5.5-1.2416382v8.1747437
		C27,28.7763672,24.8066406,30,21.5,30z"/>
</g>
<g>
</g>
<g>
</g>
<g>
</g>
<g>
</g>
<g>
</g>
<g>
</g>
<g>
</g>
<g>
</g>
<g>
</g>
<g>
</g>
<g>
</g>
<g>
</g>
<g>
</g>
<g>
</g>
<g>
</g>
</svg>
