<?xml version="1.0" encoding="utf-8"?>
<!-- Generator: Adobe Illustrator 19.1.0, SVG Export Plug-In . SVG Version: 6.00 Build 0)  -->
<svg version="1.1" id="Layer_1" xmlns="http://www.w3.org/2000/svg" xmlns:xlink="http://www.w3.org/1999/xlink" x="0px" y="0px"
	 width="32px" height="32px" viewBox="-7 9 32 32" style="enable-background:new -7 9 32 32;" xml:space="preserve">
<g>
	<path d="M9,17c0.7290039,0,1.5517578,0.0419922,2.46875,0.125c0.9165039,0.0834961,1.8359375,0.2294922,2.7578125,0.4375
		c0.921875,0.2084961,1.796875,0.4873047,2.625,0.8359375c0.828125,0.3491211,1.5126953,0.7890625,2.0546875,1.3203125
		c0.3227539,0.3125,0.5859375,0.6542969,0.7890625,1.0234375C19.8984375,21.1123047,20,21.53125,20,22v6
		c0,0.46875-0.1015625,0.8886719-0.3046875,1.2578125c-0.203125,0.3701172-0.4663086,0.7109375-0.7890625,1.0234375
		c-0.5419922,0.53125-1.2265625,0.9716797-2.0546875,1.3203125c-0.828125,0.3496094-1.703125,0.6279297-2.625,0.8359375
		c-0.921875,0.2089844-1.8413086,0.3544922-2.7578125,0.4375C10.5517578,32.9589844,9.7290039,33,9,33
		c-0.7294922,0-1.5522461-0.0410156-2.46875-0.125c-0.9169922-0.0830078-1.8359375-0.2285156-2.7578125-0.4375
		c-0.921875-0.2080078-1.796875-0.4863281-2.625-0.8359375C0.3203125,31.2529297-0.3647461,30.8125-0.90625,30.28125
		c-0.3232422-0.3125-0.5859375-0.6533203-0.7890625-1.0234375C-1.8984375,28.8886719-2,28.46875-2,28v-6
		c0-0.46875,0.1015625-0.8876953,0.3046875-1.2578125C-1.4921875,20.3730469-1.2294922,20.03125-0.90625,19.71875
		c0.5415039-0.53125,1.2265625-0.9711914,2.0546875-1.3203125c0.828125-0.3486328,1.703125-0.6274414,2.625-0.8359375
		c0.921875-0.2080078,1.8408203-0.3540039,2.7578125-0.4375C7.4477539,17.0419922,8.2705078,17,9,17z M9,19
		c-0.53125,0-1.0859375,0.0185547-1.6640625,0.0546875c-0.578125,0.0366211-1.15625,0.0991211-1.734375,0.1875
		c-0.578125,0.0888672-1.1484375,0.203125-1.7109375,0.34375s-1.09375,0.3100586-1.59375,0.5078125
		c-0.15625,0.0625-0.3647461,0.1591797-0.625,0.2890625C1.4111328,20.5136719,1.15625,20.6621094,0.90625,20.828125
		c-0.25,0.1669922-0.4638672,0.3515625-0.640625,0.5546875C0.0883789,21.5859375,0,21.7919922,0,22
		c0,0.0839844,0.015625,0.1621094,0.046875,0.234375c0.03125,0.0732422,0.0727539,0.1464844,0.125,0.21875
		c0.21875,0.3339844,0.5336914,0.625,0.9453125,0.875c0.4111328,0.25,0.875,0.46875,1.390625,0.65625
		s1.0649414,0.3466797,1.6484375,0.4765625c0.5830078,0.1308594,1.1665039,0.234375,1.75,0.3125
		c0.5830078,0.078125,1.140625,0.1357422,1.671875,0.171875C8.109375,24.9824219,8.5830078,25,9,25
		c0.4165039,0,0.890625-0.0175781,1.421875-0.0546875c0.53125-0.0361328,1.0883789-0.09375,1.671875-0.171875
		c0.5830078-0.078125,1.1665039-0.1816406,1.75-0.3125c0.5830078-0.1298828,1.1328125-0.2890625,1.6484375-0.4765625
		s0.9765625-0.40625,1.3828125-0.65625s0.7236328-0.5410156,0.953125-0.875c0.0517578-0.0722656,0.09375-0.1455078,0.125-0.21875
		C17.984375,22.1621094,18,22.0839844,18,22c0-0.2080078-0.0888672-0.4140625-0.265625-0.6171875
		c-0.1772461-0.203125-0.390625-0.3876953-0.640625-0.5546875c-0.25-0.1660156-0.5053711-0.3144531-0.765625-0.4453125
		c-0.2607422-0.1298828-0.46875-0.2265625-0.625-0.2890625c-0.5-0.1977539-1.03125-0.3671875-1.59375-0.5078125
		s-1.1328125-0.2548828-1.7109375-0.34375c-0.578125-0.0883789-1.15625-0.1508789-1.734375-0.1875
		C10.0859375,19.0185547,9.53125,19,9,19z M0,28c0,0.21875,0.0883789,0.4277344,0.265625,0.625
		c0.1767578,0.1982422,0.390625,0.3808594,0.640625,0.546875c0.25,0.1669922,0.5048828,0.3154297,0.765625,0.4453125
		c0.2602539,0.1308594,0.46875,0.2265625,0.625,0.2890625c0.4892578,0.2089844,1.0156193,0.3808594,1.578125,0.515625
		c0.5624943,0.1357422,1.1352539,0.2480469,1.71875,0.3359375c0.5830078,0.0888672,1.1640625,0.1513672,1.7421875,0.1875
		C7.9140625,30.9824219,8.46875,31,9,31s1.0859375-0.0175781,1.6640625-0.0546875
		c0.578125-0.0361328,1.1586914-0.0986328,1.7421875-0.1875c0.5830078-0.0878906,1.1562443-0.2001953,1.71875-0.3359375
		c0.5624943-0.1347656,1.0883789-0.3066406,1.578125-0.515625c0.15625-0.0625,0.3642578-0.1582031,0.625-0.2890625
		c0.2602539-0.1298828,0.515625-0.2783203,0.765625-0.4453125c0.25-0.1660156,0.4633789-0.3486328,0.640625-0.546875
		C17.9111328,28.4277344,18,28.21875,18,28v-3.03125c-0.59375,0.3857422-1.2631836,0.7089844-2.0078125,0.96875
		c-0.7451172,0.2607422-1.5209961,0.46875-2.328125,0.625c-0.8076172,0.15625-1.6123047,0.2685547-2.4140625,0.3359375
		C10.4477539,26.9667969,9.6977539,27,9,27c-0.6982422,0-1.4482422-0.0332031-2.25-0.1015625
		C5.9477539,26.8310547,5.1430664,26.71875,4.3359375,26.5625c-0.8076172-0.15625-1.5834961-0.3642578-2.328125-0.625
		C1.2626953,25.6777344,0.59375,25.3544922,0,24.96875V28z"/>
</g>
</svg>
