<?xml version="1.0" encoding="utf-8"?>
<!-- Generator: Adobe Illustrator 19.1.0, SVG Export Plug-In . SVG Version: 6.00 Build 0)  -->
<svg version="1.1" id="Layer_1" xmlns="http://www.w3.org/2000/svg" xmlns:xlink="http://www.w3.org/1999/xlink" x="0px" y="0px"
	 width="32px" height="32px" viewBox="0 0 32 32" style="enable-background:new 0 0 32 32;" xml:space="preserve">
<g>
	<rect x="17" y="6" width="2" height="2"/>
	<rect x="13" y="13" width="6" height="2"/>
	<rect x="13" y="17" width="6" height="2"/>
	<rect x="13" y="21" width="6" height="2"/>
	<rect x="13" y="25" width="6" height="2"/>
	<path d="M32,5h-9V2H9v3H0v24h9v2h14v-2h9V5z M2,27V7h7v8H4v2h5v2H4v2h5v2H4v2h5v2H2z M11,29V5V4h10v1v24H11z M30,27h-7v-2h5v-2h-5
		v-2h5v-2h-5v-2h5v-2h-5V7h7V27z"/>
	<rect x="26" y="9" width="2" height="2"/>
</g>
<g>
</g>
<g>
</g>
<g>
</g>
<g>
</g>
<g>
</g>
<g>
</g>
<g>
</g>
<g>
</g>
<g>
</g>
<g>
</g>
<g>
</g>
<g>
</g>
<g>
</g>
<g>
</g>
<g>
</g>
</svg>
