<?xml version="1.0" encoding="utf-8"?>
<!-- Generator: Adobe Illustrator 19.1.0, SVG Export Plug-In . SVG Version: 6.00 Build 0)  -->
<svg version="1.1" id="Layer_1" xmlns="http://www.w3.org/2000/svg" xmlns:xlink="http://www.w3.org/1999/xlink" x="0px" y="0px"
	 width="32px" height="32px" viewBox="0 0 32 32" style="enable-background:new 0 0 32 32;" xml:space="preserve">
<g>
	<rect x="16" y="4" width="2" height="2"/>
	<path d="M22,30c0.6035156,0,1.1816406-0.1040039,1.734375-0.3125c0.5517578-0.2080078,1.046875-0.4970703,1.484375-0.8671875
		c0.4375-0.3696289,0.8017578-0.8095703,1.09375-1.3203125c0.2910156-0.5102539,0.4892578-1.0673828,0.59375-1.671875
		l1.984375,0.34375c-0.1464844,0.84375-0.4277344,1.6201172-0.84375,2.328125
		c-0.4169922,0.7084961-0.9296875,1.3232422-1.5390625,1.84375c-0.609375,0.5209961-1.2998047,0.9272461-2.0703125,1.21875
		C23.6660156,31.8544922,22.8535156,32,22,32c-0.9482422,0-1.8544922-0.1845703-2.71875-0.5546875
		C18.4160156,31.0756836,17.65625,30.546875,17,29.859375V32h-2v-6h6v2h-2.96875c0.46875,0.625,1.0517578,1.1147461,1.75,1.46875
		C20.4785156,29.8232422,21.21875,30,22,30z M29,18v6h-6v-2h2.96875c-0.46875-0.625-1.0527344-1.1142578-1.75-1.46875
		C23.5205078,20.1772461,22.78125,20,22,20c-0.6152344,0-1.1953125,0.1044922-1.7421875,0.3125
		c-0.546875,0.2084961-1.0390625,0.4975586-1.4765625,0.8671875C18.34375,21.5498047,17.9785156,21.9897461,17.6875,22.5
		c-0.2919922,0.5107422-0.4902344,1.0678711-0.59375,1.671875l-1.984375-0.34375
		c0.1455078-0.84375,0.4267578-1.6196289,0.84375-2.328125c0.4160156-0.7080078,0.9296875-1.3227539,1.5390625-1.84375
		c0.609375-0.5205078,1.2988281-0.9267578,2.0703125-1.21875C20.3330078,18.1459961,21.1455078,18,22,18
		c0.9472656,0,1.8535156,0.1850586,2.71875,0.5546875c0.8642578,0.3701172,1.625,0.8984375,2.28125,1.5859375V18H29z"/>
	<path d="M5,10h15v6h2V0H3v32h10v-2H5V10z M5,2h15v6H5V2z"/>
</g>
<g>
</g>
<g>
</g>
<g>
</g>
<g>
</g>
<g>
</g>
<g>
</g>
<g>
</g>
<g>
</g>
<g>
</g>
<g>
</g>
<g>
</g>
<g>
</g>
<g>
</g>
<g>
</g>
<g>
</g>
</svg>
