<?xml version="1.0" encoding="utf-8"?>
<!-- Generator: Adobe Illustrator 19.2.1, SVG Export Plug-In . SVG Version: 6.00 Build 0)  -->
<svg version="1.1" id="Layer_1" xmlns="http://www.w3.org/2000/svg" xmlns:xlink="http://www.w3.org/1999/xlink" x="0px" y="0px"
	 width="32px" height="32px" viewBox="0 0 32 32" style="enable-background:new 0 0 32 32;" xml:space="preserve">
<g>
	<path d="M20.340332,24.9355469C20.1544189,24.3101807,20.0621948,23.6586304,20.0535889,23H2v-7h28v0.7097778
		c0.7310181,0.3510742,1.3946533,0.7958984,1.953125,1.3600464C31.97052,18.0874634,31.9827881,18.109375,32,18.1271973V15l-4-4V0H4
		v11l-4,4v10l20.3470459-0.0437622C20.3449707,24.9492798,20.3424072,24.9425049,20.340332,24.9355469z M26.0688477,2l-10,4.890625
		L6.0688477,2H26.0688477z M6,4l10.0688477,5.109375L26,4v10H6V4z"/>
	<path d="M22.046875,22.90625c0-0.6875,0.1298828-1.328125,0.3906193-1.921875
		c0.2597713-0.59375,0.6142635-1.1113281,1.0625057-1.5546875c0.4472656-0.4423828,0.9707031-0.7890625,1.5703125-1.0390625
		c0.5986328-0.25,1.2421818-0.375,1.9296875-0.375c0.6972656,0,1.3486328,0.1308594,1.953125,0.390625
		c0.6035156,0.2607422,1.1298828,0.6171875,1.578125,1.0703125c0.4472656,0.453125,0.8017578,0.9824219,1.0625,1.5859375
		c0.2597656,0.6044922,0.390625,1.2558594,0.390625,1.953125c0,0.6777344-0.1279297,1.3154297-0.3828125,1.9140625
		C31.3457031,25.5292969,31,26.0527344,30.5624943,26.5C30.125,26.9482422,29.609375,27.3027344,29.015625,27.5625
		c-0.59375,0.2607422-1.234375,0.390625-1.921875,0.390625c-0.5,0-0.9902344-0.0703125-1.46875-0.2109375
		c-0.4794922-0.140625-0.9326172-0.3408203-1.359375-0.6015625L21.125,30.28125
		c-0.2402344,0.2402344-0.4746094,0.4824219-0.703125,0.7265625c-0.2294922,0.2451172-0.46875,0.4765625-0.71875,0.6953125
		c-0.1044922,0.09375-0.2060547,0.1669922-0.3046875,0.21875C19.2988281,31.9746094,19.1767578,32,19.03125,32
		c-0.2714844,0-0.5107422-0.1035156-0.7187557-0.3125C18.1035156,31.4794922,18,31.2402344,18,30.96875
		c0-0.1455078,0.0253906-0.2675781,0.078125-0.3671875c0.0517578-0.0986328,0.125-0.2001953,0.21875-0.3046875
		c0.21875-0.25,0.4501953-0.4892578,0.6953125-0.71875c0.2441406-0.2285156,0.4863281-0.4628906,0.7265625-0.703125
		c0.53125-0.53125,1.0546875-1.0566406,1.5703125-1.578125c0.515625-0.5205078,1.0390625-1.046875,1.5703125-1.578125
		c-0.2607422-0.4267578-0.4609375-0.8769531-0.6015625-1.3515625C22.1171875,23.8935547,22.046875,23.40625,22.046875,22.90625z
		 M24.046875,23.09375c0,0.3964844,0.0751953,0.765625,0.2265625,1.109375c0.1503906,0.34375,0.3535156,0.6464844,0.609375,0.90625
		c0.2548828,0.2607422,0.5566406,0.4638672,0.90625,0.609375c0.3486328,0.1464844,0.7207031,0.21875,1.1171875,0.21875
		c0.4062443,0,0.7939453-0.0800781,1.1640625-0.2421875c0.3691406-0.1611328,0.7001953-0.3828125,0.9921818-0.6640625
		c0.2910213-0.28125,0.5234432-0.6035156,0.6953182-0.96875c0.171875-0.3642578,0.2578125-0.75,0.2578125-1.15625
		c0-0.375-0.0810547-0.7363281-0.2421875-1.0859375c-0.1621094-0.3486328-0.3779297-0.6611328-0.6484375-0.9375
		c-0.2714844-0.2753906-0.5839844-0.4941406-0.9375057-0.65625C27.8330078,20.0654297,27.46875,19.984375,27.09375,19.984375
		c-0.4062557,0-0.7949219,0.0859375-1.1640625,0.2578125c-0.3701172,0.171875-0.6933594,0.4042969-0.96875,0.6953125
		c-0.2763672,0.2919922-0.4980469,0.6230469-0.6640625,0.9921875C24.1298828,22.2998047,24.046875,22.6875,24.046875,23.09375z"/>
</g>
<g>
</g>
<g>
</g>
<g>
</g>
<g>
</g>
<g>
</g>
<g>
</g>
<g>
</g>
<g>
</g>
<g>
</g>
<g>
</g>
<g>
</g>
<g>
</g>
<g>
</g>
<g>
</g>
<g>
</g>
</svg>
