<?xml version="1.0" encoding="utf-8"?>
<!-- Generator: Adobe Illustrator 19.1.0, SVG Export Plug-In . SVG Version: 6.00 Build 0)  -->
<svg version="1.1" id="Layer_1" xmlns="http://www.w3.org/2000/svg" xmlns:xlink="http://www.w3.org/1999/xlink" x="0px" y="0px"
	 width="32px" height="32px" viewBox="0 0 32 32" style="enable-background:new 0 0 32 32;" xml:space="preserve">
<g>
	<path d="M15,2c1.8540039,0,3.6508789,0.359375,5.390625,1.078125c0.75,0.3022461,1.5024414,0.53125,2.2578125,0.6875
		C23.4033203,3.921875,24.1874943,4,25,4h7v14h-6.515625c-0.6772461,0-1.3154297,0.125-1.9140625,0.375
		c-0.5991211,0.25-1.1381836,0.6147461-1.6171875,1.09375l-9.71875,9.703125
		c-0.2607422,0.2607422-0.5209961,0.4638672-0.78125,0.609375C11.1923828,29.9272461,10.875,30,10.5,30
		c-0.34375,0-0.6669922-0.0649414-0.96875-0.1953125c-0.3022461-0.1298828-0.5678711-0.3095703-0.796875-0.5390625
		c-0.2294922-0.2290039-0.4091797-0.4946289-0.5390625-0.796875C8.0649414,28.1669922,8,27.84375,8,27.5
		c0-0.84375,0.09375-1.6484375,0.28125-2.4140625S8.7446289,23.5625,9.109375,22.8125
		c0.2080078-0.4477539,0.3852539-0.9033203,0.53125-1.3671875C9.7861328,20.9819336,9.8852539,20.5,9.9374943,20H3
		c-0.40625,0-0.7919922-0.078125-1.15625-0.234375c-0.3647461-0.15625-0.6850586-0.3696289-0.9609375-0.640625
		c-0.2763672-0.2705078-0.4921875-0.5883789-0.6484375-0.953125C0.078125,17.8076172,0,17.4169922,0,17
		c0-0.3330078,0.0517578-0.6508789,0.15625-0.953125l4-12C4.3642578,3.4326172,4.7290039,2.9375,5.25,2.5625
		C5.7705078,2.1875,6.3540039,2,7,2H15z M30,6h-5c-1.8647461,0-3.6616211-0.359375-5.390625-1.078125
		C18.109375,4.3076172,16.5727539,4,15,4H7C6.7915039,4,6.5986328,4.0625,6.421875,4.1875
		c-0.1772461,0.125-0.3022461,0.2919922-0.375,0.5C5.9946289,4.8334961,5.8984375,5.1147461,5.7578125,5.53125
		C5.6171875,5.9482422,5.4477539,6.4506836,5.25,7.0390625c-0.1982422,0.5888672-0.4169922,1.234375-0.65625,1.9375
		C4.3540039,9.6796875,4.1142578,10.390625,3.875,11.109375c-0.2397461,0.71875-0.4716797,1.4194336-0.6953125,2.1015625
		c-0.2241211,0.6826172-0.4248047,1.296875-0.6015625,1.84375c-0.1772461,0.546875-0.3178711,0.9951172-0.421875,1.34375
		C2.0517578,16.7475586,2,16.9482422,2,17c0,0.2709961,0.0986328,0.5053711,0.296875,0.703125
		C2.4946289,17.9013672,2.7290039,18,3,18h9c0,0.5522461-0.0131836,1.0654297-0.0390625,1.5390625
		c-0.0263672,0.4741211-0.078125,0.9350586-0.15625,1.3828125c-0.078125,0.4482422-0.1904297,0.8959961-0.3359375,1.34375
		c-0.1459961,0.4482422-0.3388672,0.921875-0.578125,1.421875c-0.2919922,0.6044922-0.5131836,1.2216797-0.6640625,1.8515625
		C10.0751953,26.1694336,10,26.8232422,10,27.5c0,0.1459961,0.046875,0.265625,0.140625,0.359375S10.3540039,28,10.5,28
		c0.0624943,0,0.1171875-0.0234375,0.1640625-0.0703125s0.0908203-0.0908203,0.1328125-0.1328125l9.734375-9.75
		c0.3330078-0.3330078,0.6899414-0.625,1.0703125-0.875c0.3798828-0.25,0.7836914-0.4633789,1.2109318-0.640625
		C23.6455078,16.1772461,24.5361328,16,25.484375,16H30V6z"/>
</g>
</svg>
