<?xml version="1.0" encoding="utf-8"?>
<!-- Generator: Adobe Illustrator 19.1.0, SVG Export Plug-In . SVG Version: 6.00 Build 0)  -->
<svg version="1.1" id="Layer_1" xmlns="http://www.w3.org/2000/svg" xmlns:xlink="http://www.w3.org/1999/xlink" x="0px" y="0px"
	 width="32px" height="32px" viewBox="0 0 32 32" style="enable-background:new 0 0 32 32;" xml:space="preserve">
<g>
	<g>
		<path d="M18.8681641,28.8393555L19.7075195,28H3V2h10v10h4.4726563c0.0953369-0.2067261,0.1845703-0.4157104,0.2978516-0.6157227
			C18.0498657,10.8901367,18.4008179,10.4328003,18.7875366,10H15V3.421875l5.2703857,5.2703857
			c0.1873779-0.1282959,0.3710938-0.2636108,0.5675049-0.3743896c0.4227905-0.2390137,0.8675537-0.423584,1.319519-0.5823364
			L14.421875,0H1v30h19.0288086L18.8681641,28.8393555z"/>
	</g>
	<g>
		<path d="M30.8024902,13.8441162c-0.1317749-0.5102539-0.3314819-1.0020142-0.5988159-1.4754028
			c-0.2675781-0.4732666-0.6009521-0.9096069-1.0001221-1.3087769c-0.399292-0.399292-0.8355103-0.7324829-1.3087158-1.000061
			c-0.4734497-0.267395-0.9651489-0.467041-1.4754639-0.5988159c-0.510437-0.1315918-1.0309448-0.1975708-1.5618286-0.1975708
			s-1.0515747,0.0657959-1.5618896,0.1975708c-0.510437,0.1315308-1.0021973,0.3312378-1.4754028,0.5988159
			c-0.4734497,0.267395-0.9096069,0.6008911-1.3087769,1.000061c-0.399353,0.399353-0.732666,0.8353882-1.0001221,1.3087769
			c-0.2675171,0.4732056-0.4671631,0.9649658-0.5987549,1.4754028c-0.1317749,0.5102539-0.1975708,1.0309448-0.1975708,1.5618896
			c0,0.5308838,0.0657959,1.0515747,0.1975708,1.5618286c0.1315918,0.510498,0.3312378,1.0021973,0.5987549,1.4754639
			c0.2674561,0.4733887,0.600769,0.9094238,1.0001221,1.3087769c0.3457031,0.3457031,0.7263794,0.644104,1.1420898,0.8950806
			c0.4155273,0.2512207,0.855957,0.4485474,1.321106,0.5926514l-1.2778931,1.2778931l1.5803833,1.5803833l-1.5803833,1.5803833
			l1.5803833,1.5803833l-1.5803833,1.5803833L24.8575439,32l2.932312-2.932373l-0.0061646-8.2784424
			c0.2592773-0.1358643,0.5081787-0.2901611,0.7470093-0.4630127c0.2384644-0.1728516,0.4629517-0.3642578,0.6728516-0.5740967
			c0.3991699-0.3991699,0.7325439-0.8355713,1.0001221-1.3087769c0.267334-0.4733887,0.467041-0.96521,0.5988159-1.4754639
			C30.934082,16.4573975,31,15.9368896,31,15.4060059C31,14.875061,30.934082,14.3546143,30.8024902,13.8441162z
			 M28.8660278,16.4677734c-0.0874634,0.3386841-0.2233276,0.6724243-0.4033203,0.9911499
			c-0.1775513,0.3139648-0.4040527,0.6096191-0.6732178,0.8788452c-0.1340942,0.1339722-0.2796021,0.2581787-0.4314575,0.3682251
			c-0.1604614,0.1161499-0.3294678,0.2209473-0.5023804,0.3115234L26,19.4657593V29h-0.9708862l-0.1715698,0.1715698
			l-0.3323364-0.3323364l0.1661377-0.1661987L25,28.3643799v-2.2111206l-0.3086548-0.3086548l-0.1661377-0.1661377
			l0.1661377-0.1661987L25,25.2036133v-2.2111206l-0.3086548-0.3086548l-0.1661377-0.1661377L25,22.0429077v-2.2694092
			l-1.4335327-0.4440918c-0.3087158-0.0957031-0.604248-0.2281494-0.8792725-0.3944092
			c-0.2751465-0.1661377-0.5313721-0.3670044-0.7614746-0.597168c-0.2697754-0.2697144-0.4961548-0.5651855-0.6733398-0.8789063
			c-0.1802979-0.3188477-0.315918-0.6520386-0.4033203-0.9911499c-0.0889282-0.3443604-0.1340332-0.7015991-0.1340332-1.0617676
			s0.045105-0.7174072,0.1342773-1.0626831c0.0871582-0.3382568,0.2227783-0.6714478,0.4034424-0.9909668
			c0.1768188-0.3129883,0.4032593-0.6084595,0.6729736-0.8782349c0.2697144-0.2696533,0.5651245-0.4960938,0.8789673-0.6732788
			c0.3187866-0.1802979,0.6519775-0.315918,0.9909058-0.4033203c0.3444824-0.0889282,0.7017822-0.1340332,1.0619507-0.1340332
			c0.3595581,0,0.7171021,0.045166,1.0617676,0.1340332c0.338623,0.0874023,0.6724243,0.2233276,0.9910889,0.4033203
			c0.3139038,0.1774902,0.6096802,0.4040527,0.8789673,0.6733398c0.2692871,0.2692261,0.4957886,0.5649414,0.6728516,0.8779907
			c0.180481,0.3196411,0.3163452,0.6533813,0.4035645,0.9912109C28.954834,14.6889038,29,15.0463867,29,15.4060059
			S28.954834,16.1231079,28.8660278,16.4677734z"/>
		<circle cx="25" cy="14" r="1.5"/>
	</g>
</g>
</svg>
