<?xml version="1.0" encoding="utf-8"?>
<!-- Generator: Adobe Illustrator 19.1.0, SVG Export Plug-In . SVG Version: 6.00 Build 0)  -->
<svg version="1.1" id="Layer_1" xmlns="http://www.w3.org/2000/svg" xmlns:xlink="http://www.w3.org/1999/xlink" x="0px" y="0px"
	 width="32px" height="32px" viewBox="0 0 32 32" style="enable-background:new 0 0 32 32;" xml:space="preserve">
<g>
	<path d="M22.125,19.59375L26,32l-10-7.6875L6,32l3.875-12.40625L0,12h12.25L16,0l3.75,12H32L22.125,19.59375z M22.203125,26.5625
		c-0.3959961-1.2915039-0.7919922-2.5751953-1.1875-3.8515625c-0.3959961-1.2758789-0.8022461-2.5595703-1.21875-3.8515625
		C20.8696289,18.0576172,21.9267578,17.25,22.96875,16.4375C24.0102539,15.625,25.0624943,14.8125,26.125,14h-7.84375L16,6.703125
		L13.71875,14H5.875c1.0624943,0.8125,2.1142578,1.625,3.15625,2.4375c1.0415039,0.8125,2.0986328,1.6201172,3.171875,2.421875
		c-0.4169922,1.2919922-0.8232422,2.5756836-1.21875,3.8515625c-0.3959961,1.2763672-0.7919922,2.5600586-1.1875,3.8515625
		L16,21.78125L22.203125,26.5625z"/>
</g>
</svg>
