<svg xmlns="http://www.w3.org/2000/svg" width="32" height="32" viewBox="0 0 32 32">
  <title>Artboard 2</title>
  <g id="Symbols">
    <path d="M14.13,26.7c.14-.27.68-.47.87-.7-.08-.31-1-.68-1-1H2V9H12l2-2H30v9l.11.45c.25,1,1.37,1.82,1.89,2.55V5H14L12,3H0V27l14,0C14,26.9,14.08,26.8,14.13,26.7ZM2,5h9l1,1L11,7H2Z"/>
    <path d="M31.85,29.59a2.25,2.25,0,0,0,.18-.9,2.22,2.22,0,0,0-.25-1,2.47,2.47,0,0,0-.72-.84l-.29-.22.13-.35A7.24,7.24,0,0,0,31,21.58a7.26,7.26,0,0,0-1-2A7.54,7.54,0,0,0,28.52,18,7,7,0,0,0,26.58,17l-.22-.08-.08-.22a2.33,2.33,0,0,0-4.38,0l-.08.22-.22.08A7,7,0,0,0,19.67,18a7.51,7.51,0,0,0-1.5,1.59,7.21,7.21,0,0,0-1.3,4.14,7.1,7.1,0,0,0,.43,2.46l.13.35-.29.22a2.45,2.45,0,0,0-.71.84,2.21,2.21,0,0,0-.25,1,2.24,2.24,0,0,0,.18.9,2.36,2.36,0,0,0,1.23,1.23,2.4,2.4,0,0,0,1.82,0,2,2,0,0,0,.75-.53L20.4,30l.34.18a7.26,7.26,0,0,0,6.7,0l.34-.18.26.29a2,2,0,0,0,.75.53,2.33,2.33,0,0,0,3.05-1.23Zm-3.06-3.1-.07.12-.12.07a2.2,2.2,0,0,0-1,1.17l0,.13-.11.09a5.19,5.19,0,0,1-1.57.85,5.44,5.44,0,0,1-3.5,0A5.17,5.17,0,0,1,20.77,28L20.67,28l0-.13a2.2,2.2,0,0,0-1-1.17l-.12-.07-.07-.12a5.41,5.41,0,0,1,.12-5.62,5.4,5.4,0,0,1,2.27-2l.35-.16.25.29a2.1,2.1,0,0,0,.77.57,2.33,2.33,0,0,0,1.88,0A2.11,2.11,0,0,0,25.8,19l.25-.29.35.16a5.4,5.4,0,0,1,2.27,2,5.33,5.33,0,0,1,.85,2.9A5.27,5.27,0,0,1,28.79,26.48Z"/>
  </g>
</svg>
