<?xml version="1.0" encoding="utf-8"?>
<!-- Generator: Adobe Illustrator 19.1.0, SVG Export Plug-In . SVG Version: 6.00 Build 0)  -->
<svg version="1.1" id="Layer_1" xmlns="http://www.w3.org/2000/svg" xmlns:xlink="http://www.w3.org/1999/xlink" x="0px" y="0px"
	 width="32px" height="32px" viewBox="0 0 32 32" style="enable-background:new 0 0 32 32;" xml:space="preserve">
<g>
	<polygon points="22.703125,15 27,15 27,17 22.703125,17 24.03125,18.328125 22.6875,19.671875 19,16 22.6875,12.328125 
		24.03125,13.671875 	"/>
	<polygon points="9.3125,12.328125 13,16 9.3125,19.671875 7.96875,18.328125 9.296875,17 5,17 5,15 9.296875,15 7.96875,13.671875 
			"/>
	<polygon points="17,8.703125 17,14 15,14 15,8.703125 13.6714754,10.03125 12.3277254,8.6875 15.9996004,5 19.6714745,8.6875 
		18.3277245,10.03125 	"/>
	<polygon points="19.6714745,23.3125 15.9996004,27 12.3277254,23.3125 13.6714754,21.96875 15,23.296875 15,18 17,18 17,23.296875 
		18.3277245,21.96875 	"/>
</g>
<path d="M28,31H4c-1.6542969,0-3-1.3457031-3-3V4c0-1.6542969,1.3457031-3,3-3h24c1.6542969,0,3,1.3457031,3,3v24
	C31,29.6542969,29.6542969,31,28,31z M4,3C3.4487305,3,3,3.4487305,3,4v24c0,0.5517578,0.4487305,1,1,1h24
	c0.5517578,0,1-0.4482422,1-1V4c0-0.5512695-0.4482422-1-1-1H4z"/>
</svg>
