<?xml version="1.0" encoding="utf-8"?>
<!-- Generator: Adobe Illustrator 19.1.0, SVG Export Plug-In . SVG Version: 6.00 Build 0)  -->
<svg version="1.1" id="Layer_1" xmlns="http://www.w3.org/2000/svg" xmlns:xlink="http://www.w3.org/1999/xlink" x="0px" y="0px"
	 width="32px" height="32px" viewBox="0 0 32 32" style="enable-background:new 0 0 32 32;" xml:space="preserve">
<g>
	<path d="M32,16v14h-4c0,0.28125-0.0522461,0.5419922-0.15625,0.78125
		c-0.1044922,0.2402344-0.2475586,0.4511719-0.4296875,0.6328125c-0.1826172,0.1826172-0.3935547,0.3261719-0.6328125,0.4296875
		C26.5415039,31.9482422,26.28125,32,26,32s-0.5419922-0.0517578-0.78125-0.15625
		c-0.2397461-0.1035156-0.4506836-0.2470703-0.6328125-0.4296875c-0.1826172-0.1816406-0.3256836-0.3925781-0.4296875-0.6328125
		C24.0517578,30.5419922,24,30.28125,24,30H8c0,0.28125-0.0522461,0.5419922-0.15625,0.78125
		c-0.1044922,0.2402344-0.2475586,0.4511719-0.4296875,0.6328125C7.2314453,31.5966797,7.0205078,31.7402344,6.78125,31.84375
		C6.5415039,31.9482422,6.28125,32,6,32s-0.5419922-0.0517578-0.78125-0.15625
		c-0.2397461-0.1035156-0.4506836-0.2470703-0.6328125-0.4296875C4.4033203,31.2324219,4.2602539,31.0214844,4.15625,30.78125
		C4.0517578,30.5419922,4,30.28125,4,30H0V16h4V1c0-0.2705078,0.0986328-0.5048828,0.296875-0.703125
		C4.4946289,0.0996094,4.7290039,0,5,0c0.2705078,0,0.5048828,0.0996094,0.703125,0.296875C5.9008789,0.4951172,6,0.7294922,6,1v15
		H32z M30,18H2v10h28V18z M8.890625,26.109375l-5-5L5.09375,19.90625l5,5L8.890625,26.109375z M14.890625,26.109375l-5-5
		l1.203125-1.203125l5,5L14.890625,26.109375z M19,24c-0.2709961,0-0.5053711-0.0986328-0.703125-0.296875
		C18.0986328,23.5058594,18,23.2714844,18,23c0-0.2705078,0.0986328-0.5048828,0.296875-0.703125
		C18.4946289,22.0996094,18.7290039,22,19,22c0.2705078,0,0.5048828,0.0996094,0.703125,0.296875
		C19.9008789,22.4951172,20,22.7294922,20,23c0,0.2714844-0.0991211,0.5058594-0.296875,0.703125
		C19.5048828,23.9013672,19.2705078,24,19,24z M25,26c-0.4169922,0-0.8076172-0.078125-1.171875-0.234375
		c-0.3647461-0.15625-0.6826172-0.3691406-0.953125-0.640625c-0.2709961-0.2705078-0.484375-0.5878906-0.640625-0.953125
		C22.078125,23.8076172,22,23.4169922,22,23c0-0.4160156,0.078125-0.8066406,0.234375-1.171875
		c0.15625-0.3642578,0.3696289-0.6816406,0.640625-0.953125c0.2705078-0.2705078,0.5883789-0.484375,0.953125-0.640625
		C24.1923828,20.078125,24.5830078,20,25,20c0.4165039,0,0.8071289,0.078125,1.171875,0.234375
		c0.3642578,0.15625,0.6821289,0.3701172,0.953125,0.640625c0.2705078,0.2714844,0.484375,0.5888672,0.640625,0.953125
		C27.921875,22.1933594,28,22.5839844,28,23c0,0.4169922-0.078125,0.8076172-0.234375,1.171875
		c-0.15625,0.3652344-0.3701172,0.6826172-0.640625,0.953125c-0.2709961,0.2714844-0.5888672,0.484375-0.953125,0.640625
		C25.8071289,25.921875,25.4165039,26,25,26z M25,22c-0.2709961,0-0.5053711,0.0996094-0.703125,0.296875
		C24.0986328,22.4951172,24,22.7294922,24,23c0,0.2714844,0.0986328,0.5058594,0.296875,0.703125
		C24.4946289,23.9013672,24.7290039,24,25,24c0.2705078,0,0.5048828-0.0986328,0.703125-0.296875
		C25.9008789,23.5058594,26,23.2714844,26,23c0-0.2705078-0.0991211-0.5048828-0.296875-0.703125
		C25.5048828,22.0996094,25.2705078,22,25,22z"/>
</g>
</svg>
