<svg xmlns="http://www.w3.org/2000/svg" width="32" height="32" viewBox="0 0 32 32">
  <title>Artboard 3</title>
  <g id="Symbols">
    <g>
      <g>
        <polygon points="9.58 7.94 6.39 4.77 5.34 5.82 8.52 9.01 9.58 7.94"/>
        <rect x="13.07" y="2" width="1.5" height="4.5"/>
        <polygon points="22.31 5.82 21.25 4.77 18.07 7.94 19.13 9.01 22.31 5.82"/>
        <rect x="20.57" y="12.5" width="4.5" height="1.5"/>
        <polygon points="5.34 20.68 6.39 21.73 9.58 18.56 8.52 17.49 5.34 20.68"/>
        <rect x="2.57" y="12.5" width="4.5" height="1.5"/>
      </g>
      <path d="M26,24.86H21l1.73,3.75-3.65,1.68-1.77-3.85L14,29.68V12.86Zm-4.75,3.21-2-4.31h4.07L15.1,15.52V27.06l2.54-2.5,2,4.27Z"/>
    </g>
  </g>
</svg>
