<?xml version="1.0" encoding="utf-8"?>
<!-- Generator: Adobe Illustrator 19.1.0, SVG Export Plug-In . SVG Version: 6.00 Build 0)  -->
<svg version="1.1" id="Layer_1" xmlns="http://www.w3.org/2000/svg" xmlns:xlink="http://www.w3.org/1999/xlink" x="0px" y="0px"
	 width="32px" height="32px" viewBox="0 0 32 32" style="enable-background:new 0 0 32 32;" xml:space="preserve">
<path d="M16,0C7.1777344,0,0,7.1777344,0,16s7.1777344,16,16,16s16-7.1777344,16-16S24.8222656,0,16,0z M28.6299438,10h-6.3408813
	c-0.4844971-2.9663696-1.3364258-5.6350708-2.5283813-7.4721069C23.6818848,3.6242676,26.9047852,6.3838501,28.6299438,10z M30,16
	c0,1.3903809-0.2104492,2.7313232-0.5895996,4h-6.8552856c0.1386719-1.3187866,0.2139282-2.6655884,0.2139282-4
	s-0.0752563-2.6812134-0.2139282-4h6.8552856C29.7895508,13.2686768,30,14.6096191,30,16z M16,30
	c-1.6387939,0-3.4144897-3.1818848-4.2616577-8h8.5233765C19.4145508,26.8181152,17.6387939,30,16,30z M11.4517822,20
	c-0.1397095-1.2585449-0.2208252-2.5957031-0.2208252-4s0.0811157-2.7414551,0.2208252-4h9.0964355
	c0.1397095,1.2585449,0.2208252,2.5957031,0.2208252,4s-0.0811157,2.7414551-0.2208252,4H11.4517822z M2,16
	c0-1.3903809,0.2104492-2.7313232,0.5895996-4h6.8552856c-0.1386719,1.3187866-0.2139282,2.6655884-0.2139282,4
	s0.0752563,2.6812134,0.2139282,4H2.5895996C2.2104492,18.7313232,2,17.3903809,2,16z M16,2
	c1.6387939,0,3.4145508,3.1818848,4.2617188,8h-8.5233765C12.5855103,5.1818848,14.3612061,2,16,2z M12.2393188,2.5278931
	C11.0473633,4.3649292,10.1954346,7.0336304,9.7109375,10H3.3700562C5.0952148,6.3838501,8.3181152,3.6242676,12.2393188,2.5278931z
	 M3.3700562,22h6.3408813c0.4844971,2.9663696,1.3364258,5.6350708,2.5283813,7.4721069
	C8.3181152,28.3757324,5.0952148,25.6161499,3.3700562,22z M19.7606812,29.4721069
	C20.9526367,27.6350708,21.8045654,24.9663696,22.2890625,22h6.3408813
	C26.9047852,25.6161499,23.6818848,28.3757324,19.7606812,29.4721069z"/>
</svg>
