<?xml version="1.0" encoding="utf-8"?>
<!-- Generator: Adobe Illustrator 19.1.0, SVG Export Plug-In . SVG Version: 6.00 Build 0)  -->
<svg version="1.1" id="Layer_1" xmlns="http://www.w3.org/2000/svg" xmlns:xlink="http://www.w3.org/1999/xlink" x="0px" y="0px"
	 width="32px" height="32px" viewBox="0 0 32 32" style="enable-background:new 0 0 32 32;" xml:space="preserve">
<path d="M10,23V12H6.4667969C6.3062134,12,6.151062,12.0256958,6,12.0650635V12C6,6.4858398,10.4858398,2,16,2s10,4.4858398,10,10
	v0.0650635C25.848938,12.0256958,25.6937866,12,25.5332031,12H22v11h3.5332031C26.9223633,23,28,21.4233398,28,20.0668945V18
	v-3.0668945V12c0-6.6166992-5.3833008-12-12-12S4,5.3833008,4,12v2.9331055V16v4.0668945
	c0,0.2980347,0.0599365,0.6055298,0.1558838,0.9057617l-0.0670166-0.0019531
	c-0.0913086,3.140625,0.5688477,5.4013672,2.0185547,6.9121094c1.1923218,1.2429199,2.8572388,1.9246216,5.0653687,2.0802002
	C11.5764771,31.1434937,12.6844482,32,14,32h2c1.6542969,0,3-1.3457031,3-3s-1.3457031-3-3-3h-2
	c-1.2797852,0-2.3667603,0.809082-2.796936,1.9396362c-1.6229858-0.1352539-2.8410034-0.5953369-3.652771-1.4411011
	C6.7797241,25.6953125,6.3206177,24.5678101,6.1543579,23H10z M14,28h2c0.5512695,0,1,0.4487305,1,1s-0.4487305,1-1,1h-2
	c-0.5512695,0-1-0.4487305-1-1S13.4487305,28,14,28z M6.4667969,14H8v7.0009766l-1.5087891,0.0019531
	C6.3193359,20.9482422,6,20.4458008,6,20.0668945V16v-1.0668945C6,14.5541992,6.3193359,14.0517578,6.4667969,14z M26,20.0668945
	C26,20.4458008,25.6806641,20.9482422,25.5332031,21H24v-7.0009766l1.5087891-0.0019531
	C25.6806641,14.0517578,26,14.5541992,26,14.9331055V18V20.0668945z"/>
</svg>
