<?xml version="1.0" encoding="utf-8"?>
<!-- Generator: Adobe Illustrator 19.1.0, SVG Export Plug-In . SVG Version: 6.00 Build 0)  -->
<svg version="1.1" id="Layer_1" xmlns="http://www.w3.org/2000/svg" xmlns:xlink="http://www.w3.org/1999/xlink" x="0px" y="0px"
	 width="43px" height="35px" viewBox="0 0 43 35" style="enable-background:new 0 0 43 35;" xml:space="preserve">
<g>
	<g>
		<rect x="8" y="7" width="2" height="2"/>
		<rect x="4" y="7" width="2" height="2"/>
		<rect x="4" y="11" width="2" height="2"/>
		<rect x="8" y="11" width="2" height="2"/>
		<rect x="8" y="15" width="2" height="2"/>
		<rect x="4" y="15" width="2" height="2"/>
		<rect x="4" y="19" width="2" height="2"/>
		<rect x="8" y="19" width="2" height="2"/>
		<rect x="8" y="23" width="2" height="2"/>
		<rect x="4" y="23" width="2" height="2"/>
		<path d="M14,11V3H0v32h12h2h12V11H14z M12,33H2V5h10v6V33z M24,33H14V13h10V33z"/>
		<rect x="20" y="15" width="2" height="2"/>
		<rect x="16" y="15" width="2" height="2"/>
		<rect x="16" y="19" width="2" height="2"/>
		<rect x="20" y="19" width="2" height="2"/>
		<rect x="20" y="23" width="2" height="2"/>
		<rect x="16" y="23" width="2" height="2"/>
		<rect x="8" y="27" width="2" height="2"/>
		<rect x="4" y="27" width="2" height="2"/>
		<rect x="20" y="27" width="2" height="2"/>
		<rect x="16" y="27" width="2" height="2"/>
	</g>
	<path d="M41.5949097,27.8945313c-0.2702026-0.6196899-0.6375122-1.1575317-1.102356-1.6137085
		c-0.4648438-0.4556885-1.0093384-0.8167725-1.6335449-1.0823975c-0.6242676-0.265625-1.2907715-0.3984375-1.9988403-0.3984375
		c-0.1240845-0.9649658-0.4050903-1.8635254-0.8433838-2.696106c-0.4382935-0.8321533-0.9940186-1.5513916-1.6668091-2.1582031
		c-0.6731567-0.6063843-1.4455566-1.0823975-2.3175659-1.4277344C31.1600342,18.1726685,30.2327881,18,29.25,18
		c-0.6553345,0-1.2928467,0.0796509-1.9124756,0.2390747C26.8690796,18.359436,26.4276733,18.5336304,26,18.7348633v2.2958374
		c0.1762695-0.1268311,0.3581543-0.2443237,0.5463867-0.3475952c0.4008789-0.2197266,0.8344727-0.3901367,1.2880859-0.5068359
		C28.2895508,20.059082,28.7651367,20,29.25,20c0.7348633,0,1.4042969,0.1235352,2.0458984,0.3774414
		c0.6542969,0.2592773,1.2158203,0.6040039,1.7158203,1.0546875c0.5004883,0.4511719,0.9047852,0.9760742,1.2353516,1.6035156
		c0.3291016,0.625,0.5351563,1.2856445,0.6298828,2.0200195l0.2250977,1.7441406h1.7583008
		c0.4404297,0,0.8378906,0.078125,1.215332,0.2387695c0.3959961,0.168457,0.7285156,0.3876953,1.0170898,0.6704102
		c0.28125,0.2763672,0.5,0.5981445,0.668457,0.984375C39.921875,29.0625,40,29.4570313,40,29.8999023
		c0,0.4370117-0.0766602,0.8276367-0.234375,1.1928711c-0.1665039,0.3847656-0.3867188,0.7114258-0.6738281,0.9990234
		c-0.2861328,0.2856445-0.6132813,0.5053711-1.0009766,0.6713867C37.7192383,32.9223633,37.3295898,33,36.8999023,33H26v2
		h10.9000244c0.6993408,0,1.3588257-0.1328125,1.9788818-0.3984375c0.6196289-0.265625,1.1621094-0.6308594,1.6269531-1.0957031
		s0.8300781-1.0048218,1.0957031-1.6203003C41.8671875,31.2704468,42,30.6084595,42,29.8999634
		C42,29.1828003,41.8646851,28.5145874,41.5949097,27.8945313z"/>
	<g>
		<polygon points="37.828125,6 37.828125,4 27.828125,4 30.4140625,1.4140625 29,0 24,5 29,10 30.4140625,8.5859375 27.828125,6 		
			"/>
		<polygon points="29.171875,14 29.171875,12 39.171875,12 36.5859375,9.4140625 38,8 43,13 38,18 36.5859375,16.5859375 
			39.171875,14 		"/>
	</g>
</g>
<g>
</g>
<g>
</g>
<g>
</g>
<g>
</g>
<g>
</g>
<g>
</g>
<g>
</g>
<g>
</g>
<g>
</g>
<g>
</g>
<g>
</g>
<g>
</g>
<g>
</g>
<g>
</g>
<g>
</g>
</svg>
