<?xml version="1.0" encoding="utf-8"?>
<!-- Generator: Adobe Illustrator 19.1.0, SVG Export Plug-In . SVG Version: 6.00 Build 0)  -->
<svg version="1.1" id="Layer_1" xmlns="http://www.w3.org/2000/svg" xmlns:xlink="http://www.w3.org/1999/xlink" x="0px" y="0px"
	 width="32px" height="32px" viewBox="0 0 32 32" style="enable-background:new 0 0 32 32;" xml:space="preserve">
<g>
	<path d="M32,24.578125V32h-8v-4h-4v-4h-4v-3.234375c-0.7709961,0.40625-1.578125,0.7138672-2.421875,0.921875
		C12.734375,21.8959961,11.875,22,11,22c-1.0107422,0-1.984375-0.1298828-2.921875-0.390625
		c-0.9375-0.2602539-1.8125-0.6298828-2.625-1.109375c-0.8125-0.4790039-1.5546875-1.0546875-2.2265625-1.7265625
		S1.9790039,17.359375,1.5,16.546875c-0.4794922-0.8125-0.8491211-1.6875-1.109375-2.625C0.1298828,12.984375,0,12.0107422,0,11
		c0-1.0102539,0.1298828-1.984375,0.390625-2.921875c0.2602539-0.9375,0.6298828-1.8125,1.109375-2.625
		c0.4790039-0.8125,1.0546875-1.5546875,1.7265625-2.2265625S4.640625,1.9794922,5.453125,1.5
		c0.8125-0.4790039,1.6875-0.8486328,2.625-1.109375C9.015625,0.1303711,9.9892578,0,11,0
		c1.0102539,0,1.984375,0.1303711,2.921875,0.390625c0.9375,0.2607422,1.8125,0.6303711,2.625,1.109375
		c0.8125,0.4794922,1.5546875,1.0546875,2.2265625,1.7265625S20.0205078,4.640625,20.5,5.453125
		c0.4790039,0.8125,0.8486328,1.6875,1.109375,2.625C21.8696289,9.015625,22,9.9897461,22,11
		c0,0.53125-0.0419922,1.0576172-0.125,1.578125c-0.0834961,0.5209961-0.203125,1.03125-0.359375,1.53125L32,24.578125z
		 M30,25.421875l-10.78125-10.78125c0.2290039-0.59375,0.4165039-1.1899414,0.5625-1.7890625
		C19.9267578,12.2529297,20,11.6357422,20,11c0-1.2392578-0.2373047-2.40625-0.7109375-3.5
		c-0.4741211-1.09375-1.1171875-2.046875-1.9296875-2.859375S15.59375,3.1850586,14.5,2.7109375
		C13.40625,2.2373047,12.2392578,2,11,2C9.7602539,2,8.59375,2.2373047,7.5,2.7109375
		C6.40625,3.1850586,5.453125,3.828125,4.640625,4.640625S3.1845703,6.40625,2.7109375,7.5C2.2368164,8.59375,2,9.7607422,2,11
		c0,1.2397461,0.2368164,2.40625,0.7109375,3.5c0.4736328,1.09375,1.1171875,2.046875,1.9296875,2.859375
		S6.40625,18.8154297,7.5,19.2890625C8.59375,19.7631836,9.7602539,20,11,20c1.0102539,0,2.0024414-0.171875,2.9765625-0.515625
		C14.9501953,19.140625,15.828125,18.6459961,16.609375,18H18v4h4v4h4v4h4V25.421875z M8,6
		c0.28125,0,0.5415039,0.0522461,0.78125,0.15625c0.2392578,0.1044922,0.4501953,0.2475586,0.6328125,0.4296875
		C9.5961914,6.7685547,9.7392578,6.9794922,9.84375,7.21875C9.9477539,7.4584961,10,7.71875,10,8
		S9.9477539,8.5419922,9.84375,8.78125C9.7392578,9.0209961,9.5961914,9.2319336,9.4140625,9.4140625
		C9.2314453,9.5966797,9.0205078,9.7397461,8.78125,9.84375C8.5415039,9.9482422,8.28125,10,8,10
		S7.4580078,9.9482422,7.21875,9.84375C6.9790039,9.7397461,6.7680664,9.5966797,6.5859375,9.4140625
		C6.4033203,9.2319336,6.2602539,9.0209961,6.15625,8.78125C6.0517578,8.5419922,6,8.28125,6,8s0.0517578-0.5415039,0.15625-0.78125
		c0.1040039-0.2392578,0.2470703-0.4501953,0.4296875-0.6328125C6.7680664,6.4038086,6.9790039,6.2607422,7.21875,6.15625
		C7.4580078,6.0522461,7.71875,6,8,6z"/>
</g>
</svg>
