<?xml version="1.0" encoding="utf-8"?>
<!-- Generator: Adobe Illustrator 19.1.0, SVG Export Plug-In . SVG Version: 6.00 Build 0)  -->
<svg version="1.1" id="Layer_1" xmlns="http://www.w3.org/2000/svg" xmlns:xlink="http://www.w3.org/1999/xlink" x="0px" y="0px"
	 width="32px" height="32px" viewBox="0 0 32 32" style="enable-background:new 0 0 32 32;" xml:space="preserve">
<g>
	<path d="M27,11c0.6874943,0,1.3330078,0.1328125,1.9374943,0.3984375c0.6040096,0.265625,1.1328182,0.625,1.5859432,1.078125
		s0.8125,0.9819336,1.078125,1.5859375C31.8671875,14.6669922,32,15.3125,32,16s-0.1328125,1.3359375-0.3984375,1.9453125
		s-0.625,1.140625-1.078125,1.59375s-0.9819336,0.8100586-1.5859432,1.0703125C28.3330078,20.8701172,27.6874943,21,27,21h-4
		c-0.59375,0-1.1616211-0.0986328-1.703125-0.296875c-0.5419922-0.1977539-1.0288086-0.4736328-1.4609375-0.828125
		c-0.4326172-0.3540039-0.7998047-0.7758789-1.1015625-1.265625C18.4321289,18.1201172,18.21875,17.5834961,18.09375,17h-4.1875
		c-0.125,0.5834961-0.3388672,1.1201172-0.640625,1.609375c-0.3022461,0.4897461-0.6694336,0.9116211-1.1015625,1.265625
		c-0.4326172,0.3544922-0.9194336,0.6303711-1.4609375,0.828125C10.1611328,20.9013672,9.59375,21,9,21H5
		c-0.6875052,0-1.3359375-0.1298828-1.9453125-0.390625c-0.609375-0.2602539-1.140625-0.6171875-1.59375-1.0703125
		s-0.8100586-0.984375-1.0703125-1.59375C0.1298828,17.3359375,0,16.6875,0,16s0.1298828-1.3330078,0.390625-1.9375
		c0.2602539-0.6040039,0.6171875-1.1328125,1.0703125-1.5859375s0.984375-0.8125,1.59375-1.078125S4.3124948,11,5,11h4
		c0.59375,0,1.1611328,0.0991211,1.703125,0.296875c0.5415039,0.1982422,1.0283203,0.4741211,1.4609375,0.828125
		c0.4321289,0.3544922,0.7993164,0.7763672,1.1015625,1.265625C13.5673828,13.8803711,13.78125,14.4169922,13.90625,15h4.1875
		c0.125-0.5830078,0.3383789-1.1196289,0.640625-1.609375c0.3017578-0.4892578,0.6689453-0.9111328,1.1015625-1.265625
		c0.4321289-0.3540039,0.9189453-0.6298828,1.4609375-0.828125C21.8383789,11.0991211,22.40625,11,23,11H27z M9,19
		c0.3124943,0,0.6171875-0.046875,0.9140625-0.140625s0.5703125-0.2290039,0.8203125-0.40625
		c0.25-0.1767578,0.46875-0.3876953,0.65625-0.6328125c0.1875-0.2446289,0.3330078-0.5180664,0.4375-0.8203125H9
		c-0.2709961,0-0.5053711-0.0986328-0.703125-0.296875C8.0986328,16.5053711,8,16.2709961,8,16
		c0-0.2705078,0.0986328-0.5048828,0.296875-0.703125C8.4946289,15.0991211,8.7290039,15,9,15h2.828125
		c-0.1044922-0.3017578-0.25-0.5751953-0.4375-0.8203125c-0.1875-0.2446289-0.40625-0.4555664-0.65625-0.6328125
		c-0.25-0.1767578-0.5234375-0.3125-0.8203125-0.40625S9.3124943,13,9,13H5c-0.4169922,0-0.8076172,0.078125-1.171875,0.234375
		C3.4633789,13.390625,3.1455078,13.6044922,2.875,13.875c-0.2709961,0.2709961-0.484375,0.5888672-0.640625,0.953125
		C2.078125,15.1928711,2,15.5834961,2,16c0,0.4169922,0.078125,0.8076172,0.234375,1.171875
		C2.390625,17.5366211,2.6040039,17.8544922,2.875,18.125c0.2705078,0.2709961,0.5883789,0.484375,0.953125,0.640625
		C4.1923828,18.921875,4.5830078,19,5,19H9z M27,19c0.4165039,0,0.8071289-0.078125,1.171875-0.234375
		c0.3642578-0.15625,0.6821289-0.3696289,0.953125-0.640625c0.2705078-0.2705078,0.484375-0.5883789,0.640625-0.953125
		C29.921875,16.8076172,30,16.4169922,30,16c0-0.4165039-0.078125-0.8071289-0.234375-1.171875
		c-0.15625-0.3642578-0.3701172-0.6821289-0.640625-0.953125c-0.2709961-0.2705078-0.5888672-0.484375-0.953125-0.640625
		C27.8071289,13.078125,27.4165039,13,27,13h-4c-0.3125057,0-0.6171875,0.046875-0.9140625,0.140625
		s-0.5703125,0.2294922-0.8203125,0.40625c-0.25,0.1772461-0.46875,0.3881836-0.65625,0.6328125
		c-0.1875,0.2451172-0.3334961,0.5185547-0.4375,0.8203125H23c0.2705078,0,0.5048828,0.0991211,0.703125,0.296875
		C23.9008789,15.4951172,24,15.7294922,24,16c0,0.2709961-0.0991211,0.5053711-0.296875,0.703125
		C23.5048828,16.9013672,23.2705078,17,23,17h-2.828125c0.1040039,0.3022461,0.25,0.5756836,0.4375,0.8203125
		c0.1875,0.2451172,0.40625,0.4560547,0.65625,0.6328125c0.25,0.1772461,0.5234375,0.3125,0.8203125,0.40625S22.6874943,19,23,19H27
		z"/>
</g>
</svg>
