<svg xmlns="http://www.w3.org/2000/svg" width="32" height="32" viewBox="0 0 32 32">
  <title>Artboard 6</title>
  <g id="Symbols">
    <g>
      <path d="M6,25V23l4-7H22l4,7v2Zm19-1.75L21.7,17H10.07L7,23.23Z"/>
      <path d="M12.8,14a3.15,3.15,0,0,1,.41-1.3,3.18,3.18,0,0,1,.5-.65,3.11,3.11,0,0,1,.65-.5,3.25,3.25,0,0,1,.78-.32,3.44,3.44,0,0,1,2.15.13,3.1,3.1,0,0,1,1.7,1.7,3.24,3.24,0,0,1,.21.94h1a4.29,4.29,0,0,0-.17-.94,4.21,4.21,0,0,0-.55-1.14,4.08,4.08,0,0,0-.87-.92,3.93,3.93,0,0,0-.78-.47,2.88,2.88,0,0,0,.32-.27,3.12,3.12,0,0,0,.82-1.38,3,3,0,0,0,.11-.82,3,3,0,0,0-.24-1.19A3,3,0,0,0,17.2,5.24a3.09,3.09,0,0,0-2.39,0,3,3,0,0,0-1.62,1.63,3.07,3.07,0,0,0-.13,2,3.13,3.13,0,0,0,.32.75,3.05,3.05,0,0,0,.5.64,2.86,2.86,0,0,0,.33.28,4.21,4.21,0,0,0-.78.47,4.17,4.17,0,0,0-.87.91A4,4,0,0,0,11.83,14Zm1.29-5.13a2.07,2.07,0,0,1,0-1.62A2.12,2.12,0,0,1,15.2,6.14a2.08,2.08,0,0,1,1.62,0,2.12,2.12,0,0,1,1.11,1.11,2.07,2.07,0,0,1,0,1.62A2.12,2.12,0,0,1,16.81,10a2.08,2.08,0,0,1-1.62,0,2.12,2.12,0,0,1-1.11-1.11Z"/>
      <path d="M7.13,15.45l.5-.84c-.06-.05-.11-.11-.17-.16A3.93,3.93,0,0,0,6.69,14,2.88,2.88,0,0,0,7,13.71a3.12,3.12,0,0,0,.82-1.38,3,3,0,0,0,.11-.82,3,3,0,0,0-.24-1.19A3,3,0,0,0,6.08,8.7a3.09,3.09,0,0,0-2.39,0,3,3,0,0,0-1.62,1.62,3.07,3.07,0,0,0-.13,2,3.13,3.13,0,0,0,.32.75,3.05,3.05,0,0,0,.5.64,2.86,2.86,0,0,0,.33.28,4.21,4.21,0,0,0-.78.47,4.17,4.17,0,0,0-.87.91A4.21,4.21,0,0,0,.68,17.8V18h1v-.2a3.29,3.29,0,0,1,.11-.87,3.24,3.24,0,0,1,.32-.78,3.18,3.18,0,0,1,.5-.65,3.11,3.11,0,0,1,.65-.5A3.25,3.25,0,0,1,4,14.68a3.44,3.44,0,0,1,2.15.13A3.14,3.14,0,0,1,7.13,15.45ZM4.88,13.6a2,2,0,0,1-.81-.16A2.12,2.12,0,0,1,3,12.32a2.07,2.07,0,0,1,0-1.62A2.12,2.12,0,0,1,4.08,9.59a2.08,2.08,0,0,1,1.62,0A2.12,2.12,0,0,1,6.8,10.71a2.07,2.07,0,0,1,0,1.62,2.12,2.12,0,0,1-1.11,1.11A2,2,0,0,1,4.88,13.6Z"/>
      <path d="M31.16,16.51a4.21,4.21,0,0,0-.55-1.14,4.08,4.08,0,0,0-.87-.92A3.93,3.93,0,0,0,29,14a2.88,2.88,0,0,0,.32-.27,3.12,3.12,0,0,0,.82-1.38,3,3,0,0,0,.11-.82A3,3,0,0,0,30,10.32,3,3,0,0,0,28.35,8.7,3.09,3.09,0,0,0,26,8.7a3,3,0,0,0-1.62,1.62,3.07,3.07,0,0,0-.13,2,3.13,3.13,0,0,0,.32.75,3.05,3.05,0,0,0,.5.64,2.86,2.86,0,0,0,.33.28,4.21,4.21,0,0,0-.78.47,3.57,3.57,0,0,0-.31.29l.51.85.08-.1a3.11,3.11,0,0,1,.65-.5,3.25,3.25,0,0,1,.78-.32,3.44,3.44,0,0,1,2.15.13,3.1,3.1,0,0,1,1.7,1.7,3.32,3.32,0,0,1,.25,1.28V18h1v-.2A4.34,4.34,0,0,0,31.16,16.51ZM28,13.44a2.08,2.08,0,0,1-1.62,0,2.12,2.12,0,0,1-1.11-1.11,2.07,2.07,0,0,1,0-1.62,2.12,2.12,0,0,1,1.11-1.11,2.08,2.08,0,0,1,1.62,0,2.12,2.12,0,0,1,1.11,1.11,2.07,2.07,0,0,1,0,1.62A2.12,2.12,0,0,1,28,13.44Z"/>
    </g>
  </g>
</svg>
