<?xml version="1.0" encoding="utf-8"?>
<!-- Generator: Adobe Illustrator 19.1.0, SVG Export Plug-In . SVG Version: 6.00 Build 0)  -->
<svg version="1.1" id="Layer_1" xmlns="http://www.w3.org/2000/svg" xmlns:xlink="http://www.w3.org/1999/xlink" x="0px" y="0px"
	 width="32px" height="32px" viewBox="0 0 32 32" style="enable-background:new 0 0 32 32;" xml:space="preserve">
<g>
	<g>
		<path d="M30.328125,29.328125v-14.65625h-8.65625v14.65625H30.328125z M20,31V13h12v18H20z M28,25v2h-4v-2H28z"/>
	</g>
	<path d="M18,16.55896c-0.0550537-0.0458984-0.1000977-0.0998535-0.15625-0.1448975
		c-0.8647461-0.6923828-1.8232422-1.2470703-2.875-1.6640625c0.46875-0.3222656,0.890625-0.6972656,1.265625-1.125
		c0.375-0.4267578,0.6923828-0.8876953,0.953125-1.3828125c0.2602539-0.4941406,0.4609375-1.015625,0.6015625-1.5625
		S18,9.5732422,18,9c0-0.96875-0.1850586-1.8769531-0.5546875-2.7265625c-0.3701172-0.8486328-0.8701172-1.5878906-1.5-2.21875
		c-0.6303711-0.6298828-1.3701172-1.1298828-2.21875-1.5C12.8774414,2.1855469,11.96875,2,11,2
		S9.1220703,2.1855469,8.2734375,2.5546875c-0.8491211,0.3701172-1.5888672,0.8701172-2.21875,1.5
		c-0.6303711,0.6308594-1.1303711,1.3701172-1.5,2.21875C4.1845703,7.1230469,4,8.03125,4,9
		c0,0.5732422,0.0703125,1.1328125,0.2109375,1.6796875s0.3408203,1.0683594,0.6015625,1.5625
		C5.0727539,12.7373047,5.390625,13.1982422,5.765625,13.625c0.375,0.4277344,0.796875,0.8027344,1.265625,1.125
		c-1.2397461,0.4902344-2.3022461,1.1123047-3.1875,1.8671875c-0.8857422,0.7558594-1.6147461,1.6171875-2.1875,2.5859375
		c-0.5732422,0.96875-0.9921875,2.0263672-1.2578125,3.171875C0.1328125,23.5214844,0,24.7294922,0,26h2v-1
		c0-1.2392578,0.2368164-2.40625,0.7109375-3.5c0.4736328-1.09375,1.1171875-2.046875,1.9296875-2.859375
		S6.40625,17.1855469,7.5,16.7109375C8.59375,16.2373047,9.7602539,16,11,16c1.2392578,0,2.40625,0.2373047,3.5,0.7109375
		c1.09375,0.4746094,2.046875,1.1171875,2.859375,1.9296875c0.2280273,0.2280273,0.43927,0.4699097,0.640625,0.7200928V16.55896z
		 M12.9375,13.6015625C12.3330078,13.8671875,11.6875,14,11,14s-1.3334961-0.1328125-1.9375-0.3984375
		c-0.6044922-0.265625-1.1328125-0.625-1.5859375-1.078125s-0.8125-0.9814453-1.078125-1.5859375C6.1328125,10.3339844,6,9.6875,6,9
		s0.1328125-1.3330078,0.3984375-1.9375c0.265625-0.6035156,0.625-1.1328125,1.078125-1.5859375
		s0.9814453-0.8125,1.5859375-1.078125C9.6665039,4.1328125,10.3125,4,11,4s1.3330078,0.1328125,1.9375,0.3984375
		c0.6040039,0.265625,1.1328125,0.625,1.5859375,1.078125s0.8125,0.9824219,1.078125,1.5859375C15.8671875,7.6669922,16,8.3125,16,9
		s-0.1328125,1.3339844-0.3984375,1.9375c-0.265625,0.6044922-0.625,1.1328125-1.078125,1.5859375
		S13.5415039,13.3359375,12.9375,13.6015625z"/>
</g>
<g>
</g>
<g>
</g>
<g>
</g>
<g>
</g>
<g>
</g>
<g>
</g>
<g>
</g>
<g>
</g>
<g>
</g>
<g>
</g>
<g>
</g>
<g>
</g>
<g>
</g>
<g>
</g>
<g>
</g>
</svg>
