<?xml version="1.0" encoding="utf-8"?>
<!-- Generator: Adobe Illustrator 19.1.0, SVG Export Plug-In . SVG Version: 6.00 Build 0)  -->
<svg version="1.1" id="Layer_1" xmlns="http://www.w3.org/2000/svg" xmlns:xlink="http://www.w3.org/1999/xlink" x="0px" y="0px"
	 width="32px" height="32px" viewBox="0 0 32 32" style="enable-background:new 0 0 32 32;" xml:space="preserve">
<g>
	<path d="M16.9116211,26.088501c0.1230469-0.2529907,0.2421875-0.5080566,0.3891602-0.7486572
		C17.3730469,25.2217407,17.4624023,25.1148071,17.5400391,25H2V9h27v5.2857666
		c0.3330078,0.2342529,0.6499023,0.4888306,0.9375,0.7767334c0.418457,0.4176636,0.7587891,0.9016113,1.0625,1.413208V2H0v25h16
		L16.9116211,26.088501z M2,4h27v3H2V4z"/>
	<path d="M28.25,23.796875c0.5722656,0.3027344,1.0908203,0.6748047,1.5546875,1.1171875
		c0.4628906,0.4433594,0.859375,0.9326172,1.1875,1.46875c0.328125,0.5371094,0.578125,1.109375,0.75,1.71875S32,29.34375,32,30v1
		h-2v-1c0-0.6875-0.1328125-1.3330078-0.3984375-1.9375c-0.265625-0.6035156-0.625-1.1328125-1.078125-1.5859375
		s-0.9824219-0.8125-1.5859375-1.078125C26.3330078,25.1328125,25.6875,25,25,25s-1.3359375,0.1328125-1.9453125,0.3984375
		s-1.140625,0.625-1.59375,1.078125S20.6503906,27.4589844,20.390625,28.0625C20.1298828,28.6669922,20,29.3125,20,30v1h-2v-1
		c0-0.65625,0.0859375-1.2890625,0.2578125-1.8984375s0.421875-1.1816406,0.75-1.71875
		c0.328125-0.5361328,0.7207031-1.0253906,1.1796875-1.46875c0.4580078-0.4423828,0.9785156-0.8144531,1.5625-1.1171875
		c-0.5625-0.4785156-0.9951172-1.0488281-1.296875-1.7109375C20.1503906,21.4248047,20,20.7294922,20,20
		c0-0.6875,0.1298828-1.3330078,0.390625-1.9375c0.2597656-0.6035156,0.6171875-1.1328125,1.0703125-1.5859375
		s0.984375-0.8125,1.59375-1.078125S24.3125,15,25,15s1.3330078,0.1328125,1.9375,0.3984375
		c0.6035156,0.265625,1.1328125,0.625,1.5859375,1.078125s0.8125,0.9824219,1.078125,1.5859375
		C29.8671875,18.6669922,30,19.3125,30,20c0,0.7294922-0.1542969,1.4248047-0.4609375,2.0859375
		C29.2314453,22.7480469,28.8017578,23.3183594,28.25,23.796875z M22,20c0,0.4169922,0.078125,0.8076172,0.234375,1.171875
		c0.15625,0.3652344,0.3691406,0.6826172,0.640625,0.953125c0.2705078,0.2714844,0.5878906,0.484375,0.953125,0.640625
		C24.1923828,22.921875,24.5830078,23,25,23c0.4160156,0,0.8066406-0.078125,1.171875-0.234375
		c0.3642578-0.15625,0.6816406-0.3691406,0.953125-0.640625c0.2705078-0.2705078,0.484375-0.5878906,0.640625-0.953125
		C27.921875,20.8076172,28,20.4169922,28,20c0-0.4160156-0.078125-0.8066406-0.234375-1.171875
		c-0.15625-0.3642578-0.3701172-0.6816406-0.640625-0.953125c-0.2714844-0.2705078-0.5888672-0.484375-0.953125-0.640625
		C25.8066406,17.078125,25.4160156,17,25,17c-0.4169922,0-0.8076172,0.078125-1.171875,0.234375
		c-0.3652344,0.15625-0.6826172,0.3701172-0.953125,0.640625c-0.2714844,0.2714844-0.484375,0.5888672-0.640625,0.953125
		C22.078125,19.1933594,22,19.5839844,22,20z"/>
</g>
</svg>
