<?xml version="1.0" encoding="utf-8"?>
<!-- Generator: Adobe Illustrator 19.1.0, SVG Export Plug-In . SVG Version: 6.00 Build 0)  -->
<svg version="1.1" id="Layer_1" xmlns="http://www.w3.org/2000/svg" xmlns:xlink="http://www.w3.org/1999/xlink" x="0px" y="0px"
	 width="32px" height="32px" viewBox="0 0 32 32" style="enable-background:new 0 0 32 32;" xml:space="preserve">
<g>
	<path d="M29,30h-6v2H9v-2H3v-2h6v-2h4v-2h2v-2H9V2c0-0.28125,0.0517578-0.5415039,0.15625-0.78125
		c0.1040039-0.2392578,0.2470703-0.4501953,0.4296875-0.6328125C9.7680664,0.4038086,9.9790039,0.2607422,10.21875,0.15625
		C10.4580078,0.0522461,10.71875,0,11,0h10c0.28125,0,0.5415039,0.0522461,0.78125,0.15625
		c0.2392578,0.1044922,0.4501953,0.2475586,0.6328125,0.4296875C22.5961914,0.7685547,22.7392578,0.9794922,22.84375,1.21875
		C22.9477539,1.4584961,23,1.71875,23,2v20h-6v2h2v2h4v2h6V30z M21,20V2H11v18H21z M21,28h-4v-2h-2v2h-4v2h10V28z M13,4h6v2h-6V4z
		 M13,12h6v2h-6V12z M13,16h6v2h-6V16z"/>
</g>
</svg>
