<?xml version="1.0" encoding="utf-8"?>
<!-- Generator: Adobe Illustrator 19.1.0, SVG Export Plug-In . SVG Version: 6.00 Build 0)  -->
<svg version="1.1" id="Layer_1" xmlns="http://www.w3.org/2000/svg" xmlns:xlink="http://www.w3.org/1999/xlink" x="0px" y="0px"
	 width="32px" height="32px" viewBox="0 0 32 32" style="enable-background:new 0 0 32 32;" xml:space="preserve">
<g>
	<g>
		<path d="M21,28v2h-3v2h8v-2h-3v-2h9V15H12v13H21z M14,17h16v9H14V17z"/>
	</g>
	<path d="M10,26H4c-1.1030273,0-2-0.8969727-2-2s0.8969727-2,2-2h6v-2H4c-0.7280273,0-1.4111328,0.1953125-2,0.5366211V4
		c0-1.1030273,0.8969727-2,2-2h16v11h2v-1h2V8h-2V6h2V2h-2V0H4C1.7944336,0,0,1.7944336,0,4v20c0,2.2055664,1.7944336,4,4,4h6V26z"
		/>
</g>
</svg>
