<?xml version="1.0" encoding="utf-8"?>
<!-- Generator: Adobe Illustrator 19.1.0, SVG Export Plug-In . SVG Version: 6.00 Build 0)  -->
<svg version="1.1" id="Layer_1" xmlns="http://www.w3.org/2000/svg" xmlns:xlink="http://www.w3.org/1999/xlink" x="0px" y="0px"
	 width="32px" height="32px" viewBox="0 0 32 32" style="enable-background:new 0 0 32 32;" xml:space="preserve">
<g>
	<path d="M21.484375,11.515625c0.875,0.4375,1.7446289,0.8701172,2.609375,1.296875
		c0.8642578,0.4272461,1.7290039,0.859375,2.5937443,1.296875c-0.4584904,0.9169922-0.9169865,1.8232422-1.375,2.71875
		c-0.4584904,0.8959961-0.9062443,1.8022461-1.3437443,2.71875L17.453125,16.9375l-0.2656307,0.828125
		c0.4580135,0.7607422,0.9165096,1.515625,1.375,2.265625c0.4580135,0.75,0.9111385,1.5107422,1.3593807,2.28125
		c0.2705078,1.6147461,0.5102539,3.2294922,0.71875,4.84375c0.2080078,1.6147461,0.4321289,3.2294922,0.6718693,4.84375h-6
		l-1.1406193-6.859375c-0.5522461,1.1044922-1.0966797,2.1982422-1.6328125,3.28125
		c-0.5366211,1.0834961-1.0859375,2.171875-1.6484375,3.265625c-0.9272461-0.4580078-1.84375-0.9189453-2.75-1.3828125
		c-0.90625-0.4633789-1.8232422-0.9189453-2.75-1.3671875l4.40625-9.890625L9.265625,18H5V8.46875
		c1.3955078-0.3852539,2.7861328-0.7602539,4.171875-1.125c1.3852539-0.3642578,2.7758789-0.734375,4.171875-1.109375
		C13.1142578,5.6616211,13,5.0834961,13,4.5c0-0.6142578,0.1196289-1.1953125,0.359375-1.7421875
		c0.2392578-0.546875,0.5625-1.0234375,0.96875-1.4296875s0.8828125-0.7290039,1.4296875-0.96875
		C16.3046875,0.1201172,16.8852539,0,17.5,0c0.6142578,0,1.1953125,0.1201172,1.7421875,0.359375
		c0.546875,0.2397461,1.0234375,0.5625,1.4296875,0.96875s0.7290039,0.8828125,0.96875,1.4296875
		C21.8798828,3.3046875,22,3.8857422,22,4.5c0,0.7709961-0.1875057,1.4975586-0.5625057,2.1796875
		C21.0624943,7.3623047,20.546875,7.90625,19.890625,8.3125L21.484375,11.515625z M24,15l-4-2l-1.921875-3.828125
		c-0.6875,0.125-1.3647461,0.09375-2.03125-0.09375c-0.6669922-0.1875-1.25-0.53125-1.75-1.03125
		c-1.21875,0.3334961-2.4326172,0.6616211-3.640625,0.984375C9.4477539,9.3544922,8.2290039,9.6772461,7,10v6h2v-4l4-1l-2,6l1,2
		l-4,9l2,1l4-8l2,3l1,6h2l-1-7l-3-5l2-6l1,3l5,2L24,15z M17.5,2c-0.34375,0-0.6669922,0.0654297-0.96875,0.1953125
		c-0.3022461,0.1303711-0.5678711,0.3100586-0.796875,0.5390625c-0.2294922,0.2294922-0.4091797,0.4951172-0.5390625,0.796875
		C15.0649414,3.8334961,15,4.15625,15,4.5s0.0649414,0.6669922,0.1953125,0.96875
		c0.1298828,0.3022461,0.3095703,0.5678711,0.5390625,0.796875c0.2290039,0.2294922,0.4946289,0.4091797,0.796875,0.5390625
		C16.8330078,6.9350586,17.15625,7,17.5,7s0.6665039-0.0649414,0.96875-0.1953125
		c0.3017578-0.1298828,0.5673828-0.3095703,0.796875-0.5390625c0.2290039-0.2290039,0.4086914-0.4946289,0.5390625-0.796875
		C19.9345703,5.1669922,20,4.84375,20,4.5s-0.0654297-0.6665039-0.1953125-0.96875
		c-0.1303711-0.3017578-0.3100586-0.5673828-0.5390625-0.796875c-0.2294922-0.2290039-0.4951172-0.4086914-0.796875-0.5390625
		C18.1665039,2.0654297,17.84375,2,17.5,2z"/>
</g>
</svg>
