<?xml version="1.0" encoding="utf-8"?>
<!-- Generator: Adobe Illustrator 19.1.0, SVG Export Plug-In . SVG Version: 6.00 Build 0)  -->
<svg version="1.1" id="Layer_1" xmlns="http://www.w3.org/2000/svg" xmlns:xlink="http://www.w3.org/1999/xlink" x="0px" y="0px"
	 width="32px" height="32px" viewBox="0 0 32 32" style="enable-background:new 0 0 32 32;" xml:space="preserve">
<g>
	<path d="M30,12c0.2705078,0,0.5283203,0.0522461,0.7734375,0.15625c0.2446289,0.1044922,0.4580078,0.2475586,0.640625,0.4296875
		c0.1821289,0.1826172,0.3251953,0.3959961,0.4296875,0.640625C31.9477539,13.4716797,32,13.7294922,32,14v14h-8v4H8v-4H0V14
		c0-0.2705078,0.0517578-0.5283203,0.15625-0.7734375c0.1040039-0.2446289,0.2470703-0.4580078,0.4296875-0.640625
		c0.1821289-0.1821289,0.3955078-0.3251953,0.640625-0.4296875C1.4711914,12.0522461,1.7290039,12,2,12h6V0h16v12H30z M30,14H2v12h6
		v-6h16v6h6V14z M5,16c0.2705078,0,0.5048828,0.0991211,0.703125,0.296875C5.9008789,16.4951172,6,16.7294922,6,17
		c0,0.2709961-0.0991211,0.5053711-0.296875,0.703125C5.5048828,17.9013672,5.2705078,18,5,18
		c-0.2709961,0-0.5053711-0.0986328-0.703125-0.296875C4.0986328,17.5053711,4,17.2709961,4,17
		c0-0.2705078,0.0986328-0.5048828,0.296875-0.703125C4.4946289,16.0991211,4.7290039,16,5,16z M10,12h12V2H10V12z M22,22H10v8h12
		V22z"/>
</g>
</svg>
