<?xml version="1.0" encoding="utf-8"?>
<!-- Generator: Adobe Illustrator 19.1.0, SVG Export Plug-In . SVG Version: 6.00 Build 0)  -->
<svg version="1.1" id="Layer_1" xmlns="http://www.w3.org/2000/svg" xmlns:xlink="http://www.w3.org/1999/xlink" x="0px" y="0px"
	 width="32px" height="32px" viewBox="0 0 32 32" style="enable-background:new 0 0 32 32;" xml:space="preserve">
<g>
	<path d="M25,14c-0.28125,0-0.5419922,0.0522461-0.78125,0.15625c-0.2397461,0.1044922-0.4506836,0.2475586-0.6328125,0.4296875
		c-0.1826172,0.1826172-0.3256836,0.3935547-0.4296875,0.6328125C23.0517578,15.4584961,23,15.71875,23,16
		s0.0517578,0.5419922,0.15625,0.78125c0.1040039,0.2397461,0.2470703,0.4506836,0.4296875,0.6328125
		c0.1821289,0.1826172,0.3930664,0.3256836,0.6328125,0.4296875C24.4580078,17.9482422,24.71875,18,25,18h3v8h-6v1
		c0,0.5522461-0.1044922,1.0703125-0.3125057,1.5546875c-0.2084904,0.484375-0.4951115,0.9091797-0.8593693,1.2734375
		c-0.3647461,0.3647461-0.7890625,0.6513672-1.2734375,0.859375C19.0703125,30.8959961,18.5517578,31,18,31
		c-0.5522461,0-1.0703125-0.1040039-1.5546875-0.3125c-0.484375-0.2080078-0.9091797-0.4946289-1.2734375-0.859375
		c-0.3647461-0.3642578-0.6513672-0.7890625-0.8593807-1.2734375C14.1040039,28.0703125,14,27.5522461,14,27v-1H8v-6H7
		c-0.5522461,0-1.0703125-0.1040039-1.5546875-0.3125c-0.484375-0.2080078-0.9091797-0.4946289-1.2734375-0.859375
		c-0.3647461-0.3642578-0.6513672-0.7890625-0.8593805-1.2734375C3.1040039,17.0703125,3,16.5522461,3,16
		c0-0.5517578,0.1040039-1.0703125,0.3124945-1.5546875c0.2080133-0.484375,0.4946344-0.9086914,0.8593805-1.2734375
		c0.3642578-0.3642578,0.7890625-0.6508789,1.2734375-0.859375C5.9296875,12.1044922,6.4477539,12,7,12h1V6h6V5
		c0-0.5517578,0.1040039-1.0703125,0.3124943-1.5546875c0.2080135-0.484375,0.4946346-0.9086914,0.8593807-1.2734375
		c0.3642578-0.3642578,0.7890625-0.6508789,1.2734375-0.859375C16.9296875,1.1044922,17.4477539,1,18,1
		c0.5517578,0,1.0703125,0.1044922,1.5546875,0.3125c0.484375,0.2084961,0.9086914,0.4951172,1.2734375,0.859375
		c0.3642578,0.3647461,0.6508789,0.7890625,0.8593693,1.2734375C21.8955078,3.9296875,22,4.4482422,22,5v1h6v8H25z M25,20
		c-0.5522461,0-1.0703125-0.1040039-1.5546875-0.3125c-0.484375-0.2080078-0.9091797-0.4946289-1.2734375-0.859375
		c-0.3647461-0.3642578-0.6513672-0.7890625-0.8593807-1.2734375C21.1040039,17.0703125,21,16.5522461,21,16
		c0-0.5517578,0.1040039-1.0703125,0.3124943-1.5546875c0.2080135-0.484375,0.4946346-0.9086914,0.8593807-1.2734375
		c0.3642578-0.3642578,0.7890625-0.6508789,1.2734375-0.859375C23.9296875,12.1044922,24.4477539,12,25,12h1V8h-6V5
		c0-0.28125-0.0522461-0.5415039-0.15625-0.78125c-0.1044922-0.2392578-0.2475586-0.4501953-0.4296875-0.6328125
		C19.2314453,3.4038086,19.0205078,3.2607422,18.78125,3.15625C18.5415039,3.0522461,18.28125,3,18,3
		s-0.5419922,0.0522461-0.78125,0.15625c-0.2397461,0.1044922-0.4506836,0.2475586-0.6328125,0.4296875
		C16.4033203,3.7685547,16.2602539,3.9794922,16.15625,4.21875C16.0517578,4.4584961,16,4.71875,16,5v3h-6v6H7
		c-0.28125,0-0.5419922,0.0522461-0.78125,0.15625c-0.2397461,0.1044922-0.4506836,0.2475586-0.6328125,0.4296875
		C5.4033203,14.7685547,5.2602539,14.9794922,5.15625,15.21875C5.0517578,15.4584961,5,15.71875,5,16
		s0.0517578,0.5419922,0.15625,0.78125c0.1040039,0.2397461,0.2470703,0.4506836,0.4296875,0.6328125
		C5.7680664,17.5966797,5.9790039,17.7397461,6.21875,17.84375C6.4580078,17.9482422,6.71875,18,7,18h3v6h6v3
		c0,0.28125,0.0517578,0.5419922,0.15625,0.78125c0.1040039,0.2397461,0.2470703,0.4506836,0.4296875,0.6328125
		c0.1821289,0.1826172,0.3930664,0.3256836,0.6328125,0.4296875C17.4580078,28.9482422,17.71875,29,18,29
		s0.5415039-0.0517578,0.78125-0.15625c0.2392578-0.1040039,0.4501953-0.2470703,0.6328125-0.4296875
		c0.1821289-0.1821289,0.3251953-0.3930664,0.4296875-0.6328125C19.9477539,27.5419922,20,27.28125,20,27v-3h6v-4H25z"/>
</g>
</svg>
