<?xml version="1.0" encoding="utf-8"?>
<!-- Generator: Adobe Illustrator 19.1.0, SVG Export Plug-In . SVG Version: 6.00 Build 0)  -->
<svg version="1.1" id="Layer_1" xmlns="http://www.w3.org/2000/svg" xmlns:xlink="http://www.w3.org/1999/xlink" x="0px" y="0px"
	 width="32px" height="32px" viewBox="0 0 32 32" style="enable-background:new 0 0 32 32;" xml:space="preserve">
<g>
	<path d="M25.015625,2.7890625c1.4375,0.9951172,2.6743164,2.171875,3.7109375,3.53125
		c1.0361328,1.359375,1.8408203,2.8647461,2.4140625,4.515625C31.7133789,12.4873047,32,14.2084961,32,16
		c0,1.46875-0.1904297,2.8857422-0.5703125,4.25c-0.3803711,1.3647461-0.9169922,2.640625-1.609375,3.828125
		c-0.6928711,1.1875-1.5263672,2.2685547-2.5,3.2421875c-0.9741211,0.9741211-2.0546875,1.8076172-3.2421875,2.5
		c-1.1875,0.6928711-2.4638672,1.2294922-3.828125,1.609375C18.8852539,31.8100586,17.46875,32,16,32
		s-2.8857422-0.1899414-4.25-0.5703125c-1.3647461-0.3798828-2.640625-0.9165039-3.828125-1.609375
		c-1.1875-0.6923828-2.2685547-1.5258789-3.2421875-2.5c-0.9741211-0.9736328-1.8076172-2.0546875-2.5-3.2421875
		c-0.6928711-1.1875-1.2294922-2.4609375-1.609375-3.8203125C0.1899414,18.8984375,0,17.4794922,0,16
		c0-1.4580078,0.1923828-2.875,0.578125-4.25c0.3852539-1.375,0.9345703-2.6689453,1.6484375-3.8828125
		c0.7133789-1.2133789,1.5805664-2.3173828,2.6015625-3.3125C5.8486328,3.5600586,7,2.7084961,8.28125,2H4V0h8v8h-2V3.359375
		C8.78125,3.9428711,7.6796875,4.6748047,6.6953125,5.5546875c-0.984375,0.8803711-1.8256836,1.8701172-2.5234375,2.96875
		c-0.6982422,1.0991211-1.2343805,2.2841797-1.6093805,3.5546875C2.1874945,13.3491211,2,14.65625,2,16
		c0,1.28125,0.1665039,2.5185547,0.5,3.7109375c0.3330078,1.1928711,0.8046875,2.3076172,1.4140625,3.34375
		c0.609375,1.0366211,1.3408203,1.9819336,2.1953125,2.8359375c0.8540039,0.8544922,1.7993164,1.5859375,2.8359375,2.1953125
		C9.9814453,28.6953125,11.09375,29.1669922,12.28125,29.5C13.46875,29.8334961,14.7080078,30,16,30
		c1.28125,0,2.5180664-0.1665039,3.7109375-0.5c1.1923828-0.3330078,2.3071289-0.8046875,3.34375-1.4140625
		c1.0361328-0.609375,1.9814453-1.3408203,2.8359375-2.1953125c0.8540039-0.8540039,1.5859375-1.7993164,2.1953125-2.8359375
		C28.6953125,22.0185547,29.1665039,20.90625,29.5,19.71875C29.8330078,18.53125,30,17.2919922,30,16
		c0-1.5625-0.2529297-3.0673828-0.7578125-4.515625C28.7368164,10.0366211,28.03125,8.71875,27.125,7.53125
		s-1.9873047-2.2158203-3.2421875-3.0859375c-1.2553711-0.8696289-2.6381836-1.5126953-4.1484375-1.9296875l0.53125-1.921875
		C21.9946289,1.0625,23.578125,1.7944336,25.015625,2.7890625z"/>
</g>
</svg>
