<?xml version="1.0" encoding="utf-8"?>
<!-- Generator: Adobe Illustrator 19.1.0, SVG Export Plug-In . SVG Version: 6.00 Build 0)  -->
<svg version="1.1" id="Layer_1" xmlns="http://www.w3.org/2000/svg" xmlns:xlink="http://www.w3.org/1999/xlink" x="0px" y="0px"
	 width="32px" height="32px" viewBox="0 0 32 32" style="enable-background:new 0 0 32 32;" xml:space="preserve">
<g>
	<path d="M11,0H7C5.3754883,0,4.0483398,1.2978516,4.0014648,2.9111328C3.8818359,3.6523438,3,9.2739258,3,14
		c0,4.8383789,0.8793945,10.3510742,1.0014648,11.0908203C4.0493164,26.703125,5.3759766,28,7,28h4
		c1.6240234,0,2.9511719-1.2973633,2.9985352-2.9101563C14.1196289,24.3491211,15,18.7822266,15,14
		c0-4.6694336-0.8823242-10.3457031-1.0014648-11.0878906C13.9521484,1.2983398,12.6245117,0,11,0z M12.0136719,24.8354492L12,25
		c0,0.5512695-0.4487305,1-1,1H7c-0.5512695,0-1-0.4487305-1-1l-0.0136719-0.1660156C5.9760742,24.7753906,5,18.921875,5,14
		C5,9.2041016,5.9770508,3.2226563,5.9868164,3.1625977L6,3c0-0.5512695,0.4487305-1,1-1h4c0.5512695,0,1,0.4487305,1,1
		l0.0131836,0.1611328C12.0229492,3.2216797,13,9.2651367,13,14C13,18.8564453,12.0234375,24.7763672,12.0136719,24.8354492z"/>
	<rect x="8" y="6" width="2" height="2"/>
	<rect x="8" y="10" width="2" height="2"/>
	<rect x="8" y="14" width="2" height="2"/>
	<rect x="8" y="18" width="2" height="2"/>
	<rect x="3" y="30" width="12" height="2"/>
	<path d="M23.8994141,0.9082031l-1.4140625,1.4140625c4.6787109,4.6787109,4.6787109,12.2919922,0,16.9707031l1.4140625,1.4140625
		C29.3579102,15.2485352,29.3579102,6.3666992,23.8994141,0.9082031z"/>
	<path d="M21.0708008,3.7368164l-1.4140625,1.4140625C21.1679688,6.6621094,22,8.6708984,22,10.8076172
		s-0.8320313,4.1455078-2.3432617,5.6567383l1.4140625,1.4140625C22.9599609,15.9897461,24,13.4785156,24,10.8076172
		S22.9599609,5.6254883,21.0708008,3.7368164z"/>
	<path d="M18.2426758,6.5649414l-1.4140625,1.4140625c1.5595703,1.5595703,1.5595703,4.0976563,0,5.6572266l1.4140625,1.4140625
		C20.5820313,12.7109375,20.5820313,8.9042969,18.2426758,6.5649414z"/>
</g>
</svg>
