<?xml version="1.0" encoding="utf-8"?>
<!-- Generator: Adobe Illustrator 19.1.0, SVG Export Plug-In . SVG Version: 6.00 Build 0)  -->
<svg version="1.1" id="Layer_1" xmlns="http://www.w3.org/2000/svg" xmlns:xlink="http://www.w3.org/1999/xlink" x="0px" y="0px"
	 width="32px" height="32px" viewBox="0 0 32 32" style="enable-background:new 0 0 32 32;" xml:space="preserve">
<g>
	<path d="M16,0.046875c0.53125,0,1.0361328,0.0341797,1.515625,0.1015625c0.4790039,0.0678711,0.9453125,0.171875,1.3984375,0.3125
		S19.8125,0.7788086,20.25,0.9921875c0.4375,0.2138672,0.8798828,0.4609375,1.328125,0.7421875
		c0.75,0.4794922,1.5,0.8701172,2.25,1.171875c0.75,0.3022461,1.5102539,0.5366211,2.28125,0.703125
		c0.7705078,0.1669922,1.5625,0.28125,2.375,0.34375S30.1352539,4.046875,31,4.046875v8
		c0,1.5209961-0.1904297,2.9638672-0.5703125,4.328125c-0.3803711,1.3647461-0.90625,2.6591797-1.578125,3.8828125
		c-0.671875,1.2241211-1.4663086,2.3779297-2.3828125,3.4609375c-0.9169922,1.0834961-1.9116211,2.1015625-2.984375,3.0546875
		c-1.0732422,0.953125-2.2060547,1.8413086-3.3984375,2.6640625c-1.1928711,0.8232422-2.3935547,1.5839844-3.6015625,2.28125L16,32
		l-0.484375-0.28125c-1.2084961-0.6972656-2.4091797-1.4580078-3.6015625-2.28125
		c-1.1928711-0.8227539-2.3256836-1.7109375-3.3984375-2.6640625c-1.0732422-0.953125-2.0678711-1.9711914-2.984375-3.0546875
		c-0.9169922-1.0830078-1.7109375-2.2368164-2.3828125-3.4609375c-0.671875-1.2236328-1.1982422-2.5180664-1.578125-3.8828125
		C1.1899414,15.0107422,1,13.5678711,1,12.046875v-8c0.8642578,0,1.703125-0.03125,2.515625-0.09375
		s1.6040039-0.1767578,2.375-0.34375c0.7705078-0.1665039,1.53125-0.4008789,2.28125-0.703125
		c0.75-0.3017578,1.5-0.6923828,2.25-1.171875c0.8852539-0.5727539,1.7705078-0.9970703,2.65625-1.2734375
		C13.9633789,0.1850586,14.9375,0.046875,16,0.046875z M29,6.015625c-1.5522461-0.0830078-3.0390625-0.3330078-4.4609375-0.75
		C23.1171875,4.8491211,21.75,4.21875,20.4375,3.375c-0.7084961-0.4580078-1.4140625-0.7939453-2.1171875-1.0078125
		C17.6171875,2.1538086,16.84375,2.046875,16,2.046875s-1.6171875,0.1069336-2.3203125,0.3203125
		C12.9765625,2.5810547,12.2705078,2.9169922,11.5625,3.375C10.25,4.21875,8.8828125,4.8491211,7.4609375,5.265625
		C6.0390625,5.6826172,4.5517578,5.9326172,3,6.015625v6.03125c0,1.3232422,0.1743164,2.59375,0.5234375,3.8125
		c0.3486328,1.21875,0.8251953,2.3803711,1.4296875,3.484375c0.6040039,1.1044922,1.3227539,2.1484375,2.15625,3.1328125
		c0.8330078,0.984375,1.7290039,1.9091797,2.6875,2.7734375c0.9580078,0.8647461,1.9658203,1.6669922,3.0234375,2.40625
		C13.8774414,28.3959961,14.9375,29.0732422,16,29.6875c1.0625-0.6142578,2.1220703-1.2915039,3.1796875-2.03125
		c1.0571289-0.7392578,2.0649414-1.5415039,3.0234375-2.40625c0.9580078-0.8642578,1.8540039-1.7890625,2.6875-2.7734375
		c0.8330078-0.984375,1.5517578-2.0283203,2.15625-3.1328125c0.6040039-1.1040039,1.0805664-2.265625,1.4296875-3.484375
		C28.8251953,14.640625,29,13.3701172,29,12.046875V6.015625z"/>
</g>
</svg>
