<?xml version="1.0" encoding="utf-8"?>
<!-- Generator: Adobe Illustrator 19.1.0, SVG Export Plug-In . SVG Version: 6.00 Build 0)  -->
<svg version="1.1" id="Layer_1" xmlns="http://www.w3.org/2000/svg" xmlns:xlink="http://www.w3.org/1999/xlink" x="0px" y="0px"
	 width="32px" height="32px" viewBox="0 0 32 32" style="enable-background:new 0 0 32 32;" xml:space="preserve">
<g>
	<path d="M18,21H2V7.125l14,6.984375L30,7.125v5.4472046c0.0751343,0.0678101,0.1628418,0.1218262,0.234375,0.1934204
		c0.5341797,0.5336914,0.9643555,1.168457,1.277832,1.8862305C31.8364258,15.3964844,32,16.1855469,32,17V3H0v20h18V21z
		 M29.765625,5L16,11.890625L2.234375,5H29.765625z"/>
	<path d="M26,13c0.5415039,0,1.0571289,0.1074219,1.546875,0.3203125c0.4892578,0.2138672,0.9140625,0.5,1.2734375,0.859375
		s0.6455078,0.7841797,0.859375,1.2734375C29.8930664,15.9433594,30,16.4589844,30,17v2h2v10H20V19h2v-2
		c0-0.5410156,0.1064453-1.0566406,0.3203125-1.546875c0.2133789-0.4892578,0.5-0.9140625,0.859375-1.2734375
		s0.78125-0.6455078,1.265625-0.859375C24.9296875,13.1074219,25.4477539,13,26,13z M30,21h-8v6h8V21z M24,19h4v-2
		c0-0.2705078-0.0522461-0.5283203-0.15625-0.7734375c-0.1044922-0.2441406-0.2475586-0.4580078-0.4296875-0.640625
		c-0.1826172-0.1816406-0.3959961-0.3251953-0.640625-0.4296875C26.5283203,15.0527344,26.2705078,15,26,15
		c-0.28125,0-0.5419922,0.0527344-0.78125,0.15625c-0.2397461,0.1044922-0.4506836,0.2480469-0.6328125,0.4296875
		c-0.1826172,0.1826172-0.3256836,0.3935547-0.4296875,0.6328125C24.0517578,16.4589844,24,16.71875,24,17V19z"/>
</g>
<g>
</g>
<g>
</g>
<g>
</g>
<g>
</g>
<g>
</g>
<g>
</g>
<g>
</g>
<g>
</g>
<g>
</g>
<g>
</g>
<g>
</g>
<g>
</g>
<g>
</g>
<g>
</g>
<g>
</g>
</svg>
