<?xml version="1.0" encoding="utf-8"?>
<!-- Generator: Adobe Illustrator 19.2.1, SVG Export Plug-In . SVG Version: 6.00 Build 0)  -->
<svg version="1.1" id="Layer_1" xmlns="http://www.w3.org/2000/svg" xmlns:xlink="http://www.w3.org/1999/xlink" x="0px" y="0px"
	 width="32px" height="32px" viewBox="0 0 32 32" style="enable-background:new 0 0 32 32;" xml:space="preserve">
<g>
	<g>
		<path d="M32,22H0V10h32V22z M2,20h28v-8H2V20z"/>
		<circle cx="27" cy="16" r="1"/>
		<circle cx="23" cy="16" r="1"/>
		<rect x="4" y="15" width="16" height="2"/>
	</g>
	<g>
		<path d="M32,12H0V0h32V12z M2,10h28V2H2V10z"/>
		<circle cx="27" cy="6" r="1"/>
		<circle cx="23" cy="6" r="1"/>
		<rect x="4" y="5" width="16" height="2"/>
	</g>
	<g>
		<path d="M32,32H0V20h32V32z M2,30h28v-8H2V30z"/>
		<circle cx="27" cy="26" r="1"/>
		<circle cx="23" cy="26" r="1"/>
		<rect x="4" y="25" width="16" height="2"/>
	</g>
</g>
<g>
</g>
<g>
</g>
<g>
</g>
<g>
</g>
<g>
</g>
<g>
</g>
<g>
</g>
<g>
</g>
<g>
</g>
<g>
</g>
<g>
</g>
<g>
</g>
<g>
</g>
<g>
</g>
<g>
</g>
</svg>
