<?xml version="1.0" encoding="utf-8"?>
<!-- Generator: Adobe Illustrator 19.1.0, SVG Export Plug-In . SVG Version: 6.00 Build 0)  -->
<svg version="1.1" id="Layer_1" xmlns="http://www.w3.org/2000/svg" xmlns:xlink="http://www.w3.org/1999/xlink" x="0px" y="0px"
	 width="32px" height="32px" viewBox="0 0 32 32" style="enable-background:new 0 0 32 32;" xml:space="preserve">
<g>
	<path d="M27.859375,15.4375c0,0.09375,0.0024414,0.1875,0.0078125,0.28125C27.8720703,15.8125,27.875,15.90625,27.875,16
		s-0.0029297,0.1875-0.0078125,0.28125c-0.0053711,0.09375-0.0078125,0.1875-0.0078125,0.28125l4.046875,2.515625L29.421875,25.0625
		L24.78125,24c-0.25,0.2709961-0.5107422,0.53125-0.78125,0.78125l1.0624943,4.640625L19.078125,31.90625l-2.5156307-4.046875
		c-0.0937443,0-0.1874943,0.0029297-0.2812443,0.0078125C16.1874943,27.8725586,16.09375,27.875,16,27.875
		s-0.1875057-0.0024414-0.28125-0.0078125c-0.09375-0.0048828-0.1875-0.0078125-0.2812557-0.0078125L12.921875,31.90625
		l-5.9843807-2.484375L8,24.78125C7.7290039,24.53125,7.46875,24.2709961,7.21875,24l-4.640625,1.0625L0.09375,19.078125
		L4.140625,16.5625c0-0.09375-0.0029297-0.1875-0.0078125-0.28125C4.1274414,16.1875,4.125,16.09375,4.125,16
		s0.0024414-0.1875,0.0078125-0.28125C4.1376953,15.625,4.140625,15.53125,4.140625,15.4375L0.09375,12.921875L2.578125,6.9375
		L7.21875,8C7.46875,7.7294922,7.7290039,7.46875,8,7.21875L6.9374943,2.578125L12.921875,0.09375l2.5156193,4.046875
		c0.0937557,0,0.1875057-0.0024414,0.2812557-0.0078125C15.8124943,4.1279297,15.90625,4.125,16,4.125
		s0.1874943,0.0029297,0.28125,0.0078125c0.09375,0.0053711,0.1875,0.0078125,0.2812443,0.0078125L19.078125,0.09375
		l5.9843693,2.484375L24,7.21875c0.2705078,0.25,0.53125,0.5107422,0.78125,0.78125l4.640625-1.0625l2.484375,5.984375
		L27.859375,15.4375z M26.03125,17.46875c0.0205078-0.25,0.0415039-0.4970703,0.0625-0.7421875
		c0.0205078-0.2446289,0.03125-0.4921875,0.03125-0.7421875c0-0.2392578-0.0107422-0.484375-0.03125-0.734375
		c-0.0209961-0.25-0.0419922-0.4946289-0.0625-0.734375l3.6875-2.296875l-1.34375-3.25l-4.234375,0.984375
		c-0.3232422-0.3955078-0.6538086-0.7602539-0.9921875-1.09375c-0.3388672-0.3330078-0.7060547-0.6665039-1.1015625-1
		L23.03125,3.625l-3.25-1.34375l-2.3125,3.6875c-0.2397461-0.0205078-0.484375-0.0415039-0.734375-0.0625
		C16.484375,5.8857422,16.2392578,5.875,16,5.875c-0.25,0-0.4975586,0.0107422-0.7421875,0.03125
		c-0.2451172,0.0209961-0.4921875,0.0419922-0.7421875,0.0625l-2.296875-3.6875l-3.25,1.34375l0.984375,4.234375
		c-0.3959961,0.3232422-0.7607422,0.6538086-1.09375,0.9921875c-0.3334961,0.3388672-0.6669922,0.7060547-1,1.1015625L3.625,8.96875
		l-1.34375,3.25l3.6875,2.3125c-0.0209961,0.25-0.0419922,0.4975586-0.0625,0.7421875
		C5.8852539,15.5185547,5.875,15.765625,5.875,16.015625C5.875,16.2553711,5.8852539,16.5,5.90625,16.75
		c0.0205078,0.25,0.0415039,0.4951172,0.0625,0.734375l-3.6875,2.296875l1.34375,3.25l4.234375-0.984375
		c0.3227539,0.3959961,0.6533203,0.7607422,0.9921875,1.09375c0.3383789,0.3334961,0.7055664,0.6669922,1.1015625,1L8.96875,28.375
		l3.25,1.34375l2.3125-3.6875c0.2392578,0.0209961,0.484375,0.0419922,0.734375,0.0625
		C15.515625,26.1147461,15.7602539,26.125,16,26.125c0.25,0,0.4970703-0.0102539,0.7421875-0.03125
		c0.2446289-0.0205078,0.4921875-0.0415039,0.7421875-0.0625l2.296875,3.6875l3.25-1.34375l-0.984375-4.234375
		c0.3955078-0.3227539,0.7602539-0.6533203,1.09375-0.9921875c0.3330078-0.3383789,0.6665039-0.7055664,1-1.1015625L28.375,23.03125
		l1.34375-3.25L26.03125,17.46875z M16,10.125c0.8124943,0,1.5751953,0.1538086,2.2890625,0.4609375
		C19.0024414,10.8935547,19.625,11.3125,20.15625,11.84375c0.5312443,0.53125,0.9501953,1.1538086,1.2578125,1.8671875
		C21.7211914,14.4248047,21.875,15.1875,21.875,16s-0.1538086,1.5756836-0.4609375,2.2890625
		C21.1064453,19.0029297,20.6874943,19.625,20.15625,20.15625c-0.53125,0.53125-1.1538086,0.9506836-1.8671875,1.2578125
		C17.5751953,21.7216797,16.8124943,21.875,16,21.875c-0.8125057,0-1.5756836-0.1533203-2.2890625-0.4609375
		C12.9970703,21.1069336,12.375,20.6875,11.84375,20.15625c-0.5312557-0.53125-0.9506836-1.1533203-1.2578125-1.8671875
		C10.2783203,17.5756836,10.125,16.8125,10.125,16s0.1533203-1.5751953,0.4609375-2.2890625
		C10.8930664,12.9975586,11.3124943,12.375,11.84375,11.84375c0.53125-0.53125,1.1533203-0.9501953,1.8671875-1.2578125
		C14.4243164,10.2788086,15.1874943,10.125,16,10.125z M16,20.125c0.5727539,0,1.109375-0.1064453,1.609375-0.3203125
		c0.5-0.2133789,0.9375-0.5078125,1.3125-0.8828125s0.6689453-0.8125,0.8828125-1.3125
		C20.0180664,17.109375,20.125,16.5732422,20.125,16c0-0.5727539-0.1069336-1.109375-0.3203125-1.609375
		c-0.2138672-0.5-0.5078125-0.9375-0.8828125-1.3125s-0.8125-0.6689453-1.3125-0.8828125
		C17.109375,11.9819336,16.5727539,11.875,16,11.875c-0.5732422,0-1.109375,0.1069336-1.609375,0.3203125
		c-0.5,0.2138672-0.9375,0.5078125-1.3125,0.8828125s-0.6694336,0.8125-0.8828125,1.3125
		C11.9814453,14.890625,11.875,15.4272461,11.875,16c0,0.5732422,0.1064453,1.109375,0.3203125,1.609375
		c0.2133789,0.5,0.5078125,0.9375,0.8828125,1.3125s0.8125,0.6694336,1.3125,0.8828125
		C14.890625,20.0185547,15.4267578,20.125,16,20.125z"/>
</g>
</svg>
