<?xml version="1.0" encoding="utf-8"?>
<!-- Generator: Adobe Illustrator 19.2.1, SVG Export Plug-In . SVG Version: 6.00 Build 0)  -->
<svg version="1.1" id="Layer_1" xmlns="http://www.w3.org/2000/svg" xmlns:xlink="http://www.w3.org/1999/xlink" x="0px" y="0px"
	 width="32px" height="32px" viewBox="0 0 32 32" style="enable-background:new 0 0 32 32;" xml:space="preserve">
<g>
	<path d="M16.453125,28.4321289C16.2600708,27.9887695,16.164978,27.5044556,16.1470337,27H2v-7h15.1501465
		c0.2318726-0.7147217,0.5656128-1.3816528,0.972229-2H6V8l10.0688477,5.109375L26,8v5.121521
		c0.4954224,0.1186523,0.9682617,0.3203125,1.3920898,0.6216431C27.6166992,13.9033203,27.8171387,14.083252,28,14.2767944V4H4v11
		l-4,4v10l16.7451172-0.0360107C16.6383667,28.7926636,16.5342407,28.6193848,16.453125,28.4321289z M26.0688477,6l-10,4.890625
		L6.0688477,6H26.0688477z"/>
	<path d="M31.8446674,27.6364326C31.9475117,27.3991661,32,27.1345901,32,26.8512363
		c0-0.3285885-0.0716915-0.6268768-0.2197704-0.9127903c-0.1502113-0.2893276-0.3550453-0.5304356-0.6251698-0.7356949
		l-0.2573223-0.195446l0.111805-0.3034096c0.2496414-0.6776581,0.3763828-1.4018326,0.3763828-2.152462
		c0-0.655468-0.0994301-1.2985611-0.2957287-1.9105015c-0.1967258-0.6136494-0.4805069-1.1880379-0.8440857-1.7069492
		c-0.3635807-0.5180588-0.8056793-0.9840565-1.3139248-1.3851891c-0.5048294-0.3977184-1.0745239-0.7143574-1.693718-0.9405289
		l-0.1898994-0.0695572l-0.0699844-0.1898975c-0.1493587-0.4054012-0.3934517-0.7246008-0.7455101-0.975522
		c-0.6998482-0.4975758-1.6335487-0.4980021-2.3342514,0.0004272c-0.3516312,0.250494-0.5957241,0.5696936-0.7450829,0.9750948
		l-0.0699844,0.1898975l-0.1903248,0.0695572c-0.6183434,0.2257442-1.188036,0.5423832-1.6932926,0.9405289
		c-0.5078182,0.4007072-0.9499168,0.866703-1.3134975,1.3856163c-0.364006,0.5189114-0.6477871,1.0928726-0.8440857,1.7060947
		c-0.1962986,0.6132202-0.2961559,1.2563133-0.2961559,1.9109287c0,0.7506294,0.1267414,1.4748039,0.3763828,2.152462
		l0.111805,0.3034096l-0.2573223,0.195446c-0.2709789,0.2056866-0.4753857,0.4463673-0.6247444,0.7356949
		c-0.1485043,0.2850609-0.2201958,0.5833492-0.2201958,0.9127903c0,0.2833538,0.0524883,0.5479298,0.1557598,0.7856236
		c0.1049767,0.2419586,0.2517738,0.4578876,0.4361248,0.6426659c0.1834965,0.1839237,0.3998528,0.3307209,0.6426659,0.4361248
		c0.4651432,0.2022743,1.0630016,0.2108078,1.5895958-0.0038414c0.2539082-0.1036968,0.4685574-0.2556152,0.6563225-0.4638615
		l0.2261696-0.2513485l0.2999954,0.1557579c1.8345432,0.9537582,4.0185852,0.9546108,5.8548336,0l0.3004227-0.1557579
		l0.2261715,0.2517738c0.1869106,0.2082481,0.4015598,0.3597393,0.655468,0.4634361
		c0.5265942,0.2150764,1.1235981,0.2078228,1.590023,0.0038414c0.2428131-0.1058311,0.4591694-0.2526283,0.6426659-0.4361248
		C31.5920391,28.095602,31.7388363,27.8792458,31.8446674,27.6364326z M29.1664658,24.9228115l-0.0597439,0.1019897
		l-0.1028423,0.0576096c-0.4369793,0.2453747-0.7314281,0.5795097-0.8995628,1.0220356l-0.0426731,0.1122322l-0.0943089,0.0746784
		c-0.4083881,0.3238945-0.8688374,0.5739613-1.3694,0.7433758c-0.4975758,0.1681347-1.0126476,0.2534828-1.531559,0.2534828
		c-0.5193386,0-1.0344105-0.0853481-1.531559-0.2534828c-0.5005627-0.1689873-0.9614391-0.4190559-1.3698273-0.7433758
		l-0.0943089-0.0746784l-0.0426731-0.111805c-0.1685619-0.4429531-0.4630108-0.7775154-0.8995628-1.0224628l-0.1028423-0.0576096
		l-0.0601711-0.1019897c-0.4220428-0.7177715-0.6358376-1.5153446-0.6358376-2.3713779
		c0-0.912365,0.2487869-1.7666912,0.7399616-2.5382328c0.4907475-0.7706871,1.1590176-1.3604374,1.9860344-1.7530365
		l0.3021297-0.143383l0.2172108,0.2539082c0.1886177,0.220623,0.4075336,0.3832111,0.6686954,0.498003
		c0.5248871,0.2321453,1.1206131,0.2317181,1.6446457,0.0004253c0.2615891-0.1147919,0.480505-0.2778053,0.6699772-0.4984283
		l0.2172089-0.2539082l0.3017025,0.143383c0.8265915,0.3925991,1.4948616,0.9823494,1.9856091,1.7530365
		c0.4911747,0.7723942,0.7399616,1.6262951,0.7399616,2.5382328C29.8027306,23.4078941,29.5889359,24.2058926,29.1664658,24.9228115
		z"/>
</g>
<g>
</g>
<g>
</g>
<g>
</g>
<g>
</g>
<g>
</g>
<g>
</g>
<g>
</g>
<g>
</g>
<g>
</g>
<g>
</g>
<g>
</g>
<g>
</g>
<g>
</g>
<g>
</g>
<g>
</g>
</svg>
