<?xml version="1.0" encoding="utf-8"?>
<!-- Generator: Adobe Illustrator 19.1.0, SVG Export Plug-In . SVG Version: 6.00 Build 0)  -->
<svg version="1.1" id="Layer_1" xmlns="http://www.w3.org/2000/svg" xmlns:xlink="http://www.w3.org/1999/xlink" x="0px" y="0px"
	 width="32px" height="32px" viewBox="0 0 32 32" style="enable-background:new 0 0 32 32;" xml:space="preserve">
<g>
	<path d="M0,3v27h32V3H0z M30,28H2V5h28V28z"/>
	<path d="M11,20H9v-2h6v2h-2v6h6v-6h-2v-2h6v2h-2v6h6v-6h-2v-4h-8v-2h3V7h-8v7h3v2H7v4H5v6h6V20z M25,24h-2v-2h2V24z M17,24h-2v-2h2
		V24z M14,9h4v3h-4V9z M9,24H7v-2h2V24z"/>
</g>
</svg>
