<?xml version="1.0" encoding="utf-8"?>
<!-- Generator: Adobe Illustrator 19.1.0, SVG Export Plug-In . SVG Version: 6.00 Build 0)  -->
<svg version="1.1" id="Layer_1" xmlns="http://www.w3.org/2000/svg" xmlns:xlink="http://www.w3.org/1999/xlink" x="0px" y="0px"
	 width="32px" height="32px" viewBox="0 0 32 32" style="enable-background:new 0 0 32 32;" xml:space="preserve">
<g>
	<path d="M0,10v12h32V10H0z M30,20H2v-8h28V20z"/>
	<polygon points="6,18 8,18 8,16 9,16 9,14 5,14 5,16 6,16 	"/>
	<polygon points="12,18 14,18 14,16 15,16 15,14 11,14 11,16 12,16 	"/>
	<polygon points="18,18 20,18 20,16 21,16 21,14 17,14 17,16 18,16 	"/>
	<polygon points="24,18 26,18 26,16 27,16 27,14 23,14 23,16 24,16 	"/>
</g>
</svg>
