<?xml version="1.0" encoding="utf-8"?>
<!-- Generator: Adobe Illustrator 19.2.1, SVG Export Plug-In . SVG Version: 6.00 Build 0)  -->
<svg version="1.1" id="Layer_1" xmlns="http://www.w3.org/2000/svg" xmlns:xlink="http://www.w3.org/1999/xlink" x="0px" y="0px"
	 width="34px" height="32px" viewBox="0 0 34 32" style="enable-background:new 0 0 34 32;" xml:space="preserve">
<g>
	<g>
		<g>
			<path d="M30,18h4v14H14V18h4v-4h12V18z M32,20H16v4h2v-2h2v2h8v-2h2v2h2V20z M16,30h16v-4h-2v2h-2v-2h-8v2h-2v-2h-2V30z M20,16v2
				h8v-2H20z"/>
		</g>
	</g>
	<path d="M12,23H2v-7h14v-2H6V4l10.0688477,5.109375L26,4v8h3l-1-1V0H4v11l-4,4v10l12-0.0258179V23z M26.0688477,2l-10,4.890625
		L6.0688477,2H26.0688477z"/>
</g>
<g>
</g>
<g>
</g>
<g>
</g>
<g>
</g>
<g>
</g>
<g>
</g>
<g>
</g>
<g>
</g>
<g>
</g>
<g>
</g>
<g>
</g>
<g>
</g>
<g>
</g>
<g>
</g>
<g>
</g>
</svg>
