<?xml version="1.0" encoding="utf-8"?>
<!-- Generator: Adobe Illustrator 19.1.0, SVG Export Plug-In . SVG Version: 6.00 Build 0)  -->
<svg version="1.1" id="Layer_1" xmlns="http://www.w3.org/2000/svg" xmlns:xlink="http://www.w3.org/1999/xlink" x="0px" y="0px"
	 width="32px" height="32px" viewBox="0 0 32 32" style="enable-background:new 0 0 32 32;" xml:space="preserve">
<g>
	<path d="M29.5,4c0.34375,0,0.6665039,0.0654297,0.96875,0.1953125c0.3017578,0.1303711,0.5673828,0.3100586,0.796875,0.5390625
		c0.2290039,0.2294922,0.4086914,0.4951172,0.5390625,0.796875C31.9345703,5.8334961,32,6.15625,32,6.5v19
		c0,0.34375-0.0654297,0.6669922-0.1953125,0.96875c-0.1303711,0.3022461-0.3100586,0.5678711-0.5390625,0.796875
		c-0.2294922,0.2294922-0.4951172,0.4091797-0.796875,0.5390625C30.1665039,27.9350586,29.84375,28,29.5,28h-27
		c-0.34375,0-0.6669922-0.0649414-0.96875-0.1953125c-0.3022461-0.1298828-0.5678711-0.3095703-0.796875-0.5390625
		c-0.2294922-0.2290039-0.4091797-0.4946289-0.5390625-0.796875C0.0649414,26.1669922,0,25.84375,0,25.5v-19
		c0-0.34375,0.0649414-0.6665039,0.1953125-0.96875C0.3251953,5.2294922,0.5048828,4.9638672,0.734375,4.734375
		C0.9633789,4.5053711,1.2290039,4.3256836,1.53125,4.1953125C1.8330078,4.0654297,2.15625,4,2.5,4H29.5z M30,6.5
		c0-0.1455078-0.046875-0.265625-0.140625-0.359375S29.6455078,6,29.5,6h-27C2.3540039,6,2.234375,6.046875,2.140625,6.140625
		S2,6.3544922,2,6.5v19c0,0.1459961,0.046875,0.265625,0.140625,0.359375S2.3540039,26,2.5,26h27
		c0.1455078,0,0.265625-0.046875,0.359375-0.140625S30,25.6459961,30,25.5V6.5z M14,22h4v2h-4V22z"/>
</g>
</svg>
