<?xml version="1.0" encoding="utf-8"?>
<!-- Generator: Adobe Illustrator 19.2.1, SVG Export Plug-In . SVG Version: 6.00 Build 0)  -->
<svg version="1.1" id="Layer_1" xmlns="http://www.w3.org/2000/svg" xmlns:xlink="http://www.w3.org/1999/xlink" x="0px" y="0px"
	 width="32px" height="32px" viewBox="0 0 32 32" style="enable-background:new 0 0 32 32;" xml:space="preserve">
<g>
	<path d="M19,5c0-1.6568604-1.3431396-3-3-3s-3,1.3431396-3,3H5v25h22V5H19z M15,7V5c0-0.5513916,0.4486084-1,1-1s1,0.4486084,1,1v2
		h2v2h-6V7H15z M25,28H7V7h4v4h10V7h4V28z"/>
	<polygon points="22,13 13.8917236,21.15625 10.4088135,17.6860352 9,19.0948486 13.8917236,24 23.40625,14.40625 	"/>
</g>
<g>
</g>
<g>
</g>
<g>
</g>
<g>
</g>
<g>
</g>
<g>
</g>
<g>
</g>
<g>
</g>
<g>
</g>
<g>
</g>
<g>
</g>
<g>
</g>
<g>
</g>
<g>
</g>
<g>
</g>
</svg>
