<?xml version="1.0" encoding="utf-8"?>
<!-- Generator: Adobe Illustrator 19.1.0, SVG Export Plug-In . SVG Version: 6.00 Build 0)  -->
<svg version="1.1" id="Layer_1" xmlns="http://www.w3.org/2000/svg" xmlns:xlink="http://www.w3.org/1999/xlink" x="0px" y="0px"
	 width="32px" height="32px" viewBox="0 0 32 32" style="enable-background:new 0 0 32 32;" xml:space="preserve">
<g>
	<path d="M14,24H2V8h27v3.3475342c0.1150513,0.0410156,0.2312012,0.0787354,0.34375,0.1270752
		c0.618103,0.2662354,1.1647949,0.6409302,1.65625,1.083252V1H0v25h14.3485718C14.1220093,25.361084,14,24.6904907,14,24z M2,3h27v3
		H2V3z"/>
	<path d="M29.796875,19.859375c0.6875,0.46875,1.2265625,1.0678711,1.6171875,1.796875C31.8046875,22.3857422,32,23.1669922,32,24
		h-2c0-0.4165039-0.078125-0.8071289-0.234375-1.171875c-0.15625-0.3642578-0.3701172-0.6821289-0.640625-0.953125
		c-0.2714844-0.2705078-0.5888672-0.484375-0.953125-0.640625C27.8066406,21.078125,27.4160156,21,27,21
		c-0.4169922,0-0.8076172,0.078125-1.171875,0.234375c-0.3652344,0.15625-0.6826172,0.3701172-0.953125,0.640625
		c-0.2714844,0.2709961-0.484375,0.5888672-0.640625,0.953125C24.078125,23.1928711,24,23.5834961,24,24
		c0,0.5419922-0.1044922,1.0576172-0.3125,1.546875c-0.2089844,0.4897461-0.5058594,0.9272461-0.890625,1.3125
		c0.6875,0.46875,1.2265625,1.0678711,1.6171875,1.796875C24.8046875,29.3857422,25,30.1669922,25,31h-2
		c0-0.4165039-0.078125-0.8071289-0.234375-1.171875c-0.15625-0.3642578-0.3701172-0.6821289-0.640625-0.953125
		c-0.2714844-0.2705078-0.5888672-0.484375-0.953125-0.640625C20.8066406,28.078125,20.4160156,28,20,28
		c-0.4169922,0-0.8076172,0.078125-1.171875,0.234375c-0.3652344,0.15625-0.6826172,0.3701172-0.953125,0.640625
		c-0.2714844,0.2709961-0.484375,0.5888672-0.640625,0.953125C17.078125,30.1928711,17,30.5834961,17,31h-2
		c0-0.8330078,0.1953125-1.6142578,0.5859375-2.34375c0.390625-0.7290039,0.9296875-1.328125,1.6171875-1.796875
		c-0.3857422-0.375-0.6826172-0.8095703-0.890625-1.3046875C16.1035156,25.0600586,16,24.5419922,16,24
		c0-0.5517578,0.1035156-1.0703125,0.3125-1.5546875c0.2080078-0.484375,0.4941406-0.9086914,0.859375-1.2734375
		c0.3642578-0.3642578,0.7890625-0.6508789,1.2734375-0.859375C18.9296875,20.1044922,19.4472656,20,20,20
		c0.5410156,0,1.0566406,0.1044922,1.546875,0.3125c0.4892578,0.2084961,0.9267578,0.5053711,1.3125,0.890625
		c0.3642578-0.53125,0.8125-0.9790039,1.34375-1.34375c-0.3857422-0.375-0.6826172-0.8095703-0.890625-1.3046875
		C23.1035156,18.0600586,23,17.5419922,23,17c0-0.5517578,0.1035156-1.0703125,0.3125-1.5546875
		c0.2080078-0.484375,0.4941406-0.9086914,0.859375-1.2734375c0.3642578-0.3642578,0.7890625-0.6508789,1.2734375-0.859375
		C25.9296875,13.1044922,26.4472656,13,27,13c0.5517578,0,1.0703125,0.1044922,1.5546875,0.3125
		c0.484375,0.2084961,0.9082031,0.4951172,1.2734375,0.859375c0.3642578,0.3647461,0.6503906,0.7890625,0.859375,1.2734375
		C30.8955078,15.9296875,31,16.4482422,31,17c0,0.5419922-0.1044922,1.0576172-0.3125,1.546875
		C30.4785156,19.0366211,30.1816406,19.4741211,29.796875,19.859375z M20,26c0.28125,0,0.5410156-0.0517578,0.78125-0.15625
		c0.2392578-0.1040039,0.4501953-0.2470703,0.6328125-0.4296875c0.1816406-0.1821289,0.3251953-0.3930664,0.4296875-0.6328125
		C21.9472656,24.5419922,22,24.28125,22,24s-0.0527344-0.5415039-0.15625-0.78125
		c-0.1044922-0.2392578-0.2480469-0.4501953-0.4296875-0.6328125c-0.1826172-0.1821289-0.3935547-0.3251953-0.6328125-0.4296875
		C20.5410156,22.0522461,20.28125,22,20,22s-0.5419922,0.0522461-0.78125,0.15625
		c-0.2402344,0.1044922-0.4511719,0.2475586-0.6328125,0.4296875c-0.1826172,0.1826172-0.3261719,0.3935547-0.4296875,0.6328125
		C18.0517578,23.4584961,18,23.71875,18,24s0.0517578,0.5419922,0.15625,0.78125
		c0.1035156,0.2397461,0.2470703,0.4506836,0.4296875,0.6328125c0.1816406,0.1826172,0.3925781,0.3256836,0.6328125,0.4296875
		C19.4580078,25.9482422,19.71875,26,20,26z M25,17c0,0.28125,0.0517578,0.5419922,0.15625,0.78125
		c0.1035156,0.2397461,0.2470703,0.4506836,0.4296875,0.6328125c0.1816406,0.1826172,0.3925781,0.3256836,0.6328125,0.4296875
		C26.4580078,18.9482422,26.71875,19,27,19s0.5410156-0.0517578,0.78125-0.15625
		c0.2392578-0.1040039,0.4501953-0.2470703,0.6328125-0.4296875c0.1816406-0.1821289,0.3251953-0.3930664,0.4296875-0.6328125
		C28.9472656,17.5419922,29,17.28125,29,17s-0.0527344-0.5415039-0.15625-0.78125
		c-0.1044922-0.2392578-0.2480469-0.4501953-0.4296875-0.6328125c-0.1826172-0.1821289-0.3935547-0.3251953-0.6328125-0.4296875
		C27.5410156,15.0522461,27.28125,15,27,15s-0.5419922,0.0522461-0.78125,0.15625
		c-0.2402344,0.1044922-0.4511719,0.2475586-0.6328125,0.4296875c-0.1826172,0.1826172-0.3261719,0.3935547-0.4296875,0.6328125
		C25.0517578,16.4584961,25,16.71875,25,17z"/>
</g>
<g>
</g>
<g>
</g>
<g>
</g>
<g>
</g>
<g>
</g>
<g>
</g>
<g>
</g>
<g>
</g>
<g>
</g>
<g>
</g>
<g>
</g>
<g>
</g>
<g>
</g>
<g>
</g>
<g>
</g>
</svg>
