<?xml version="1.0" encoding="utf-8"?>
<!-- Generator: Adobe Illustrator 19.1.0, SVG Export Plug-In . SVG Version: 6.00 Build 0)  -->
<svg version="1.1" id="Layer_1" xmlns="http://www.w3.org/2000/svg" xmlns:xlink="http://www.w3.org/1999/xlink" x="0px" y="0px"
	 width="38px" height="32px" viewBox="0 0 38 32" style="enable-background:new 0 0 38 32;" xml:space="preserve">
<path d="M34.3583069,15.0056915l0.0555573,0.0263977c0.3395538,0.33284,0.6363831,0.6349487,0.8893585,0.9037323
	c0.1731415,0.1843872,0.3166809,0.3704224,0.4264526,0.5526733c0.0818024,0.135849,0.1437836,0.2907715,0.1894836,0.473587
	C35.9560394,17.1095886,36,17.3799744,36,17.8303528c0,0.5402069-0.0898285,1.118576-0.2671509,1.7195435
	c-0.1948242,0.6609344-0.4703064,1.3357086-0.8193817,2.0067291c-0.3567505,0.6867981-0.7910004,1.3714905-1.2918701,2.0366364
	c-0.5099335,0.6785736-1.0775452,1.3331757-1.6876831,1.9462891c-0.6076508,0.6111145-1.2613373,1.1842041-1.9431458,1.703476
	c-0.663681,0.5056-1.3503723,0.9462738-2.0409546,1.3097382c-0.6729126,0.3541565-1.3520813,0.6334839-2.02005,0.8306427
	c-0.6092072,0.1802979-1.2026978,0.2717133-1.7639771,0.2717133c-0.4418335,0-0.7103882-0.0439453-0.8578644-0.0808258
	c-0.1807404-0.0451813-0.3353882-0.1076813-0.4727325-0.19104c-0.1850128-0.1122894-0.3695526-0.2556-0.5501251-0.4274902
	c-0.2740173-0.2602692-0.5805359-0.5606537-0.9454803-0.9149323c0.0261993-0.0671692,0.065033-0.137146,0.1136017-0.2054749
	c0.0972595-0.1363525,0.2068787-0.2703247,0.3260498-0.3984833c0.1420746-0.1528473,0.2897034-0.2996216,0.4455414-0.441391
	c0.1866608-0.1703644,0.368927-0.3338318,0.5457611-0.4906769c0.2160492-0.1915131,0.4103851-0.3740387,0.5958252-0.5541534
	l-0.751709-1.8533478l0.8231812,1.8451691c0,0-0.030426-0.0041504-0.0834961-0.0266571
	c0.0527496,0.022522,0.0955505,0.0468903,0.1337585,0.0767517c0.0831299,0.0647583,0.1584473,0.1340332,0.2254181,0.2075958
	c0.1513214,0.165802,0.2950287,0.3205566,0.4330597,0.4663086c0.2206268,0.2323303,0.4520569,0.4339142,0.6844177,0.5967102
	c0.4645691,0.3269501,1.0047913,0.4997559,1.5622559,0.4997559c0.7288666,0,1.4159546-0.2856598,1.9296875-0.7993774
	c0.0833588-0.0827789,0.2159882-0.2109985,0.3983307-0.3837585l0.2838593-0.2687683l0.4013824-0.3801117
	c0.2650452-0.2504578,0.5513-0.5247803,0.8587646-0.82164c0.3102417-0.29953,0.6204681-0.6044159,0.9307098-0.9146576
	c0.3079987-0.3079987,0.6053619-0.6087036,0.890564-0.9011536c0.302063-0.3090668,0.5780945-0.6064606,0.8206177-0.8841705
	c0.2634583-0.3017578,0.4752502-0.5681152,0.6482239-0.8153687c0.2374268-0.339859,0.5530701-0.8698883,0.5530701-1.5462036
	c0-0.5460968-0.17099-1.0801086-0.5011444-1.553833c-0.1607208-0.2277832-0.3543854-0.4527435-0.5791321-0.6720886
	c-0.1493073-0.1450043-0.3101196-0.2965088-0.4859619-0.4569702c-0.0653687-0.0593872-0.1303711-0.131134-0.1931763-0.2132721
	c-0.0226288-0.0295868-0.0424805-0.0607147-0.0608521-0.0961456l0.016449-0.0490265
	c0.2489777-0.2489624,0.5213928-0.5450592,0.8098907-0.8802948c0.2076721-0.2414093,0.4320068-0.4743347,0.6667938-0.692337
	C33.9581909,15.2695313,34.1430359,15.1302032,34.3583069,15.0056915 M34.3463287,13
	c-0.3471069,0-0.6818695,0.093689-1.0045776,0.2810822c-0.3227234,0.1873779-0.6298218,0.4164124-0.9213104,0.6870728
	s-0.5657349,0.5556488-0.8220825,0.8536377c-0.2570038,0.298645-0.4931793,0.5556488-0.707901,0.7703552
	c-0.1945343,0.1945343-0.3435364,0.4203186-0.4476318,0.6766663c-0.1041107,0.2570038-0.1561584,0.5205078-0.1561584,0.7911682
	c0,0.2706757,0.0448914,0.5120544,0.1353302,0.7235107c0.089798,0.2121124,0.2030029,0.4060059,0.3383331,0.5829773
	s0.2810822,0.3370361,0.4372406,0.4788666c0.1561432,0.1425018,0.3018951,0.2797852,0.4372253,0.4112091
	c0.1353302,0.1320801,0.2478943,0.262207,0.3383331,0.3903809c0.0897827,0.12883,0.1353302,0.262207,0.1353302,0.4008026
	c0,0.0832825-0.0644073,0.2173004-0.1925964,0.4007874c-0.1288147,0.1841278-0.3005829,0.3994904-0.5153046,0.6454315
	c-0.2153625,0.2465973-0.4632568,0.5140076-0.7443237,0.80159c-0.2810822,0.2882385-0.5725708,0.5829773-0.8744659,0.8848724
	s-0.6037903,0.598587-0.9056854,0.8900757c-0.3018951,0.2914734-0.5829773,0.5608521-0.8432312,0.8067932
	c-0.2602539,0.246582-0.4892731,0.4632416-0.6870728,0.6506348c-0.1977997,0.1873779-0.3415833,0.3266144-0.4320221,0.4164124
	c-0.1457367,0.1457367-0.3191376,0.2186127-0.5205078,0.2186127c-0.145752,0-0.2826996-0.0448914-0.4112091-0.1353302
	c-0.1281738-0.089798-0.2566681-0.2030029-0.3851776-0.3383331c-0.1281738-0.1353455-0.263504-0.2810822-0.4059906-0.4372406
	c-0.1421661-0.1561432-0.2999573-0.3018951-0.4736786-0.4372253c-0.1730652-0.1353302-0.3656464-0.2478943-0.5774384-0.3383331
	c-0.2117767-0.0897827-0.4564209-0.1353302-0.7339172-0.1353302c-0.2706604,0-0.5345001,0.0520477-0.7911835,0.1561584
	c-0.2566681,0.1040955-0.4824371,0.2537384-0.6763306,0.4476318c-0.145752,0.145752-0.3110046,0.3005981-0.4944916,0.4632568
	c-0.1841278,0.1633148-0.3734589,0.3331299-0.5673523,0.5101013c-0.1945496,0.1769714-0.3819275,0.3630524-0.562149,0.5569458
	c-0.1808777,0.1945343-0.3435364,0.3942871-0.4892883,0.598587c-0.1457367,0.2049561-0.262207,0.4183655-0.3487396,0.6402283
	c-0.0871887,0.2225189-0.130127,0.4515381-0.130127,0.6870728c0,0.2706757,0.0520477,0.5348358,0.1561584,0.7911835
	c0.1040955,0.2570038,0.2530975,0.4827728,0.4476318,0.6766663c0.3539429,0.3539429,0.67276,0.6662445,0.9577484,0.9369202
	c0.284317,0.2706604,0.5810089,0.4996796,0.88974,0.6870728c0.3087311,0.1873779,0.6506348,0.3279266,1.0254059,0.4216156
	s0.8224182,0.1405334,1.342926,0.1405334c0.7563629,0,1.5335541-0.1177673,2.3315582-0.3539429
	c0.7980194-0.2355347,1.5927734-0.5621643,2.3839417-0.9785614c0.7911835-0.4164124,1.5647888-0.9122009,2.3214874-1.4886627
	c0.7560425-0.5758209,1.4727173-1.2036896,2.1493835-1.8842468c0.6766663-0.6799316,1.2996521-1.3982239,1.8683014-2.1549225
	c0.5693207-0.7560425,1.0585938-1.5283508,1.4678497-2.3162689c0.4095764-0.7872772,0.7306671-1.5751953,0.9629364-2.3631287
	C37.8835297,19.3281097,38,18.5662231,38,17.8303528c0-0.5270233-0.0468597-0.9785614-0.1405487-1.3533325
	s-0.2322693-0.7144012-0.4163971-1.0202026c-0.1838074-0.3051453-0.4112091-0.6018372-0.6818848-0.8900757
	c-0.2706604-0.2875824-0.5862122-0.6089935-0.9473267-0.9629517c-0.1942139-0.1938782-0.4196625-0.3435364-0.6766663-0.4476318
	C34.8808289,13.0520477,34.6169891,13,34.3463287,13L34.3463287,13z"/>
<g>
	<path d="M23.5624943,10.828125c0.6767635,0.34375,1.2890682,0.7685547,1.8359432,1.2734375
		c0.546875,0.5053711,1.0126953,1.0678711,1.3984375,1.6875c0.3852539,0.6201172,0.6821289,1.2866211,0.8906193,2
		C27.8955078,16.5029297,28,17.2397461,28,18h-2c0-0.8227539-0.1591797-1.5986328-0.4765625-2.328125
		c-0.3178711-0.7290039-0.7475586-1.3642578-1.2890625-1.90625c-0.5419922-0.5415039-1.1772461-0.9711914-1.90625-1.2890625
		C21.5986328,12.1591797,20.8227539,12,20,12c-0.8232422,0-1.5991211,0.1591797-2.328125,0.4765625
		c-0.7294922,0.3178711-1.3647461,0.7475586-1.90625,1.2890625c-0.5419922,0.5419922-0.9716797,1.1772461-1.2890625,1.90625
		C14.1586914,16.4013672,14,17.1772461,14,18c0,0.9482422-0.2163086,1.8491211-0.6484375,2.703125
		c-0.4326172,0.8544922-1.0288086,1.5625-1.7890682,2.125c0.6767635,0.34375,1.2890682,0.7685547,1.8359432,1.2734375
		c0.546875,0.5053711,1.0126953,1.0678711,1.3984375,1.6875c0.3852539,0.6201172,0.6821289,1.2866211,0.8906193,2
		C15.8955078,28.5029297,16,29.2397461,16,30h-2c0-0.8227539-0.1591797-1.5986328-0.4765625-2.328125
		c-0.3178711-0.7290039-0.7475586-1.3642578-1.2890625-1.90625c-0.5419922-0.5415039-1.1772461-0.9711914-1.90625-1.2890625
		C9.5986328,24.1591797,8.8227539,24,8,24c-0.8232422,0-1.5991211,0.1591797-2.328125,0.4765625
		c-0.7294922,0.3178711-1.3647461,0.7475586-1.90625,1.2890625c-0.5419922,0.5419922-0.9716797,1.1772461-1.2890625,1.90625
		C2.1586914,28.4013672,2,29.1772461,2,30H0c0-0.7602539,0.1040039-1.4970703,0.3124946-2.2109375
		c0.2080132-0.7133789,0.5048882-1.3798828,0.8906304-2c0.3852539-0.6196289,0.8515625-1.1821289,1.3984375-1.6875
		c0.546875-0.5048828,1.1586914-0.9296875,1.8359318-1.2734375c-0.7607365-0.5625-1.3569279-1.2705078-1.7890568-2.125
		C2.2158203,19.8491211,2,18.9482422,2,18c0-0.8227539,0.1586914-1.5986328,0.4765625-2.328125
		c0.3173828-0.7290039,0.7470703-1.3642578,1.2890625-1.90625c0.5415039-0.5415039,1.1767578-0.9711914,1.90625-1.2890625
		C6.4008789,12.1591797,7.1767578,12,8,12c0.9477539,0,1.8486328,0.2163086,2.703125,0.6484375
		c0.8540039,0.4326172,1.5625,1.0288086,2.125,1.7890625c0.3955078-0.78125,0.9008789-1.4790039,1.515625-2.09375
		c0.6142578-0.6142578,1.3125-1.1196289,2.0937443-1.515625c-0.7607365-0.5625-1.3569279-1.2705078-1.7890568-2.125
		C14.2158203,7.8491211,14,6.9482422,14,6c0-0.8227539,0.1586914-1.5986328,0.4765625-2.328125
		c0.3173828-0.7290039,0.7470703-1.3642578,1.2890625-1.90625c0.5415039-0.5415039,1.1767578-0.9711914,1.90625-1.2890625
		C18.4008789,0.1591797,19.1767578,0,20,0c0.8227539,0,1.5986328,0.1591797,2.328125,0.4765625
		c0.7290039,0.3178711,1.3642578,0.7475586,1.90625,1.2890625c0.5415039,0.5419922,0.9711914,1.1772461,1.2890625,1.90625
		C25.8408203,4.4013672,26,5.1772461,26,6c0,0.9482422-0.2163086,1.8491211-0.6484375,2.703125
		C24.9189453,9.5576172,24.3227539,10.265625,23.5624943,10.828125z M8,22c0.5415039,0,1.0571289-0.1064453,1.546875-0.3203125
		c0.4892578-0.2133789,0.9140625-0.5,1.2734375-0.859375s0.6455078-0.78125,0.859375-1.265625
		C11.8930664,19.0703125,12,18.5522461,12,18c0-0.5415039-0.1069336-1.0571289-0.3203125-1.546875
		c-0.2138672-0.4892578-0.5-0.9140625-0.859375-1.2734375s-0.7841797-0.6455078-1.2734375-0.859375
		C9.0571289,14.1069336,8.5415039,14,8,14c-0.5522461,0-1.0703125,0.1069336-1.5546875,0.3203125
		c-0.484375,0.2138672-0.90625,0.5-1.265625,0.859375s-0.6459961,0.7841797-0.859375,1.2734375
		C4.1064453,16.9428711,4,17.4584961,4,18c0,0.5522461,0.1064453,1.0703125,0.3203125,1.5546875
		c0.2133789,0.484375,0.5,0.90625,0.859375,1.265625s0.78125,0.6459961,1.265625,0.859375C6.9296875,21.8935547,7.4477539,22,8,22z
		 M16,6c0,0.5522461,0.1064453,1.0703125,0.3203125,1.5546875c0.2133789,0.484375,0.5,0.90625,0.859375,1.265625
		s0.78125,0.6459961,1.265625,0.859375C18.9296875,9.8935547,19.4477539,10,20,10
		c0.5415039,0,1.0571289-0.1064453,1.546875-0.3203125c0.4892578-0.2133789,0.9140625-0.5,1.2734375-0.859375
		s0.6455078-0.78125,0.859375-1.265625C23.8930664,7.0703125,24,6.5522461,24,6c0-0.5415039-0.1069336-1.0571289-0.3203125-1.546875
		c-0.2138672-0.4892578-0.5-0.9140625-0.859375-1.2734375s-0.7841797-0.6455078-1.2734375-0.859375
		C21.0571289,2.1069336,20.5415039,2,20,2c-0.5522461,0-1.0703125,0.1069336-1.5546875,0.3203125
		c-0.484375,0.2138672-0.90625,0.5-1.265625,0.859375s-0.6459961,0.7841797-0.859375,1.2734375
		C16.1064453,4.9428711,16,5.4584961,16,6z"/>
</g>
</svg>
