<?xml version="1.0" encoding="utf-8"?>
<!-- Generator: Adobe Illustrator 19.1.0, SVG Export Plug-In . SVG Version: 6.00 Build 0)  -->
<svg version="1.1" id="Layer_1" xmlns="http://www.w3.org/2000/svg" xmlns:xlink="http://www.w3.org/1999/xlink" x="0px" y="0px"
	 width="32px" height="32px" viewBox="0 0 32 32" style="enable-background:new 0 0 32 32;" xml:space="preserve">
<g>
	<path d="M20.78125,18.796875c1.4165039,0.4897461,2.6953125,1.1748047,3.8359375,2.0546875
		c1.140625,0.8803711,2.109375,1.8984375,2.90625,3.0546875s1.4086914,2.421875,1.8359375,3.796875
		C29.7861328,29.078125,30,30.5107422,30,32h-2c0-1.7080078-0.3046875-3.2939453-0.9140625-4.7578125
		c-0.609375-1.4633789-1.4506836-2.7314453-2.5234432-3.8046875c-1.0732365-1.0727539-2.3413029-1.9140625-3.8046818-2.5234375
		C19.2939453,20.3046875,17.7080078,20,16,20c-1.1147461,0-2.1875057,0.140625-3.21875,0.421875
		c-1.03125,0.28125-1.9921875,0.6796875-2.8828125,1.1953125s-1.6982422,1.1357422-2.421875,1.859375
		c-0.7241211,0.7241211-1.34375,1.53125-1.859375,2.421875S4.703125,27.75,4.421875,28.78125S4,30.8857422,4,32H2
		c0-1.5,0.21875-2.9345703,0.65625-4.3046875c0.4375-1.3696289,1.0571289-2.6274414,1.859375-3.7734375
		c0.8017578-1.1455078,1.7734375-2.15625,2.9140625-3.03125S9.84375,19.3232422,11.25,18.8125
		c-0.8125057-0.4375-1.5419922-0.96875-2.1875057-1.59375c-0.6459904-0.625-1.1953068-1.3203125-1.6484318-2.0859375
		s-0.8022461-1.5830078-1.046875-2.453125C6.1220703,11.8100586,6,10.9169922,6,10
		c0-1.3852539,0.2602539-2.6845703,0.78125-3.8984375C7.3017578,4.8881836,8.015625,3.828125,8.921875,2.921875
		s1.9658203-1.6196289,3.1796875-2.140625C13.3149414,0.2607422,14.6142578,0,16,0
		c1.3852539,0,2.6845703,0.2607422,3.8984375,0.78125c1.2133789,0.5209961,2.2734375,1.234375,3.1796875,2.140625
		s1.6196289,1.9663086,2.140625,3.1796875C25.7392578,7.3154297,26,8.6147461,26,10
		c0,0.9169922-0.1225586,1.8076172-0.3671875,2.671875c-0.2451172,0.8647461-0.59375,1.6772461-1.046875,2.4375
		c-0.453125,0.7607422-1,1.4560547-1.640625,2.0859375C22.3046875,17.8256836,21.5830078,18.359375,20.78125,18.796875z M8,10
		c0,1.1044922,0.2109375,2.140625,0.6328125,3.109375s0.9946289,1.8154297,1.71875,2.5390625
		c0.7236328,0.7241211,1.5703125,1.296875,2.5390625,1.71875S14.8955078,18,16,18
		c1.1040039,0,2.140625-0.2109375,3.109375-0.6328125s1.8149414-0.9946289,2.5390625-1.71875
		c0.7236328-0.7236328,1.296875-1.5703125,1.71875-2.5390625S24,11.1044922,24,10
		c0-1.1040039-0.2109375-2.140625-0.6328125-3.109375s-0.9951172-1.8149414-1.71875-2.5390625
		c-0.7241211-0.7236328-1.5703125-1.296875-2.5390625-1.71875S17.1040039,2,16,2
		c-1.1044922,0-2.140625,0.2109375-3.109375,0.6328125s-1.8154297,0.9951172-2.5390625,1.71875
		c-0.7241211,0.7241211-1.296875,1.5703125-1.71875,2.5390625S8,8.8959961,8,10z"/>
</g>
</svg>
