<?xml version="1.0" encoding="utf-8"?>
<!-- Generator: Adobe Illustrator 19.1.0, SVG Export Plug-In . SVG Version: 6.00 Build 0)  -->
<svg version="1.1" id="Layer_1" xmlns="http://www.w3.org/2000/svg" xmlns:xlink="http://www.w3.org/1999/xlink" x="0px" y="0px"
	 width="32px" height="32px" viewBox="0 0 32 32" style="enable-background:new 0 0 32 32;" xml:space="preserve">
<g>
	<path d="M26,3h6v6h-2V6.421875L24.421875,12L23,10.578125L28.578125,5H26V3z"/>
	<path d="M23.453125,25.375c-0.3642578-1.1660156-0.8852539-2.2421875-1.5625-3.2265625
		c-0.0793457-0.1154175-0.1792603-0.213501-0.2624512-0.3256836c-0.1954956-0.2643433-0.4012451-0.5203857-0.6181641-0.7671509
		c-0.1357422-0.1541138-0.2700195-0.3093262-0.4140015-0.4564209c-0.2588501-0.2648315-0.5287476-0.5206299-0.8147583-0.7632446
		c-0.0425415-0.0360107-0.0882568-0.0664673-0.1311646-0.1018066c-0.0719604-0.0593262-0.1311646-0.1293335-0.2047729-0.1872559
		l-0.0031128,0.0259399c-0.9747925-0.7683105-2.0407104-1.3773193-3.2078247-1.8071899
		c0.5727539-0.3642578,1.0908203-0.7939453,1.5546875-1.2890625c0.4633789-0.4941406,0.859375-1.0332031,1.1875-1.6171875
		c0.328125-0.5830078,0.5805664-1.2001953,0.7578125-1.8515625C19.9111328,12.3574219,20,11.6875,20,11
		c0-1.1035156-0.2109375-2.140625-0.6328125-3.109375s-0.9951172-1.8144531-1.71875-2.5390625
		c-0.7241211-0.7236328-1.5703125-1.296875-2.5390625-1.71875S13.1040039,3,12,3
		c-1.1044922,0-2.140625,0.2109375-3.109375,0.6328125s-1.8154297,0.9951172-2.5390625,1.71875
		c-0.7241211,0.7246094-1.296875,1.5703125-1.71875,2.5390625S4,9.8964844,4,11c0,0.6875,0.0883789,1.3574219,0.265625,2.0078125
		c0.1767578,0.6513672,0.4296875,1.2685547,0.7578125,1.8515625c0.328125,0.5839844,0.7236328,1.1230469,1.1875,1.6171875
		c0.4633789,0.4951172,0.9814453,0.9248047,1.5546875,1.2890625c-1.1875,0.4375-2.2578125,1.03125-3.2109375,1.78125
		s-1.7685547,1.6171875-2.4453125,2.6015625c-0.6772461,0.984375-1.1982422,2.0605469-1.5625,3.2265625
		C0.1821289,26.5419922,0,27.75,0,29h2c0-1.3955078,0.2578125-2.703125,0.7734375-3.921875s1.2236328-2.2783203,2.125-3.1796875
		c0.9008789-0.9003906,1.9609375-1.609375,3.1796875-2.125S10.6040039,19,12,19
		c0.7915039,0,1.5703125,0.0859375,2.3359375,0.2578125s1.4946289,0.4277344,2.1875,0.765625
		c0.6923828,0.3388672,1.3408203,0.7578125,1.9453125,1.2578125c0.5991211,0.4959717,1.1311035,1.0647583,1.597168,1.7039795
		c0.4549561,0.6380005,0.8381348,1.3306274,1.1606445,2.0928955C21.7421875,26.296875,22,27.6044922,22,29h2
		C24,27.75,23.8178711,26.5419922,23.453125,25.375z M14.328125,16.5234375C13.5986328,16.8417969,12.8227539,17,12,17
		c-0.8232422,0-1.5991211-0.1582031-2.328125-0.4765625c-0.7294922-0.3173828-1.3647461-0.7470703-1.90625-1.2890625
		c-0.5419922-0.5410156-0.9716797-1.1767578-1.2890625-1.90625C6.1586914,12.5996094,6,11.8232422,6,11
		c0-0.8222656,0.1586914-1.5986328,0.4765625-2.328125c0.3173828-0.7285156,0.7470703-1.3642578,1.2890625-1.90625
		c0.5415039-0.5410156,1.1767578-0.9707031,1.90625-1.2890625C10.4008789,5.1591797,11.1767578,5,12,5
		c0.8227539,0,1.5986328,0.1591797,2.328125,0.4765625c0.7290039,0.3183594,1.3642578,0.7480469,1.90625,1.2890625
		c0.5415039,0.5419922,0.9711914,1.1777344,1.2890625,1.90625C17.8408203,9.4013672,18,10.1777344,18,11
		c0,0.8232422-0.1591797,1.5996094-0.4765625,2.328125c-0.3178711,0.7294922-0.7475586,1.3652344-1.2890625,1.90625
		C15.6923828,15.7763672,15.0571289,16.2060547,14.328125,16.5234375z"/>
</g>
<g>
</g>
<g>
</g>
<g>
</g>
<g>
</g>
<g>
</g>
<g>
</g>
<g>
</g>
<g>
</g>
<g>
</g>
<g>
</g>
<g>
</g>
<g>
</g>
<g>
</g>
<g>
</g>
<g>
</g>
</svg>
