<?xml version="1.0" encoding="utf-8"?>
<!-- Generator: Adobe Illustrator 19.1.0, SVG Export Plug-In . SVG Version: 6.00 Build 0)  -->
<svg version="1.1" id="Layer_1" xmlns="http://www.w3.org/2000/svg" xmlns:xlink="http://www.w3.org/1999/xlink" x="0px" y="0px"
	 width="32px" height="32px" viewBox="0 0 32 32" style="enable-background:new 0 0 32 32;" xml:space="preserve">
<g>
	<path d="M25.5624943,11.828125c0.6767635,0.34375,1.2890682,0.7685547,1.8359432,1.2734375
		c0.546875,0.5053711,1.0126953,1.0678711,1.3984375,1.6875c0.3852539,0.6201172,0.6821289,1.2866211,0.8906193,2
		C29.8955078,17.5029297,30,18.2397461,30,19h-2c0-0.8227539-0.1591797-1.5986328-0.4765625-2.328125
		c-0.3178711-0.7290039-0.7475586-1.3642578-1.2890625-1.90625c-0.5419922-0.5415039-1.1772461-0.9711914-1.90625-1.2890625
		C23.5986328,13.1591797,22.8227539,13,22,13c-0.8232422,0-1.5991211,0.1591797-2.328125,0.4765625
		c-0.7294922,0.3178711-1.3647461,0.7475586-1.90625,1.2890625c-0.5419922,0.5419922-0.9716797,1.1772461-1.2890625,1.90625
		C16.1586914,17.4013672,16,18.1772461,16,19c0,0.9482422-0.2163086,1.8491211-0.6484375,2.703125
		c-0.4326172,0.8544922-1.0288086,1.5625-1.7890682,2.125c0.6767635,0.34375,1.2890682,0.7685547,1.8359432,1.2734375
		c0.546875,0.5053711,1.0126953,1.0678711,1.3984375,1.6875c0.3852539,0.6201172,0.6821289,1.2866211,0.8906193,2
		C17.8955078,29.5029297,18,30.2397461,18,31h-2c0-0.8227539-0.1591797-1.5986328-0.4765625-2.328125
		c-0.3178711-0.7290039-0.7475586-1.3642578-1.2890625-1.90625c-0.5419922-0.5415039-1.1772461-0.9711914-1.90625-1.2890625
		C11.5986328,25.1591797,10.8227539,25,10,25c-0.8232422,0-1.5991211,0.1591797-2.328125,0.4765625
		c-0.7294922,0.3178711-1.3647461,0.7475586-1.90625,1.2890625c-0.5419922,0.5419922-0.9716797,1.1772461-1.2890625,1.90625
		C4.1586914,29.4013672,4,30.1772461,4,31H2c0-0.7602539,0.1040039-1.4970703,0.3124945-2.2109375
		c0.2080133-0.7133789,0.5048883-1.3798828,0.8906305-2c0.3852539-0.6196289,0.8515625-1.1821289,1.3984375-1.6875
		c0.546875-0.5048828,1.1586914-0.9296875,1.8359318-1.2734375c-0.7607365-0.5625-1.3569279-1.2705078-1.7890568-2.125
		C4.2158203,20.8491211,4,19.9482422,4,19c0-0.8227539,0.1586914-1.5986328,0.4765625-2.328125
		c0.3173828-0.7290039,0.7470703-1.3642578,1.2890625-1.90625c0.5415039-0.5415039,1.1767578-0.9711914,1.90625-1.2890625
		C8.4008789,13.1591797,9.1767578,13,10,13c0.9477539,0,1.8486328,0.2163086,2.703125,0.6484375
		c0.8540039,0.4326172,1.5625,1.0288086,2.125,1.7890625c0.3955078-0.78125,0.9008789-1.4790039,1.515625-2.09375
		c0.6142578-0.6142578,1.3125-1.1196289,2.0937443-1.515625c-0.7607365-0.5625-1.3569279-1.2705078-1.7890568-2.125
		C16.2158203,8.8491211,16,7.9482422,16,7c0-0.8227539,0.1586914-1.5986328,0.4765625-2.328125
		c0.3173828-0.7290039,0.7470703-1.3642578,1.2890625-1.90625c0.5415039-0.5415039,1.1767578-0.9711914,1.90625-1.2890625
		C20.4008789,1.1591797,21.1767578,1,22,1c0.8227539,0,1.5986328,0.1591797,2.328125,0.4765625
		c0.7290039,0.3178711,1.3642578,0.7475586,1.90625,1.2890625c0.5415039,0.5419922,0.9711914,1.1772461,1.2890625,1.90625
		C27.8408203,5.4013672,28,6.1772461,28,7c0,0.9482422-0.2163086,1.8491211-0.6484375,2.703125
		C26.9189453,10.5576172,26.3227539,11.265625,25.5624943,11.828125z M10,23c0.5415039,0,1.0571289-0.1064453,1.546875-0.3203125
		c0.4892578-0.2133789,0.9140625-0.5,1.2734375-0.859375s0.6455078-0.78125,0.859375-1.265625
		C13.8930664,20.0703125,14,19.5522461,14,19c0-0.5415039-0.1069336-1.0571289-0.3203125-1.546875
		c-0.2138672-0.4892578-0.5-0.9140625-0.859375-1.2734375s-0.7841797-0.6455078-1.2734375-0.859375
		C11.0571289,15.1069336,10.5415039,15,10,15c-0.5522461,0-1.0703125,0.1069336-1.5546875,0.3203125
		c-0.484375,0.2138672-0.90625,0.5-1.265625,0.859375s-0.6459961,0.7841797-0.859375,1.2734375
		C6.1064453,17.9428711,6,18.4584961,6,19c0,0.5522461,0.1064453,1.0703125,0.3203125,1.5546875
		c0.2133789,0.484375,0.5,0.90625,0.859375,1.265625s0.78125,0.6459961,1.265625,0.859375C8.9296875,22.8935547,9.4477539,23,10,23z
		 M18,7c0,0.5522461,0.1064453,1.0703125,0.3203125,1.5546875c0.2133789,0.484375,0.5,0.90625,0.859375,1.265625
		s0.78125,0.6459961,1.265625,0.859375C20.9296875,10.8935547,21.4477539,11,22,11
		c0.5415039,0,1.0571289-0.1064453,1.546875-0.3203125c0.4892578-0.2133789,0.9140625-0.5,1.2734375-0.859375
		s0.6455078-0.78125,0.859375-1.265625C25.8930664,8.0703125,26,7.5522461,26,7c0-0.5415039-0.1069336-1.0571289-0.3203125-1.546875
		c-0.2138672-0.4892578-0.5-0.9140625-0.859375-1.2734375s-0.7841797-0.6455078-1.2734375-0.859375
		C23.0571289,3.1069336,22.5415039,3,22,3c-0.5522461,0-1.0703125,0.1069336-1.5546875,0.3203125
		c-0.484375,0.2138672-0.90625,0.5-1.265625,0.859375s-0.6459961,0.7841797-0.859375,1.2734375
		C18.1064453,5.9428711,18,6.4584961,18,7z"/>
</g>
</svg>
