<?xml version="1.0" encoding="utf-8"?>
<!-- Generator: Adobe Illustrator 19.1.0, SVG Export Plug-In . SVG Version: 6.00 Build 0)  -->
<svg version="1.1" id="Layer_1" xmlns="http://www.w3.org/2000/svg" xmlns:xlink="http://www.w3.org/1999/xlink" x="0px" y="0px"
	 width="32px" height="32px" viewBox="0 0 32 32" style="enable-background:new 0 0 32 32;" xml:space="preserve">
<g>
	<path d="M31.203125,25.796875c0.2602539,0.2709961,0.4580078,0.6147461,0.59375,1.03125C31.9321289,27.2451172,32,27.6357422,32,28
		c0,0.28125-0.0522461,0.5419922-0.15625,0.78125c-0.1044922,0.2397461-0.2475586,0.4506836-0.4296875,0.6328125
		c-0.1826172,0.1826172-0.3935547,0.3256836-0.6328125,0.4296875C30.5415039,29.9482422,30.28125,30,30,30H2
		c-0.28125,0-0.5419922-0.0517578-0.78125-0.15625c-0.2397461-0.1040039-0.4506836-0.2470703-0.6328125-0.4296875
		C0.4033203,29.2319336,0.2602539,29.0209961,0.15625,28.78125C0.0517578,28.5419922,0,28.28125,0,28
		c0-0.1665039,0.015625-0.3461914,0.046875-0.5390625c0.03125-0.1923828,0.0751953-0.3876953,0.1328125-0.5859375
		c0.0571289-0.1977539,0.1298828-0.3828125,0.21875-0.5546875C0.4868164,26.1484375,0.59375,26,0.71875,25.875L4,22.578125V8h12v2H6
		v12h20v-4h2v4.578125L31.203125,25.796875z M30,29c0-0.1040039,0.0024414-0.2421875,0.0078125-0.4140625
		c0.0048828-0.171875,0.0024414-0.3486328-0.0078125-0.53125c-0.0107422-0.1821289-0.0366211-0.359375-0.078125-0.53125
		C29.8798828,27.3515625,29.8124943,27.21875,29.71875,27.125L26.578125,24H5.421875l-3.21875,3.203125
		c-0.03125,0.03125-0.0600586,0.0834961-0.0859375,0.15625c-0.0263672,0.0732422-0.046875,0.1484375-0.0625,0.2265625
		s-0.0288086,0.15625-0.0390625,0.234375C2.0048828,27.8984375,2,27.9584961,2,28h28V29z M32,12.578125V16H16v-3.421875l2-2V2h12
		v8.578125L32,12.578125z M30,13.421875L28.578125,12h-9.15625L18,13.421875V14h12V13.421875z M20,10h8V4h-8V10z"/>
</g>
</svg>
