<?xml version="1.0" encoding="utf-8"?>
<!-- Generator: Adobe Illustrator 19.1.0, SVG Export Plug-In . SVG Version: 6.00 Build 0)  -->
<svg version="1.1" id="Layer_1" xmlns="http://www.w3.org/2000/svg" xmlns:xlink="http://www.w3.org/1999/xlink" x="0px" y="0px"
	 width="32px" height="32px" viewBox="0 0 32 32" style="enable-background:new 0 0 32 32;" xml:space="preserve">
<g>
	<g>
		<rect x="11" y="9" width="2" height="2"/>
		<rect x="7" y="21" width="2" height="2"/>
		<rect x="7" y="9" width="2" height="2"/>
		<rect x="15" y="9" width="2" height="2"/>
		<rect x="7" y="17" width="2" height="2"/>
		<rect x="7" y="13" width="2" height="2"/>
		<rect x="7" y="5" width="2" height="2"/>
		<rect x="19" y="29" width="2" height="2"/>
		<rect x="15" y="1" width="2" height="2"/>
		<rect x="23" y="1" width="2" height="2"/>
		<rect x="11" y="1" width="2" height="2"/>
		<rect x="19" y="1" width="2" height="2"/>
		<rect x="23" y="9" width="2" height="2"/>
		<rect x="7" y="1" width="2" height="2"/>
		<rect x="23" y="17" width="2" height="2"/>
		<rect x="23" y="13" width="2" height="2"/>
		<rect x="23" y="5" width="2" height="2"/>
		<rect x="7" y="25" width="2" height="2"/>
		<rect x="7" y="29" width="2" height="2"/>
		<rect x="23" y="29" width="2" height="2"/>
		<rect x="11" y="29" width="2" height="2"/>
		<rect x="15" y="29" width="2" height="2"/>
		<rect x="23" y="25" width="2" height="2"/>
		<rect x="19" y="9" width="2" height="2"/>
		<rect x="23" y="21" width="2" height="2"/>
	</g>
	<rect x="19" y="5" width="2" height="2"/>
</g>
<g>
</g>
<g>
</g>
<g>
</g>
<g>
</g>
<g>
</g>
<g>
</g>
<g>
</g>
<g>
</g>
<g>
</g>
<g>
</g>
<g>
</g>
<g>
</g>
<g>
</g>
<g>
</g>
<g>
</g>
</svg>
