<?xml version="1.0" encoding="utf-8"?>
<!-- Generator: Adobe Illustrator 19.1.0, SVG Export Plug-In . SVG Version: 6.00 Build 0)  -->
<svg version="1.1" id="Layer_1" xmlns="http://www.w3.org/2000/svg" xmlns:xlink="http://www.w3.org/1999/xlink" x="0px" y="0px"
	 width="32px" height="32px" viewBox="0 0 32 32" style="enable-background:new 0 0 32 32;" xml:space="preserve">
<g>
	<path d="M20,7c0.1665039,0,0.3173828,0.0366211,0.453125,0.109375L32,12.875V15
		c-0.2709961,0-0.5053711,0.0991211-0.703125,0.296875C31.0986328,15.4951172,31,15.7294922,31,16v2
		c0,0.96875-0.1850586,1.8779297-0.5546875,2.7265625c-0.3701172,0.8491211-0.8701172,1.5888672-1.5,2.21875
		c-0.6303711,0.6303711-1.3701172,1.1303711-2.21875,1.5C25.8774414,24.8154297,24.96875,25,24,25
		s-1.8779297-0.1845703-2.7265625-0.5546875c-0.8491211-0.3696289-1.5888672-0.8696289-2.21875-1.5
		c-0.6303711-0.6298828-1.1303711-1.3696289-1.5-2.21875C17.1845703,19.8779297,17,18.96875,17,18
		c0-0.2705078-0.0991211-0.5048828-0.296875-0.703125C16.5048828,17.0991211,16.2705078,17,16,17
		c-0.2709961,0-0.5053711,0.0991211-0.703125,0.296875C15.0986328,17.4951172,15,17.7294922,15,18
		c0,0.96875-0.1850586,1.8779297-0.5546875,2.7265625c-0.3701172,0.8491211-0.8701172,1.5888672-1.5,2.21875
		c-0.6303711,0.6303711-1.3701172,1.1303711-2.21875,1.5C9.8774414,24.8154297,8.96875,25,8,25
		s-1.8779297-0.1845703-2.7265625-0.5546875c-0.8491211-0.3696289-1.5888672-0.8696289-2.21875-1.5
		c-0.6303711-0.6298828-1.1303711-1.3696289-1.5-2.21875C1.1845703,19.8779297,1,18.96875,1,18v-2
		c0-0.2705078-0.0991211-0.5048828-0.296875-0.703125C0.5048828,15.0991211,0.2705078,15,0,15v-2.125l11.546875-5.765625
		C11.6821289,7.0366211,11.8330078,7,12,7c0.2705078,0,0.5048828,0.0991211,0.703125,0.296875
		c0.1040039,0.1044922,0.2314453,0.2216797,0.3828125,0.3515625C13.2368164,7.7788086,13.3798828,7.9169922,13.515625,8.0625
		c0.1352539,0.1459961,0.25,0.296875,0.34375,0.453125S14,8.8334961,14,9c0,0.2709961-0.0991211,0.5053711-0.296875,0.703125
		C13.5048828,9.9013672,13.2705078,10,13,10c-0.2607422,0-0.4819336-0.0859375-0.6640625-0.2578125
		c-0.1826172-0.171875-0.3623047-0.3461914-0.5390625-0.5234375L4.234375,13H12
		c0.3955078,0,0.7368164,0.0498047,1.0234375,0.1484375c0.2861328,0.0991211,0.5415039,0.2216797,0.765625,0.3671875
		C14.0126953,13.6616211,14.2133789,13.8232422,14.390625,14c0.1767578,0.1772461,0.3461914,0.3388672,0.5078125,0.484375
		c0.1611328,0.1459961,0.3305664,0.2685547,0.5078125,0.3671875C15.5830078,14.9506836,15.78125,15,16,15
		s0.4165039-0.0493164,0.59375-0.1484375c0.1767578-0.0986328,0.3461914-0.2211914,0.5078125-0.3671875
		C17.2626953,14.3388672,17.4321289,14.1772461,17.609375,14c0.1767578-0.1767578,0.3774414-0.3383789,0.6015625-0.484375
		c0.2236328-0.1455078,0.4790039-0.2680664,0.765625-0.3671875C19.2626953,13.0498047,19.6040039,13,20,13h7.765625l-7.5625-3.78125
		c-0.1772461,0.1772461-0.3569336,0.3515625-0.5390625,0.5234375C19.4814453,9.9140625,19.2602539,10,19,10
		c-0.2709961,0-0.5053711-0.0986328-0.703125-0.296875C18.0986328,9.5053711,18,9.2709961,18,9
		c0-0.1665039,0.046875-0.328125,0.140625-0.484375s0.2080078-0.3071289,0.34375-0.453125
		c0.1352539-0.1455078,0.2783203-0.2836914,0.4296875-0.4140625c0.1508789-0.1298828,0.2783203-0.2470703,0.3828125-0.3515625
		C19.4946289,7.0991211,19.7290039,7,20,7z M13,17c0-0.2705078-0.0522461-0.5283203-0.15625-0.7734375
		c-0.1044922-0.2446289-0.2475586-0.4580078-0.4296875-0.640625c-0.1826172-0.1821289-0.3959961-0.3251953-0.640625-0.4296875
		C11.5283203,15.0522461,11.2705078,15,11,15H4c-0.2709961,0-0.5053711,0.0991211-0.703125,0.296875
		C3.0986328,15.4951172,3,15.7294922,3,16v2c0,0.6875,0.1298828,1.3359375,0.390625,1.9453125
		c0.2602539,0.609375,0.6171875,1.140625,1.0703125,1.59375s0.984375,0.8100586,1.59375,1.0703125
		C6.6640625,22.8701172,7.3124943,23,8,23c0.6874943,0,1.3330078-0.1298828,1.9374943-0.390625
		c0.6040096-0.2602539,1.1328182-0.6171875,1.5859432-1.0703125s0.8125-0.984375,1.078125-1.59375S13,18.6875,13,18V17z M24,23
		c0.6874943,0,1.3330078-0.1298828,1.9374943-0.390625c0.6040096-0.2602539,1.1328182-0.6171875,1.5859432-1.0703125
		s0.8125-0.984375,1.078125-1.59375S29,18.6875,29,18c0-0.2290039-0.0053711-0.4736328-0.015625-0.734375
		c-0.0107422-0.2602539-0.015625-0.5205078-0.015625-0.78125c0-0.2602539,0.0126953-0.5180664,0.0390625-0.7734375
		C29.0336914,15.4560547,29.0883789,15.21875,29.171875,15H21c-0.2709961,0-0.5288086,0.0522461-0.7734375,0.15625
		c-0.2451172,0.1044922-0.4584961,0.2475586-0.640625,0.4296875c-0.1826172,0.1826172-0.3256836,0.3959961-0.4296875,0.640625
		C19.0517578,16.4716797,19,16.7294922,19,17v1c0,0.6875,0.1298828,1.3359375,0.390625,1.9453125
		c0.2602539,0.609375,0.6171875,1.140625,1.0703125,1.59375s0.984375,0.8100586,1.59375,1.0703125
		C22.6640625,22.8701172,23.3124943,23,24,23z"/>
</g>
</svg>
