<?xml version="1.0" encoding="utf-8"?>
<!-- Generator: Adobe Illustrator 19.1.0, SVG Export Plug-In . SVG Version: 6.00 Build 0)  -->
<svg version="1.1" id="Layer_1" xmlns="http://www.w3.org/2000/svg" xmlns:xlink="http://www.w3.org/1999/xlink" x="0px" y="0px"
	 width="32px" height="32px" viewBox="0 0 32 32" style="enable-background:new 0 0 32 32;" xml:space="preserve">
<g>
	<path d="M16,0c1.46875,0,2.8852539,0.1904297,4.25,0.5703125c1.3642578,0.3803711,2.6376953,0.9194336,3.8203125,1.6171875
		c1.1821289,0.6982422,2.2602539,1.5341797,3.234375,2.5078125c0.9736328,0.9741211,1.8095703,2.0522461,2.5078068,3.234375
		c0.6977596,1.1826172,1.2368221,2.4560547,1.6171932,3.8203125C31.8095703,13.1147461,32,14.53125,32,16
		s-0.1904297,2.8857422-0.5703125,4.25c-0.3803711,1.3647461-0.9194336,2.6381836-1.6171932,3.8203125
		c-0.6982365,1.1826172-1.534174,2.2607422-2.5078068,3.234375c-0.9741211,0.9741211-2.0522461,1.8100586-3.234375,2.5078125
		c-1.1826172,0.6982422-2.4560547,1.2373047-3.8203125,1.6171875C18.8852539,31.8100586,17.46875,32,16,32
		s-2.8857422-0.1899414-4.25-0.5703125c-1.3647461-0.3798828-2.640625-0.9165039-3.828125-1.609375
		c-1.1875-0.6923828-2.2685547-1.5258789-3.2421875-2.5c-0.9741211-0.9736328-1.8076172-2.0546875-2.5-3.2421875
		c-0.6928711-1.1875-1.2294922-2.4609375-1.609375-3.8203125C0.1899414,18.8984375,0,17.4794922,0,16
		c0-1.46875,0.1899414-2.8852539,0.5703125-4.25c0.3798828-1.3642578,0.9189453-2.6376953,1.617182-3.8203125
		c0.6977594-1.1821289,1.5336969-2.2602539,2.507818-3.234375C5.6689453,3.7216797,6.7470703,2.8857422,7.9296875,2.1875
		C9.1118164,1.4897461,10.3852539,0.9506836,11.75,0.5703125C13.1142578,0.1904297,14.53125,0,16,0z M16,30
		c1.2915039,0,2.5336914-0.1665039,3.7265625-0.5c1.1923828-0.3330078,2.3071289-0.8046875,3.34375-1.4140625
		c1.0361328-0.609375,1.9790039-1.3383789,2.828125-2.1875c0.8486328-0.8486328,1.578125-1.7915039,2.1875-2.828125
		c0.609375-1.0361328,1.0805664-2.1508789,1.4140625-3.34375C29.8330078,18.5341797,30,17.2919922,30,16
		c0-1.2915039-0.1669922-2.5336914-0.5-3.7265625c-0.3334961-1.1923828-0.8046875-2.3071289-1.4140625-3.34375
		c-0.609375-1.0361328-1.3388672-1.9790039-2.1875-2.828125c-0.8491211-0.8486328-1.7919922-1.578125-2.828125-2.1875
		C22.0336914,3.3046875,20.9189453,2.8334961,19.7265625,2.5C18.5336914,2.1669922,17.2915039,2,16,2
		c-1.2919922,0-2.5341797,0.1669922-3.7265625,0.5c-1.1928711,0.3334961-2.3076172,0.8046875-3.34375,1.4140625
		c-1.0366211,0.609375-1.9794922,1.3388672-2.828125,2.1875c-0.8491211,0.8491211-1.578125,1.7919922-2.1875,2.828125
		C3.3046875,9.9663086,2.8330078,11.0810547,2.5,12.2734375C2.1665039,13.4663086,2,14.7084961,2,16
		c0,1.2919922,0.1665039,2.5341797,0.5,3.7265625c0.3330078,1.1928711,0.8017578,2.3076172,1.40625,3.34375
		c0.6040039,1.0366211,1.3330078,1.9819336,2.1875,2.8359375c0.8540039,0.8544922,1.7993164,1.5834961,2.8359375,2.1875
		c1.0361328,0.6044922,2.1508789,1.0732422,3.34375,1.40625C13.4658203,29.8334961,14.7080078,30,16,30z M10.234375,17.546875
		c0.0102539-0.09375,0.0205078-0.1845703,0.03125-0.2734375c0.0102539-0.0883789,0.0258789-0.1743164,0.0468693-0.2578125
		L10.90625,14h1.328125l-1.328125,4.640625h-1.5l-0.6875-2.71875c-0.0209961-0.09375-0.0366211-0.1899414-0.046875-0.2890625
		c-0.0107422-0.0986328-0.0209961-0.2001953-0.03125-0.3046875h-0.03125c-0.0107422,0.1982422-0.0419922,0.390625-0.09375,0.578125
		l-0.71875,2.734375H6.3124943L5,14h1.453125l0.640625,3.015625c0.0205078,0.0834961,0.0336914,0.1694336,0.0390625,0.2578125
		C7.1376953,17.3623047,7.1455078,17.4482422,7.15625,17.53125h0.0312443
		c0.0102596-0.0830078,0.0205135-0.171875,0.0312557-0.265625C7.2290039,17.171875,7.2446289,17.0834961,7.265625,17l0.7968693-3
		H9.421875l0.71875,3.015625c0.0205078,0.0834961,0.0336914,0.171875,0.0390625,0.265625
		c0.0048828,0.09375,0.0126953,0.1826172,0.0234375,0.265625H10.234375z M17.625,17.546875
		c0-0.0830078,0.0048828-0.171875,0.015625-0.265625c0.0102539-0.09375,0.0258789-0.1821289,0.0468693-0.265625L18.296875,14H19.625
		l-1.34375,4.640625h-1.5l-0.6875-2.71875c-0.0209961-0.09375-0.0366211-0.1923828-0.046875-0.296875
		c-0.0107422-0.1040039-0.0209961-0.203125-0.03125-0.296875H16c-0.0834961,0.5625-0.2060547,1.1171875-0.3671875,1.6640625
		c-0.1616211,0.546875-0.3154297,1.0966797-0.4609375,1.6484375h-1.4843807L12.375,14h1.46875l0.625,3.015625
		c0.0205078,0.0834961,0.0361328,0.1694336,0.046875,0.2578125c0.0102539,0.0888672,0.0205078,0.1748047,0.03125,0.2578125
		h0.0156193C14.5727539,17.3544922,14.6040039,17.1772461,14.65625,17l0.796875-3h1.3593693
		c0.1455135,0.59375,0.293951,1.1826172,0.4453182,1.765625c0.1508789,0.5834961,0.2626953,1.1772461,0.3359375,1.78125H17.625z
		 M25,17.546875c0.0102539-0.09375,0.0205078-0.1845703,0.03125-0.2734375
		c0.0102539-0.0883789,0.0258789-0.1743164,0.046875-0.2578125L25.671875,14H27l-1.328125,4.640625H24.15625l-0.671875-2.71875
		c-0.0209961-0.1040039-0.0390625-0.203125-0.0546875-0.296875S23.40625,15.4326172,23.40625,15.328125H23.375
		c-0.0107422,0.1982422-0.0419922,0.390625-0.09375,0.578125l-0.734375,2.734375h-1.4843807L19.765625,14h1.453125
		l0.640625,3.015625c0.0205078,0.0834961,0.0336914,0.1694336,0.0390625,0.2578125
		c0.0048828,0.0888672,0.0126953,0.1748047,0.0234375,0.2578125h0.03125c0.0102539-0.0830078,0.0205078-0.171875,0.03125-0.265625
		C21.9946289,17.171875,22.0102539,17.0834961,22.03125,17l0.796875-3h1.3593693l0.7187557,3.015625
		c0.0205078,0.0834961,0.0336914,0.171875,0.0390625,0.265625c0.0048828,0.09375,0.0126953,0.1826172,0.0234375,0.265625H25z"/>
</g>
</svg>
