<?xml version="1.0" encoding="utf-8"?>
<!-- Generator: Adobe Illustrator 19.1.0, SVG Export Plug-In . SVG Version: 6.00 Build 0)  -->
<svg version="1.1" id="Layer_1" xmlns="http://www.w3.org/2000/svg" xmlns:xlink="http://www.w3.org/1999/xlink" x="0px" y="0px"
	 width="32px" height="32px" viewBox="0 0 32 32" style="enable-background:new 0 0 32 32;" xml:space="preserve">
<g>
	<path d="M32,5.234375c0,0.6875-0.1303711,1.3544922-0.390625,2c-0.2607422,0.6459961-0.640625,1.21875-1.140625,1.71875
		L9.890625,29.53125L0,32l2.46875-9.890625L23.046875,1.53125c0.5-0.5,1.0727539-0.8798828,1.71875-1.140625
		C25.4111328,0.1303711,26.078125,0,26.765625,0c0.71875,0,1.3955078,0.1381836,2.03125,0.4140625
		c0.6352539,0.2763672,1.1899414,0.6513672,1.6640625,1.125c0.4736328,0.4741211,0.8486328,1.0288086,1.125,1.6640625
		C31.8618164,3.8388672,32,4.515625,32,5.234375z M2.75,29.25l5.140625-1.28125
		c-0.1044922-0.4790039-0.2734375-0.9321289-0.5078125-1.359375c-0.234375-0.4267578-0.5185547-0.8071289-0.8515625-1.140625
		c-0.3334961-0.3330078-0.7138672-0.6171875-1.140625-0.8515625c-0.4272461-0.234375-0.8803711-0.4033203-1.359375-0.5078125
		L2.75,29.25z M5.09375,22.3125c1.1040039,0.3647461,2.0546875,0.9453125,2.8515625,1.7421875
		s1.3774414,1.7475586,1.7421818,2.8515625L26.578125,10L22,5.421875L5.09375,22.3125z M28,8.578125
		c0.2602539-0.2602539,0.5102539-0.5048828,0.75-0.734375c0.2392578-0.2290039,0.453125-0.4711914,0.640625-0.7265625
		c0.1875-0.2548828,0.3359375-0.53125,0.4453125-0.828125S30,5.6459961,30,5.25
		c0-0.4477539-0.0859375-0.8671875-0.2578125-1.2578125s-0.40625-0.734375-0.703125-1.03125s-0.640625-0.53125-1.03125-0.703125
		S27.1977539,2,26.75,2c-0.3959961,0-0.7421875,0.0546875-1.0390625,0.1640625s-0.5732422,0.2578125-0.828125,0.4453125
		C24.6274414,2.796875,24.3852539,3.0107422,24.15625,3.25C23.9267578,3.4897461,23.6821289,3.7397461,23.421875,4L28,8.578125z"/>
</g>
</svg>
