<?xml version="1.0" encoding="UTF-8" standalone="no"?>
<!DOCTYPE svg PUBLIC "-//W3C//DTD SVG 1.1//EN" "http://www.w3.org/Graphics/SVG/1.1/DTD/svg11.dtd">
<!-- Generated by Microsoft Visio, SVG Export Users.svg Page-1 -->
<svg xmlns="http://www.w3.org/2000/svg" xmlns:xlink="http://www.w3.org/1999/xlink" xmlns:ev="http://www.w3.org/2001/xml-events"
		xmlns:v="http://schemas.microsoft.com/visio/2003/SVGExtensions/" width="0.767635in" height="0.834233in"
		viewBox="0 0 55.2697 60.0648" xml:space="preserve" color-interpolation-filters="sRGB" class="st3">
	<v:documentProperties v:langID="2057" v:metric="true" v:viewMarkup="false"/>

	<style type="text/css">
	<![CDATA[
		.st1 {fill:#ffffff;stroke:none;stroke-linecap:round;stroke-linejoin:round;stroke-width:0.75}
		.st2 {fill:#ffffff;stroke:none;stroke-linecap:round;stroke-linejoin:round;stroke-width:0.75}
		.st3 {fill:none;fill-rule:evenodd;font-size:12px;overflow:visible;stroke-linecap:square;stroke-miterlimit:3}
	]]>
	</style>

	<g v:mID="0" v:index="1" v:groupContext="foregroundPage">
		<title>Page-1</title>
		<v:pageProperties v:drawingScale="0.0393701" v:pageScale="0.0393701" v:drawingUnits="24" v:shadowOffsetX="8.50394"
				v:shadowOffsetY="-8.50394"/>
		<v:layer v:name="Azure" v:index="0"/>
		<g id="group1-1" transform="translate(0.375,-18.8)" v:mID="1" v:groupContext="group" v:layerMember="0">
			<title>User Group</title>
			<g id="shape2-2" v:mID="2" v:groupContext="shape" v:layerMember="0">
				<title>Sheet.2</title>
				<path d="M18.33 60.06 L54.52 60.06 L54.43 58.18 C54.24 55.49 53.6 49.93 53.05 47.42 C52.49 44.73 51.76 42.4 48.72
							 40.96 C46.32 39.8 45.13 39.35 44.02 39.35 C43.38 39.35 42.82 39.53 42.36 39.71 L42.36 39.26 C44.76 37.29
							 46.32 34.24 46.32 30.74 C46.32 24.91 41.9 20.07 36.38 20.07 C30.94 20.07 26.43 24.82 26.43 30.74 C26.43
							 32.8 26.98 34.78 28 36.48 C26.25 35.67 25.14 35.32 24.31 35.32 C23.85 35.32 23.48 35.41 23.12 35.5 L23.12
							 35.14 C24.96 33.43 26.06 31.01 26.06 28.32 C26.06 23.3 22.1 19.17 17.13 19.17 C12.25 19.17 8.2 23.3
							 8.2 28.32 C8.2 31.1 9.39 33.61 11.33 35.32 L11.33 35.58 C10.96 35.41 10.5 35.32 10.04 35.32 C9.03 35.32
							 7.83 35.67 5.53 36.84 C2.67 38.27 1.93 40.61 1.38 43.03 C0.83 45.45 0.28 50.74 0.09 53.25 L0 55.13 L18.6
							 55.13 C18.51 56.3 18.42 57.37 18.33 58.18 L18.33 60.06 Z" class="st1"/>
			</g>
			<g id="group3-4" transform="translate(2.02607,-1.79341)" v:mID="3" v:groupContext="group" v:layerMember="0">
				<title>Sheet.3</title>
				<g id="shape4-5" v:mID="4" v:groupContext="shape" v:layerMember="0" transform="translate(18.3267,1.91847E-13)">
					<title>Sheet.4</title>
					<path d="M0 60.06 C0.18 57.46 0.83 51.99 1.29 49.57 C1.93 46.79 2.58 45.36 4.6 44.28 C6.63 43.3 7.74 42.94 8.47
								 42.94 C9.12 42.94 9.49 43.21 9.95 43.66 C10.04 43.74 10.04 43.74 10.13 43.83 C12.16 45.54 14.09
								 45.9 16.02 45.9 C18.05 45.9 19.98 45.54 21.92 43.83 C22.01 43.74 22.01 43.74 22.1 43.66 C22.56 43.3
								 22.93 42.94 23.58 42.94 C24.31 42.94 25.42 43.3 27.44 44.28 C29.56 45.27 30.21 46.79 30.76 49.57
								 C31.31 51.99 31.96 57.46 32.05 60.06 L0 60.06 ZM16.12 41.32 C11.7 41.32 8.01 37.38 8.01 32.45 C8.01
								 27.6 11.6 23.57 16.12 23.57 C20.54 23.57 24.22 27.51 24.22 32.45 C24.22 37.38 20.54 41.32 16.12
								 41.32 Z" class="st2"/>
				</g>
				<g id="group5-7" transform="translate(0,-5.02155)" v:mID="5" v:groupContext="group" v:layerMember="0">
					<title>Sheet.5</title>
					<g id="shape6-8" v:mID="6" v:groupContext="shape" v:layerMember="0">
						<title>Sheet.6</title>
						<path d="M22.1 47.51 C24.5 46.35 25.79 45.9 26.89 45.9 C26.98 45.9 27.08 45.9 27.17 45.9 C26.8 45.63 26.43
									 45.36 25.97 45.18 C24.04 44.19 23.02 43.83 22.29 43.83 C21.64 43.83 21.37 44.1 20.91 44.46 C20.81
									 44.55 20.81 44.55 20.72 44.64 C18.88 46.26 17.04 46.52 15.2 46.52 C13.35 46.52 11.51 46.26 9.67
									 44.64 C9.58 44.55 9.58 44.55 9.49 44.46 C9.03 44.1 8.75 43.83 8.1 43.83 C7.46 43.83 6.35 44.19
									 4.42 45.18 C2.49 46.17 1.84 47.51 1.29 50.11 C0.74 52.44 0.18 57.55 0 60.06 L16.58 60.06 C16.85
									 57.82 17.13 55.49 17.5 54.06 C18.23 51.55 18.97 49.04 22.1 47.51 Z" class="st2"/>
					</g>
					<g id="shape7-10" v:mID="7" v:groupContext="shape" v:layerMember="0" transform="translate(8.19637,-17.5754)">
						<title>Sheet.7</title>
						<path d="M7.09 60.06 C10.96 60.06 14.18 56.75 14.18 52.71 C14.18 48.68 11.05 45.36 7.09 45.36 C3.22 45.36
									 0 48.68 0 52.71 C0 56.75 3.13 60.06 7.09 60.06 Z" class="st2"/>
					</g>
				</g>
			</g>
		</g>
	</g>
</svg>
