<?xml version="1.0" encoding="utf-8"?>
<!-- Generator: Adobe Illustrator 14.0.0, SVG Export Plug-In . SVG Version: 6.00 Build 43363)  -->
<!DOCTYPE svg PUBLIC "-//W3C//DTD SVG 1.0//EN" "http://www.w3.org/TR/2001/REC-SVG-20010904/DTD/svg10.dtd">
<svg version="1.0" id="Layer_1" xmlns="http://www.w3.org/2000/svg" xmlns:xlink="http://www.w3.org/1999/xlink" x="0px" y="0px"
	 width="100px" height="91.097px" viewBox="0 0 100 91.097" enable-background="new 0 0 100 91.097" xml:space="preserve">
<path d="M76.559,19.575v-6.364H55.515c0-3.394,0-6.093,0-7.696C55.515,2.47,53.045,0,50,0c-3.046,0-5.515,2.47-5.515,5.515
	c0,6.735,0,38.018,0,53.307c-2.314,1.697-3.822,4.43-3.822,7.521c0,5.158,4.181,9.338,9.337,9.338c5.157,0,9.338-4.18,9.338-9.338
	c0-3.091-1.51-5.823-3.823-7.521c0-2.396,0-5.183,0-8.208h21.044v-6.365H55.515c0-2.98,0-6.069,0-9.154h21.044V28.73H55.515
	c0-3.196,0-6.292,0-9.156H76.559z"/>
<g>
	<g>
		<path d="M97.498,61.896c-4.821-2.492-11.721-2.884-17.192,0c-4.015,2.117-8.283,2.573-12.631,1.521v7.239
			c4.348,1.052,8.616,0.598,12.631-1.521c5.472-2.883,12.371-2.494,17.192,0c0.772,0.401,1.617,0.757,2.502,1.067v-7.239
			C99.115,62.653,98.271,62.298,97.498,61.896z"/>
	</g>
	<g>
		<path d="M2.504,61.896c4.819-2.492,11.721-2.884,17.191,0c4.014,2.117,8.282,2.573,12.63,1.521v7.239
			c-4.348,1.052-8.616,0.598-12.63-1.521c-5.47-2.883-12.373-2.494-17.191,0C1.729,69.537,0.885,69.893,0,70.203v-7.239
			C0.885,62.653,1.729,62.298,2.504,61.896z"/>
	</g>
	<g>
		<path d="M17.69,81.971c4.099,2.836,8.678,2.98,12.918,0c4.239-2.979,8.818-2.836,12.917,0c4.099,2.836,8.678,2.98,12.915,0
			c4.241-2.979,8.82-2.836,12.919,0c4.1,2.836,8.679,2.98,12.918,0c3.718-2.614,7.701-2.823,11.391-0.918v6.946
			c-3.689-1.904-7.673-1.694-11.391,0.919c-4.239,2.98-8.818,2.836-12.918,0c-4.099-2.837-8.678-2.981-12.919,0
			c-4.237,2.98-8.816,2.836-12.915,0c-4.1-2.837-8.679-2.981-12.917,0c-4.24,2.98-8.819,2.836-12.918,0
			c-3.602-2.493-7.575-2.892-11.362-0.932V81.04C10.115,79.079,14.088,79.478,17.69,81.971z"/>
	</g>
</g>
</svg>
