<?xml version="1.0" encoding="utf-8"?>
<!-- Generator: Adobe Illustrator 14.0.0, SVG Export Plug-In . SVG Version: 6.00 Build 43363)  -->
<!DOCTYPE svg PUBLIC "-//W3C//DTD SVG 1.0//EN" "http://www.w3.org/TR/2001/REC-SVG-20010904/DTD/svg10.dtd">
<svg version="1.0" id="Layer_1" xmlns="http://www.w3.org/2000/svg" xmlns:xlink="http://www.w3.org/1999/xlink" x="0px" y="0px"
	 width="100px" height="100.001px" viewBox="0 0 100 100.001" enable-background="new 0 0 100 100.001" xml:space="preserve">
<path d="M4.743,4.743c-6.325,6.325-6.325,16.579,0,22.903L27.646,4.744C21.322-1.581,11.067-1.581,4.743,4.743z"/>
<rect x="17.852" y="3.134" transform="matrix(-0.7072 -0.707 0.707 -0.7072 19.3317 46.6648)" width="2.954" height="32.39"/>
<path d="M60.892,83.795L100,100.001L83.794,60.892l-49.88-49.88L11.011,33.915L60.892,83.795z M66.105,73.646
	c2.082-2.082,6.024-1.516,6.893-0.646c-0.868-0.869-1.435-4.81,0.646-6.893c2.082-2.082,6.243-2.824,6.243-2.824l9.311,22.471
	l-3.445,3.446l-22.471-9.312C63.282,79.888,64.023,75.728,66.105,73.646z"/>
</svg>
