<?xml version="1.0" encoding="UTF-8" standalone="no"?>
<svg
   xmlns:v="http://schemas.microsoft.com/visio/2003/SVGExtensions/"
   xmlns:dc="http://purl.org/dc/elements/1.1/"
   xmlns:cc="http://creativecommons.org/ns#"
   xmlns:rdf="http://www.w3.org/1999/02/22-rdf-syntax-ns#"
   xmlns:svg="http://www.w3.org/2000/svg"
   xmlns="http://www.w3.org/2000/svg"
   xmlns:sodipodi="http://sodipodi.sourceforge.net/DTD/sodipodi-0.dtd"
   xmlns:inkscape="http://www.inkscape.org/namespaces/inkscape"
   inkscape:version="1.0 (4035a4fb49, 2020-05-01)"
   sodipodi:docname="01. RoleManager.svg"
   id="svg51"
   version="1.1"
   class="st4"
   color-interpolation-filters="sRGB"
   xml:space="preserve"
   viewBox="0 0 42.520016 44.476731"
   height="0.61773276in"
   width="0.59055573in"><metadata
   id="metadata57"><rdf:RDF><cc:Work
       rdf:about=""><dc:format>image/svg+xml</dc:format><dc:type
         rdf:resource="http://purl.org/dc/dcmitype/StillImage" /></cc:Work></rdf:RDF></metadata><defs
   id="defs55" /><sodipodi:namedview
   inkscape:current-layer="svg51"
   inkscape:window-maximized="0"
   inkscape:window-y="163"
   inkscape:window-x="3241"
   inkscape:cy="41.245955"
   inkscape:cx="28.346464"
   inkscape:zoom="9.7757355"
   showgrid="false"
   id="namedview53"
   inkscape:window-height="1085"
   inkscape:window-width="1813"
   inkscape:pageshadow="2"
   inkscape:pageopacity="0"
   guidetolerance="10"
   gridtolerance="10"
   objecttolerance="10"
   borderopacity="1"
   bordercolor="#666666"
   pagecolor="#ffffff" />
	<v:documentProperties
   v:viewMarkup="false"
   v:metric="true"
   v:langID="2057" />

	<style
   id="style2"
   type="text/css">
	<![CDATA[
		.st1 {fill:#ffffff;stroke:none;stroke-linecap:round;stroke-linejoin:round;stroke-width:0.75}
		.st2 {fill:#FF9900;stroke:#ffffff;stroke-linecap:round;stroke-linejoin:round;stroke-width:0.75}
		.st3 {fill:#ffffff;stroke:none;stroke-linecap:round;stroke-linejoin:round;stroke-width:0.75}
		.st4 {fill:none;fill-rule:evenodd;font-size:12px;overflow:visible;stroke-linecap:square;stroke-miterlimit:3}
	]]>
	</style>

	<g
   transform="translate(-0.375,-1.4032537)"
   id="g49"
   v:groupContext="foregroundPage"
   v:index="1"
   v:mID="0">
		<title
   id="title4">Page-1</title>
		<v:pageProperties
   v:shadowOffsetY="-8.50394"
   v:shadowOffsetX="8.50394"
   v:drawingUnits="24"
   v:pageScale="0.0393701"
   v:drawingScale="0.0393701" />
		<v:layer
   v:index="0"
   v:name="Azure" />
		<g
   v:layerMember="0"
   v:groupContext="group"
   v:mID="1"
   transform="translate(0.375,-18.8)"
   id="group1-1">
			<title
   id="title6">User Permissions</title>
			<g
   v:layerMember="0"
   v:groupContext="group"
   v:mID="2"
   id="group2-2">
				<title
   id="title8">Sheet.2</title>
				<g
   v:layerMember="0"
   v:groupContext="group"
   v:mID="3"
   id="group3-3">
					<title
   id="title10">Sheet.3</title>
					<g
   v:layerMember="0"
   v:groupContext="group"
   v:mID="4"
   transform="translate(10.5049,-17.4292)"
   id="group4-4">
						<title
   id="title12">Sheet.4</title>
						<g
   v:layerMember="0"
   v:groupContext="shape"
   v:mID="5"
   id="shape5-5">
							<title
   id="title14">Sheet.5</title>
							<path
   id="path16"
   class="st1"
   d="M 9.88,38.03 C 3.59,39.52 0,46.41 1.8,53.3 c 1.79,6.88 8.08,11.38 14.37,9.88 6.29,-1.5 9.88,-8.39 8.08,-15.27 C 22.76,40.72 16.17,36.23 9.88,38.03 Z" />
						</g>
					</g>
					<g
   v:layerMember="0"
   v:groupContext="group"
   v:mID="6"
   id="group6-7">
						<title
   id="title20">Sheet.6</title>
						<g
   v:layerMember="0"
   v:groupContext="shape"
   v:mID="7"
   id="shape7-8">
							<title
   id="title22">Sheet.7</title>
							<path
   id="path24"
   class="st1"
   d="m 33.84,47.61 c -1.2,0 -2.4,2.09 -4.2,2.99 -1.79,0.9 -3.59,2.4 -8.68,0 C 15.87,48.21 15.27,46.11 11.08,46.11 6.89,46.11 0,53.6 0,64.68 h 42.52 c 0,0 -0.6,-7.49 -2.99,-11.38 -3,-5.69 -4.5,-5.69 -5.69,-5.69 z" />
						</g>
					</g>
				</g>
			</g>
			<g
   v:layerMember="0"
   v:groupContext="group"
   v:mID="8"
   transform="translate(24.6777,-2.31825)"
   id="group8-10">
				<title
   id="title30">Sheet.8</title>
				<g
   v:layerMember="0"
   v:groupContext="shape"
   v:mID="9"
   id="shape9-11">
					<title
   id="title32">Sheet.9</title>
					<path
   id="path34"
   class="st2"
   d="M 13,36.6 H 1.77 C 0.89,36.6 0,37.49 0,38.37 v 7.69 c 0,0.88 0.89,1.77 2.07,1.77 h 2.07 v 13.89 c 0,1.77 1.18,2.96 2.66,2.96 1.48,0 2.66,-1.19 2.66,-2.66 0.29,0 0.59,0 0.59,0 0,0 0,-1.48 0,-1.78 0,-0.59 0.89,-0.88 0.89,-0.88 0,0 0,-0.89 0,-0.89 -0.89,-0.3 -1.48,-0.89 -1.48,-1.18 V 56.4 c 0.29,-0.3 0.59,-0.59 0.59,-0.59 0.29,-0.3 0.89,-1.48 0.89,-1.48 0,0 -0.89,-1.18 -0.89,-1.48 -0.3,-0.29 -0.3,-0.88 -0.59,-1.18 v -0.59 c 0.29,-1.48 2.07,-2.95 2.07,-2.95 H 13 c 0.89,0 1.78,-0.89 1.78,-1.78 V 38.37 C 14.78,37.49 14.19,36.6 13,36.6 Z M 6.5,62.31 c 0,0.59 0,0.89 -0.59,0.89 -0.59,0 -0.59,-0.59 -0.59,-0.89 v -13 c 0,-0.59 0.3,-0.89 0.59,-0.89 0.59,0 0.59,0.59 0.59,0.89 z M 7.39,41.33 c -0.89,0 -1.77,-0.89 -1.77,-1.78 0,-0.88 0.88,-1.77 1.77,-1.77 0.89,0 1.77,0.89 1.77,1.77 0,0.89 -0.59,1.78 -1.77,1.78 z" />
				</g>
				<g
   transform="translate(5.24952,-1.5395)"
   v:layerMember="0"
   v:groupContext="shape"
   v:mID="10"
   id="shape10-13">
					<title
   id="title37">Sheet.10</title>
					<path
   id="path39"
   class="st3"
   d="M 0.6,64.68 C 0.3,64.68 0,64.38 0,64.08 V 50.6 C 0,50.3 0.3,50 0.6,50 c 0.3,0 0.6,0.3 0.6,0.6 v 13.78 c 0,0.3 -0.3,0.3 -0.6,0.3 z" />
				</g>
				<g
   transform="translate(5.61798,-23.3672)"
   v:layerMember="0"
   v:groupContext="shape"
   v:mID="11"
   id="shape11-15">
					<title
   id="title42">Sheet.11</title>
					<circle
   r="1.79661"
   id="ellipse44"
   class="st3"
   cy="62.878799"
   cx="1.79661" />
				</g>
			</g>
		</g>
	</g>
</svg>
