<?xml version="1.0" encoding="UTF-8" standalone="no"?>
<svg
   xmlns:v="http://schemas.microsoft.com/visio/2003/SVGExtensions/"
   xmlns:dc="http://purl.org/dc/elements/1.1/"
   xmlns:cc="http://creativecommons.org/ns#"
   xmlns:rdf="http://www.w3.org/1999/02/22-rdf-syntax-ns#"
   xmlns:svg="http://www.w3.org/2000/svg"
   xmlns="http://www.w3.org/2000/svg"
   xmlns:sodipodi="http://sodipodi.sourceforge.net/DTD/sodipodi-0.dtd"
   xmlns:inkscape="http://www.inkscape.org/namespaces/inkscape"
   width="0.497437in"
   height="0.37177241in"
   viewBox="0 0 35.815585 26.767591"
   xml:space="preserve"
   color-interpolation-filters="sRGB"
   class="st3"
   version="1.1"
   id="svg27"
   sodipodi:docname="08. Permissions.svg"
   inkscape:version="1.0.2 (e86c870879, 2021-01-15, custom)"><metadata
   id="metadata33"><rdf:RDF><cc:Work
       rdf:about=""><dc:format>image/svg+xml</dc:format><dc:type
         rdf:resource="http://purl.org/dc/dcmitype/StillImage" /></cc:Work></rdf:RDF></metadata><defs
   id="defs31" /><sodipodi:namedview
   pagecolor="#ffffff"
   bordercolor="#666666"
   borderopacity="1"
   objecttolerance="10"
   gridtolerance="10"
   guidetolerance="10"
   inkscape:pageopacity="0"
   inkscape:pageshadow="2"
   inkscape:window-width="1275"
   inkscape:window-height="910"
   id="namedview29"
   showgrid="false"
   inkscape:zoom="13.576991"
   inkscape:cx="20.22087"
   inkscape:cy="22.853888"
   inkscape:window-x="797"
   inkscape:window-y="30"
   inkscape:window-maximized="0"
   inkscape:current-layer="svg27" />
	<v:documentProperties
   v:langID="2057"
   v:metric="true"
   v:viewMarkup="false">
		<v:userDefs>
			<v:ud
   v:nameU="msvNoAutoConnect"
   v:val="VT0(1):26" />
		</v:userDefs>
	</v:documentProperties>

	<style
   type="text/css"
   id="style2">
	<![CDATA[
		.st1 {fill:#ffffff;stroke:#ffffff;stroke-linecap:round;stroke-linejoin:round;stroke-width:0.75}
		.st2 {fill:#ffd965;stroke:none;stroke-linecap:round;stroke-linejoin:round;stroke-width:0.75}
		.st3 {fill:none;fill-rule:evenodd;font-size:12px;overflow:visible;stroke-linecap:square;stroke-miterlimit:3}
	]]>
	</style>

	<g
   v:mID="0"
   v:index="1"
   v:groupContext="foregroundPage"
   id="g25"
   transform="translate(-18.493713,-29.820089)">
		<title
   id="title4">Page-1</title>
		<v:pageProperties
   v:drawingScale="0.0393701"
   v:pageScale="0.0393701"
   v:drawingUnits="24"
   v:shadowOffsetX="8.50394"
   v:shadowOffsetY="-8.50394" />
		<v:layer
   v:name="Azure"
   v:index="0" />
		<g
   id="group1-1"
   transform="rotate(-120,18.578745,40.607223)"
   v:mID="1"
   v:groupContext="group"
   v:layerMember="0">
			<title
   id="title6">Key, Permissions (Stackable).23</title>
			<g
   id="group2-2"
   v:mID="2"
   v:groupContext="group"
   v:layerMember="0">
				<title
   id="title8">Sheet.2</title>
				<g
   id="shape3-3"
   v:mID="3"
   v:groupContext="shape"
   v:layerMember="0">
					<title
   id="title10">Sheet.3</title>
					<path
   d="M 16.11,39.86 H 2.33 C 1.07,39.86 0,40.92 0,42.18 v 9.61 c 0,1.26 1.07,2.33 2.43,2.33 h 2.71 v 17.17 c 0,2.23 1.36,3.78 3.3,3.78 1.75,0 3.11,-1.36 3.3,-3.2 0.48,-0.1 0.87,-0.1 0.87,-0.1 0,0 0.1,-1.74 0,-2.32 -0.09,-0.59 1.07,-1.27 1.07,-1.27 0,0 0.1,-0.97 0,-1.06 -1.07,-0.58 -1.65,-0.97 -1.94,-1.46 V 64.5 c 0.29,-0.39 0.68,-0.68 0.78,-0.88 0.38,-0.48 1.26,-1.84 1.26,-1.84 0,0 -0.97,-1.45 -1.17,-1.74 -0.48,-0.59 -0.77,-1.17 -0.87,-1.65 v -0.88 c 0.29,-1.94 2.52,-3.59 2.52,-3.59 h -2.52 4.46 c 1.17,0 2.23,-0.97 2.23,-2.23 v -9.6 c -0.09,-1.17 -1.06,-2.23 -2.32,-2.23 z"
   class="st1"
   id="path12" />
				</g>
			</g>
			<g
   id="group4-5"
   v:mID="4"
   v:groupContext="group"
   v:layerMember="0">
				<title
   id="title16">Sheet.4</title>
				<g
   id="shape5-6"
   v:mID="5"
   v:groupContext="shape"
   v:layerMember="0">
					<title
   id="title18">Sheet.5</title>
					<path
   d="M 16.11,39.86 H 2.33 C 1.07,39.86 0,40.92 0,42.18 v 9.61 c 0,1.26 1.07,2.33 2.43,2.33 h 2.71 v 17.17 c 0,2.23 1.36,3.78 3.3,3.78 1.75,0 3.11,-1.36 3.3,-3.2 0.48,-0.1 0.87,-0.1 0.87,-0.1 0,0 0.1,-1.74 0,-2.32 -0.09,-0.59 1.07,-1.27 1.07,-1.27 0,0 0.1,-0.97 0,-1.06 -1.07,-0.58 -1.65,-0.97 -1.94,-1.46 V 64.5 c 0.29,-0.39 0.68,-0.68 0.78,-0.88 0.38,-0.48 1.26,-1.84 1.26,-1.84 0,0 -0.97,-1.45 -1.17,-1.74 -0.48,-0.59 -0.77,-1.17 -0.87,-1.65 v -0.88 c 0.29,-1.94 2.52,-3.59 2.52,-3.59 h -2.52 4.46 c 1.17,0 2.23,-0.97 2.23,-2.23 v -9.6 C 18.34,40.92 17.37,39.86 16.11,39.86 Z M 8.15,71.68 c 0,0.58 -0.1,1.26 -0.78,1.26 -0.68,0 -0.77,-0.68 -0.77,-1.26 V 55.77 c 0,-0.59 0.19,-1.27 0.77,-1.27 0.59,0 0.78,0.68 0.78,1.27 z m 1.07,-26 c -1.17,0 -2.14,-0.97 -2.14,-2.14 0,-1.16 0.97,-2.13 2.14,-2.13 1.16,0 2.13,0.97 2.13,2.13 0,1.17 -1.07,2.14 -2.13,2.14 z"
   class="st2"
   id="path20" />
				</g>
			</g>
		</g>
	</g>
</svg>
